<svg id="No_Address_yet_" data-name="No Address yet!" xmlns="http://www.w3.org/2000/svg" width="235" height="235" viewBox="0 0 235 235">
  <rect id="Square" width="235" height="235" fill="none"/>
  <g id="Image" transform="translate(0 29.937)">
    <g id="group">
      <g id="Group_7673" data-name="Group 7673">
        <g id="Group_7659" data-name="Group 7659">
          <g id="Group_7658" data-name="Group 7658">
            <g id="Group_7657" data-name="Group 7657">
              <rect id="Rectangle_17532" data-name="Rectangle 17532" width="235" height="0.117" transform="translate(0 153.899)" fill="#d1e3ff"/>
              <rect id="Rectangle_17533" data-name="Rectangle 17533" width="4.927" height="0.117" transform="translate(76.07 156.738)" fill="#d1e3ff"/>
              <rect id="Rectangle_17534" data-name="Rectangle 17534" width="17.831" height="0.117" transform="translate(201.277 159.822)" fill="#d1e3ff"/>
              <rect id="Rectangle_17535" data-name="Rectangle 17535" width="14.412" height="0.117" transform="translate(149.148 156.796)" fill="#d1e3ff"/>
              <rect id="Rectangle_17536" data-name="Rectangle 17536" width="25.079" height="0.117" transform="translate(88.882 159.476)" fill="#d1e3ff"/>
              <rect id="Rectangle_17537" data-name="Rectangle 17537" width="8.621" height="0.117" transform="translate(57.027 158.732)" fill="#d1e3ff"/>
              <rect id="Rectangle_17538" data-name="Rectangle 17538" width="7.171" height="0.117" transform="translate(191.837 159.822)" fill="#d1e3ff"/>
              <rect id="Rectangle_17539" data-name="Rectangle 17539" width="23.768" height="0.117" transform="translate(30.518 158.673)" fill="#d1e3ff"/>
              <path id="Path_13868" data-name="Path 13868" d="M131.646,187.891H40.89a2.686,2.686,0,0,1-2.683-2.683V57.635a2.686,2.686,0,0,1,2.683-2.682h90.757a2.686,2.686,0,0,1,2.682,2.682V185.208A2.686,2.686,0,0,1,131.646,187.891ZM40.89,55.07a2.568,2.568,0,0,0-2.565,2.565V185.208a2.568,2.568,0,0,0,2.565,2.565h90.757a2.568,2.568,0,0,0,2.565-2.565V57.635a2.568,2.568,0,0,0-2.565-2.565Z" transform="translate(-20.25 -54.953)" fill="#d1e3ff"/>
              <path id="Path_13869" data-name="Path 13869" d="M347.943,187.891H257.187a2.686,2.686,0,0,1-2.682-2.683V57.635a2.685,2.685,0,0,1,2.682-2.682h90.756a2.686,2.686,0,0,1,2.683,2.682V185.208A2.686,2.686,0,0,1,347.943,187.891ZM257.187,55.07a2.568,2.568,0,0,0-2.565,2.565V185.208a2.568,2.568,0,0,0,2.565,2.565h90.756a2.568,2.568,0,0,0,2.566-2.565V57.635a2.568,2.568,0,0,0-2.566-2.565Z" transform="translate(-134.888 -54.953)" fill="#d1e3ff"/>
            </g>
          </g>
        </g>
        <g id="Group_7672" data-name="Group 7672" transform="translate(34.832 16.441)">
          <g id="Group_7660" data-name="Group 7660" transform="translate(0 13.243)">
            <rect id="Rectangle_17540" data-name="Rectangle 17540" width="56.191" height="124.274" fill="#e3eeff"/>
            <rect id="Rectangle_17541" data-name="Rectangle 17541" width="53.528" height="124.274" transform="translate(2.663)" fill="#f3f8ff"/>
            <rect id="Rectangle_17542" data-name="Rectangle 17542" width="118.634" height="47.888" transform="translate(53.371 2.82) rotate(90)" fill="#e9f3ff"/>
            <rect id="Rectangle_17543" data-name="Rectangle 17543" width="118.634" height="0.731" transform="translate(53.371 2.82) rotate(90)" fill="#e3eeff"/>
            <circle id="Ellipse_281" data-name="Ellipse 281" cx="2.402" cy="2.402" r="2.402" transform="translate(44.574 54.598)" fill="#e3eeff"/>
            <circle id="Ellipse_282" data-name="Ellipse 282" cx="2.402" cy="2.402" r="2.402" transform="translate(45.514 54.102)" fill="#fff"/>
          </g>
          <g id="Group_7667" data-name="Group 7667" transform="translate(89.495 0.002)">
            <g id="Group_7663" data-name="Group 7663" transform="translate(46.905)">
              <g id="Group_7662" data-name="Group 7662">
                <g id="Group_7661" data-name="Group 7661">
                  <rect id="Rectangle_17544" data-name="Rectangle 17544" width="38.037" height="71.451" fill="#d1e3ff"/>
                  <rect id="Rectangle_17545" data-name="Rectangle 17545" width="38.037" height="71.451" transform="translate(1.624)" fill="#f3f8ff"/>
                  <rect id="Rectangle_17546" data-name="Rectangle 17546" width="65.162" height="32.206" transform="translate(36.745 3.144) rotate(90)" fill="#fff"/>
                  <rect id="Rectangle_17547" data-name="Rectangle 17547" width="65.162" height="1.228" transform="translate(36.745 3.144) rotate(90)" fill="#d1e3ff"/>
                  <rect id="Rectangle_17548" data-name="Rectangle 17548" width="35.625" height="4.221" transform="translate(2.83 49.437)" fill="#f3f8ff"/>
                </g>
              </g>
            </g>
            <g id="Group_7666" data-name="Group 7666">
              <g id="Group_7665" data-name="Group 7665">
                <g id="Group_7664" data-name="Group 7664">
                  <rect id="Rectangle_17549" data-name="Rectangle 17549" width="38.037" height="71.451" fill="#d1e3ff"/>
                  <rect id="Rectangle_17550" data-name="Rectangle 17550" width="38.037" height="71.451" transform="translate(1.624)" fill="#f3f8ff"/>
                  <rect id="Rectangle_17551" data-name="Rectangle 17551" width="65.162" height="32.206" transform="translate(36.746 3.144) rotate(90)" fill="#fff"/>
                  <rect id="Rectangle_17552" data-name="Rectangle 17552" width="65.162" height="1.228" transform="translate(36.746 3.144) rotate(90)" fill="#d1e3ff"/>
                  <rect id="Rectangle_17553" data-name="Rectangle 17553" width="35.625" height="4.221" transform="translate(2.83 49.437)" fill="#f3f8ff"/>
                </g>
              </g>
            </g>
          </g>
          <g id="Group_7668" data-name="Group 7668" transform="translate(18.722)">
            <path id="Path_13870" data-name="Path 13870" d="M135.356,97.709l-.43.432H113.944V89.935Z" transform="translate(-113.944 -89.935)" fill="#cadefc"/>
            <path id="Path_13871" data-name="Path 13871" d="M114.754,97.709h20.6l-.81-7.774h-20.6Z" transform="translate(-113.944 -89.935)" fill="#f3f8ff"/>
          </g>
          <g id="Group_7669" data-name="Group 7669" transform="translate(61.356 65.802)">
            <rect id="Rectangle_17554" data-name="Rectangle 17554" width="8.884" height="8.884" transform="translate(9.185 8.884) rotate(180)" fill="#dce9ff"/>
            <rect id="Rectangle_17555" data-name="Rectangle 17555" width="0.301" height="8.884" transform="translate(0)" fill="#cadefc"/>
            <path id="Path_13872" data-name="Path 13872" d="M214.619,238.73l-.319.32h-6.61V232.96Z" transform="translate(-206.264 -231.54)" fill="#cadefc"/>
            <path id="Path_13873" data-name="Path 13873" d="M208.291,238.73h6.329l-.6-5.771H207.69Z" transform="translate(-206.264 -231.54)" fill="#fff"/>
          </g>
          <g id="Group_7671" data-name="Group 7671" transform="translate(74.346 82.297)">
            <g id="Group_7670" data-name="Group 7670">
              <path id="Path_13874" data-name="Path 13874" d="M232.294,269.064l4.462-4.03,4.462,4.03v51.248h-8.923Z" transform="translate(-232.294 -265.034)" fill="#e9f3ff"/>
              <path id="Path_13875" data-name="Path 13875" d="M265.2,269.064l4.462-4.03,4.462,4.03v51.248H265.2Z" transform="translate(-249.733 -265.034)" fill="#e9f3ff"/>
              <path id="Path_13876" data-name="Path 13876" d="M298.1,269.064l4.462-4.03,4.462,4.03v51.248H298.1Z" transform="translate(-267.173 -265.034)" fill="#e9f3ff"/>
              <path id="Path_13877" data-name="Path 13877" d="M331.008,269.064l4.462-4.03,4.462,4.03v51.248h-8.924Z" transform="translate(-284.613 -265.034)" fill="#e9f3ff"/>
              <path id="Path_13878" data-name="Path 13878" d="M363.913,269.064l4.462-4.03,4.462,4.03v51.248h-8.924Z" transform="translate(-302.052 -265.034)" fill="#e9f3ff"/>
              <path id="Path_13879" data-name="Path 13879" d="M396.818,269.064l4.462-4.03,4.462,4.03v51.248h-8.924Z" transform="translate(-319.492 -265.034)" fill="#e9f3ff"/>
              <path id="Path_13880" data-name="Path 13880" d="M429.723,269.064l4.462-4.03,4.462,4.03v51.248h-8.924Z" transform="translate(-336.931 -265.034)" fill="#e9f3ff"/>
            </g>
            <rect id="Rectangle_17556" data-name="Rectangle 17556" width="92.792" height="2.275" transform="translate(97.253 13.762) rotate(180)" fill="#e9f3ff"/>
            <rect id="Rectangle_17557" data-name="Rectangle 17557" width="92.792" height="2.275" transform="translate(97.253 40.685) rotate(180)" fill="#e9f3ff"/>
          </g>
        </g>
      </g>
    </g>
    <g id="group-2" data-name="group" transform="translate(26.372 34.788)">
      <g id="Group_7677" data-name="Group 7677">
        <ellipse id="Ellipse_283" data-name="Ellipse 283" cx="91.128" cy="5.322" rx="91.128" ry="5.322" transform="translate(0 129.694)" fill="#f0f6ff"/>
        <g id="Group_7676" data-name="Group 7676" transform="translate(18.538)">
          <g id="Group_7674" data-name="Group 7674" transform="translate(72.132 0)">
            <path id="Path_13881" data-name="Path 13881" d="M349.3,182.207l.251.213.294.236c.2.159.407.317.615.471.423.305.855.605,1.307.878a24.184,24.184,0,0,0,2.785,1.516,29.376,29.376,0,0,0,2.966,1.139c.511.134,1.017.3,1.538.407l.778.17.094.021.019,0c.016.007.017,0,.022.007s-.01.008-.027.017c-.039.019-.043.052.022-.01a1.265,1.265,0,0,0,.227-.352,5.479,5.479,0,0,0,.379-1.3,20.575,20.575,0,0,0,.257-3.172c.024-1.1-.005-2.209-.067-3.324-.044-1.114-.136-2.244-.228-3.347l1.645-.3a42.9,42.9,0,0,1,1.148,6.89,20.127,20.127,0,0,1-.013,3.639,8.273,8.273,0,0,1-.44,2,4.285,4.285,0,0,1-.613,1.125,2.946,2.946,0,0,1-1.337.983,2.887,2.887,0,0,1-.863.165,2.922,2.922,0,0,1-.4-.01l-.194-.02-.115-.018-.9-.146c-.6-.087-1.188-.246-1.783-.373a24.442,24.442,0,0,1-3.453-1.159,26.057,26.057,0,0,1-3.243-1.669c-.521-.317-1.024-.666-1.521-1.027-.248-.184-.494-.368-.737-.568-.121-.1-.242-.2-.363-.307s-.23-.2-.388-.353Z" transform="translate(-300.933 -153.622)" fill="#b55b52"/>
            <path id="Path_13882" data-name="Path 13882" d="M339.779,185.5c4.76-.646,8.606,3.2,8.606,3.2l-3.555,6.045s-5.488-2.306-6.307-4.344C337.669,188.284,337.337,185.834,339.779,185.5Z" transform="translate(-296.124 -158.894)" fill="#dd4a48"/>
            <path id="Path_13883" data-name="Path 13883" d="M373.73,173.492l-2.608-2.4,3.865-1.511a4.746,4.746,0,0,1,.234,4.137Z" transform="translate(-313.737 -150.492)" fill="#b55b52"/>
            <path id="Path_13884" data-name="Path 13884" d="M370,164.786l3.079-.587,1.314,2.527-3.865,1.511Z" transform="translate(-313.142 -147.642)" fill="#b55b52"/>
            <path id="Path_13885" data-name="Path 13885" d="M306,398.276l3.836.375,3.991-9.13-3.836-.375Z" transform="translate(-279.224 -266.863)" fill="#b55b52"/>
            <path id="Path_13886" data-name="Path 13886" d="M253.425,372.143l2.881,2.705,6.22-6.836-2.881-2.705Z" transform="translate(-251.358 -254.229)" fill="#b55b52"/>
            <path id="Path_13887" data-name="Path 13887" d="M255.305,378.26l-2.165-3.9a.315.315,0,0,0-.391-.145l-3.333,1.269a.638.638,0,0,0-.309.9c.778,1.347,1.222,1.958,2.174,3.674.586,1.056,1.726,3.476,2.535,4.934.791,1.426,2.293.735,2.087.056a11.52,11.52,0,0,1-.49-6.086A1.038,1.038,0,0,0,255.305,378.26Z" transform="translate(-249.026 -258.938)" fill="#2c272e"/>
            <path id="Path_13888" data-name="Path 13888" d="M308.335,406.847h-4.711a.391.391,0,0,0-.372.287l-1.025,3.727a.586.586,0,0,0,.575.746c1.66.015,2.447.008,4.519.008h6.332c1.722,0,2.082-1.74,1.37-1.9-3.194-.707-5.035-1.682-6.02-2.611A.967.967,0,0,0,308.335,406.847Z" transform="translate(-277.211 -276.245)" fill="#2c272e"/>
            <path id="Path_13889" data-name="Path 13889" d="M315.821,389.525l-2.057,4.706h-4l2.221-5.081Z" transform="translate(-281.217 -266.866)" fill="#9e4541"/>
            <path id="Path_13890" data-name="Path 13890" d="M263.037,365.31l2.882,2.706-3.208,3.522-2.882-2.706Z" transform="translate(-254.752 -254.23)" fill="#9e4541"/>
            <path id="Path_13891" data-name="Path 13891" d="M327.006,183.921s1.724.758-4.059,23.647l-16.068-1.39c.835-6.516,1.191-10.548-.773-24.24a47.571,47.571,0,0,1,6.9-.309,51.273,51.273,0,0,1,7.3.631A67.88,67.88,0,0,1,327.006,183.921Z" transform="translate(-279.278 -156.866)" fill="#dd4a48"/>
            <path id="Path_13892" data-name="Path 13892" d="M318.408,181.548s-.911-.1-1.989-.1c-.646,1,1.32,4.8,4.8,7.66a13.938,13.938,0,0,1,2.93-3.486Z" transform="translate(-284.68 -156.786)" fill="#fff"/>
            <path id="Path_13893" data-name="Path 13893" d="M334.557,183a7.174,7.174,0,0,1,1.377.221c.646,1,1.9,4.537,0,6.711a13.95,13.95,0,0,0-2.93-3.486Z" transform="translate(-293.532 -157.606)" fill="#fff"/>
            <path id="Path_13894" data-name="Path 13894" d="M333.559,195.181c.016.285-.081.523-.216.53s-.257-.218-.272-.5.081-.523.216-.53S333.543,194.9,333.559,195.181Z" transform="translate(-293.569 -163.795)" fill="#fff"/>
            <path id="Path_13895" data-name="Path 13895" d="M333.489,199.787c-.007.286-.121.515-.256.511s-.239-.237-.232-.523.121-.515.256-.511S333.5,199.5,333.489,199.787Z" transform="translate(-293.532 -166.226)" fill="#fff"/>
            <path id="Path_13896" data-name="Path 13896" d="M322.221,164.31c.257,2.387.344,6.729-1.434,8.153a27.1,27.1,0,0,0,5.74,4.078c2.794-1.93,1.557-3.447,1.557-3.447-2.564-.852-2.328-2.788-1.715-4.573Z" transform="translate(-287.06 -147.7)" fill="#b55b52"/>
            <path id="Path_13897" data-name="Path 13897" d="M327.081,167.966l2.455,2.491a7.542,7.542,0,0,0-.337,1.276c-.987-.231-2.417-1.257-2.433-2.314A4.211,4.211,0,0,1,327.081,167.966Z" transform="translate(-290.228 -149.638)" fill="#9e4541"/>
            <path id="Path_13898" data-name="Path 13898" d="M333.815,146.811a21.848,21.848,0,0,1,3.18,3.8c1.577.585,1.153-3.575-.046-5.977A10.009,10.009,0,0,1,333.815,146.811Z" transform="translate(-293.964 -137.272)" fill="#2c272e"/>
            <path id="Path_13899" data-name="Path 13899" d="M319.163,148.708c1,3.813,1.336,5.449,3.675,7.047,3.518,2.4,7.984.346,8.148-3.688.148-3.631-1.506-9.257-5.586-10.05A5.376,5.376,0,0,0,319.163,148.708Z" transform="translate(-286.102 -135.828)" fill="#b55b52"/>
            <path id="Path_13900" data-name="Path 13900" d="M322.319,136.991c1.746.262,3.49-1.377.663-3.13.906-.091,1.865-3.29-1.4-3.112-.161-1.519-3.418-2.874-5.148-.46-2.024-1.334-4.9.032-4.259,2.1-2.326.143-3.536,3.322-1.618,3.84-2.311,1.4-2.715,3.69-.449,4.1.312,2.638,5.477,1.459,5.076-1,.932.5,3.892-.579,3.288-1.887C319.375,138.651,322.318,138.091,322.319,136.991Z" transform="translate(-280.602 -128.97)" fill="#2c272e"/>
            <path id="Path_13901" data-name="Path 13901" d="M314.958,151.6a21.85,21.85,0,0,1,2.174,4.454c1.391.946,1.978-3.193,1.391-5.814A10.007,10.007,0,0,1,314.958,151.6Z" transform="translate(-283.97 -140.244)" fill="#2c272e"/>
            <path id="Path_13902" data-name="Path 13902" d="M318.5,161.48a2.879,2.879,0,0,0,1.693,1.4c.967.291,1.471-.569,1.219-1.492-.227-.831-1-1.984-1.982-1.871A1.294,1.294,0,0,0,318.5,161.48Z" transform="translate(-285.758 -145.158)" fill="#b55b52"/>
            <path id="Path_13903" data-name="Path 13903" d="M323.621,235.7s5.436,24.05,1.808,41.005c-2.431,11.356-11.2,34.3-11.2,34.3l-6.854-.176s6.636-24.073,8.008-33.541c2.347-16.194-3.531-42.6-3.531-42.6Z" transform="translate(-279.952 -184.996)" fill="#434144"/>
            <path id="Path_13904" data-name="Path 13904" d="M324.736,247.177l-3.427,5.4a165.39,165.39,0,0,1,1.96,19.36C328.089,263.314,325.807,251.745,324.736,247.177Z" transform="translate(-287.336 -191.62)" fill="#434144"/>
            <path id="Path_13905" data-name="Path 13905" d="M314.469,394.637,306,394.421l.49-2.6,9.244.438Z" transform="translate(-279.224 -268.281)" fill="#dd4a48"/>
            <path id="Path_13906" data-name="Path 13906" d="M295.674,235.022s-3.189,25.505-10.1,39.429c-5.584,11.247-20.485,27.257-20.485,27.257l-3.81-3.925s10.065-17.4,14.215-24.871c10.176-18.319,1.86-32.3,7.628-39.025Z" transform="translate(-255.519 -184.577)" fill="#434144"/>
            <path id="Path_13907" data-name="Path 13907" d="M264.66,371.4l-4.917-4.793,1.631-2.219,5.358,5.539Z" transform="translate(-254.706 -253.74)" fill="#dd4a48"/>
            <path id="Path_13908" data-name="Path 13908" d="M306.434,231.725l-.849,1.376c-.066.107.056.232.242.248l16.851,1.457c.145.013.271-.048.288-.138l.269-1.426c.019-.1-.1-.194-.258-.207l-16.272-1.408A.294.294,0,0,0,306.434,231.725Z" transform="translate(-278.992 -183.377)" fill="#2c272e"/>
            <path id="Path_13909" data-name="Path 13909" d="M311.077,233.758l-.436-.038c-.087-.008-.149-.058-.138-.112l.366-1.851c.011-.054.091-.092.178-.085l.436.038c.086.008.149.058.138.112l-.366,1.851C311.244,233.727,311.164,233.765,311.077,233.758Z" transform="translate(-281.608 -183.402)" fill="#434144"/>
            <path id="Path_13910" data-name="Path 13910" d="M338.691,236.146l-.436-.038c-.087-.008-.149-.058-.139-.112l.366-1.851c.011-.054.091-.092.177-.085l.436.038c.087.008.15.058.139.112l-.366,1.851C338.857,236.116,338.778,236.154,338.691,236.146Z" transform="translate(-296.243 -184.668)" fill="#434144"/>
            <path id="Path_13911" data-name="Path 13911" d="M324.884,234.952l-.436-.038c-.087-.008-.149-.058-.138-.112l.366-1.851c.011-.054.091-.092.177-.085l.436.038c.086.008.149.058.138.112l-.366,1.851C325.051,234.922,324.971,234.96,324.884,234.952Z" transform="translate(-288.926 -184.035)" fill="#434144"/>
            <path id="Path_13912" data-name="Path 13912" d="M332.259,155.49c.062.314.278.536.484.5s.322-.328.26-.642-.279-.536-.484-.5S332.2,155.176,332.259,155.49Z" transform="translate(-293.131 -142.683)" fill="#2c272e"/>
            <path id="Path_13913" data-name="Path 13913" d="M339.817,154c.062.314.279.536.484.5s.322-.328.26-.642-.278-.537-.484-.5S339.756,153.69,339.817,154Z" transform="translate(-297.137 -141.895)" fill="#2c272e"/>
            <path id="Path_13914" data-name="Path 13914" d="M340.2,153.03l.712-.366S340.645,153.33,340.2,153.03Z" transform="translate(-297.35 -141.528)" fill="#2c272e"/>
            <path id="Path_13915" data-name="Path 13915" d="M338.064,156.275a8.567,8.567,0,0,0,1.515,1.786,1.379,1.379,0,0,1-1.079.431Z" transform="translate(-296.216 -143.442)" fill="#a02724"/>
            <path id="Path_13916" data-name="Path 13916" d="M333.855,163.26a2.605,2.605,0,0,1-1.79-.681.078.078,0,1,1,.112-.11,2.556,2.556,0,0,0,2.236.579.078.078,0,0,1,.03.154A3.034,3.034,0,0,1,333.855,163.26Z" transform="translate(-293.025 -146.713)" fill="#2c272e"/>
            <path id="Path_13917" data-name="Path 13917" d="M328.388,150.743a.152.152,0,0,1-.08-.023.157.157,0,0,1-.054-.215,1.832,1.832,0,0,1,1.417-.916h.005a.156.156,0,0,1,.006.313,1.519,1.519,0,0,0-1.159.765A.157.157,0,0,1,328.388,150.743Z" transform="translate(-291.005 -139.899)" fill="#2c272e"/>
            <path id="Path_13918" data-name="Path 13918" d="M340.855,150.206a.151.151,0,0,1-.076-.02,1.534,1.534,0,0,0-1.386-.091.156.156,0,1,1-.146-.277,1.831,1.831,0,0,1,1.684.095.156.156,0,0,1-.076.293Z" transform="translate(-296.799 -139.935)" fill="#2c272e"/>
            <path id="Path_13919" data-name="Path 13919" d="M287.652,190.858a39.9,39.9,0,0,1-2.171,3.8c-.789,1.209-1.626,2.387-2.526,3.525a36.185,36.185,0,0,1-2.921,3.251c-.533.507-1.064,1.014-1.636,1.485l-.421.36a5.334,5.334,0,0,1-.632.442,3.349,3.349,0,0,1-1.793.483,3.178,3.178,0,0,1-1.771-.62,4.892,4.892,0,0,1-1.044-1.037,10.124,10.124,0,0,1-1.185-2.118,24.926,24.926,0,0,1-1.321-4.2,56,56,0,0,1-1.244-8.432l1.66-.206c.27,1.338.556,2.7.891,4.032.319,1.338.67,2.664,1.081,3.956a26.772,26.772,0,0,0,1.424,3.7,7.391,7.391,0,0,0,.933,1.481,1.971,1.971,0,0,0,.457.41c.129.076.174.063.176.054a.685.685,0,0,0,.188-.1c.064-.043.138-.1.217-.169l.36-.337c.487-.438.945-.916,1.4-1.392.9-.972,1.737-2.014,2.554-3.075s1.565-2.185,2.28-3.326c.365-.566.712-1.144,1.053-1.723s.672-1.185.956-1.729Z" transform="translate(-259.605 -160.038)" fill="#b55b52"/>
            <path id="Path_13920" data-name="Path 13920" d="M269.7,184.817l-.421-3.521-3.488,2.248a6.013,6.013,0,0,0,2.723,2.386Z" transform="translate(-257.909 -156.703)" fill="#b55b52"/>
            <path id="Path_13921" data-name="Path 13921" d="M267.89,178.256l-2.279,2.152.082,1.525,3.489-2.248Z" transform="translate(-257.816 -155.092)" fill="#b55b52"/>
            <path id="Path_13922" data-name="Path 13922" d="M300.771,182.24c-1.97.348-4.731,6-4.731,6l4.966,4.491s3.949-4.308,3.739-6.875C304.566,183.676,303.279,181.8,300.771,182.24Z" transform="translate(-273.943 -157.169)" fill="#dd4a48"/>
            <path id="Path_13923" data-name="Path 13923" d="M262.786,385.434a.47.47,0,0,1-.153-.026c-.471-.158-.78-1.031-.923-1.536a.078.078,0,0,1,.111-.09c.144.075,1.4.748,1.443,1.245a.3.3,0,0,1-.134.278A.571.571,0,0,1,262.786,385.434Zm-.872-1.424c.219.7.5,1.159.768,1.25a.369.369,0,0,0,.354-.081.15.15,0,0,0,.072-.14C263.084,384.735,262.346,384.256,261.914,384.011Z" transform="translate(-255.747 -264.016)" fill="#407bff"/>
            <path id="Path_13924" data-name="Path 13924" d="M262.98,383.744a2.827,2.827,0,0,1-1.236-.29.078.078,0,0,1,0-.135c.042-.024,1.038-.571,1.575-.381a.476.476,0,0,1,.294.278.313.313,0,0,1-.071.386A.905.905,0,0,1,262.98,383.744Zm-1.023-.357c.427.182,1.254.294,1.487.1.039-.033.077-.086.028-.208a.319.319,0,0,0-.2-.189A2.217,2.217,0,0,0,261.957,383.388Z" transform="translate(-255.747 -263.552)" fill="#407bff"/>
            <path id="Path_13925" data-name="Path 13925" d="M318.176,407.382a6.281,6.281,0,0,1-1.286-.164.078.078,0,0,1-.016-.147c.194-.092,1.9-.879,2.333-.59a.256.256,0,0,1,.111.242.573.573,0,0,1-.233.441A1.551,1.551,0,0,1,318.176,407.382Zm-1.018-.268a2.924,2.924,0,0,0,1.833-.074.415.415,0,0,0,.171-.325.1.1,0,0,0-.043-.1C318.879,406.448,317.869,406.8,317.158,407.114Z" transform="translate(-284.961 -276.018)" fill="#407bff"/>
            <path id="Path_13926" data-name="Path 13926" d="M316.907,406.15a.079.079,0,0,1-.05-.018.078.078,0,0,1-.026-.077c.016-.072.416-1.764,1.332-1.65.233.028.3.143.308.235.058.43-1.02,1.295-1.534,1.5A.079.079,0,0,1,316.907,406.15Zm1.172-1.594c-.592,0-.938.981-1.052,1.374.557-.291,1.327-.995,1.29-1.269,0-.02-.011-.082-.172-.1A.51.51,0,0,0,318.079,404.556Z" transform="translate(-284.961 -274.948)" fill="#407bff"/>
            <path id="Path_13927" data-name="Path 13927" d="M332.645,154.515l.712-.366S333.086,154.815,332.645,154.515Z" transform="translate(-293.344 -142.315)" fill="#2c272e"/>
          </g>
          <g id="Group_7675" data-name="Group 7675">
            <path id="Path_13928" data-name="Path 13928" d="M108.7,142.126a44.77,44.77,0,0,1,31.765-13.156h6.357s30,7.852,30,39.995c0,31.414-20.772,59.23-30,68.455h-6.354L108.7,205.646A44.926,44.926,0,0,1,108.7,142.126Zm31.769,52.618a20.856,20.856,0,1,0-20.858-20.853A20.857,20.857,0,0,0,140.473,194.745Z" transform="translate(-95.553 -128.97)" fill="#2c272e"/>
            <path id="Path_13929" data-name="Path 13929" d="M260.177,144.812a46.861,46.861,0,0,0-6.018-5.083l.272-.383a47.275,47.275,0,0,1,6.079,5.134Zm-8.826-6.922c-1.1-.667-2.25-1.294-3.406-1.864l.208-.422c1.167.576,2.325,1.209,3.441,1.883Z" transform="translate(-176.321 -132.486)" fill="#dd4a48"/>
            <path id="Path_13930" data-name="Path 13930" d="M122.222,142.126a44.925,44.925,0,0,1,63.534,63.534L154,237.42l-31.774-31.774A44.927,44.927,0,0,1,122.222,142.126Zm31.77,52.618a20.856,20.856,0,1,0-20.858-20.853A20.857,20.857,0,0,0,153.992,194.744Z" transform="translate(-102.718 -128.97)" fill="#dd4a48"/>
            <path id="Path_13931" data-name="Path 13931" d="M156,236.866a.118.118,0,0,1-.083-.035l-30.445-30.444a43.153,43.153,0,1,1,61.042.014l-30.431,30.43A.117.117,0,0,1,156,236.866Zm-.016-103.911a42.919,42.919,0,0,0-30.346,73.266L156,236.582l30.348-30.347.083.083-.083-.083a42.933,42.933,0,0,0-30.364-73.28ZM156,198.729a22.853,22.853,0,1,1,22.856-22.851A22.879,22.879,0,0,1,156,198.729Zm0-45.472a22.618,22.618,0,1,0,22.621,22.621A22.646,22.646,0,0,0,156,153.258Z" transform="translate(-104.724 -130.957)" fill="#9fc6ff" opacity="0.4" style="mix-blend-mode: color-dodge;isolation: isolate"/>
          </g>
        </g>
      </g>
    </g>
  </g>
</svg>
