<svg xmlns="http://www.w3.org/2000/svg" width="24" height="24" viewBox="0 0 24 24">
  <g id="apple_icon_svg" transform="translate(-2055 -5533)">
    <rect id="Rectangle_17700" data-name="Rectangle 17700" width="24" height="24" rx="2" transform="translate(2055 5533)" fill="#fff"/>
    <path id="Sign_in_with_Apple" data-name="Sign in with Apple" d="M-6.363-8.194A4.6,4.6,0,0,1-2.34-6.162l-.1.066a2.666,2.666,0,0,0-.221.157q-.122.091-.293.243a4.1,4.1,0,0,0-.346.332q-.169.183-.352.41a3.177,3.177,0,0,0-.332.515,5.665,5.665,0,0,0-.274.608,4.069,4.069,0,0,0-.2.723,4.582,4.582,0,0,0-.072.818,4.415,4.415,0,0,0,.28,1.582A4,4,0,0,0-3.606.459a5.354,5.354,0,0,0,.8.769,4.868,4.868,0,0,0,.664.456,2.137,2.137,0,0,0,.319.144,2.991,2.991,0,0,1-.136.456,11.4,11.4,0,0,1-.47,1.076,9.763,9.763,0,0,1-.789,1.362q-.4.587-.678.938a8.433,8.433,0,0,1-.691.769,2.9,2.9,0,0,1-.852.608,2.254,2.254,0,0,1-.932.2,4.072,4.072,0,0,1-1.6-.41A4.292,4.292,0,0,0-9.7,6.414a4.607,4.607,0,0,0-1.8.423,4.284,4.284,0,0,1-1.582.423,2.11,2.11,0,0,1-.866-.183,2.815,2.815,0,0,1-.827-.6A9.143,9.143,0,0,1-15.5,5.69q-.293-.371-.763-1.023a12.122,12.122,0,0,1-1.525-3.148,11.456,11.456,0,0,1-.6-3.6,7.326,7.326,0,0,1,.443-2.607,5.476,5.476,0,0,1,1.167-1.915,5.15,5.15,0,0,1,1.633-1.137,4.608,4.608,0,0,1,1.87-.4,5.185,5.185,0,0,1,1.838.443,5.233,5.233,0,0,0,1.472.443,2.621,2.621,0,0,0,.893-.235q.58-.235,1.309-.47a4.556,4.556,0,0,1,1.395-.234Zm-.73-1.668a4.079,4.079,0,0,1-1.29,1.036,3.185,3.185,0,0,1-1.472.41,1.393,1.393,0,0,1-.274-.026,1.515,1.515,0,0,1-.039-.365,3.691,3.691,0,0,1,.319-1.48,4.833,4.833,0,0,1,.8-1.284,4.4,4.4,0,0,1,1.388-1.082,3.826,3.826,0,0,1,1.61-.456,1.932,1.932,0,0,1,.039.4A4.357,4.357,0,0,1-7.093-9.862Z" transform="translate(2077.103 5547.924)" fill="#020407"/>
  </g>
</svg>
