<svg width="36" height="36" viewBox="0 0 36 36" fill="none" xmlns="http://www.w3.org/2000/svg">
<g clip-path="url(#clip0_33_1347)">
<path d="M19.9159 1.95203L23.8229 9.87701C23.9761 10.1879 24.2026 10.4569 24.483 10.6608C24.7633 10.8646 25.0889 10.9972 25.4319 11.047L34.168 12.318C34.5626 12.376 34.933 12.5432 35.2376 12.8005C35.5422 13.0579 35.7689 13.3953 35.892 13.7746C36.0151 14.1539 36.0298 14.5601 35.9344 14.9473C35.839 15.3345 35.6372 15.6873 35.352 15.966L29.03 22.134C28.7818 22.3761 28.5961 22.6749 28.4889 23.0046C28.3818 23.3344 28.3565 23.6853 28.415 24.027L29.9069 32.737C29.9747 33.1301 29.9312 33.5343 29.7812 33.9039C29.6312 34.2735 29.3807 34.5938 29.0582 34.8285C28.7356 35.0631 28.3538 35.2028 27.956 35.2317C27.5581 35.2606 27.16 35.1776 26.8069 34.992L18.993 30.88C18.6865 30.7187 18.3453 30.6344 17.999 30.6344C17.6526 30.6344 17.3114 30.7187 17.0049 30.88L9.19097 34.992C8.83786 35.1776 8.43989 35.2606 8.04205 35.2317C7.6442 35.2028 7.26233 35.0631 6.93975 34.8285C6.61717 34.5938 6.36674 34.2735 6.21673 33.9039C6.06672 33.5343 6.02318 33.1301 6.091 32.737L7.58294 24.027C7.64145 23.6853 7.6161 23.3344 7.50897 23.0046C7.40183 22.6749 7.21614 22.3761 6.96795 22.134L0.645929 15.966C0.360289 15.6875 0.15832 15.3346 0.0626766 14.9473C-0.0329665 14.56 -0.0183685 14.1537 0.104791 13.7742C0.22795 13.3948 0.454707 13.0573 0.759576 12.8C1.06444 12.5427 1.43525 12.3757 1.83001 12.318L10.5669 11.047C10.9099 10.9971 11.2356 10.8645 11.5159 10.6606C11.7962 10.4568 12.0227 10.1879 12.176 9.87701L16.0829 1.95203C16.2591 1.59405 16.5321 1.29255 16.8708 1.08173C17.2095 0.8709 17.6005 0.759155 17.9994 0.759155C18.3984 0.759155 18.7895 0.8709 19.1282 1.08173C19.467 1.29255 19.7398 1.59405 19.9159 1.95203Z" fill="#F5B82A"/>
<path d="M22.3418 17.73C23.1244 17.5451 23.6088 16.7607 23.4238 15.9781C23.2389 15.1956 22.4545 14.7112 21.672 14.8961C20.8894 15.0811 20.405 15.8655 20.5899 16.648C20.7749 17.4306 21.5593 17.915 22.3418 17.73Z" fill="#42210B"/>
<path d="M15.0257 17.3425C15.5943 16.7739 15.5943 15.852 15.0257 15.2834C14.4571 14.7148 13.5352 14.7148 12.9666 15.2834C12.398 15.852 12.398 16.7739 12.9666 17.3425C13.5352 17.9111 14.4571 17.9111 15.0257 17.3425Z" fill="#42210B"/>
<path d="M20.439 14.422C20.4212 14.4027 20.4077 14.3799 20.3991 14.3551C20.3905 14.3303 20.3871 14.3039 20.3892 14.2778C20.3913 14.2516 20.3987 14.2261 20.4111 14.2029C20.4234 14.1798 20.4404 14.1594 20.461 14.1431C20.9003 13.8031 21.4373 13.6134 21.9926 13.6021C22.5479 13.5908 23.0922 13.7584 23.545 14.0801C23.5663 14.0955 23.5842 14.1151 23.5976 14.1377C23.6109 14.1604 23.6194 14.1855 23.6226 14.2116C23.6258 14.2377 23.6236 14.2642 23.6161 14.2894C23.6086 14.3146 23.596 14.3379 23.579 14.358C23.5475 14.3949 23.5033 14.4186 23.4551 14.4244C23.4069 14.4301 23.3583 14.4175 23.319 14.389C22.934 14.117 22.472 13.9755 22.0006 13.9852C21.5293 13.9949 21.0735 14.1554 20.7 14.443C20.6619 14.4732 20.6138 14.4878 20.5653 14.4839C20.5169 14.48 20.4718 14.4579 20.439 14.422Z" fill="#42210B"/>
<path d="M14.187 23.6641H21.565C21.7424 23.6641 21.9126 23.5936 22.038 23.4681C22.1635 23.3427 22.2339 23.1725 22.2339 22.9951C22.2339 22.8176 22.1635 22.6474 22.038 22.522C21.9126 22.3965 21.7424 22.326 21.565 22.326H14.187C14.0095 22.326 13.8394 22.3965 13.7139 22.522C13.5885 22.6474 13.518 22.8176 13.518 22.9951C13.518 23.1725 13.5885 23.3427 13.7139 23.4681C13.8394 23.5936 14.0095 23.6641 14.187 23.6641Z" fill="#42210B"/>
<path d="M12.3979 14.422C12.3801 14.4027 12.3666 14.3799 12.358 14.3551C12.3494 14.3303 12.3461 14.3039 12.3481 14.2778C12.3502 14.2516 12.3576 14.2261 12.37 14.2029C12.3823 14.1798 12.3993 14.1594 12.4199 14.1431C12.8592 13.8031 13.3962 13.6134 13.9515 13.6021C14.5069 13.5908 15.0512 13.7584 15.504 14.0801C15.5253 14.0955 15.5431 14.1151 15.5565 14.1377C15.5699 14.1604 15.5785 14.1855 15.5816 14.2116C15.5848 14.2377 15.5826 14.2642 15.5751 14.2894C15.5675 14.3146 15.5549 14.3379 15.5379 14.358C15.5064 14.3949 15.4622 14.4186 15.414 14.4244C15.3659 14.4301 15.3172 14.4175 15.2779 14.389C14.8929 14.117 14.4309 13.9755 13.9596 13.9852C13.4883 13.9949 13.0324 14.1554 12.6589 14.443C12.6208 14.4732 12.5727 14.4878 12.5243 14.4839C12.4758 14.48 12.4307 14.4579 12.3979 14.422Z" fill="#42210B"/>
</g>
<defs>
<clipPath id="clip0_33_1347">
<rect width="36" height="36" fill="white"/>
</clipPath>
</defs>
</svg>
