<svg xmlns="http://www.w3.org/2000/svg" width="16" height="16" viewBox="0 0 16 16">
  <g id="cash" transform="translate(-7075.538 -449.189)">
    <rect id="Rectangle_17518" data-name="Rectangle 17518" width="16" height="15.976" transform="translate(7075.538 449.189)" fill="none"/>
    <g id="Group_8630" data-name="Group 8630" transform="translate(7076.159 449.895)">
      <path id="Path_12471" data-name="Path 12471" d="M527.6,701.2c-.155-.049-.186-.121-.185-.268q.008-2.15,0-4.3a1.138,1.138,0,0,0-1.221-1.227c-.873,0-1.745,0-2.618,0h-2.554a1.153,1.153,0,0,0-1.283,1.291q0,1.82,0,3.64c0,.05,0,.1,0,.149-.008.11-.079.145-.154.076a.586.586,0,0,0-.44-.109c-.5,0-.994,0-1.49,0-.339,0-.449.109-.449.442q0,1.512,0,3.023c0,.332.116.451.446.453q.787,0,1.575,0c.307,0,.42-.107.443-.416.006-.084.017-.129.116-.129a5.993,5.993,0,0,1,.893.018c.672.1,1.346.2,2.017.311a3.092,3.092,0,0,0,1.967-.214c.2-.1.422-.163.632-.248.774-.313,1.549-.623,2.321-.943a.832.832,0,0,0-.017-1.551Zm-9.17,1.774a.261.261,0,1,1-.006.521.261.261,0,0,1,.006-.521Zm4.278-3.116c.3-.005.594,0,.891,0s.58,0,.87,0c.109,0,.162.014.165.146.013.487.019.483-.463.389s-.986-.182-1.479-.271c-.094-.017-.177-.026-.169-.162S522.635,699.863,522.7,699.861Zm.352-4.129q.52.009,1.04,0c.111,0,.146.03.143.142-.007.3,0,.607,0,.922-.042,0-.059,0-.069-.007a.945.945,0,0,0-1.135-.022c-.111.078-.124,0-.122-.091,0-.269.007-.538,0-.806C522.906,695.753,522.952,695.731,523.056,695.733Zm4.435,6.726c-1.191.489-2.378.991-3.594,1.418a1.462,1.462,0,0,1-.632.02c-.9-.081-1.781-.26-2.673-.379a3.692,3.692,0,0,0-.764-.008c-.122.009-.159-.017-.157-.142.007-.39,0-.78,0-1.17s0-.753,0-1.128c0-.075-.02-.151.1-.178a8.3,8.3,0,0,0,1.219-.433,2.433,2.433,0,0,1,1.4-.066q.993.182,1.984.369c.311.059.451.224.419.484-.029.239-.216.371-.515.357q-1.01-.044-2.02-.092c-.112-.006-.225-.014-.252.127s.087.186.189.214a4.952,4.952,0,0,0,2.858.178c.676-.21,1.368-.363,2.055-.537a.52.52,0,0,1,.7.44A.5.5,0,0,1,527.491,702.458Z" transform="translate(-517.203 -689.083)" fill="#414043"/>
      <path id="Path_12472" data-name="Path 12472" d="M606.358,584.062c-.511,0-1.022,0-1.534,0a.431.431,0,0,0-.44.194.1.1,0,0,1-.106.051,5.577,5.577,0,0,1-.956-.015c-.673-.1-1.344-.217-2.019-.305a3.3,3.3,0,0,0-1.226-.054,11.636,11.636,0,0,0-2.31.843.793.793,0,0,0-.49.711.411.411,0,0,1-.145.287,2.18,2.18,0,1,0,3.193,2.963.846.846,0,0,1,.7-.375.711.711,0,0,0,.085-.008,9.164,9.164,0,0,0,2.74-.645c.148-.067.307-.107.472-.163.071.362.153.431.487.431.525,0,1.05,0,1.576,0,.309,0,.424-.116.424-.424q0-1.523,0-3.046C606.808,584.179,606.691,584.063,606.358,584.062Zm-2.014,3.036c0,.1-.032.132-.127.155a2.907,2.907,0,0,0-.5.167,9.381,9.381,0,0,1-2.765.633c-.373.047-.746.093-1.12.128a.442.442,0,0,1-.463-.273.456.456,0,0,1,.072-.516.629.629,0,0,1,.352-.182l1.905-.521c.041-.011.081-.026.122-.036.1-.025.2-.061.19-.189s-.1-.139-.193-.161c-.422-.092-.843-.19-1.265-.281a.313.313,0,0,1-.179-.1,2.14,2.14,0,0,0-2.673-.561.342.342,0,0,1-.059.009.27.27,0,0,1,.179-.256,9.322,9.322,0,0,1,2.384-.88,3.624,3.624,0,0,1,1.247.088c.668.089,1.331.2,2,.3a3.55,3.55,0,0,0,.765,0c.106-.007.133.025.133.126Q604.338,585.927,604.344,587.1Zm1.26-.59a.245.245,0,0,1,.235.263.252.252,0,0,1-.274.26.248.248,0,0,1-.249-.264A.26.26,0,0,1,605.6,586.508Z" transform="translate(-591.981 -583.888)" fill="#414043"/>
      <path id="Path_12473" data-name="Path 12473" d="M567.382,705.851c0-1.347-.005-2.66,0-3.973a.777.777,0,0,1,.77-.758c.532-.008,1.065,0,1.6-.006.143,0,.161.058.159.177-.006.348,0,.7,0,1.043,0,.269.1.351.32.215a1.153,1.153,0,0,1,1.335,0c.217.137.319.053.321-.214,0-.355.005-.71,0-1.065,0-.122.039-.156.158-.155.532.006,1.065,0,1.6,0a.772.772,0,0,1,.769.757c.008,1.512,0,3.024,0,4.535,0,.068.014.138-.089.163-.673.169-1.339.365-2.019.506a.181.181,0,0,1-.052-.008.732.732,0,0,0,.063-.92.351.351,0,0,1-.039-.2c0-.263,0-.525,0-.788,0-.168-.064-.248-.239-.247q-1.139.005-2.278,0c-.208,0-.259.115-.24.288s-.023.235-.218.2a1.875,1.875,0,0,0-1.023.121C567.987,705.625,567.7,705.734,567.382,705.851Z" transform="translate(-564.524 -694.458)" fill="#fecdac"/>
      <path id="Path_12474" data-name="Path 12474" d="M524.46,791.194c0-.489,0-.979,0-1.467,0-.13-.025-.19-.174-.188-.5.009-.993.007-1.489,0-.133,0-.17.049-.17.175q.005,1.468,0,2.935c0,.126.033.174.167.172q.745-.01,1.489,0c.142,0,.179-.046.177-.182C524.456,792.159,524.46,791.677,524.46,791.194Zm-1.167.815a.241.241,0,0,1,.252-.258.261.261,0,1,1-.006.521A.238.238,0,0,1,523.293,792.009Z" transform="translate(-522.321 -777.856)" fill="#79cbc7"/>
      <path id="Path_12475" data-name="Path 12475" d="M605.408,614.273a1.832,1.832,0,0,1-2.536.345,1.785,1.785,0,0,1-.728-1.874,1.751,1.751,0,0,1,1.381-1.431,1.785,1.785,0,0,1,1.927.677,1.84,1.84,0,0,1,.233.379c.048.1.027.15-.09.176-.214.048-.424.113-.636.169a.9.9,0,0,0-.5.3c-.028.036-.046.1-.115.065-.174-.078-.352-.15-.522-.235a.2.2,0,0,1-.111-.213.2.2,0,0,1,.176-.164.444.444,0,0,1,.435.1c.085.083.185.125.273.012s.014-.187-.065-.256a.636.636,0,0,0-.156-.11c-.115-.051-.239-.077-.228-.252,0-.073-.071-.12-.153-.116a.142.142,0,0,0-.15.148c.009.129-.067.161-.161.207a.508.508,0,0,0-.063.89,1.981,1.981,0,0,0,.464.209c.15.059.247.157.208.322s-.187.147-.314.148a.534.534,0,0,1-.379-.166c-.077-.073-.167-.1-.244-.018a.166.166,0,0,0,.034.26,1.144,1.144,0,0,0,.227.156c.116.058.252.078.238.264-.005.069.076.115.158.109a.161.161,0,0,0,.146-.134c.078-.251.218-.294.415-.125A.938.938,0,0,0,605.408,614.273Z" transform="translate(-597.27 -609.691)" fill="#fad57e"/>
      <path id="Path_12476" data-name="Path 12476" d="M741.911,594.213c0-.475,0-.95,0-1.425,0-.138-.023-.2-.183-.2-.489.01-.979.009-1.468,0-.141,0-.179.043-.178.18q.006,1.468,0,2.935c0,.13.039.171.17.17.489-.006.979-.007,1.468,0,.147,0,.2-.043.2-.193C741.906,595.192,741.911,594.7,741.911,594.213Zm-1.183.758a.26.26,0,0,1,.287-.259.244.244,0,0,1,.235.264.252.252,0,0,1-.274.26A.248.248,0,0,1,740.728,594.971Z" transform="translate(-727.393 -592.093)" fill="#79cbc7"/>
      <path id="Path_12477" data-name="Path 12477" d="M670.2,627.7l.471.1C670.281,627.98,670.27,627.978,670.2,627.7Z" transform="translate(-661.495 -625.21)" fill="#eee"/>
      <path id="Path_12478" data-name="Path 12478" d="M529.1,822.624a.589.589,0,1,0,.6.573A.6.6,0,0,0,529.1,822.624Zm0,.849a.261.261,0,0,1,.006-.521.261.261,0,1,1-.006.521Z" transform="translate(-527.884 -809.058)" fill="#414043"/>
      <path id="Path_12479" data-name="Path 12479" d="M746.363,624.19a.587.587,0,1,0,.586.582A.595.595,0,0,0,746.363,624.19Zm-.014.849a.248.248,0,0,1-.249-.264.26.26,0,0,1,.287-.259.244.244,0,0,1,.235.263A.252.252,0,0,1,746.348,625.039Z" transform="translate(-732.765 -621.896)" fill="#414043"/>
    </g>
  </g>
</svg>
