<svg id="OBJECTS" xmlns="http://www.w3.org/2000/svg" xmlns:xlink="http://www.w3.org/1999/xlink" width="118.752" height="110.399" viewBox="0 0 118.752 110.399">
  <defs>
    <radialGradient id="radial-gradient" cx="0.284" cy="0.304" r="0.684" gradientTransform="translate(0)" gradientUnits="objectBoundingBox">
      <stop offset="0" stop-color="#fff"/>
      <stop offset="0.04" stop-color="#fbfcfe"/>
      <stop offset="0.3" stop-color="#e8f0fc"/>
      <stop offset="0.45" stop-color="#e2eaf7"/>
      <stop offset="0.65" stop-color="#d3dce9"/>
      <stop offset="0.87" stop-color="#bac3d3"/>
      <stop offset="1" stop-color="#a7b1c2"/>
    </radialGradient>
  </defs>
  <path id="Path_16602" data-name="Path 16602" d="M113.086,59.117a18.938,18.938,0,0,0-7.763-6.005A132.767,132.767,0,0,0,59.376,44.69h0a132.767,132.767,0,0,0-45.947,8.421,18.938,18.938,0,0,0-7.763,6.005C2.253,64.145.231,74.378,0,84.726H0c.231,10.348,2.253,20.581,5.666,25.61a18.938,18.938,0,0,0,7.763,6.005,132.767,132.767,0,0,0,45.947,8.421h0a132.767,132.767,0,0,0,45.947-8.421,18.938,18.938,0,0,0,7.763-6.005c3.406-5.028,5.435-15.261,5.666-25.61h0C118.521,74.378,116.5,64.145,113.086,59.117Zm-93.108,1.92A1.842,1.842,0,1,1,21.816,59.2,1.836,1.836,0,0,1,19.977,61.037Zm78.79,0a1.842,1.842,0,1,1,1.839-1.839A1.836,1.836,0,0,1,98.768,61.037Z" transform="translate(0 -14.364)" fill="#d8e3e8"/>
  <path id="Path_16603" data-name="Path 16603" d="M113.086,57.577a18.938,18.938,0,0,0-7.763-6.005A132.767,132.767,0,0,0,59.376,43.15h0a132.767,132.767,0,0,0-45.947,8.421,18.938,18.938,0,0,0-7.763,6.005C2.253,62.6.231,72.838,0,83.186H0c.231,10.348,2.253,20.581,5.666,25.61a18.938,18.938,0,0,0,7.763,6.005,132.767,132.767,0,0,0,45.947,8.421h0a132.767,132.767,0,0,0,45.947-8.421,18.938,18.938,0,0,0,7.763-6.005c3.406-5.028,5.435-15.261,5.666-25.61h0c-.231-10.348-2.253-20.581-5.666-25.61ZM19.977,60.542A1.842,1.842,0,1,1,21.816,58.7,1.836,1.836,0,0,1,19.977,60.542Zm78.79,0a1.842,1.842,0,1,1,1.839-1.839A1.836,1.836,0,0,1,98.768,60.542Z" transform="translate(0 -13.869)" fill="#fff"/>
  <path id="Path_16604" data-name="Path 16604" d="M61.359,121.019a129.209,129.209,0,0,1-44.474-8.15,14.9,14.9,0,0,1-5.775-4.438C8.382,104.407,6.4,95.063,6.17,85.17c.231-9.9,2.212-19.238,4.94-23.262a14.9,14.9,0,0,1,5.775-4.438,129.209,129.209,0,0,1,44.474-8.15,129.209,129.209,0,0,1,44.474,8.15,14.9,14.9,0,0,1,5.775,4.438c2.728,4.024,4.709,13.368,4.94,23.262-.231,9.9-2.212,19.238-4.94,23.262a14.965,14.965,0,0,1-5.775,4.438,129.209,129.209,0,0,1-44.474,8.15Z" transform="translate(-1.983 -15.852)" fill="none" stroke="#2b262c" stroke-miterlimit="10" stroke-width="2"/>
  <path id="Path_16689" data-name="Path 16689" d="M13.283-6.216a6.866,6.866,0,0,1-1.554,4.829A5.839,5.839,0,0,1,7.215.3,5.839,5.839,0,0,1,2.7-1.388,6.866,6.866,0,0,1,1.147-6.216V-19.684A6.866,6.866,0,0,1,2.7-24.513,5.839,5.839,0,0,1,7.215-26.2a5.839,5.839,0,0,1,4.514,1.684,6.866,6.866,0,0,1,1.554,4.829v2.516H9.435v-2.775q0-2.553-2.109-2.553T5.217-19.943V-5.957q0,2.516,2.109,2.516T9.435-5.957v-3.7h3.848ZM19.832-25.9V-3.7h6.7V0H15.762V-25.9Zm8.14,6.216a6.777,6.777,0,0,1,1.591-4.81,5.975,5.975,0,0,1,4.588-1.7,5.975,5.975,0,0,1,4.588,1.7,6.777,6.777,0,0,1,1.591,4.81V-6.216a6.777,6.777,0,0,1-1.591,4.81A5.975,5.975,0,0,1,34.151.3a5.975,5.975,0,0,1-4.588-1.7,6.777,6.777,0,0,1-1.591-4.81Zm4.07,13.727q0,2.553,2.109,2.553T36.26-5.957V-19.943q0-2.553-2.109-2.553t-2.109,2.553Zm10.4-13.727a6.975,6.975,0,0,1,1.517-4.829A5.719,5.719,0,0,1,48.433-26.2a5.719,5.719,0,0,1,4.477,1.684,6.975,6.975,0,0,1,1.517,4.829v.814H50.579v-1.073a2.975,2.975,0,0,0-.518-1.943,1.878,1.878,0,0,0-1.517-.611,1.878,1.878,0,0,0-1.517.611,2.975,2.975,0,0,0-.518,1.943,4.784,4.784,0,0,0,.869,2.849,17.722,17.722,0,0,0,2.608,2.775,31.5,31.5,0,0,1,2.331,2.35,9.455,9.455,0,0,1,1.517,2.461,8.168,8.168,0,0,1,.629,3.293A6.866,6.866,0,0,1,52.91-1.388,5.839,5.839,0,0,1,48.4.3a5.839,5.839,0,0,1-4.514-1.684,6.866,6.866,0,0,1-1.554-4.829V-7.807h3.848v1.85q0,2.516,2.109,2.516t2.109-2.516a4.784,4.784,0,0,0-.869-2.849,17.722,17.722,0,0,0-2.609-2.775,31.5,31.5,0,0,1-2.331-2.349,9.455,9.455,0,0,1-1.517-2.461A8.168,8.168,0,0,1,42.439-19.684Zm24.013,4.7v3.7H60.865V-3.7H67.9V0H56.8V-25.9H67.9v3.7h-7.03v7.215ZM76.849-25.9A5.927,5.927,0,0,1,81.4-24.272,6.761,6.761,0,0,1,82.917-19.5V-6.4A6.761,6.761,0,0,1,81.4-1.628,5.927,5.927,0,0,1,76.849,0H70.411V-25.9ZM74.481-3.7h2.294a1.966,1.966,0,0,0,1.535-.592,2.824,2.824,0,0,0,.536-1.924V-19.684a2.824,2.824,0,0,0-.536-1.924,1.966,1.966,0,0,0-1.535-.592H74.481Z" transform="translate(16.815 91.093)" fill="#dd4a48"/>
  <path id="Path_16690" data-name="Path 16690" d="M2.684,0H1.023L.165-7.7H1.342l.649,6.072L2.574-7.7H3.74l.605,6.116L4.972-7.7H6.028L5.17,0H3.564l-.44-4.1ZM9.5-4.455v1.1H7.843V-1.1h2.09V0h-3.3V-7.7h3.3v1.1H7.843v2.145ZM10.681-7.7h1.166v1.045l-.528,1.221h-.495l.319-1.1h-.462ZM15.257,0a1.764,1.764,0,0,1-.088-.352,5.3,5.3,0,0,1-.022-.594v-1.21a1.188,1.188,0,0,0-.187-.753.743.743,0,0,0-.605-.226h-.418V0h-1.21V-7.7h1.826a1.851,1.851,0,0,1,1.364.435,1.835,1.835,0,0,1,.429,1.337v.605a1.549,1.549,0,0,1-.792,1.562,1.115,1.115,0,0,1,.616.589,2.554,2.554,0,0,1,.187,1.05V-.935a5.174,5.174,0,0,0,.022.533,1.339,1.339,0,0,0,.11.4Zm-1.32-4.235h.473a.726.726,0,0,0,.544-.187.884.884,0,0,0,.182-.627v-.759a.977.977,0,0,0-.148-.605A.561.561,0,0,0,14.52-6.6h-.583Zm6.083-.22v1.1H18.359V-1.1h2.09V0h-3.3V-7.7h3.3v1.1h-2.09v2.145Z" transform="translate(48.844 59.903)" fill="#434145"/>
  <path id="Path_16605" data-name="Path 16605" d="M144.413,62.5a2.423,2.423,0,1,0,2.423,2.423A2.424,2.424,0,0,0,144.413,62.5Zm0,3.888a1.469,1.469,0,1,1,1.466-1.466A1.464,1.464,0,0,1,144.413,66.388Z" transform="translate(-45.638 -20.089)" fill="#dae1eb"/>
  <path id="Path_16606" data-name="Path 16606" d="M142.22,64.125l.869.428a1.473,1.473,0,0,1,1.126-1.018l-.482-.855a2.433,2.433,0,0,0-1.513,1.452Z" transform="translate(-45.712 -20.146)" fill="#adb6c2"/>
  <path id="Path_16607" data-name="Path 16607" d="M144.7,63.38a1.825,1.825,0,1,0,1.825,1.825A1.826,1.826,0,0,0,144.7,63.38Zm0,3.291a1.469,1.469,0,1,1,1.466-1.466A1.464,1.464,0,0,1,144.7,66.671Z" transform="translate(-45.921 -20.371)" fill="#adb6c2"/>
  <path id="Path_16608" data-name="Path 16608" d="M25.88,64.923A2.423,2.423,0,1,0,28.3,62.5,2.424,2.424,0,0,0,25.88,64.923Zm.95,0A1.466,1.466,0,1,1,28.3,66.388,1.47,1.47,0,0,1,26.83,64.923Z" transform="translate(-8.318 -20.089)" fill="#dae1eb"/>
  <path id="Path_16609" data-name="Path 16609" d="M31.835,64.125l-.869.428a1.473,1.473,0,0,0-1.126-1.018l.482-.855a2.433,2.433,0,0,1,1.513,1.452Z" transform="translate(-9.591 -20.146)" fill="#adb6c2"/>
  <path id="Path_16610" data-name="Path 16610" d="M26.76,65.205a1.825,1.825,0,1,0,1.825-1.825,1.826,1.826,0,0,0-1.825,1.825Zm.353,0a1.466,1.466,0,1,1,1.466,1.466A1.47,1.47,0,0,1,27.113,65.205Z" transform="translate(-8.601 -20.371)" fill="#adb6c2"/>
  <path id="Path_16611" data-name="Path 16611" d="M108.241,43.886l-3.63-4.241-3.99-4.669-4-4.669-3.99-4.669-3.99-4.669L84.654,16.3l-4-4.669-3.99-4.669-2-2.334c-.061-.075-.122-.143-.19-.224s-.143-.156-.217-.231a5.245,5.245,0,0,0-.434-.434c-.149-.129-.292-.258-.428-.38s-.285-.21-.414-.305a5.609,5.609,0,0,0-.645-.414c-.163-.1-.251-.149-.251-.149s-.02-.014-.068-.041-.109-.054-.2-.088a6.91,6.91,0,0,0-.713-.305,7.325,7.325,0,0,0-2.341-.448,7.108,7.108,0,0,0-2.341.448c-.305.1-.536.238-.713.305-.081.041-.149.068-.2.088a.706.706,0,0,1-.068.041s-.088.054-.251.149a6.73,6.73,0,0,0-.645.414c-.129.1-.265.2-.414.305s-.278.244-.428.38a4.372,4.372,0,0,0-.434.434c-.075.075-.143.156-.217.231s-.129.149-.19.224l-2,2.334-3.99,4.669-4,4.669-3.99,4.669-3.99,4.669-3.99,4.669-4,4.669-3.99,4.669-3.624,4.241h0c-.21.251-.048.706.265.916a1.023,1.023,0,0,0,1.12-.081l3.454-4.038,3.99-4.669,3.99-4.669,3.99-4.669,3.99-4.669L54.1,17.34l3.99-4.669L62.084,8l2-2.334c.061-.068.129-.149.183-.217l.176-.183a3.464,3.464,0,0,1,.353-.353c.122-.109.238-.21.353-.305s.231-.17.339-.244a4.608,4.608,0,0,1,.523-.339c.129-.075.2-.122.2-.122a.323.323,0,0,1,.054-.027c.034-.014.088-.041.156-.075a5.6,5.6,0,0,1,2.348-.59,5.524,5.524,0,0,1,1.785.346,5.038,5.038,0,0,1,.563.244c.068.034.122.054.156.075a.309.309,0,0,0,.054.027s.075.048.2.122a4.607,4.607,0,0,1,.523.339c.1.075.217.156.339.244s.231.2.353.305a3.464,3.464,0,0,1,.353.353l.176.183c.061.068.122.143.183.217l2,2.334,3.99,4.669,3.99,4.669,3.99,4.669,3.99,4.669,3.99,4.669,3.99,4.669,3.99,4.669,3.44,4.024a1.023,1.023,0,0,0,1.133.1c.312-.21.482-.665.265-.909Z" transform="translate(-9.392 -0.517)" fill="#eda37e"/>
  <path id="Path_16612" data-name="Path 16612" d="M30.883,64.245l-.17-2.185-.394.461.143,1.825a1.191,1.191,0,0,0,.421-.109Z" transform="translate(-9.745 -19.947)" fill="#c2775b"/>
  <path id="Path_16613" data-name="Path 16613" d="M29.286,63.871a.633.633,0,0,0,.136.8l-.068-.882-.068.081Z" transform="translate(-9.383 -20.503)" fill="#c2775b"/>
  <path id="Path_16614" data-name="Path 16614" d="M33.26,59.081l.176,2.253.394-.461-.17-2.253Z" transform="translate(-10.69 -18.841)" fill="#c2775b"/>
  <path id="Path_16615" data-name="Path 16615" d="M31.79,60.8l.176,2.253.394-.461-.17-2.253Z" transform="translate(-10.218 -19.394)" fill="#c2775b"/>
  <path id="Path_16616" data-name="Path 16616" d="M36.21,55.641l.17,2.253.394-.461L36.6,55.18Z" transform="translate(-11.639 -17.736)" fill="#c2775b"/>
  <path id="Path_16617" data-name="Path 16617" d="M35.13,56.9l-.4.461.007.088.17,2.165.394-.461-.1-1.31Z" transform="translate(-11.163 -18.289)" fill="#c2775b"/>
  <path id="Path_16618" data-name="Path 16618" d="M39.15,52.2l.17,2.253.394-.461-.17-2.253Z" transform="translate(-12.583 -16.63)" fill="#c2775b"/>
  <path id="Path_16619" data-name="Path 16619" d="M37.68,53.921l.17,2.253.394-.461-.17-2.253Z" transform="translate(-12.111 -17.183)" fill="#c2775b"/>
  <path id="Path_16620" data-name="Path 16620" d="M42.09,48.761l.17,2.253.4-.461L42.484,48.3Z" transform="translate(-13.528 -15.524)" fill="#c2775b"/>
  <path id="Path_16621" data-name="Path 16621" d="M41.014,50.02l-.394.461.007.088.163,2.165.4-.461-.1-1.31Z" transform="translate(-13.056 -16.077)" fill="#c2775b"/>
  <path id="Path_16622" data-name="Path 16622" d="M45.03,45.321l.176,2.253.394-.461-.17-2.253Z" transform="translate(-14.473 -14.419)" fill="#c2775b"/>
  <path id="Path_16623" data-name="Path 16623" d="M43.56,47.041l.17,2.253.4-.461-.17-2.253Z" transform="translate(-14.001 -14.972)" fill="#c2775b"/>
  <path id="Path_16624" data-name="Path 16624" d="M47.98,41.881l.17,2.253.394-.461-.17-2.253Z" transform="translate(-15.422 -13.313)" fill="#c2775b"/>
  <path id="Path_16625" data-name="Path 16625" d="M46.9,43.14l-.4.461.007.088.17,2.165.394-.461-.1-1.31Z" transform="translate(-14.946 -13.866)" fill="#c2775b"/>
  <path id="Path_16626" data-name="Path 16626" d="M50.92,38.441l.17,2.253.394-.461-.17-2.253Z" transform="translate(-16.367 -12.207)" fill="#c2775b"/>
  <path id="Path_16627" data-name="Path 16627" d="M49.45,40.161l.17,2.253.394-.461-.17-2.253Z" transform="translate(-15.894 -12.76)" fill="#c2775b"/>
  <path id="Path_16628" data-name="Path 16628" d="M53.86,35l.17,2.253.4-.461-.176-2.253Z" transform="translate(-17.312 -11.102)" fill="#c2775b"/>
  <path id="Path_16629" data-name="Path 16629" d="M52.784,36.26l-.394.461.007.088.163,2.165.394-.461-.1-1.31Z" transform="translate(-16.839 -11.655)" fill="#c2775b"/>
  <path id="Path_16630" data-name="Path 16630" d="M56.8,31.561l.17,2.253.4-.461L57.2,31.1Z" transform="translate(-18.257 -9.996)" fill="#c2775b"/>
  <path id="Path_16631" data-name="Path 16631" d="M55.33,33.281l.17,2.253.4-.461-.176-2.253Z" transform="translate(-17.784 -10.549)" fill="#c2775b"/>
  <path id="Path_16632" data-name="Path 16632" d="M59.75,28.121l.17,2.253.394-.468-.17-2.246Z" transform="translate(-19.205 -8.89)" fill="#c2775b"/>
  <path id="Path_16633" data-name="Path 16633" d="M58.67,29.38l-.4.461.007.088.163,2.165.4-.461-.1-1.31Z" transform="translate(-18.729 -9.443)" fill="#c2775b"/>
  <path id="Path_16634" data-name="Path 16634" d="M62.69,24.678l.17,2.253.394-.468-.17-2.253Z" transform="translate(-20.15 -7.782)" fill="#c2775b"/>
  <path id="Path_16635" data-name="Path 16635" d="M61.22,26.4l.17,2.253.394-.468-.17-2.246Z" transform="translate(-19.677 -8.338)" fill="#c2775b"/>
  <path id="Path_16636" data-name="Path 16636" d="M65.63,21.238l.17,2.253.394-.468-.17-2.253Z" transform="translate(-21.095 -6.676)" fill="#c2775b"/>
  <path id="Path_16637" data-name="Path 16637" d="M64.554,22.49l-.394.468.007.088.163,2.165.394-.468-.1-1.3Z" transform="translate(-20.622 -7.229)" fill="#c2775b"/>
  <path id="Path_16638" data-name="Path 16638" d="M68.57,17.8l.17,2.253.4-.468-.17-2.253Z" transform="translate(-22.04 -5.57)" fill="#c2775b"/>
  <path id="Path_16639" data-name="Path 16639" d="M67.1,19.518l.17,2.253.394-.468-.17-2.253Z" transform="translate(-21.567 -6.123)" fill="#c2775b"/>
  <path id="Path_16640" data-name="Path 16640" d="M71.51,14.358l.17,2.253.4-.468-.17-2.253Z" transform="translate(-22.985 -4.464)" fill="#c2775b"/>
  <path id="Path_16641" data-name="Path 16641" d="M70.44,15.61l-.4.468.007.088.163,2.165.4-.468-.1-1.3Z" transform="translate(-22.512 -5.017)" fill="#c2775b"/>
  <path id="Path_16642" data-name="Path 16642" d="M74.46,10.911l.17,2.26.394-.468-.17-2.253Z" transform="translate(-23.933 -3.359)" fill="#c2775b"/>
  <path id="Path_16643" data-name="Path 16643" d="M72.99,12.631l.17,2.26.394-.468-.17-2.253Z" transform="translate(-23.46 -3.912)" fill="#c2775b"/>
  <path id="Path_16644" data-name="Path 16644" d="M77.4,7.471l.17,2.26.394-.468-.17-2.253Z" transform="translate(-24.878 -2.253)" fill="#c2775b"/>
  <path id="Path_16645" data-name="Path 16645" d="M76.324,8.73l-.394.461.007.088.163,2.171.394-.468-.1-1.3Z" transform="translate(-24.405 -2.806)" fill="#c2775b"/>
  <path id="Path_16646" data-name="Path 16646" d="M80.671,3.979a.347.347,0,0,0-.081.068s-.02.149-.041.366a5.523,5.523,0,0,0-.041.787,7.509,7.509,0,0,0,.041.753c.014.21.027.353.027.353a.646.646,0,0,0,.061-.075c.034-.041.088-.109.136-.156.1-.1.19-.2.19-.2s-.007-.136-.02-.339a6.011,6.011,0,0,1,.02-.76,5.49,5.49,0,0,1,.1-.78c.048-.217.075-.36.075-.36s-.136.1-.271.2c-.068.048-.136.1-.183.136Z" transform="translate(-25.876 -1.17)" fill="#c2775b"/>
  <path id="Path_16647" data-name="Path 16647" d="M79.3,5.626V5.26L79.07,5.5c-.061.061-.115.122-.149.163a.435.435,0,0,0-.061.075l.17,2.253.394-.461-.081-1.126c-.02-.285-.048-.563-.041-.78Z" transform="translate(-25.347 -1.691)" fill="#c2775b"/>
  <path id="Path_16648" data-name="Path 16648" d="M85.3,1.73l-.679.143a.857.857,0,0,0-.054.088c-.034.054-.081.136-.136.238-.109.2-.244.448-.36.7-.109.271-.2.529-.258.719-.027.1-.054.176-.068.231s-.02.088-.02.088a.394.394,0,0,1,.075-.041l.17-.075c.122-.054.244-.115.244-.115a.754.754,0,0,0,.027-.088c.02-.054.041-.143.081-.231.075-.183.19-.428.319-.685a5.151,5.151,0,0,1,.428-.665c.129-.176.231-.3.231-.3Z" transform="translate(-26.912 -0.556)" fill="#c2775b"/>
  <path id="Path_16649" data-name="Path 16649" d="M82.464,2.813s-.041.136-.109.339a6.4,6.4,0,0,0-.183.733c-.048.271-.081.536-.1.726s-.02.326-.02.326a5.245,5.245,0,0,1,.434-.333,4.692,4.692,0,0,1,.1-.624c.068-.305.163-.631.163-.631a.945.945,0,0,1,.048-.143c.034-.081.075-.2.115-.305.088-.224.2-.461.2-.461l-.618.285-.034.088Z" transform="translate(-26.372 -0.784)" fill="#c2775b"/>
  <path id="Path_16650" data-name="Path 16650" d="M89.6,2.36c.2-.088.346-.143.346-.143L89.291,2a2.382,2.382,0,0,0-.333.176c-.2.109-.441.265-.665.421a5.114,5.114,0,0,0-.57.5c-.143.143-.224.231-.224.231l.523.041a.714.714,0,0,0,.068-.061,1.638,1.638,0,0,1,.183-.156,6.906,6.906,0,0,1,.624-.428,5.252,5.252,0,0,1,.706-.353Z" transform="translate(-28.124 -0.643)" fill="#c2775b"/>
  <path id="Path_16651" data-name="Path 16651" d="M91.116,3.516s.224-.061.468-.115.489-.1.489-.1L91.5,2.96l-.088.02-.1.02c-.061.02-.149.041-.251.075-.2.061-.468.156-.713.251a7.324,7.324,0,0,0-.658.333c-.163.1-.271.163-.271.163l.509.17a1.706,1.706,0,0,1,.176-.088c.1-.048.244-.109.394-.17s.3-.115.421-.156.2-.061.2-.061Z" transform="translate(-28.741 -0.951)" fill="#c2775b"/>
  <path id="Path_16652" data-name="Path 16652" d="M87.341,1.891c.176-.136.305-.224.305-.224l-.7-.048a.831.831,0,0,1-.081.068l-.2.2a7.689,7.689,0,0,0-.529.584,6.514,6.514,0,0,0-.414.638c-.048.088-.088.156-.115.2a.728.728,0,0,0-.041.081s.034-.007.081-.02.115-.02.176-.034l.258-.054a.584.584,0,0,0,.048-.081,1.754,1.754,0,0,1,.136-.2c.115-.156.285-.366.482-.584A4.353,4.353,0,0,1,87.341,1.891Z" transform="translate(-27.504 -0.521)" fill="#c2775b"/>
  <path id="Path_16653" data-name="Path 16653" d="M93.614,4.818h.373c.007-.014-.5-.448-.5-.448h-.1a2.068,2.068,0,0,0-.265.014c-.224.02-.509.061-.78.109a7.359,7.359,0,0,0-.74.183l-.319.1.468.278a.634.634,0,0,0,.088-.027c.054-.014.136-.027.238-.054.2-.041.468-.088.753-.129s.563-.034.787-.041Z" transform="translate(-29.339 -1.405)" fill="#c2775b"/>
  <path id="Path_16654" data-name="Path 16654" d="M96.656,7.75,94.41,7.58l.394.461,2.246.176Z" transform="translate(-30.345 -2.436)" fill="#c2775b"/>
  <path id="Path_16655" data-name="Path 16655" d="M95.586,6.548l-.394-.461s-.143-.014-.353-.027-.516-.041-.787-.041a5.21,5.21,0,0,0-.76.034c-.2.02-.333.041-.333.041l.407.36s.136,0,.333-.014.489,0,.767.02c.563.041,1.126.088,1.126.088Z" transform="translate(-29.879 -1.933)" fill="#c2775b"/>
  <path id="Path_16656" data-name="Path 16656" d="M99.6,11.2,97.35,11.02l.394.461,2.253.176Z" transform="translate(-31.29 -3.542)" fill="#c2775b"/>
  <path id="Path_16657" data-name="Path 16657" d="M98.526,9.938l-.4-.468-.088-.007L95.88,9.3l.394.461,1.3.1Z" transform="translate(-30.818 -2.989)" fill="#c2775b"/>
  <path id="Path_16658" data-name="Path 16658" d="M102.543,14.636l-2.253-.176.4.461,2.246.176Z" transform="translate(-32.235 -4.648)" fill="#c2775b"/>
  <path id="Path_16659" data-name="Path 16659" d="M101.066,12.916,98.82,12.74l.4.461,2.246.176Z" transform="translate(-31.762 -4.095)" fill="#c2775b"/>
  <path id="Path_16660" data-name="Path 16660" d="M105.486,18.076,103.24,17.9l.394.461,2.246.176Z" transform="translate(-33.183 -5.753)" fill="#c2775b"/>
  <path id="Path_16661" data-name="Path 16661" d="M104.406,16.818l-.394-.461-.088-.007-2.165-.17.4.461,1.3.1Z" transform="translate(-32.707 -5.201)" fill="#c2775b"/>
  <path id="Path_16662" data-name="Path 16662" d="M108.426,21.516l-2.246-.176.394.461,2.246.176Z" transform="translate(-34.128 -6.859)" fill="#c2775b"/>
  <path id="Path_16663" data-name="Path 16663" d="M106.956,19.8l-2.246-.176.394.461,2.246.176Z" transform="translate(-33.656 -6.306)" fill="#c2775b"/>
  <path id="Path_16664" data-name="Path 16664" d="M111.366,24.956l-2.246-.176.394.461,2.253.176Z" transform="translate(-35.073 -7.965)" fill="#c2775b"/>
  <path id="Path_16665" data-name="Path 16665" d="M110.3,23.7l-.4-.461-.088-.007-2.158-.17.394.461,1.3.1Z" transform="translate(-34.601 -7.412)" fill="#c2775b"/>
  <path id="Path_16666" data-name="Path 16666" d="M114.306,28.4l-2.246-.176.4.461,2.246.176Z" transform="translate(-36.018 -9.07)" fill="#c2775b"/>
  <path id="Path_16667" data-name="Path 16667" d="M112.836,26.676,110.59,26.5l.394.461,2.253.176Z" transform="translate(-35.546 -8.518)" fill="#c2775b"/>
  <path id="Path_16668" data-name="Path 16668" d="M117.253,31.836,115,31.66l.4.461,2.246.176Z" transform="translate(-36.963 -10.176)" fill="#c2775b"/>
  <path id="Path_16669" data-name="Path 16669" d="M116.176,30.578l-.394-.461-.088-.007-2.165-.17.4.461,1.3.1Z" transform="translate(-36.491 -9.623)" fill="#c2775b"/>
  <path id="Path_16670" data-name="Path 16670" d="M120.2,35.276,117.95,35.1l.394.461,2.246.176Z" transform="translate(-37.911 -11.282)" fill="#c2775b"/>
  <path id="Path_16671" data-name="Path 16671" d="M118.726,33.556l-2.246-.176.394.461,2.246.176Z" transform="translate(-37.439 -10.729)" fill="#c2775b"/>
  <path id="Path_16672" data-name="Path 16672" d="M123.136,38.716l-2.246-.176.394.461,2.253.176Z" transform="translate(-38.856 -12.387)" fill="#c2775b"/>
  <path id="Path_16673" data-name="Path 16673" d="M122.06,37.458,121.666,37l-.088-.007-2.158-.17.394.461,1.3.1Z" transform="translate(-38.384 -11.835)" fill="#c2775b"/>
  <path id="Path_16674" data-name="Path 16674" d="M126.076,42.156l-2.246-.176.394.461,2.253.176Z" transform="translate(-39.801 -13.493)" fill="#c2775b"/>
  <path id="Path_16675" data-name="Path 16675" d="M124.606,40.436l-2.246-.176.394.461,2.253.176Z" transform="translate(-39.329 -12.94)" fill="#c2775b"/>
  <path id="Path_16676" data-name="Path 16676" d="M129.023,45.6l-2.253-.176.4.461,2.246.176Z" transform="translate(-40.746 -14.599)" fill="#c2775b"/>
  <path id="Path_16677" data-name="Path 16677" d="M127.946,44.338l-.394-.461-.088-.007L125.3,43.7l.4.461,1.3.1Z" transform="translate(-40.274 -14.046)" fill="#c2775b"/>
  <path id="Path_16678" data-name="Path 16678" d="M131.963,49.036l-2.253-.176.4.461,2.246.176Z" transform="translate(-41.691 -15.704)" fill="#c2775b"/>
  <path id="Path_16679" data-name="Path 16679" d="M130.493,47.316l-2.253-.176.4.461,2.246.176Z" transform="translate(-41.219 -15.152)" fill="#c2775b"/>
  <path id="Path_16680" data-name="Path 16680" d="M134.906,52.476,132.66,52.3l.394.461,2.253.183Z" transform="translate(-42.639 -16.81)" fill="#c2775b"/>
  <path id="Path_16681" data-name="Path 16681" d="M133.83,51.218l-.394-.461-.088-.007-2.158-.17.394.461,1.3.1Z" transform="translate(-42.167 -16.257)" fill="#c2775b"/>
  <path id="Path_16682" data-name="Path 16682" d="M137.846,55.916,135.6,55.74l.394.461,2.253.183Z" transform="translate(-43.584 -17.916)" fill="#c2775b"/>
  <path id="Path_16683" data-name="Path 16683" d="M136.376,54.2l-2.246-.176.394.461,2.253.183Z" transform="translate(-43.112 -17.363)" fill="#c2775b"/>
  <path id="Path_16684" data-name="Path 16684" d="M140.793,59.356l-2.253-.176.394.461,2.253.183Z" transform="translate(-44.529 -19.021)" fill="#c2775b"/>
  <path id="Path_16685" data-name="Path 16685" d="M139.716,58.1l-.394-.468-.088-.007-2.165-.17.394.461,1.31.1Z" transform="translate(-44.057 -18.469)" fill="#c2775b"/>
  <path id="Path_16686" data-name="Path 16686" d="M143.733,62.8l-2.253-.176.4.461,2.246.183Z" transform="translate(-45.474 -20.127)" fill="#c2775b"/>
  <path id="Path_16687" data-name="Path 16687" d="M144.6,64.9a.835.835,0,0,0,.265-.407l-1.914-.156.394.461,1.249.1Z" transform="translate(-45.947 -20.68)" fill="#c2775b"/>
  <path id="Path_16688" data-name="Path 16688" d="M142.263,61.076,140.01,60.9l.4.461,2.246.183Z" transform="translate(-45.002 -19.574)" fill="#c2775b"/>
  <circle id="Ellipse_285" data-name="Ellipse 285" cx="3.42" cy="3.42" r="3.42" transform="translate(55.956 0)" fill="url(#radial-gradient)"/>
</svg>
