<svg xmlns="http://www.w3.org/2000/svg" width="24" height="24" viewBox="0 0 24 24">
  <g id="delivery" transform="translate(-7547 -126)">
    <rect id="Rectangle_17497" data-name="Rectangle 17497" width="24" height="24" transform="translate(7547 126)" fill="none"/>
    <g id="Group_8620" data-name="Group 8620" transform="translate(7820.501 -44.241)">
      <path id="Path_12459" data-name="Path 12459" d="M-256.268,193.591a3.088,3.088,0,0,1-2.973-2.411c-.029-.128-.059-.142-.177-.142q-1.928,0-3.847,0h-3.023c-.133,0-.155,0-.17.111-.035.267-.119.541-.472.541a1.266,1.266,0,0,1-.284-.039l-.22-.047-.052.1a2.776,2.776,0,0,1-2.506,1.617,2.783,2.783,0,0,1-.606-.067,2.764,2.764,0,0,1-2.145-2.735c0-.138-.025-.161-.134-.178-.312-.048-.489-.13-.572-.267-.106-.175-.031-.4.057-.657a3.555,3.555,0,0,1,3.24-2.429c.126-.005.163-.033.195-.149.126-.47.264-.936.4-1.4l.041-.14c.075-.254.232-.4.432-.4a.449.449,0,0,1,.114.015.4.4,0,0,1,.255.186.568.568,0,0,1,.025.441l-.156.54c-.108.37-.216.74-.315,1.113a.282.282,0,0,0,.041.208q1.192,1.354,2.4,2.69a.321.321,0,0,0,.185.08,1.49,1.49,0,0,0,.17.008l.2,0a11.146,11.146,0,0,1-.543-8.655h-.347c-.161,0-.316,0-.47.01,0,.005-.032.059-.046.106q-.247.832-.486,1.666s-.137.48-.145.5a.452.452,0,0,1-.415.361.46.46,0,0,1-.136-.022.432.432,0,0,1-.273-.589c.072-.258.147-.516.222-.773l.364-1.261h-.252a.439.439,0,0,1-.482-.483c0-.6-.007-1.2,0-1.794.005-.41.226-.664.577-.664a.875.875,0,0,1,.253.041c.72.22,1.471.467,2.233.733a1.817,1.817,0,0,0,.609.1c.073,0,.147,0,.221-.011.235-.023.469-.043.7-.062.26-.021.52-.043.78-.069a.6.6,0,0,0,.253-.1,1.35,1.35,0,0,0,.77-1.376,1.407,1.407,0,0,1,.061-.5c.012-.051.025-.1.036-.156a2.536,2.536,0,0,1-1.477-1.019,2.482,2.482,0,0,1-.429-1.725c-.512-.067-.6-.189-.553-.728a3.075,3.075,0,0,1,2.974-2.822h0a3.061,3.061,0,0,1,3.071,2.764,3.338,3.338,0,0,1-.739,2.549l.186.21c.168.189.335.378.5.573a7.144,7.144,0,0,1,1.442,3.354,12.2,12.2,0,0,1,.2,2.728c-.005.115-.022.23-.039.349l-.011.082h1.32v-4.433a1.35,1.35,0,0,1,1.465-1.472s1.814.009,2.167.009c.48,0,.959,0,1.438-.017h.085a1.48,1.48,0,0,1,1.574,1.091l0,4.589c-.026.076-.044.119-.061.163a1.863,1.863,0,0,1-.141.3,1.278,1.278,0,0,1-1.129.644c-.218,0-.658,0-.659,0l-1.037,0v.852a1.05,1.05,0,0,1-.4.829,5,5,0,0,1,.478,2.252,2.738,2.738,0,0,1-.034.525,3.757,3.757,0,0,0,.011,1.19c.011.1.023.2.033.307a.688.688,0,0,1-.109.551.671.671,0,0,1-.527.159h0c-.147,0-.182.015-.212.153a3.077,3.077,0,0,1-2.975,2.4Zm-2.105-2.534a2.2,2.2,0,0,0,2.127,1.672,2.2,2.2,0,0,0,2.095-1.672Zm-13.5-.474a1.889,1.889,0,0,0,1.582,1.862,1.724,1.724,0,0,0,.259.019,1.823,1.823,0,0,0,1.717-1.063Zm4.572.166a.537.537,0,0,0-.046-.061l-.312-.35q-1.068-1.2-2.143-2.388a.364.364,0,0,0-.234-.1v-.081l0,.081a2.619,2.619,0,0,0-2.132,1.088,3.511,3.511,0,0,0-.276.452c-.027.05-.055.1-.084.153Zm1.813-1.177c.07.163.137.317.19.476.036.107.077.133.21.133.9,0,1.791,0,2.685,0h2.221a3.82,3.82,0,0,1,2.806-3.342,4.188,4.188,0,0,1,1.16-.172,3.869,3.869,0,0,1,2.9,1.41,4.208,4.208,0,0,0-.4-1.682.2.2,0,0,0-.223-.14c-.463,0-.921,0-1.378,0l-1.491,0-.083-.081v.081a1.359,1.359,0,0,1-.16-.008.4.4,0,0,1-.386-.42.407.407,0,0,1,.381-.425,1.218,1.218,0,0,1,.162-.009l.058.081v-.081h3.236c.183,0,.2-.08.2-.155,0-.217,0-.433,0-.649v-.212l-.005,0h-2.31q-1.1,0-2.2,0a.211.211,0,0,0-.126.05,1.972,1.972,0,0,1-1.31.553c-.427.023-.881.034-1.347.034l-.31,0c-.173,0-.224.052-.229.22,0,.047,0,.161,0,.161h2.475a1.228,1.228,0,0,1,.3.024.392.392,0,0,1,.31.428.39.39,0,0,1-.324.39,1.164,1.164,0,0,1-.242.018h-2.526v.708c0,.544,0,1.088,0,1.631a2.25,2.25,0,0,1-.028.335.543.543,0,0,1-.428.472,2,2,0,0,1-.454.049c-.617,0-2.59,0-2.59,0h-.646c-.047,0-.094,0-.147.006Zm12.171.593a3.01,3.01,0,0,0-3.02-2.628v-.081l-.044.082a3.02,3.02,0,0,0-2.9,2.628Zm-12.347-8.644c-.118,0-.152.025-.191.144a12.091,12.091,0,0,0-.573,2.679,9.955,9.955,0,0,0,.544,4.175.148.148,0,0,0,.066.068c.086.006.175.007.264.007h.26a1.608,1.608,0,0,1,1.206-1.482v-.225c0-.217,0-.433,0-.649,0-.483,0-.982.04-1.471a2.7,2.7,0,0,1,1.778-2.567l-.2-.742-.164.022a3.649,3.649,0,0,1-.473.045q-.619.006-1.237.006-.662,0-1.323-.007l0-.081Zm3.551,7.055v-.632c-.179-.017-.324-.018-.469-.02s-.31,0-.465,0c-.244,0-.488,0-.731.019a.638.638,0,0,0-.624.637Zm.018-1.529v-.507c0-.422,0-.836,0-1.25.015-.787.362-1.127,1.159-1.135l.326,0c.426,0,.866,0,1.293-.044a1.029,1.029,0,0,0,.725-.356,1.111,1.111,0,0,0,.219-.8.338.338,0,0,0-.056-.007h-1.582q-.791,0-1.582.005a1.348,1.348,0,0,0-.448.09,1.646,1.646,0,0,0-1.087,1.427,14.614,14.614,0,0,0-.084,1.537c0,.212-.008.424-.016.635,0,.107,0,.215,0,.325v.083Zm9.023-3.537q1.149,0,2.294-.005a.42.42,0,0,0,.4-.382c.016-.306.012-.613.009-.922l0-.314h-4.992v1.623Zm-8.2-5.771a1.257,1.257,0,0,1,.863.356,1.216,1.216,0,0,1,.383,1.262,1.579,1.579,0,0,1-.673.9c-.136.094-.275.184-.413.275-.166.108-.333.217-.494.331a.2.2,0,0,0-.064.132c.069.321.154.651.254.982a.2.2,0,0,0,.1.1c.643.006,1.288.007,1.939.007h1.006a8.933,8.933,0,0,0-.765-3.491,4.082,4.082,0,0,0-1.337-1.671.287.287,0,0,0-.149-.042c-.364.1-.678.2-.991.311l-.06.021a.282.282,0,0,0-.11.055c-.044.173-.08.357-.119.557l-.014.069c.065-.028.118-.05.171-.068A1.435,1.435,0,0,1-261.278,177.737Zm10.9,3.253v-.551h-4.982v.551Zm-14.841-.688c-.188.016-.37.032-.552.054-.115.013-.169.081-.164.208,0,.079.024.1.163.1h.71v-.375Zm1.6.361c.231,0,.459,0,.687,0a.377.377,0,0,0,.145-.067l.286-.184c.413-.265.827-.53,1.232-.805a1.445,1.445,0,0,0,.356-.351.364.364,0,0,0-.034-.48.429.429,0,0,0-.325-.173.4.4,0,0,0-.145.029,1.276,1.276,0,0,0-.35.212c-.177.149-.351.3-.525.451-.26.225-.52.45-.788.666a1.2,1.2,0,0,1-.512.211,3.1,3.1,0,0,1-.453.048l-.125.008v.439Zm-3.192-.012.111-.593-1.585-.521v1.114Zm16.453-1.094v-.308c0-.115,0-.23-.006-.344a.462.462,0,0,0-.45-.443q-1.042-.006-2.084-.005-1,0-2.01,0a.449.449,0,0,0-.448.392,5.24,5.24,0,0,0-.007.536l0,.169Zm-13.328-5.134a1.719,1.719,0,0,0,.352,1.381,1.583,1.583,0,0,0,1.229.584l.076,0c.115,0,.115-.011.114-.079,0-.268,0-.535,0-.8,0-.337,0-.674-.005-1.011a.162.162,0,0,0-.054-.067c-.357,0-.727,0-1.1,0Zm1.653-.862c.7,0,.976.277.977.986v1.466c0,.03,0,.059.005.091a1.09,1.09,0,0,0,.126-.073,2.331,2.331,0,0,0,.978-2.345,2.2,2.2,0,0,0-2.105-1.932h0a2.2,2.2,0,0,0-2.177,1.807h2.2Z" transform="translate(0 0)"/>
    </g>
  </g>
</svg>
