<svg xmlns="http://www.w3.org/2000/svg" width="24" height="24" viewBox="0 0 24 24">
  <g id="Delivery_Time" transform="translate(0 0.004)">
    <rect id="Rectangle_18031" data-name="Rectangle 18031" width="24" height="24" transform="translate(0 -0.004)" fill="none"/>
    <path id="Path_16499" data-name="Path 16499" d="M639.19,249.07a.453.453,0,0,1-.2-.048l-4.8-2.4a.455.455,0,0,1-.252-.407v-7.2a.455.455,0,1,1,.911,0v6.92l4.549,2.274a.455.455,0,0,1-.2.863" transform="translate(-622.39 -234.218)" fill="#dd4a48"/>
    <path id="Path_16500" data-name="Path 16500" d="M12,1A11,11,0,0,0,4.222,19.774,11,11,0,0,0,19.778,4.218,10.928,10.928,0,0,0,12,1m0-1A12,12,0,1,1,0,12,12,12,0,0,1,12,0" fill="#dd4a48"/>
  </g>
</svg>
