<svg xmlns="http://www.w3.org/2000/svg" width="270" height="270" viewBox="0 0 270 270">
  <g id="delivery_boy" transform="translate(-14087 -240)">
    <rect id="Rectangle_17568" data-name="Rectangle 17568" width="270" height="270" transform="translate(14087 240)" fill="none"/>
    <g id="Group_8794" data-name="Group 8794" transform="translate(14028.979 205.812)">
      <g id="Group_8664" data-name="Group 8664" transform="translate(82.785 57.896)">
        <circle id="Ellipse_253" data-name="Ellipse 253" cx="110.235" cy="110.235" r="110.235" transform="translate(0 0)" fill="#f7f7f7"/>
      </g>
      <g id="Group_8665" data-name="Group 8665" transform="translate(145.071 295.376)">
        <path id="Path_12550" data-name="Path 12550" d="M227.072,546.641a9.022,9.022,0,0,0-7.643-2.8c-2.81.23-5.056,1.484-7.518,2.858-2.144,1.2-2.881,3.144-5.449,4.035l-2.148.628a12.94,12.94,0,0,0,1.661.735c5.817.793,11.721.514,17.585.233,1.613-.077,3.505-.318,4.294-1.727C228.554,549.354,227.994,547.739,227.072,546.641Z" transform="translate(-204.314 -543.807)" fill="#414042"/>
      </g>
      <g id="Group_8674" data-name="Group 8674" transform="translate(213.044 34.188)">
        <g id="Group_8672" data-name="Group 8672" transform="translate(0)">
          <g id="Group_8666" data-name="Group 8666" transform="translate(0)">
            <circle id="Ellipse_254" data-name="Ellipse 254" cx="29.859" cy="29.859" r="29.859" transform="translate(0 58.187) rotate(-76.994)" fill="#dd4a48"/>
          </g>
          <g id="Group_8667" data-name="Group 8667" transform="translate(3.063 3.063)">
            <circle id="Ellipse_255" data-name="Ellipse 255" cx="27.135" cy="27.135" r="27.135" transform="translate(0 52.751) rotate(-76.412)" fill="#f8f4d9"/>
          </g>
          <g id="Group_8668" data-name="Group 8668" transform="translate(8.699 10.058)">
            <path id="Path_12551" data-name="Path 12551" d="M406.624,88.581a26.877,26.877,0,0,0,.9-3.143h-2.654V66.593a27.153,27.153,0,0,0-3.144-4.569V85.438h-37.25V73.493H396.85V57.529a27.086,27.086,0,0,0-3.144-1.953V70.349H372.488V53.812a26.818,26.818,0,0,0-3.143,1.26V70.349h-8.016V80.408h-7.414a27.226,27.226,0,0,0,.273,3.144h7.141V98.217a27.364,27.364,0,0,0,3.143,2.842V88.581Z" transform="translate(-353.915 -53.812)" fill="#ffc088"/>
          </g>
          <g id="Group_8671" data-name="Group 8671" transform="translate(24.264 13.883)">
            <g id="Group_8669" data-name="Group 8669" transform="translate(0 19.058)">
              <path id="Path_12552" data-name="Path 12552" d="M407.528,110.761l-11.622-12.3-11.622,12.3h3.552V122.77h16.141V110.761Z" transform="translate(-384.284 -98.46)" fill="#414042"/>
            </g>
            <g id="Group_8670" data-name="Group 8670" transform="translate(5.975)">
              <path id="Path_12553" data-name="Path 12553" d="M407.027,66.817c0,3.061-5.543,8.375-5.543,8.375s-5.542-5.314-5.542-8.375a5.543,5.543,0,0,1,11.085,0Z" transform="translate(-395.942 -61.275)" fill="#dd4a48"/>
            </g>
          </g>
        </g>
        <g id="Group_8673" data-name="Group 8673" transform="translate(33.193 16.588)">
          <path id="Path_12554" data-name="Path 12554" d="M404.324,71.793a2.619,2.619,0,1,0-2.62-2.619A2.62,2.62,0,0,0,404.324,71.793Z" transform="translate(-401.705 -66.554)" fill="#ffc088"/>
        </g>
      </g>
      <g id="Group_8793" data-name="Group 8793" transform="translate(117.932 63.936)">
        <g id="Group_8675" data-name="Group 8675" transform="translate(15.014 40.085)">
          <path id="Path_12555" data-name="Path 12555" d="M224.837,174.609c.668-.453,1.34-1.137,1.232-1.937-.136-1-1.345-1.418-2.345-1.584a59.6,59.6,0,0,0-20.551.58,178.451,178.451,0,0,0-19.958,5.307c-1.132.348-2.476.951-2.555,2.132a1.978,1.978,0,0,0,1.036,1.728,5.183,5.183,0,0,0,2.023.577,52,52,0,0,0,12.67-.26,162.369,162.369,0,0,0,22.786-4.3A18.232,18.232,0,0,0,224.837,174.609Z" transform="translate(-180.657 -170.443)" fill="#414042"/>
        </g>
        <g id="Group_8688" data-name="Group 8688" transform="translate(91.552 34.757)">
          <g id="Group_8681" data-name="Group 8681" transform="translate(0 14.988)">
            <g id="Group_8680" data-name="Group 8680">
              <g id="Group_8676" data-name="Group 8676">
                <path id="Path_12556" data-name="Path 12556" d="M363.247,218.472c-.345-5.621-1.078-11.3-.134-16.851l-10.462-1.144q-1.161,5.514-2.764,10.921c-.257-.528-.508-1.059-.742-1.6-1.424-3.3-2.325-6.807-3.611-10.167a21.738,21.738,0,0,0-5.764-8.989,4.194,4.194,0,0,0-3.59-1.266,4.05,4.05,0,0,0-1.987,1.49,17.966,17.966,0,0,0-3.085,6.345,21.956,21.956,0,0,0-.653,11.21c1.7,7.112,7.924,12.119,11.615,18.431,1.008,1.725,2.018,3.005,2.966,4.763,1.676,3.248,1.5,3.9,2.41,5.344,1.727,2.756,5.939,3.526,9.116,2.829,2.9-.636,3.22-2.08,4.5-4.753C363.5,229.957,363.592,224.093,363.247,218.472Z" transform="translate(-329.994 -189.293)" fill="#a6bebd"/>
              </g>
              <g id="Group_8677" data-name="Group 8677" transform="translate(10.202 13.403)">
                <path id="Path_12557" data-name="Path 12557" d="M364.892,215.847a.314.314,0,1,0-.6-.176,105.455,105.455,0,0,0-4.156,25.8,14.5,14.5,0,0,0,.6,5.639c.08.212.169.422.258.633a4.412,4.412,0,0,1,.511,1.954,1.48,1.48,0,0,1-.747,1.141.789.789,0,0,1-.417.1,3.572,3.572,0,0,0,.356-1.313,1.663,1.663,0,0,0-.9-1.614,2.206,2.206,0,0,0-.628-.137,2.585,2.585,0,0,1-.339-.053c-.907-.231-1.221-1.456-1.443-2.587-.886-4.507-3.2-8.5-5.434-12.353l-1.884-3.25a7.51,7.51,0,0,1-.105.813.452.452,0,0,1-.062.153l1.507,2.6c2.21,3.814,4.5,7.756,5.361,12.16.2,1.02.536,2.727,1.905,3.074a3.137,3.137,0,0,0,.422.069,1.683,1.683,0,0,1,.454.092,1.051,1.051,0,0,1,.518,1.012,3.757,3.757,0,0,1-.442,1.386.314.314,0,0,0,.122.4,1.218,1.218,0,0,0,.638.18,1.426,1.426,0,0,0,.662-.173,2.114,2.114,0,0,0,1.083-1.659,4.946,4.946,0,0,0-.559-2.24c-.087-.2-.173-.405-.249-.608a13.972,13.972,0,0,1-.561-5.395A104.85,104.85,0,0,1,364.892,215.847Z" transform="translate(-349.9 -215.444)" fill="#e8e8e8"/>
              </g>
              <g id="Group_8678" data-name="Group 8678" transform="translate(7.861 8.557)">
                <path id="Path_12558" data-name="Path 12558" d="M345.332,232.986a105.574,105.574,0,0,0,1.79-27,45.213,45.213,0,0,1,2.929,10.966A22.831,22.831,0,0,1,345.332,232.986Z" transform="translate(-345.332 -205.989)" fill="#414042"/>
              </g>
              <g id="Group_8679" data-name="Group 8679" transform="translate(22.42 7.552)">
                <path id="Path_12559" data-name="Path 12559" d="M374.651,211.805a6.547,6.547,0,0,0,3.338,1.124,8.721,8.721,0,0,0,4.251-1,3.365,3.365,0,0,0,1.876-1.777,3.82,3.82,0,0,0-.016-1.8l-.474-2.786a1.85,1.85,0,0,0-.317-.891,1.76,1.76,0,0,0-1.161-.49,15.545,15.545,0,0,0-5.2.154,3.647,3.647,0,0,0-2.739,1.648,4.064,4.064,0,0,0-.289,1.492l-.161,2.477a2.358,2.358,0,0,0,.06.912A2.01,2.01,0,0,0,374.651,211.805Z" transform="translate(-373.74 -204.028)" fill="#414042"/>
              </g>
            </g>
          </g>
          <g id="Group_8687" data-name="Group 8687" transform="translate(15.501)">
            <g id="Group_8682" data-name="Group 8682" transform="translate(10.681 5.775)">
              <path id="Path_12560" data-name="Path 12560" d="M381.731,178.025a.713.713,0,0,0,.5-.048l3.223-1.138a29.738,29.738,0,0,0-4.379-5.523q.173,3.015.345,6.031C381.439,177.61,381.49,177.924,381.731,178.025Z" transform="translate(-381.079 -171.317)" fill="#ffc088"/>
            </g>
            <g id="Group_8685" data-name="Group 8685">
              <g id="Group_8683" data-name="Group 8683">
                <rect id="Rectangle_17566" data-name="Rectangle 17566" width="11.244" height="20.627" rx="1.932" fill="#a6bebd"/>
              </g>
              <g id="Group_8684" data-name="Group 8684" transform="translate(0.684 6.625)">
                <path id="Path_12561" data-name="Path 12561" d="M361.921,185.626c.259.494.918.58,1.476.589a60.242,60.242,0,0,0,6.4-.346,1.2,1.2,0,0,0,.664-.2,1.181,1.181,0,0,0,.332-.691,33.583,33.583,0,0,0,.61-11.168l-8.519-.82a.978.978,0,0,0-1.3,1.192l.22,10.718A1.605,1.605,0,0,0,361.921,185.626Z" transform="translate(-361.573 -172.975)" fill="#414042"/>
              </g>
            </g>
            <g id="Group_8686" data-name="Group 8686" transform="translate(0.606 7.237)">
              <path id="Path_12562" data-name="Path 12562" d="M376.747,189.642c-.029-2.886-.078-7.8-.105-10.471-.014-1.385-1.082-2.014-2.29-2.327-1.076-.279-12.557-2.651-12.553-2.675a2.174,2.174,0,0,0,.5,1.656A6.427,6.427,0,0,0,363.625,177a7.919,7.919,0,0,0-1.512,1.29,2.669,2.669,0,0,0-.688,1.82,1.628,1.628,0,0,0,1.12,1.489,3.374,3.374,0,0,0-.854,1.7c-.051.642.434,1.367,1.076,1.313A8.434,8.434,0,0,0,362.4,187a5.357,5.357,0,0,1,3.038,3.883,1.143,1.143,0,0,0,.936-.634c.014-.026.022-.054.035-.08a18.1,18.1,0,0,1,2.772,2.789,13.415,13.415,0,0,0,7.547-.964C376.758,191.21,376.755,190.42,376.747,189.642Z" transform="translate(-361.42 -174.169)" fill="#ffc088"/>
            </g>
          </g>
        </g>
        <g id="Group_8695" data-name="Group 8695" transform="translate(0 10.623)">
          <g id="Group_8689" data-name="Group 8689" transform="translate(0 30.082)">
            <path id="Path_12563" data-name="Path 12563" d="M157.278,183.67c-3.987,4.344-5.437,10.458-5.8,16.343-.535,8.577.912,17.16,2.866,25.528,1.437,6.156,3.173,12.3,6.133,17.889s7.24,10.622,12.818,13.6c8.482,4.522,18.787,3.778,28.175,1.708s18.623-5.356,28.235-5.562c3.254-.07,7.079-.037,9.014-2.655,1.318-1.784,1.242-4.2,1.1-6.417q-.769-11.788-1.944-23.545c-.77-7.7-1.681-15.434-3.956-22.828s-6-14.493-11.695-19.732a23.5,23.5,0,0,0-9.722-5.641c-3.814-1.008-7.838-.735-11.766-.365q-12.722,1.2-25.286,3.643C168.826,176.92,161.835,178.7,157.278,183.67Z" transform="translate(-151.361 -171.654)" fill="#dd4a48"/>
          </g>
          <g id="Group_8692" data-name="Group 8692" transform="translate(0.693)">
            <g id="Group_8690" data-name="Group 8690">
              <path id="Path_12564" data-name="Path 12564" d="M152.731,124.578l1.827,22.291a4.984,4.984,0,0,0,5.647,4.577l54.116-7.842a5.029,5.029,0,0,0,4.246-5.419l-1.7-20.6a4.987,4.987,0,0,0-5.5-4.593l-54.238,6.153A5.025,5.025,0,0,0,152.731,124.578Z" transform="translate(-152.714 -112.959)" fill="#414042"/>
            </g>
            <g id="Group_8691" data-name="Group 8691" transform="translate(3.503 1.257)">
              <path id="Path_12565" data-name="Path 12565" d="M159.565,126.463l1.767,21.2a4.8,4.8,0,0,0,5.46,4.353l52.321-7.458a4.8,4.8,0,0,0,4.105-5.154l-1.648-19.594a4.8,4.8,0,0,0-5.315-4.368l-52.439,5.852A4.8,4.8,0,0,0,159.565,126.463Z" transform="translate(-159.548 -115.412)" fill="#a6bebd"/>
            </g>
          </g>
          <g id="Group_8693" data-name="Group 8693" transform="translate(25.797 37.715)">
            <path id="Path_12566" data-name="Path 12566" d="M238.259,186.628a168.316,168.316,0,0,0-35.809,6.014,1.039,1.039,0,0,0-.458,1.725,19.528,19.528,0,0,1,1.921,2.348c7.114,10.127,6.944,23.652,7.312,35.485.3,9.732-.044,19.468-.4,29.194-.047,1.281-.012,2.778,1.014,3.545a3.957,3.957,0,0,0,2.531.5,299.641,299.641,0,0,0,49.956-5.818c.861-22.633-1.077-42.7-8.13-59.518-.941-2.244-7.511-10.891-9.58-12.173C244.18,186.415,241.121,186.461,238.259,186.628Z" transform="translate(-201.694 -186.547)" fill="#414042"/>
          </g>
          <g id="Group_8694" data-name="Group 8694" transform="translate(3.912 40.941)">
            <path id="Path_12567" data-name="Path 12567" d="M181.671,205a31.437,31.437,0,0,0-4.258-7.5,11.859,11.859,0,0,0-6.619-4.461c-4.619-1-9.474,1.894-11.8,6.007a11.5,11.5,0,0,1,10.949-1.878,17.513,17.513,0,0,1,8.868,7.163,37.713,37.713,0,0,1,4.533,10.644c4.849,16.968,4.642,34.961,3.234,52.551C189.246,246.448,189.391,224.8,181.671,205Z" transform="translate(-158.994 -192.842)" fill="#f2c0c0"/>
          </g>
        </g>
        <g id="Group_8702" data-name="Group 8702" transform="translate(47.088 38.402)">
          <rect id="Rectangle_17567" data-name="Rectangle 17567" width="46.137" height="9.81" transform="translate(6.16 72.228)" fill="#414042"/>
          <g id="Group_8696" data-name="Group 8696" transform="translate(0 2.632)">
            <path id="Path_12568" data-name="Path 12568" d="M297.262,182.6a5.259,5.259,0,0,0-1.125-2.361c-1.279-1.314-3.394-1.065-5.215-1.277-3.372-.392-6.275-2.685-8.2-5.5-6.645,3.033-14.391,3.618-20.344-1.173a23.5,23.5,0,0,1-1.96,1.641,37.017,37.017,0,0,1-11.824,5.54,8.688,8.688,0,0,0-4.056,1.967c-1.829,1.948-1.321,5.034-.78,7.65a122.424,122.424,0,0,1-.4,51.235,5,5,0,0,0,4.009,5.985,115.159,115.159,0,0,0,50.695-2.075C292.985,224.2,302.685,202.548,297.262,182.6Z" transform="translate(-243.238 -172.296)" fill="#a6bebd"/>
          </g>
          <g id="Group_8697" data-name="Group 8697" transform="translate(18.512 21.733)">
            <path id="Path_12569" data-name="Path 12569" d="M290.79,214.218a29.139,29.139,0,0,1-11.422,1.277q-.005-2.232-.011-4.463,5.689-.473,11.318-1.467Q290.733,211.891,290.79,214.218Z" transform="translate(-279.357 -209.565)" fill="#fff"/>
          </g>
          <g id="Group_8700" data-name="Group 8700" transform="translate(29.85 6.594)">
            <g id="Group_8698" data-name="Group 8698">
              <path id="Path_12570" data-name="Path 12570" d="M301.479,180.3c2.906,3.105,2.986,7.828,2.917,12.08q-.507,30.882.39,61.765l5.51-.47q-.653-29.005-1.307-58.01c-.118-5.256-.246-10.576-1.661-15.639Z" transform="translate(-301.479 -180.027)" fill="#414042"/>
            </g>
            <g id="Group_8699" data-name="Group 8699" transform="translate(3.446 0.694)">
              <path id="Path_12571" data-name="Path 12571" d="M311.068,229.276c-.507-10.6-1.032-21.566-.21-32.431.449-5.951-.713-10.624-2.037-15.463-.206.047-.412.085-.619.122,1.313,4.8,2.471,9.431,2.028,15.294-.824,10.9-.3,21.887.21,32.508.164,3.416.333,6.948.455,10.441a76.04,76.04,0,0,1-.317,13.374.315.315,0,0,0,.267.356.447.447,0,0,0,.045,0,.315.315,0,0,0,.311-.271,76.621,76.621,0,0,0,.323-13.485C311.4,236.227,311.232,232.693,311.068,229.276Z" transform="translate(-308.203 -181.382)" fill="#a6bebd"/>
            </g>
          </g>
          <g id="Group_8701" data-name="Group 8701" transform="translate(17.325)">
            <path id="Path_12572" data-name="Path 12572" d="M277.042,171.245a21.633,21.633,0,0,0,24.444,1.48,6.938,6.938,0,0,1-2-2.879,21.1,21.1,0,0,1-10.118,2.016,12.224,12.224,0,0,1-8.941-4.7A10.238,10.238,0,0,1,277.042,171.245Z" transform="translate(-277.042 -167.161)" fill="#414042"/>
          </g>
        </g>
        <g id="Group_8706" data-name="Group 8706" transform="translate(58.436 167.962)">
          <g id="Group_8703" data-name="Group 8703">
            <path id="Path_12573" data-name="Path 12573" d="M286.8,419.951h-6.5c-8.241,0-14.922,13.844-14.922,30.922s6.681,30.922,14.922,30.922h6.5c8.241,0,14.922-13.844,14.922-30.922S295.044,419.951,286.8,419.951Z" transform="translate(-265.379 -419.951)" fill="#414042"/>
          </g>
          <g id="Group_8704" data-name="Group 8704" transform="translate(4.882 9.132)">
            <ellipse id="Ellipse_256" data-name="Ellipse 256" cx="6.962" cy="21.79" rx="6.962" ry="21.79" fill="#a6bebd"/>
          </g>
          <g id="Group_8705" data-name="Group 8705" transform="translate(4.442 8.346)">
            <ellipse id="Ellipse_257" data-name="Ellipse 257" cx="5.83" cy="18.247" rx="5.83" ry="18.247" fill="#414042"/>
          </g>
        </g>
        <g id="Group_8711" data-name="Group 8711" transform="translate(37.16 125.321)">
          <g id="Group_8707" data-name="Group 8707" transform="translate(23.672)">
            <path id="Path_12574" data-name="Path 12574" d="M331.547,351.531a39.042,39.042,0,0,0-53.255-7.541,19.793,19.793,0,0,0-6.988,7.877c-2.078,4.787-1.151,10.28-.188,15.408q3.819,20.332,7.637,40.663a10.75,10.75,0,0,0,1.569,4.5c1.25,1.693,3.358,2.493,5.38,3.074,15.045,4.318,31.1,1.207,46.437-1.923,3.1-.632,6.505-1.466,8.271-4.085a11.52,11.52,0,0,0,1.522-4.909,93.605,93.605,0,0,0,.016-26.124C340.592,368.825,337.6,359.165,331.547,351.531Z" transform="translate(-270.054 -336.753)" fill="#414042"/>
          </g>
          <g id="Group_8708" data-name="Group 8708" transform="translate(0 16.162)">
            <path id="Path_12575" data-name="Path 12575" d="M258.02,382.777c-2.208-5.506-5.4-12.414-11.54-14.106-5.174-1.427-10.805,1.283-14.232,5.413s-5.053,9.438-6.307,14.656a75.586,75.586,0,0,0,2.152,42.532c12.408,1.377,22.423,2.13,35.443,1.588.787-.033.846-14.218.82-15.584a106.987,106.987,0,0,0-1.471-15.731,90.807,90.807,0,0,0-4.714-18.392Z" transform="translate(-223.866 -368.287)" fill="#dd4a48"/>
          </g>
          <g id="Group_8709" data-name="Group 8709" transform="translate(19.424 29.995)">
            <path id="Path_12576" data-name="Path 12576" d="M276.341,399.633c2.746,6.833,2.677,14.538,1.127,21.737s-4.5,14.007-7.441,20.76c-.492,1.133-1.406,2.486-2.6,2.164-.887-.239-1.249-1.277-1.474-2.168-1.684-6.672-3.373-13.379-3.97-20.235s-.056-13.926,2.587-20.28a11.487,11.487,0,0,1,3.859-5.354c1.857-1.24,4.58-1.413,6.2.123Z" transform="translate(-261.766 -395.278)" fill="#414042"/>
          </g>
          <g id="Group_8710" data-name="Group 8710" transform="translate(33.003 72.328)">
            <path id="Path_12577" data-name="Path 12577" d="M302.872,483.223c-5.213-.577-10.934-1.406-14.394-5.347a6.392,6.392,0,0,0,1.866,6.168,15.483,15.483,0,0,0,5.839,3.319c15.373,5.628,32.366,4.463,48.531,1.874.794-2.321-1.83.717-1.035-1.6C329.43,491.81,317.63,484.855,302.872,483.223Z" transform="translate(-288.259 -477.876)" fill="#dd4a48"/>
          </g>
        </g>
        <g id="Group_8712" data-name="Group 8712" transform="translate(27.768 208.614)">
          <path id="Path_12578" data-name="Path 12578" d="M205.54,499.554c7.949,5.69,18.163,8.113,27.505,5.239C224.4,500.719,215.032,498.433,205.54,499.554Z" transform="translate(-205.54 -499.27)" fill="#414042"/>
        </g>
        <g id="Group_8713" data-name="Group 8713" transform="translate(32.176 207.53)">
          <path id="Path_12579" data-name="Path 12579" d="M231.67,511.8l1.286-13.6a80.012,80.012,0,0,1-17.053-1.051,101.859,101.859,0,0,1-1.761,12.465Z" transform="translate(-214.142 -497.155)" fill="#fff"/>
        </g>
        <g id="Group_8714" data-name="Group 8714" transform="translate(115.825 96.85)">
          <path id="Path_12580" data-name="Path 12580" d="M410.242,340.279a100.55,100.55,0,0,1-6.724-26.429c-1.354-10.695-1.49-21.5-1.624-32.28a66.07,66.07,0,0,0-24.541,2.014c5.44,20.153,12.017,41.059,23.837,59.266C404.231,342.148,407.246,341.22,410.242,340.279Z" transform="translate(-377.353 -281.201)" fill="#ffc088"/>
        </g>
        <g id="Group_8715" data-name="Group 8715" transform="translate(27.483 215.149)">
          <path id="Path_12581" data-name="Path 12581" d="M221.152,512.163a8.28,8.28,0,0,1,5.036,2.682c2.145,2.567,2.023,6.291,1.6,9.609s-1,6.876.514,9.861q-11.487-.041-22.941,1.041c-.791-5.4-.466-11.177,2.234-15.923S215.765,511.272,221.152,512.163Z" transform="translate(-204.984 -512.021)" fill="#0c4e5f"/>
        </g>
        <g id="Group_8716" data-name="Group 8716" transform="translate(38.522 214.621)">
          <path id="Path_12582" data-name="Path 12582" d="M229.614,511.047a3.241,3.241,0,0,0-2.494,1.2,3.5,3.5,0,0,0-.421,1.464,23.951,23.951,0,0,0,1.131,10.7,2.06,2.06,0,0,0,.927,1.313,2.277,2.277,0,0,0,1.071.1,17.054,17.054,0,0,1,7.127,1.107,50.8,50.8,0,0,1,.372-10.712,4.221,4.221,0,0,0-.231-2.83,3.387,3.387,0,0,0-1.3-1.1A10.629,10.629,0,0,0,229.614,511.047Z" transform="translate(-226.523 -510.99)" fill="#dd4a48"/>
        </g>
        <g id="Group_8717" data-name="Group 8717" transform="translate(27.732 222.506)">
          <path id="Path_12583" data-name="Path 12583" d="M208.886,527.5a2.426,2.426,0,0,1,2.046-1.108,2.218,2.218,0,0,1,1.482,1.276,16.762,16.762,0,0,1,1.148,3.948,5.624,5.624,0,0,0,2.037,3.475,17.534,17.534,0,0,1-7.246,3.516,3.974,3.974,0,0,1-1.574.11,1.584,1.584,0,0,1-1.218-.908,2.407,2.407,0,0,1,0-1.3C206.157,533.326,206.82,529.991,208.886,527.5Z" transform="translate(-205.47 -526.375)" fill="#a6bebd"/>
        </g>
        <g id="Group_8718" data-name="Group 8718" transform="translate(26.293 226.574)">
          <path id="Path_12584" data-name="Path 12584" d="M227.763,542.1c-.111-2.429-.7-5.058-2.605-6.573-2.243-1.786-5.574-1.4-8.139-.117a57.194,57.194,0,0,0-5.5,3.59,11.464,11.464,0,0,1-6.1,2.2,3.285,3.285,0,0,0-2.021.337,2.688,2.688,0,0,0-.727,2.161,3.775,3.775,0,0,0,.533,2.528,3.655,3.655,0,0,0,2.55,1.006,104.467,104.467,0,0,0,17.971-.143,5.191,5.191,0,0,0,2.532-.607C227.615,545.6,227.836,543.716,227.763,542.1Z" transform="translate(-202.662 -534.314)" fill="#ffc088"/>
        </g>
        <g id="Group_8734" data-name="Group 8734" transform="translate(59.684)">
          <g id="Group_8719" data-name="Group 8719" transform="translate(6.471 9.396)">
            <path id="Path_12585" data-name="Path 12585" d="M306.426,116.223a23.736,23.736,0,0,1-3.347,19.931,8.487,8.487,0,0,1-3.161,2.964c-2.447,1.145-5.316.228-7.855-.7-2.858-1.042-5.827-2.156-7.913-4.37a14.707,14.707,0,0,1-3.4-7.764c-.567-3.375-.471-7.033,1.286-9.97,2.19-3.659,6.605-5.515,10.864-5.726s8.45.97,12.551,2.14Z" transform="translate(-280.44 -110.565)" fill="#414042"/>
          </g>
          <g id="Group_8727" data-name="Group 8727" transform="translate(6.877 8.334)">
            <g id="Group_8720" data-name="Group 8720" transform="translate(0.879 23.69)">
              <path id="Path_12586" data-name="Path 12586" d="M302.74,165.793c-.321-.4-.623-.821-.9-1.249-1.919-2.972-2.919-6.428-3.9-9.828l-10.694.16a18.228,18.228,0,0,1-4.3,7.626C288.422,166.738,296.06,167.173,302.74,165.793Z" transform="translate(-282.948 -154.715)" fill="#ffc088"/>
            </g>
            <g id="Group_8721" data-name="Group 8721">
              <path id="Path_12587" data-name="Path 12587" d="M305.757,122.944c-.024-.127-.05-.253-.077-.378-.207-.939-.635-2.055-.155-2.988.747-1.454.629-1.808-.341-4.815l-1.047-2.34a13.4,13.4,0,0,0-9.711-3.93,26.039,26.039,0,0,0-10.412,2.44,4.282,4.282,0,0,0-2.659,2.238,4.335,4.335,0,0,0,0,2.019c.433,2.668.96,5.319,1.487,7.97a22.965,22.965,0,0,0,1.87,6.236,22.992,22.992,0,0,0,5.451,6.18,11.05,11.05,0,0,0,2.724,1.967,6.88,6.88,0,0,0,6.171-.569,12.526,12.526,0,0,0,4.314-4.682,21.558,21.558,0,0,0,2.434-6.422A7.6,7.6,0,0,0,305.757,122.944Z" transform="translate(-281.233 -108.492)" fill="#ffc088"/>
            </g>
            <g id="Group_8726" data-name="Group 8726" transform="translate(8.521 9.286)">
              <g id="Group_8723" data-name="Group 8723">
                <path id="Path_12588" data-name="Path 12588" d="M298.257,129.242a5.927,5.927,0,0,1,4.825-1.841,1.661,1.661,0,0,1,.4-.748,6.56,6.56,0,0,0-5.624,2.249A1.341,1.341,0,0,1,298.257,129.242Z" transform="translate(-297.859 -126.611)" fill="#0c4e5f"/>
                <g id="Group_8722" data-name="Group 8722" transform="translate(2.472 3.124)">
                  <path id="Path_12589" data-name="Path 12589" d="M303.636,135.105a.925.925,0,0,1-.557-.066.752.752,0,0,1-.3-.414,1.642,1.642,0,0,1-.028-1.012,1.313,1.313,0,0,1,.594-.782.942.942,0,0,1,.957.013,1.454,1.454,0,0,1,.505,1.087,1.2,1.2,0,0,1-.035.57.866.866,0,0,1-.476.459A2.172,2.172,0,0,1,303.636,135.105Z" transform="translate(-302.683 -132.707)" fill="#0c4e5f"/>
                  <path id="Path_12590" data-name="Path 12590" d="M305.117,134.44a.547.547,0,0,0-.531-.322c-.231.046-.349.305-.386.538a1.044,1.044,0,0,0,.025.5.556.556,0,0,0,.328.355.546.546,0,0,0,.639-.315A.852.852,0,0,0,305.117,134.44Z" transform="translate(-303.414 -133.391)" fill="#414042"/>
                  <path id="Path_12591" data-name="Path 12591" d="M303.864,134.582a.27.27,0,0,0,.21-.1.3.3,0,0,0,.01-.419.248.248,0,0,0-.264-.023.318.318,0,0,0-.158.221A.263.263,0,0,0,303.864,134.582Z" transform="translate(-303.157 -133.344)" fill="#fff"/>
                </g>
              </g>
              <g id="Group_8725" data-name="Group 8725" transform="translate(12.445 0.114)">
                <path id="Path_12592" data-name="Path 12592" d="M323.128,127.466a1.9,1.9,0,0,1,1.67,1.038c0,.006.009.012.012.018a.356.356,0,0,0,.211-.36.858.858,0,0,0-.262-.469,2.92,2.92,0,0,0-.886-.68,1.713,1.713,0,0,0-1.094-.143.848.848,0,0,0-.589.408.511.511,0,0,0,.006.449A1.846,1.846,0,0,1,323.128,127.466Z" transform="translate(-322.142 -126.834)" fill="#0c4e5f"/>
                <g id="Group_8724" data-name="Group 8724" transform="translate(0.795 2.805)">
                  <path id="Path_12593" data-name="Path 12593" d="M323.7,133.436a1.034,1.034,0,0,1,.2-.669.863.863,0,0,1,.84-.446.742.742,0,0,1,.486.444,2.031,2.031,0,0,1,.131.667.871.871,0,0,1-.2.765.72.72,0,0,1-.668.053A1.068,1.068,0,0,1,323.7,133.436Z" transform="translate(-323.692 -132.307)" fill="#0c4e5f"/>
                  <path id="Path_12594" data-name="Path 12594" d="M325.432,133.574a.356.356,0,0,0-.359-.151.385.385,0,0,0-.2.237.9.9,0,0,0-.078.478.454.454,0,0,0,.286.367.438.438,0,0,0,.516-.31A.69.69,0,0,0,325.432,133.574Z" transform="translate(-324.226 -132.845)" fill="#414042"/>
                  <path id="Path_12595" data-name="Path 12595" d="M324.846,133.6a.206.206,0,0,0,.16-.075.229.229,0,0,0,.008-.318.188.188,0,0,0-.2-.017.24.24,0,0,0-.12.168A.2.2,0,0,0,324.846,133.6Z" transform="translate(-324.178 -132.727)" fill="#fff"/>
                </g>
              </g>
            </g>
          </g>
          <g id="Group_8733" data-name="Group 8733">
            <g id="Group_8728" data-name="Group 8728" transform="translate(6.877 8.334)">
              <path id="Path_12596" data-name="Path 12596" d="M287.548,119.218c2.908-2.331,12.5-1.781,18.415-2.226-.12-.584-.408-1.076-.78-2.228l-1.047-2.34a13.4,13.4,0,0,0-9.711-3.93,26.039,26.039,0,0,0-10.412,2.44,4.282,4.282,0,0,0-2.659,2.238,4.335,4.335,0,0,0,0,2.019c.433,2.668.96,5.319,1.487,7.97a22.965,22.965,0,0,0,1.87,6.236,13.371,13.371,0,0,0,1.384,2.1C285.3,126.674,284.637,122.13,287.548,119.218Z" transform="translate(-281.233 -108.492)" fill="#414042"/>
            </g>
            <g id="Group_8732" data-name="Group 8732">
              <g id="Group_8729" data-name="Group 8729">
                <path id="Path_12597" data-name="Path 12597" d="M280.63,92.982a17.135,17.135,0,0,0-8.915,5.487,19.255,19.255,0,0,0-3.723,10.072,22.953,22.953,0,0,0,.832,9.77,14.161,14.161,0,0,0,6.424,8.055,2.857,2.857,0,0,0,1.715.385c1.649-.219,1.976-1.907,2.035-3.315a39.511,39.511,0,0,0-.848-9.913,3.906,3.906,0,0,1,3.62-4.746c6.54-.306,13.033-.372,19.6-.841a1.392,1.392,0,0,0,.858-.258,1.327,1.327,0,0,0,.306-1.009,14.462,14.462,0,0,0-7.421-12.18A19.269,19.269,0,0,0,280.63,92.982Z" transform="translate(-267.815 -92.232)" fill="#dd4a48"/>
              </g>
              <g id="Group_8730" data-name="Group 8730" transform="translate(7.467 14.376)">
                <path id="Path_12598" data-name="Path 12598" d="M283.556,140.555a1.586,1.586,0,0,1-1.067-.388.314.314,0,0,1,.418-.469.978.978,0,0,0,.731.226,1.607,1.607,0,0,0,1.073-.537,3.879,3.879,0,0,0,.718-2.19,19.531,19.531,0,0,0-.536-6.851c-.062-.236-.128-.475-.193-.715-.453-1.644-.921-3.344-.251-4.929a5.035,5.035,0,0,1,3.149-2.657,14.3,14.3,0,0,1,4.02-.535l14.357-.528a9.24,9.24,0,0,0,3.76-.668.314.314,0,1,1,.28.563,9.707,9.707,0,0,1-4.017.733l-14.357.528a13.832,13.832,0,0,0-3.845.5,4.411,4.411,0,0,0-2.768,2.305c-.585,1.384-.147,2.977.278,4.517.067.243.134.485.2.724a20.145,20.145,0,0,1,.553,7.071,4.482,4.482,0,0,1-.868,2.538,2.224,2.224,0,0,1-1.508.753C283.638,140.554,283.6,140.555,283.556,140.555Z" transform="translate(-282.384 -120.281)" fill="#a6bebd"/>
              </g>
              <g id="Group_8731" data-name="Group 8731" transform="translate(1.613 0.87)">
                <path id="Path_12599" data-name="Path 12599" d="M290.64,94.284a16.249,16.249,0,0,0-18.6,21.819,17.8,17.8,0,0,1,14.2-21.217Z" transform="translate(-270.961 -93.93)" fill="#f2c0c0"/>
              </g>
            </g>
          </g>
        </g>
        <g id="Group_8739" data-name="Group 8739" transform="translate(36.085 48.52)">
          <g id="Group_8735" data-name="Group 8735" transform="translate(8.861 4.725)">
            <path id="Path_12600" data-name="Path 12600" d="M249.006,196.4a2.308,2.308,0,0,1,2.536.247,5.491,5.491,0,0,1,1.567,2.177,25.635,25.635,0,0,1,1.689,14.2A76.46,76.46,0,0,1,251.063,227a127.584,127.584,0,0,0,18.233,9.262,46.067,46.067,0,0,1-30.238-3.892c5.932-9.961,6.929-21.969,8.745-33.42A3.509,3.509,0,0,1,249.006,196.4Z" transform="translate(-239.057 -196.121)" fill="#414042"/>
          </g>
          <g id="Group_8736" data-name="Group 8736">
            <path id="Path_12601" data-name="Path 12601" d="M247.85,244.441c2.676.672,5.585,1.232,8.125.153,2.066-.878,3.552-2.708,4.886-4.513,1.364-1.845,2.715-4.236,1.711-6.3-.906-1.861-3.235-2.413-5.252-2.874a53.709,53.709,0,0,1-17.647-7.558c.854-4.289,2.643-8.324,4.114-12.441s2.645-8.472,2.19-12.821-2.827-8.716-6.811-10.519a6.067,6.067,0,0,0-4.214-.469c-1.952.6-3.209,2.453-4.21,4.232-6.143,10.918-5.165,22.351-8.771,36.145a8.289,8.289,0,0,0,1.089,6.117c1.192,2.019,3.416,3.161,5.552,4.129A113.907,113.907,0,0,0,247.85,244.441Z" transform="translate(-221.768 -186.901)" fill="#a6bebd"/>
          </g>
          <g id="Group_8737" data-name="Group 8737" transform="translate(33.443 47.003)">
            <path id="Path_12602" data-name="Path 12602" d="M287.116,284.925a4.181,4.181,0,0,0,.752,3.592,5.2,5.2,0,0,0,2.243,1.161,4.818,4.818,0,0,0,2.224.349,3.952,3.952,0,0,0,2.013-1.172,10.819,10.819,0,0,0,2.976-5.1,4.583,4.583,0,0,0-.165-3.289,3.728,3.728,0,0,0-2.574-1.749,5.908,5.908,0,0,0-5.014,1.489A8.143,8.143,0,0,0,287.116,284.925Z" transform="translate(-287.021 -278.612)" fill="#414042"/>
          </g>
          <g id="Group_8738" data-name="Group 8738" transform="translate(0.013 42.316)">
            <path id="Path_12603" data-name="Path 12603" d="M255.036,284.79a.314.314,0,0,1-.28-.17c-.338-.655-.755-.621-1.6-.49a3.958,3.958,0,0,1-2-.054,80.758,80.758,0,0,0-8.416-2.219,83.078,83.078,0,0,1-8.3-2.177c-5.144-1.736-10.233-4.122-12.626-9.778a.314.314,0,0,1,.579-.245c2.3,5.427,7.243,7.738,12.248,9.427a82.735,82.735,0,0,0,8.242,2.159,81.416,81.416,0,0,1,8.482,2.237,3.4,3.4,0,0,0,1.695.028c.793-.125,1.692-.264,2.251.823a.314.314,0,0,1-.279.458Z" transform="translate(-221.793 -269.465)" fill="#e8e8e8"/>
          </g>
        </g>
        <g id="Group_8740" data-name="Group 8740" transform="translate(36.494 219.345)">
          <path id="Path_12604" data-name="Path 12604" d="M224.065,521.972a14.087,14.087,0,0,1,6.053-1.759,8.421,8.421,0,0,1,5.874,1.942,2.936,2.936,0,0,1,.855,1.936.227.227,0,0,1-.388.163,8.813,8.813,0,0,0-6.419-2.564A11.926,11.926,0,0,0,223,524.539a1.108,1.108,0,0,1-.261-1.494A3.165,3.165,0,0,1,224.065,521.972Z" transform="translate(-222.566 -520.208)" fill="#414042"/>
        </g>
        <g id="Group_8741" data-name="Group 8741" transform="translate(36.612 221.526)">
          <path id="Path_12605" data-name="Path 12605" d="M224.3,526.227a14.087,14.087,0,0,1,6.053-1.759,8.421,8.421,0,0,1,5.874,1.942,2.936,2.936,0,0,1,.855,1.936.227.227,0,0,1-.388.163,8.812,8.812,0,0,0-6.419-2.563,11.925,11.925,0,0,0-7.038,2.848,1.108,1.108,0,0,1-.261-1.494A3.165,3.165,0,0,1,224.3,526.227Z" transform="translate(-222.796 -524.463)" fill="#414042"/>
        </g>
        <g id="Group_8742" data-name="Group 8742" transform="translate(37.071 224.162)">
          <path id="Path_12606" data-name="Path 12606" d="M223.916,532.591a9.213,9.213,0,0,1,6.145-2.959,10.546,10.546,0,0,1,6.613,1.826,2.192,2.192,0,0,1,.881.935.862.862,0,0,1-.38,1.11,11.267,11.267,0,0,0-12.819-.326c-.17.111-.4.228-.56.108C223.581,533.129,223.738,532.79,223.916,532.591Z" transform="translate(-223.692 -529.607)" fill="#414042"/>
        </g>
        <g id="Group_8747" data-name="Group 8747" transform="translate(27.704 117.788)">
          <g id="Group_8743" data-name="Group 8743" transform="translate(18.247 0)">
            <path id="Path_12607" data-name="Path 12607" d="M279.547,322.158h-20.4c-4.214.706-9.679-1.351-12.77,1.3-4.854,4.158-5.9,14.2-5.129,20.153a5.325,5.325,0,0,0,1.172,3.024c1.568,1.705,4.456,1.616,6.933,1.622a37.159,37.159,0,0,1,13.3,2.488c2.49.968,5.139,2.238,7.769,1.633,1.982-.456,3.459-1.887,4.812-3.253,3.166-3.2,6.36-6.474,8.3-10.37s2.46-8.571.247-12.349A12.98,12.98,0,0,0,279.547,322.158Z" transform="translate(-241.02 -322.054)" fill="#a6bebd"/>
          </g>
          <g id="Group_8744" data-name="Group 8744" transform="translate(0 3.801)">
            <path id="Path_12608" data-name="Path 12608" d="M258.222,332.685c-1.289-1.544-2.865-3.184-4.876-3.213a6.77,6.77,0,0,0-4.029,1.792c-8.265,6.381-14.224,15.257-19.425,24.311a235.044,235.044,0,0,0-24.476,61.21,181.329,181.329,0,0,1,27.535,5.282c6.737-23.337,13.579-46.928,25.634-68.015,2.351-4.112,4.992-8.6,4.178-13.262C262.223,337.7,260.231,335.09,258.222,332.685Z" transform="translate(-205.416 -329.471)" fill="#a6bebd"/>
          </g>
          <g id="Group_8745" data-name="Group 8745" transform="translate(19.452 18.431)">
            <path id="Path_12609" data-name="Path 12609" d="M243.37,363.865a5.487,5.487,0,0,0,5.268,1.929,9.025,9.025,0,0,0,5.005-2.923,26.868,26.868,0,0,0,3.338-4.855A20.337,20.337,0,0,1,243.37,363.865Z" transform="translate(-243.37 -358.016)" fill="#414042"/>
          </g>
          <g id="Group_8746" data-name="Group 8746" transform="translate(2.864 12.359)">
            <path id="Path_12610" data-name="Path 12610" d="M211.32,425.5a.337.337,0,0,1-.081-.01.314.314,0,0,1-.222-.385c4.595-17.2,11.678-35.23,21.655-55.116,2.519-5.022,5.377-10.153,10.135-12.885a.584.584,0,0,0,.3-.469.555.555,0,0,0-.214-.484l-.789-.622a1.418,1.418,0,0,1-.535-1.252,1.376,1.376,0,0,1,.735-1.1,16.967,16.967,0,0,1,5.034-1.681,10.873,10.873,0,0,0-3.231-.2.759.759,0,0,1-.524-1.358,20.211,20.211,0,0,1,3.665-2.22l-11.117,2.118a15.937,15.937,0,0,1-5.4.4,5.188,5.188,0,0,1-4.272-2.918.315.315,0,0,1,.579-.246,4.618,4.618,0,0,0,3.788,2.542,15.507,15.507,0,0,0,5.184-.4L252,346.175a.314.314,0,1,1,.118.618,19.561,19.561,0,0,0-8.158,3.648.12.12,0,0,0-.039.149.118.118,0,0,0,.128.083,11.686,11.686,0,0,1,3.416.21.63.63,0,0,1-.028,1.24,16.4,16.4,0,0,0-4.848,1.618.741.741,0,0,0-.4.6.791.791,0,0,0,.3.7l.789.622a1.193,1.193,0,0,1,.452,1.024,1.221,1.221,0,0,1-.613.968c-4.607,2.644-7.41,7.686-9.886,12.622-9.957,19.847-17.025,37.836-21.61,55A.314.314,0,0,1,211.32,425.5Z" transform="translate(-211.005 -346.169)" fill="#e8e8e8"/>
          </g>
        </g>
        <g id="Group_8791" data-name="Group 8791" transform="translate(68.131 57.401)">
          <g id="Group_8756" data-name="Group 8756" transform="translate(17.585 39.449)">
            <g id="Group_8753" data-name="Group 8753" transform="translate(0 4.106)">
              <g id="Group_8748" data-name="Group 8748">
                <path id="Path_12611" data-name="Path 12611" d="M394.128,307.989c-1.412-4.562-2.936-9.316-6.3-12.7-4.514-4.537-11.377-5.677-17.77-5.974-12.546-.581-25.406,1.264-36.605,6.947-3.854,1.955-7.569,4.429-10.094,7.936-3.205,4.452-4.183,10.116-4.548,15.59-1.267,19.027,3.779,37.837,5.924,56.785.64,5.65.845,11.94-2.72,16.369-1.1,1.363-2.613,3.016-1.835,4.583.573,1.154,2.066,1.427,3.348,1.553,18.734,1.838,38.158,1.9,55.756-4.78,9.942-3.775,19.481-10.1,24.173-19.647,3.28-6.671,3.921-14.394,3.1-21.782s-3.032-14.542-5.23-21.644Z" transform="translate(-318.605 -289.212)" fill="#dd4a48"/>
              </g>
              <g id="Group_8749" data-name="Group 8749" transform="translate(29.775 56.696)">
                <path id="Path_12612" data-name="Path 12612" d="M425.222,413.182c-3.326-6.488-9.32-11.924-16.515-13.105-6.625-1.088-13.523,1.58-18.48,6.108s-8.133,10.738-10.037,17.177-2.623,13.158-3.325,19.836c-.3,2.884-.419,6.267,1.788,8.148,1.972,1.682,4.907,1.365,7.449.863a108.748,108.748,0,0,0,24.948-8.165c6.865-3.21,13.91-7.765,16.2-14.989C428.908,423.837,427.719,418.051,425.222,413.182Z" transform="translate(-376.701 -399.834)" fill="#414042"/>
              </g>
              <g id="Group_8750" data-name="Group 8750" transform="translate(5.256 15.331)">
                <path id="Path_12613" data-name="Path 12613" d="M338.849,320.32a2.432,2.432,0,0,0-3.724-.57c-3.517,3.128-5.524,7.913-6.072,12.661-.682,5.916.573,11.872,1.817,17.69l6.566-1.058a38.75,38.75,0,0,1,.061-12.107,16.977,16.977,0,0,1,4.779-9.072,1.916,1.916,0,0,0,.11-2.69A30.323,30.323,0,0,1,338.849,320.32Z" transform="translate(-328.86 -319.124)" fill="#fff"/>
              </g>
              <g id="Group_8751" data-name="Group 8751" transform="translate(66.756 11.101)">
                <path id="Path_12614" data-name="Path 12614" d="M449.424,311.743a13.364,13.364,0,0,1-.489,2.7,1.9,1.9,0,0,0,.527,1.941,24.927,24.927,0,0,1,6.826,10.582,1.289,1.289,0,0,0,1.472-.95,3.736,3.736,0,0,0-.089-1.921,31.929,31.929,0,0,0-6.656-12.921A.916.916,0,0,0,449.424,311.743Z" transform="translate(-448.857 -310.872)" fill="#fff"/>
              </g>
              <g id="Group_8752" data-name="Group 8752" transform="translate(1.46 7.372)">
                <path id="Path_12615" data-name="Path 12615" d="M327.475,376.745c.569-8.83-1.274-17.612-2.82-26.324s-2.8-17.686-1.065-26.363,6.987-17.116,15.178-20.462c-8.627,2.647-13.914,10.227-16.06,18.992s-1.251,18.584.55,27.427S327.025,367.733,327.475,376.745Z" transform="translate(-321.454 -303.596)" fill="#f2c0c0"/>
              </g>
            </g>
            <g id="Group_8755" data-name="Group 8755" transform="translate(27.804)">
              <path id="Path_12616" data-name="Path 12616" d="M399.8,288.959q-.064-3.679-.107-7.356a72.242,72.242,0,0,0-26.836,2.2q.78,2.888,1.6,5.795c2.26,11.692,13.568,56.532,13.568,56.532l11.272-2.7-14.708-51.628A78.373,78.373,0,0,0,399.8,288.959Z" transform="translate(-372.856 -281.201)" fill="#414042"/>
              <g id="Group_8754" data-name="Group 8754" transform="translate(4.369 7.095)">
                <path id="Path_12617" data-name="Path 12617" d="M403.954,295.044a68.086,68.086,0,0,1-22.574,2.739c5.071,17.8,11.405,35.843,21.773,51.814,3.042-.7,6.056-1.629,9.053-2.571a100.549,100.549,0,0,1-6.724-26.429A236.292,236.292,0,0,1,403.954,295.044Z" transform="translate(-381.38 -295.044)" fill="#f2c0c0"/>
              </g>
            </g>
          </g>
          <g id="Group_8778" data-name="Group 8778" transform="translate(0 0)">
            <g id="Group_8759" data-name="Group 8759" transform="translate(89.382 28.877)">
              <g id="Group_8757" data-name="Group 8757">
                <path id="Path_12618" data-name="Path 12618" d="M463.409,263.795c0,1.779-1.055,3.222-2.358,3.222s-2.358-1.443-2.358-3.222,1.056-3.222,2.358-3.222S463.409,262.015,463.409,263.795Z" transform="translate(-458.694 -260.573)" fill="#414042"/>
              </g>
              <g id="Group_8758" data-name="Group 8758" transform="translate(0.411 1.581)">
                <path id="Path_12619" data-name="Path 12619" d="M470.9,266.779a1.8,1.8,0,0,1-1.327.974,5.3,5.3,0,0,1-1.7-.022l-8.373-1.01q.1-1.532.2-3.065l7.847.448a5.336,5.336,0,0,1,2.449.538A1.829,1.829,0,0,1,470.9,266.779Z" transform="translate(-459.496 -263.657)" fill="#414042"/>
              </g>
            </g>
            <g id="Group_8762" data-name="Group 8762" transform="translate(23.116 19.814)">
              <g id="Group_8760" data-name="Group 8760">
                <path id="Path_12620" data-name="Path 12620" d="M397.339,252.213a11.038,11.038,0,0,1-9.253-3.421c-1.593-1.539-2.817-3.5-4.7-4.66-3.1-1.9-7.043-1.152-10.657-.776-5.341.555-10.942.185-15.844,2.376-3.616,1.616-6.494,4.479-9.571,6.972A56.22,56.22,0,0,1,329.4,262.42a14.356,14.356,0,0,1,2.719,4.652,67.723,67.723,0,0,1,16-.978c8.309.315,16.648,1.328,24.911.4a25.733,25.733,0,0,0,9.8-2.782c2.408-1.351,4.45-3.273,6.8-4.729s4.468-2.172,7.11-1.368A3.952,3.952,0,0,0,397.339,252.213Z" transform="translate(-329.398 -242.891)" fill="#dd4a48"/>
              </g>
              <g id="Group_8761" data-name="Group 8761" transform="translate(15.462 8.448)">
                <path id="Path_12621" data-name="Path 12621" d="M363.135,264.112a2.4,2.4,0,0,0,.917-.378c1.345-.954,1.031-3.153,2.156-4.359l-6.642,5.07C360.643,263.9,361.953,264.349,363.135,264.112Z" transform="translate(-359.566 -259.375)" fill="#f2c0c0"/>
              </g>
            </g>
            <g id="Group_8763" data-name="Group 8763" transform="translate(13.247 37.574)">
              <path id="Path_12622" data-name="Path 12622" d="M328.015,288.312a1.5,1.5,0,0,0,.836-1.754,4.813,4.813,0,0,1-.134-1.921,15.98,15.98,0,0,0,.372-2.225,5.388,5.388,0,0,0-1.246-2.977,4.649,4.649,0,0,0-1.734-1.641,5.157,5.157,0,0,0-3.548.187c-.753.224-1.621.56-1.825,1.319a2.008,2.008,0,0,0,.082,1.075,7.151,7.151,0,0,0,2.406,3.571c.711.562,1.6,1.086,1.775,1.975a2.1,2.1,0,0,1-.651,1.806,7.165,7.165,0,0,1-1.643,1.124,41.487,41.487,0,0,0-11.959,10.871c-.086.111-.17.229-.248.35-.01.015-.024.026-.034.04a1.527,1.527,0,0,0-.319.946,1.417,1.417,0,0,0,1.165,1.123c.416.1.949.035,1.128-.354a1.373,1.373,0,0,0-.039-.869,3.678,3.678,0,0,1-.085-.864A45.473,45.473,0,0,1,328.015,288.312Z" transform="translate(-310.141 -277.543)" fill="#fff"/>
            </g>
            <g id="Group_8766" data-name="Group 8766" transform="translate(47.021 21.974)">
              <g id="Group_8764" data-name="Group 8764">
                <path id="Path_12623" data-name="Path 12623" d="M407.189,261.413c1.364-2.174,1.212-4.947.768-7.475-.322-1.833-.827-3.77-2.222-5a8.321,8.321,0,0,0-4.795-1.623,43.1,43.1,0,0,0-16.109,1.464c-3.24.932-6.645,2.5-8.075,5.551a9.651,9.651,0,0,0,2.064,10.368c2.619,2.389,6.2,2.223,9.745,2.305a40.314,40.314,0,0,0,12.586-1.791C405.325,263.9,405.92,263.437,407.189,261.413Z" transform="translate(-376.041 -247.106)" fill="#fff"/>
              </g>
              <g id="Group_8765" data-name="Group 8765" transform="translate(26.373 1.072)">
                <path id="Path_12624" data-name="Path 12624" d="M427.5,249.294a12.854,12.854,0,0,1,3.219,6.47,38.327,38.327,0,0,1,.58,7.293,14.477,14.477,0,0,0,.008-11,5.621,5.621,0,0,0-1.4-2.15A2.576,2.576,0,0,0,427.5,249.294Z" transform="translate(-427.499 -249.198)" fill="#414042"/>
              </g>
            </g>
            <g id="Group_8767" data-name="Group 8767" transform="translate(89.058 28.837)">
              <path id="Path_12625" data-name="Path 12625" d="M460.468,268.57a4.653,4.653,0,0,0,1.335.045c3.473.172,6.331-.115,9.157,1.219-.179.086-.277.692-.165.856a.727.727,0,0,0,1.153-.336,1.183,1.183,0,0,0-.533-1.254,5.276,5.276,0,0,0-1.634-.733c-2.8-.519-5.33-.767-8.126-1.286-.737-.232-.97-1.186-.832-1.946a13.96,13.96,0,0,0,.526-2.248,2.524,2.524,0,0,0-2.364-2.392.424.424,0,0,0-.424.567,5.812,5.812,0,0,1-.418,4.92.553.553,0,0,0,.208.778C459.1,267.15,459.6,268.261,460.468,268.57Z" transform="translate(-458.062 -260.495)" fill="#fff"/>
            </g>
            <g id="Group_8770" data-name="Group 8770" transform="translate(82.117)">
              <g id="Group_8768" data-name="Group 8768" transform="translate(0)">
                <circle id="Ellipse_258" data-name="Ellipse 258" cx="7.073" cy="7.073" r="7.073" transform="translate(0 5.375) rotate(-22.334)" fill="#fff"/>
              </g>
              <g id="Group_8769" data-name="Group 8769" transform="translate(6.637 10.252)">
                <path id="Path_12626" data-name="Path 12626" d="M459.573,244.989a.629.629,0,0,1-.62-.529l-1.4-8.731a6.574,6.574,0,0,1,.26-3.127l2.677-7.941a.629.629,0,1,1,1.191.4L459,233a5.317,5.317,0,0,0-.21,2.527l1.4,8.73a.629.629,0,0,1-.521.721A.607.607,0,0,1,459.573,244.989Z" transform="translate(-457.468 -224.233)" fill="#fff"/>
              </g>
            </g>
            <g id="Group_8773" data-name="Group 8773" transform="translate(2.545 10.33)">
              <g id="Group_8771" data-name="Group 8771">
                <circle id="Ellipse_259" data-name="Ellipse 259" cx="8.959" cy="8.959" r="8.959" fill="#fff"/>
              </g>
              <g id="Group_8772" data-name="Group 8772" transform="translate(9.639 8.644)">
                <path id="Path_12627" data-name="Path 12627" d="M323.471,262.418a.629.629,0,0,1-.611-.483l-2.737-11.478a4.33,4.33,0,0,0-2.135-2.792l-9.592-5.232a.629.629,0,1,1,.6-1.1l9.592,5.232a5.587,5.587,0,0,1,2.756,3.6l2.737,11.478a.629.629,0,0,1-.465.757A.659.659,0,0,1,323.471,262.418Z" transform="translate(-308.069 -241.252)" fill="#fff"/>
              </g>
            </g>
            <g id="Group_8777" data-name="Group 8777" transform="translate(0 38.243)">
              <g id="Group_8774" data-name="Group 8774" transform="translate(2.386 1.64)">
                <path id="Path_12628" data-name="Path 12628" d="M288.951,289.369q.723,1.774,1.447,3.548a159.658,159.658,0,0,1,20.945-7.171,13.048,13.048,0,0,0-1.888-3.7Z" transform="translate(-288.951 -282.047)" fill="#414042"/>
              </g>
              <g id="Group_8775" data-name="Group 8775" transform="translate(20.616)">
                <path id="Path_12629" data-name="Path 12629" d="M324.524,280.846a1.954,1.954,0,0,1,1.344-1.874,2.833,2.833,0,0,1,2.371.355,5.3,5.3,0,0,1,1.662,1.808,6.347,6.347,0,0,1,.978,2.886,3.347,3.347,0,0,1-.417,1.564,1.893,1.893,0,0,1-2.973.566A9.8,9.8,0,0,1,324.524,280.846Z" transform="translate(-324.52 -278.847)" fill="#414042"/>
              </g>
              <g id="Group_8776" data-name="Group 8776" transform="translate(0 8.558)">
                <path id="Path_12630" data-name="Path 12630" d="M289.407,297.459c.837,1.595.471,3.435-.816,4.111s-3.01-.07-3.846-1.665-.471-3.435.816-4.111S288.57,295.864,289.407,297.459Z" transform="translate(-284.295 -295.545)" fill="#414042"/>
              </g>
            </g>
          </g>
          <g id="Group_8790" data-name="Group 8790" transform="translate(62.449 101.92)">
            <g id="Group_8781" data-name="Group 8781" transform="translate(2.877 9.146)">
              <g id="Group_8779" data-name="Group 8779">
                <path id="Path_12631" data-name="Path 12631" d="M431.237,421.005l-7.07.926c-8.96,1.174-14.252,17.176-11.82,35.743s11.666,32.667,20.626,31.493l7.069-.926c8.96-1.174,14.252-17.176,11.821-35.743S440.2,419.831,431.237,421.005Z" transform="translate(-411.756 -420.937)" fill="#414042"/>
              </g>
              <g id="Group_8780" data-name="Group 8780" transform="translate(2.384 11.441)">
                <ellipse id="Ellipse_260" data-name="Ellipse 260" cx="6.962" cy="23.056" rx="6.962" ry="23.056" transform="translate(0 1.808) rotate(-7.461)" fill="#a6bebd"/>
              </g>
            </g>
            <g id="Group_8784" data-name="Group 8784">
              <g id="Group_8782" data-name="Group 8782">
                <path id="Path_12632" data-name="Path 12632" d="M442.477,413.609a26.51,26.51,0,0,0-10.369-8.886c-8.656-3.887-16.781-.626-20.927,7.651-2.894,5.78-5.376,13.483-5,20,.417,7.281.578,15.487,2.17,22.6,13.812-1.617,33.634-4.882,45.749-9.4C452.38,434.668,448.932,422.562,442.477,413.609Z" transform="translate(-406.142 -403.092)" fill="#dd4a48"/>
              </g>
              <g id="Group_8783" data-name="Group 8783" transform="translate(5.701 3.245)">
                <path id="Path_12633" data-name="Path 12633" d="M422.572,410.259a11.249,11.249,0,0,0-5.307,6.358A4.477,4.477,0,0,1,422,415.486a7.352,7.352,0,0,1,3.83,3.306,21.865,21.865,0,0,1,1.938,4.777l7.637,24.128a6.347,6.347,0,0,0,1.483,2.859c1.494,1.383,3.842,1.021,5.828.572a2.9,2.9,0,0,1-2.736-1.177,8.422,8.422,0,0,1-1.285-2.842q-5-16.216-8.938-32.737c-.416-1.75-.975-3.708-2.563-4.553A5.024,5.024,0,0,0,422.572,410.259Z" transform="translate(-417.265 -409.423)" fill="#f2c0c0"/>
              </g>
            </g>
            <g id="Group_8789" data-name="Group 8789" transform="translate(3.382 16.39)">
              <g id="Group_8785" data-name="Group 8785">
                <path id="Path_12634" data-name="Path 12634" d="M412.853,441.963c-.758,9.432,2.524,18.645,4.757,27.84a16.386,16.386,0,0,0,1.908,5.29,5.135,5.135,0,0,0,4.729,2.516c2.047-.291,3.516-2.277,3.887-4.311a14.974,14.974,0,0,0-.6-6.127l-7.518-31.256c-1.386-1.414-3.94-.925-5.277.535A9.077,9.077,0,0,0,412.853,441.963Z" transform="translate(-412.742 -435.072)" fill="#414042"/>
              </g>
              <g id="Group_8786" data-name="Group 8786" transform="translate(4.298 24.202)">
                <path id="Path_12635" data-name="Path 12635" d="M426.315,489.837c0,4.167-1.161,7.544-2.593,7.544s-2.593-3.377-2.593-7.544,1.161-7.544,2.593-7.544S426.315,485.671,426.315,489.837Z" transform="translate(-421.128 -482.293)" fill="#a6bebd"/>
              </g>
              <g id="Group_8787" data-name="Group 8787" transform="translate(3.294 1.595)">
                <path id="Path_12636" data-name="Path 12636" d="M427.609,476.67a1.369,1.369,0,0,0,1.554.307,2.417,2.417,0,0,0,1.162-1.188c.807-1.6.462-3.511.06-5.255-2.254-9.784-5.73-19.282-7.456-29.173a5.421,5.421,0,0,0-.786-2.351,1.784,1.784,0,0,0-2.19-.659,1.752,1.752,0,0,0-.781,1.451,5.308,5.308,0,0,0,.286,1.687,144.221,144.221,0,0,1,3.809,17.72,4.6,4.6,0,0,1,2.645,2.713,19.926,19.926,0,0,1,1.558,12.76A2.354,2.354,0,0,0,427.609,476.67Z" transform="translate(-419.169 -438.183)" fill="#a6bebd"/>
              </g>
              <g id="Group_8788" data-name="Group 8788" transform="translate(3.637 23.405)">
                <path id="Path_12637" data-name="Path 12637" d="M421.7,480.738a9.9,9.9,0,0,0-1.851,3.624A3.961,3.961,0,0,1,421.7,480.738Z" transform="translate(-419.838 -480.738)" fill="#a6bebd"/>
              </g>
            </g>
          </g>
        </g>
        <g id="Group_8792" data-name="Group 8792" transform="translate(72.349 97.584)">
          <path id="Path_12638" data-name="Path 12638" d="M309.869,288.982c-.438-1.293-1.194-4.619-2.41-5.239a12.328,12.328,0,0,0-4.951-.953,19.3,19.3,0,0,0-5.317.063,5.754,5.754,0,0,0-3.248,1.886,4.377,4.377,0,0,0-1.415,3.353c.054,1.434,2.418,3.932,3.852,3.986a.991.991,0,0,0-.387,1.223,2.89,2.89,0,0,0,.867,1.09l2.322,2.1a4.266,4.266,0,0,0,1.928,1.2,3.793,3.793,0,0,0,2.723-.844c1.452-.973,3.083-1.657,4.15-3.043C309.261,292.144,310.542,290.965,309.869,288.982Z" transform="translate(-292.525 -282.633)" fill="#ffc088"/>
        </g>
      </g>
    </g>
  </g>
</svg>
