<svg id="Your_Order_is_Confirmed" data-name="Your Order is Confirmed" xmlns="http://www.w3.org/2000/svg" xmlns:xlink="http://www.w3.org/1999/xlink" width="235" height="235" viewBox="0 0 235 235">
  <defs>
    <clipPath id="clip-path">
      <path id="Path_15480" data-name="Path 15480" d="M448.751,353.776a4.678,4.678,0,0,0-2.377,1.672,4.04,4.04,0,0,0,5.262-1.316,5,5,0,0,0-2.02-.459,3.563,3.563,0,0,0-.865.1" transform="translate(-446.374 -353.673)" fill="none"/>
    </clipPath>
  </defs>
  <rect id="Square" width="235" height="235" fill="none"/>
  <g id="Image" transform="translate(0.999 0.999)">
    <g id="Group_8748" data-name="Group 8748" transform="translate(0.001 0.001)">
      <g id="Group_8813" data-name="Group 8813" transform="translate(0 0)">
        <path id="Path_15422" data-name="Path 15422" d="M234,117A117,117,0,1,1,117,0,117,117,0,0,1,234,117" fill="#ecf3fe"/>
        <rect id="Rectangle_17772" data-name="Rectangle 17772" width="86.576" height="163.332" transform="translate(120.667 13.117)" fill="#97b2d3"/>
        <path id="Path_15423" data-name="Path 15423" d="M979.589,197.544H899.982a10.07,10.07,0,0,1-10.059-10.059V22.866a10.07,10.07,0,0,1,10.059-10.059h79.608a10.07,10.07,0,0,1,10.059,10.059v164.62a10.07,10.07,0,0,1-10.059,10.059M899.982,13.371a9.506,9.506,0,0,0-9.495,9.495v164.62a9.506,9.506,0,0,0,9.495,9.495h79.608a9.506,9.506,0,0,0,9.495-9.495V22.866a9.505,9.505,0,0,0-9.495-9.495Z" transform="translate(-776.13 -11.169)" fill="#363e44"/>
        <path id="Path_15424" data-name="Path 15424" d="M1024.314,131.28h-.137a4.794,4.794,0,0,1-4.794-4.794V102.58h9.726v23.905a4.794,4.794,0,0,1-4.795,4.794" transform="translate(-889.035 -89.463)" fill="#fff"/>
        <path id="Path_15425" data-name="Path 15425" d="M948.252,131.28h-.137a4.8,4.8,0,0,1-4.795-4.794V102.58h9.726v23.905a4.794,4.794,0,0,1-4.794,4.794" transform="translate(-822.699 -89.463)" fill="#dd4a48"/>
        <path id="Path_15426" data-name="Path 15426" d="M1099.358,131.28h-.137a4.8,4.8,0,0,1-4.795-4.794V102.58h9.726v23.905a4.8,4.8,0,0,1-4.795,4.794" transform="translate(-954.483 -89.463)" fill="#dd4a48"/>
        <path id="Path_15427" data-name="Path 15427" d="M1174.4,131.28h-.137a4.794,4.794,0,0,1-4.794-4.794V102.58h9.726v23.905a4.8,4.8,0,0,1-4.795,4.794" transform="translate(-1019.931 -89.463)" fill="#fff"/>
        <path id="Path_15428" data-name="Path 15428" d="M1249.445,131.28h-.137a4.8,4.8,0,0,1-4.795-4.794V102.58h9.726v23.905a4.794,4.794,0,0,1-4.794,4.794" transform="translate(-1085.379 -89.463)" fill="#dd4a48"/>
        <path id="Path_15429" data-name="Path 15429" d="M1324.489,131.28h-.137a4.794,4.794,0,0,1-4.795-4.794V102.58h9.726v23.905a4.794,4.794,0,0,1-4.794,4.794" transform="translate(-1150.827 -89.463)" fill="#fff"/>
        <path id="Path_15430" data-name="Path 15430" d="M1399.532,131.28h-.137a4.794,4.794,0,0,1-4.795-4.794V102.58h9.726v23.905a4.794,4.794,0,0,1-4.794,4.794" transform="translate(-1216.274 -89.463)" fill="#dd4a48"/>
        <path id="Path_15431" data-name="Path 15431" d="M1474.575,131.28h-.136a4.8,4.8,0,0,1-4.795-4.794V102.58h9.726v23.905a4.8,4.8,0,0,1-4.795,4.794" transform="translate(-1281.722 -89.463)" fill="#fff"/>
        <path id="Path_15432" data-name="Path 15432" d="M1549.62,131.28h-.137a4.794,4.794,0,0,1-4.794-4.794V102.58h9.726v23.905a4.794,4.794,0,0,1-4.794,4.794" transform="translate(-1347.171 -89.463)" fill="#dd4a48"/>
        <path id="Path_15433" data-name="Path 15433" d="M1028.75,100.938H942.2a.282.282,0,0,1,0-.564h86.546a.282.282,0,1,1,0,.564" transform="translate(-821.48 -87.539)" fill="#dd4a48"/>
        <path id="Path_15434" data-name="Path 15434" d="M1128.688,913.154H1077.07a.282.282,0,0,1-.282-.282V861.278a.282.282,0,0,1,.282-.282h51.618a.282.282,0,0,1,.282.282v51.594a.282.282,0,0,1-.282.282m-51.336-.564h51.054V861.56h-51.054Z" transform="translate(-939.1 -750.901)" fill="#fff"/>
        <path id="Path_15435" data-name="Path 15435" d="M1148.954,960.194,1132.794,945.5l4.993-6.154,10.247,8.188,16.078-23.336,6.541,4.5Z" transform="translate(-987.945 -806.024)" fill="#fff"/>
        <path id="Path_15436" data-name="Path 15436" d="M1063.933,483.09a.283.283,0,0,1-.275-.219l-6.744-29.5-8.347.08a.275.275,0,0,1-.285-.279.282.282,0,0,1,.279-.285l8.574-.082h0a.282.282,0,0,1,.275.219l6.74,29.487,30.41-2.558-.016-19.294-9.182.007h0a.282.282,0,0,1,0-.564l9.464-.008h0a.282.282,0,0,1,.282.282l.016,19.835a.282.282,0,0,1-.258.281l-30.913,2.6h-.024" transform="translate(-914.24 -394.901)" fill="#363e44"/>
        <path id="Path_15437" data-name="Path 15437" d="M1156.7,531.034a.282.282,0,0,1-.281-.262l-1.428-20.227-26.292.008a.282.282,0,0,1,0-.564l26.555-.008a.282.282,0,0,1,.281.262l1.446,20.489a.283.283,0,0,1-.261.3h-.02" transform="translate(-984.129 -444.77)" fill="#363e44"/>
        <path id="Path_15438" data-name="Path 15438" d="M1113.958,724.362a5.274,5.274,0,0,1,0-10.547h0a5.274,5.274,0,0,1,0,10.547Zm0-9.984h0a4.71,4.71,0,0,0,0,9.42h0a4.71,4.71,0,0,0,0-9.42" transform="translate(-966.918 -622.54)" fill="#363e44"/>
        <path id="Path_15439" data-name="Path 15439" d="M1395.925,724.132a5.274,5.274,0,0,1,0-10.547h0a5.274,5.274,0,0,1,0,10.547Zm0-9.984h0a4.71,4.71,0,0,0,0,9.42h0a4.71,4.71,0,0,0,0-9.42" transform="translate(-1212.83 -622.34)" fill="#363e44"/>
        <path id="Path_15440" data-name="Path 15440" d="M1187.042,752.969a.282.282,0,0,1,0-.564l26.032-.021h0a.282.282,0,0,1,0,.564l-26.032.021Z" transform="translate(-1035.011 -656.178)" fill="#363e44"/>
        <path id="Path_15441" data-name="Path 15441" d="M1159.431,689.7a.282.282,0,0,1-.269-.365l1.193-3.868a.282.282,0,1,1,.539.166L1159.7,689.5a.282.282,0,0,1-.269.2" transform="translate(-1010.93 -597.646)" fill="#363e44"/>
        <path id="Path_15442" data-name="Path 15442" d="M1268.674,532.476a.282.282,0,0,1-.279-.243l-2.956-21a.282.282,0,0,1,.558-.079l2.956,21a.282.282,0,0,1-.24.319l-.04,0" transform="translate(-1103.626 -445.578)" fill="#363e44"/>
        <path id="Path_15443" data-name="Path 15443" d="M1198.611,532.345a.282.282,0,0,1-.277-.231l-3.988-21.8a.282.282,0,0,1,.555-.1l3.988,21.8a.282.282,0,0,1-.227.328.3.3,0,0,1-.051,0" transform="translate(-1041.622 -444.77)" fill="#363e44"/>
        <path id="Path_15444" data-name="Path 15444" d="M1149.793,592.225a.282.282,0,0,1-.013-.564l33.329-1.562a.282.282,0,1,1,.026.563l-33.33,1.561h-.013" transform="translate(-1002.525 -514.644)" fill="#363e44"/>
        <path id="Path_15445" data-name="Path 15445" d="M1253.628,1391.045h69.911l-10.9-60.378h-45.4Z" transform="translate(-1093.328 -1160.516)" fill="#dd4a48"/>
        <path id="Path_15446" data-name="Path 15446" d="M1397.1,1396.277a.282.282,0,0,1-.274-.217c-2.1-8.8-12.559-52.743-12.413-53.535a.282.282,0,0,1,.558.075c.052,1.251,8.131,35.409,12.4,53.329a.282.282,0,0,1-.209.34.289.289,0,0,1-.066.008" transform="translate(-1207.391 -1170.657)" fill="#f7f1eb"/>
        <path id="Path_15447" data-name="Path 15447" d="M1276.557,1408.536a.282.282,0,0,1-.14-.527l11.615-6.593V1353.6a.282.282,0,0,1,.564,0v47.985a.282.282,0,0,1-.143.245L1276.7,1408.5a.283.283,0,0,1-.139.037" transform="translate(-1113.079 -1180.267)" fill="#f7f1eb"/>
        <path id="Path_15448" data-name="Path 15448" d="M1443.3,1232.613a.794.794,0,0,0,.794-.795v-11.493a4.878,4.878,0,0,1,4.873-4.873h9.639a4.878,4.878,0,0,1,4.873,4.873v11.493a.795.795,0,1,0,1.589,0v-11.493a6.469,6.469,0,0,0-6.462-6.461h-9.639a6.469,6.469,0,0,0-6.462,6.461v11.493a.794.794,0,0,0,.795.795" transform="translate(-1258.051 -1058.649)" fill="#776e42"/>
        <path id="Path_15449" data-name="Path 15449" d="M691.595,1659.975a28.609,28.609,0,0,0-3.113,18.888H722.37a18.879,18.879,0,0,0-1.091-4.046c-4.476-11.35-18.8-14.78-22.054-15.482l-7.63.64" transform="translate(-600.057 -1447.158)" fill="#fff"/>
        <path id="Path_15450" data-name="Path 15450" d="M684.134,1566.632l2.579,11.961a4.73,4.73,0,0,0,5.341,3.627c.14-.024.282-.053.426-.088a4.76,4.76,0,0,0,3.612-4.986l-1.116-11.7Z" transform="translate(-596.655 -1365.271)" fill="#84524d"/>
        <path id="Path_15451" data-name="Path 15451" d="M154.385,1636.566s-5.651,10.912-4.641,22.439h22.738a46.519,46.519,0,0,0-10.8-20.474Z" transform="translate(-130.491 -1427.3)" fill="#434144"/>
        <path id="Path_15452" data-name="Path 15452" d="M178.5,1539.518c-.161-3.983-.141-11.332,1.672-17.246l13.219,3.9a43.662,43.662,0,0,0-5.709,13.961,4.441,4.441,0,0,1-4.653,3.671,8.919,8.919,0,0,1-.925-.118,4.412,4.412,0,0,1-3.6-4.171" transform="translate(-155.616 -1327.62)" fill="#b55b52"/>
        <path id="Path_15453" data-name="Path 15453" d="M186.617,703.8s-24.837,38.788-25.146,113.6h18.138s21.75-64.651,36.074-80.77l-5.3-36.085Z" transform="translate(-140.824 -610.971)" fill="#434144"/>
        <path id="Path_15454" data-name="Path 15454" d="M447.314,733.276s22.961,37.842,28.28,72.717h16.922s1.47-84.308-29.392-118.528L448.1,690.444Z" transform="translate(-390.117 -599.56)" fill="#434144"/>
        <path id="Path_15455" data-name="Path 15455" d="M504.6,953.917a.282.282,0,0,1-.256-.4l9.616-20.882a.282.282,0,0,1,.512.236l-9.616,20.882a.282.282,0,0,1-.256.164" transform="translate(-439.835 -813.237)" fill="#363e44"/>
        <path id="Path_15456" data-name="Path 15456" d="M527.789,441.3s19.179,13.777,35.219-1.61l3.407-6.914s3.933,10.723,1.155,21.174-14.206,12.563-29.878,9.367Z" transform="translate(-460.301 -377.441)" fill="#b55b52"/>
        <path id="Path_15457" data-name="Path 15457" d="M177.514,497.731c9.812-6.168,30.348-17.946,44.858-18.485,0,0,1.659-12.772-12.759-24.3,0,0-16.657-10.61-38.648-1.089,0,0-15.264,25.459-7.954,39.892a10.185,10.185,0,0,0,14.5,3.983" transform="translate(-140.439 -392.362)" fill="#dd4a48"/>
        <path id="Path_15458" data-name="Path 15458" d="M118.683,478.994c0,7.144.346,13.22.95,23.54.693,11.855,1.01,17.622-3.385,19.377-24.307,9.706-17.836-32.224,2.435-42.917" transform="translate(-87.723 -417.746)" fill="#b55b52"/>
        <path id="Path_15459" data-name="Path 15459" d="M204.711,583.777s14.6-5.942,22.554-8.547c8.359-2.735,21.1-5.556,21.469-3.768.212,1.018-1.446,1.762-6.009,3.456a2.145,2.145,0,0,1,1.191,1.716,2.06,2.06,0,0,1-1.162,1.977c.111.041,1.3.51,1.5,1.47a2.269,2.269,0,0,1-.955,2.416,2.353,2.353,0,0,1,1.409,1.542,2.112,2.112,0,0,1-1.3,2.38c-1.775.552-7.082,2.091-9.573,3.155-4.9,2.093-21.314,11.863-29.2,13.016,1.318-6.77.076-18.813.076-18.813" transform="translate(-178.469 -497.901)" fill="#b55b52"/>
        <path id="Path_15460" data-name="Path 15460" d="M486.553,677.28a.282.282,0,0,1-.277-.233L486,675.5a.282.282,0,0,1,.555-.1l.274,1.547a.282.282,0,0,1-.278.331" transform="translate(-423.854 -588.835)" fill="#363e44"/>
        <path id="Path_15461" data-name="Path 15461" d="M480.991,646.751a.282.282,0,0,1-.279-.242l-.254-1.758a.282.282,0,0,1,.558-.081l.254,1.758a.282.282,0,0,1-.239.319l-.041,0" transform="translate(-419.021 -562.027)" fill="#363e44"/>
        <path id="Path_15462" data-name="Path 15462" d="M476.927,616.728a.282.282,0,0,1-.277-.233c-.052-.292-.1-.555-.142-.819s-.088-.516-.138-.8a.282.282,0,0,1,.555-.1c.051.287.1.547.139.806s.089.524.141.814a.282.282,0,0,1-.278.331" transform="translate(-415.453 -535.962)" fill="#363e44"/>
        <path id="Path_15463" data-name="Path 15463" d="M470.568,592.33a.282.282,0,0,1-.273-.212l-.384-1.512a.282.282,0,1,1,.547-.139l.384,1.512a.282.282,0,0,1-.2.343.286.286,0,0,1-.07.009" transform="translate(-409.816 -514.779)" fill="#363e44"/>
        <path id="Path_15464" data-name="Path 15464" d="M682.268,421.582H667.733l9.586-22.426h14.536Z" transform="translate(-582.351 -348.117)" fill="#d87355"/>
        <path id="Path_15465" data-name="Path 15465" d="M755.018,413.616a.982.982,0,1,1-.982-.982.982.982,0,0,1,.982.982" transform="translate(-656.761 -359.871)" fill="#efbc73"/>
        <path id="Path_15466" data-name="Path 15466" d="M790.64,440.922c0,1.472-.124,2.665-2.673,2.665s-6.558-1.193-6.558-2.665,4.009-2.665,6.558-2.665,2.673,1.193,2.673,2.665" transform="translate(-681.491 -382.218)" fill="#84524d"/>
        <path id="Path_15467" data-name="Path 15467" d="M770.823,471.549c0-1.472,4.009-2.665,6.558-2.665s2.673,1.193,2.673,2.665Z" transform="translate(-672.259 -408.928)" fill="#84524d"/>
        <path id="Path_15468" data-name="Path 15468" d="M780.054,489.725c0,1.472-.124,2.665-2.673,2.665s-6.558-1.193-6.558-2.665Z" transform="translate(-672.259 -427.104)" fill="#84524d"/>
        <path id="Path_15469" data-name="Path 15469" d="M760.236,502.177c0-1.472,4.009-2.665,6.558-2.665s2.673,1.193,2.673,2.665Z" transform="translate(-663.026 -435.64)" fill="#84524d"/>
        <path id="Path_15470" data-name="Path 15470" d="M769.466,520.353c0,1.472-.124,2.665-2.673,2.665s-6.558-1.193-6.558-2.665Z" transform="translate(-663.025 -453.816)" fill="#84524d"/>
        <path id="Path_15471" data-name="Path 15471" d="M764.457,532.258c0-1.17,3.187-2.118,5.213-2.118s2.125.948,2.125,2.118Z" transform="translate(-666.707 -462.352)" fill="#84524d"/>
        <path id="Path_15472" data-name="Path 15472" d="M771.795,546.705c0,1.17-.1,2.118-2.125,2.118s-5.213-.948-5.213-2.118Z" transform="translate(-666.707 -476.798)" fill="#84524d"/>
        <path id="Path_15473" data-name="Path 15473" d="M348.231,275.762a9.38,9.38,0,1,1-9.38-9.38,9.38,9.38,0,0,1,9.38,9.38" transform="translate(-287.341 -232.32)" fill="#363e44"/>
        <path id="Path_15474" data-name="Path 15474" d="M374.075,365.238c-1.187-.656-3.221-2.407-3.877-1.22l-7.7,12.307c-.656,1.187,3.281.774,4.468,1.43a2.456,2.456,0,0,0,3.337-.962l4.729-8.217a2.456,2.456,0,0,0-.962-3.337" transform="translate(-316.086 -317.12)" fill="#b55b52"/>
        <path id="Path_15475" data-name="Path 15475" d="M356.036,456.816c0,1.1-2.971,2-6.636,2s-6.636-.894-6.636-2,2.971-2,6.636-2,6.636.895,6.636,2" transform="translate(-298.935 -396.661)" fill="#b55b52"/>
        <path id="Path_15476" data-name="Path 15476" d="M410.993,324.813c-1.065,1.993-7.306,1.136-7.306,1.136l-5.443-4.245a5.755,5.755,0,1,1,10.3-5.135s3.533,6.214,2.449,8.244" transform="translate(-346.793 -273.309)" fill="#b55b52"/>
        <path id="Path_15477" data-name="Path 15477" d="M483.581,351.212s2.2.793,2.322,1.231c.146.523-1.318,1.616-1.318,1.616s-.963-2.863-1-2.847" transform="translate(-421.746 -306.303)" fill="#b55b52"/>
        <path id="Path_15478" data-name="Path 15478" d="M446.374,357.951a5,5,0,0,1,1.67-1.412c.221-.11.686,1.867.426,1.872a5,5,0,0,1-2.1-.46" transform="translate(-389.297 -310.945)" fill="#fff"/>
      </g>
    </g>
    <g id="Group_8750" data-name="Group 8750" transform="translate(57.084 45.227)">
      <g id="Group_8749" data-name="Group 8749" clip-path="url(#clip-path)">
        <path id="Path_15479" data-name="Path 15479" d="M458.907,346.876a1.959,1.959,0,1,1,1.236,2.479,1.959,1.959,0,0,1-1.236-2.479" transform="translate(-457.222 -346.574)" fill="#363e44"/>
      </g>
    </g>
    <g id="Group_8752" data-name="Group 8752" transform="translate(34.829 15.795)">
      <g id="Group_8812" data-name="Group 8812">
        <path id="Path_15481" data-name="Path 15481" d="M475.025,380.781a1.078,1.078,0,0,1-.122-.007,1.1,1.1,0,0,1-.9-.717.282.282,0,0,1,.531-.19.524.524,0,0,0,.946.091.282.282,0,0,1,.485.288,1.094,1.094,0,0,1-.938.534" transform="translate(-448.204 -346.924)" fill="#363e44"/>
        <path id="Path_15482" data-name="Path 15482" d="M350.654,288.436a15.817,15.817,0,0,0,13.2-7.73c5.114-8.087-8.919-7.611-14.746-4.876-3.732,1.752,1.546,12.606,1.546,12.606" transform="translate(-338.131 -254.787)" fill="#363e44"/>
        <path id="Path_15483" data-name="Path 15483" d="M381.258,328.119a3.049,3.049,0,0,1-.457-.03.282.282,0,1,1,.091-.556,3.086,3.086,0,0,0,2.19-.572,3.505,3.505,0,0,0,1.122-2.654c.107-1.813-1.18-2.823-2.12-3.56-.6-.472-1.036-.813-.944-1.266.086-.421.593-.7,1.869-1.045,4.362-1.167,6.906-6.313,6.931-6.365a.282.282,0,0,1,.507.246c-.107.221-2.679,5.429-7.293,6.664-1.382.37-1.458.59-1.462.614-.01.121.459.489.739.709.979.769,2.459,1.93,2.335,4.037a4.03,4.03,0,0,1-1.336,3.064,3.486,3.486,0,0,1-2.172.715" transform="translate(-366.73 -287.82)" fill="#fff"/>
        <path id="Path_15484" data-name="Path 15484" d="M274.078,124.12s-8.014,17.687,10.651,25.84c0,0-8.336-14.56,5.642-26.449Z" transform="translate(-272.368 -123.51)" fill="#363e44"/>
      </g>
    </g>
  </g>
</svg>
