<svg width="36" height="36" viewBox="0 0 36 36" fill="none" xmlns="http://www.w3.org/2000/svg">
<g clip-path="url(#clip0_33_1346)">
<path d="M19.9149 1.914L23.8218 9.85699C23.9748 10.1684 24.2012 10.4379 24.4815 10.6423C24.7618 10.8466 25.0877 10.9797 25.431 11.03L34.1668 12.304C34.562 12.3629 34.9328 12.5309 35.2376 12.7891C35.5424 13.0473 35.7694 13.3855 35.8924 13.7656C36.0155 14.1456 36.0298 14.5525 35.9342 14.9404C35.8385 15.3282 35.6365 15.6817 35.3509 15.961L29.0289 22.144C28.7803 22.3873 28.5945 22.6873 28.4874 23.0182C28.3803 23.3492 28.3551 23.7012 28.4139 24.044L29.9058 32.774C29.9744 33.1674 29.9315 33.5721 29.7818 33.9423C29.6322 34.3125 29.3818 34.6334 29.0592 34.8686C28.7365 35.1038 28.3544 35.244 27.9561 35.2733C27.5579 35.3025 27.1595 35.2196 26.806 35.034L18.992 30.912C18.6855 30.7502 18.344 30.6656 17.9974 30.6656C17.6508 30.6656 17.3095 30.7502 17.003 30.912L9.18879 35.034C8.83524 35.2196 8.43688 35.3025 8.03864 35.2733C7.64041 35.244 7.25828 35.1038 6.93562 34.8686C6.61296 34.6334 6.36262 34.3125 6.21296 33.9423C6.0633 33.5721 6.0204 33.1674 6.08894 32.774L7.58088 24.044C7.6398 23.7012 7.61476 23.3492 7.50764 23.0182C7.40052 22.6873 7.21452 22.3873 6.96589 22.144L0.64387 15.961C0.358225 15.6817 0.156265 15.3282 0.0606179 14.9404C-0.0350293 14.5525 -0.0204419 14.1456 0.10261 13.7656C0.225662 13.3855 0.452325 13.0473 0.757151 12.7891C1.06198 12.5309 1.43282 12.3629 1.82795 12.304L10.565 11.03C10.9082 10.9797 11.2339 10.8466 11.5142 10.6423C11.7945 10.4379 12.021 10.1684 12.1739 9.85699L16.0809 1.914C16.2561 1.55482 16.5288 1.2521 16.8677 1.04034C17.2067 0.828586 17.5982 0.716309 17.9979 0.716309C18.3975 0.716309 18.7891 0.828586 19.128 1.04034C19.4669 1.2521 19.7396 1.55482 19.9149 1.914Z" fill="#F5B82A"/>
<path d="M17.8759 24.5761C15.5609 24.5761 13.6649 23.276 13.5079 21.63C13.4969 21.516 13.6329 21.4231 13.7899 21.4391C16.5065 21.7167 19.2442 21.7167 21.9608 21.4391C22.1178 21.4231 22.2538 21.516 22.2428 21.63C22.0848 23.276 20.1889 24.5761 17.8759 24.5761Z" fill="#42210B"/>
<mask id="mask0_33_1346" style="mask-type:luminance" maskUnits="userSpaceOnUse" x="13" y="21" width="10" height="4">
<path d="M17.8759 24.5761C15.5609 24.5761 13.6649 23.276 13.5079 21.63C13.4969 21.516 13.6329 21.4231 13.7899 21.4391C16.5065 21.7167 19.2442 21.7167 21.9608 21.4391C22.1178 21.4231 22.2538 21.516 22.2428 21.63C22.0848 23.276 20.1889 24.5761 17.8759 24.5761Z" fill="white"/>
</mask>
<g mask="url(#mask0_33_1346)">
<path d="M15.0121 24.475C15.0121 25.01 16.2931 25.4431 17.8751 25.4431C19.4571 25.4431 20.7369 25.01 20.7369 24.475C20.7369 23.94 19.5171 23.5071 17.9371 23.5071C17.9121 23.5071 17.8181 23.6451 17.7921 23.6451C17.7661 23.6451 17.6351 23.5061 17.6041 23.5071C16.1011 23.5371 15.0121 23.959 15.0121 24.475Z" fill="#FF4340"/>
<path opacity="0.3" d="M15.5809 23.8811C16.3046 24.189 17.083 24.3477 17.8695 24.3477C18.656 24.3477 19.4344 24.189 20.1581 23.8811C20.5231 24.0451 20.7369 24.2511 20.7369 24.4751C20.7369 25.0101 19.4561 25.4431 17.8751 25.4431C16.2941 25.4431 15.0121 25.0101 15.0121 24.4751C15.0121 24.2501 15.2209 24.0421 15.5809 23.8811Z" fill="#C1272D"/>
<path d="M14.5062 21.9801C16.7449 22.2417 19.0065 22.2417 21.2452 21.9801C21.4642 21.9541 21.4862 21.8451 21.4972 21.6661C21.5082 21.4871 21.435 21.2441 21.432 21.0531C19.0628 21.2745 16.6784 21.2745 14.3092 21.0531C14.3092 21.2451 14.2371 21.4881 14.2501 21.6671C14.2631 21.8461 14.2872 21.9571 14.5062 21.9801Z" fill="#F2F2F2"/>
<mask id="mask1_33_1346" style="mask-type:luminance" maskUnits="userSpaceOnUse" x="14" y="21" width="8" height="2">
<path d="M14.5062 21.9801C16.7449 22.2417 19.0065 22.2417 21.2452 21.9801C21.4642 21.9541 21.4862 21.8451 21.4972 21.6661C21.5082 21.4871 21.435 21.2441 21.432 21.0531C19.0628 21.2745 16.6784 21.2745 14.3092 21.0531C14.3092 21.2451 14.2371 21.4881 14.2501 21.6671C14.2631 21.8461 14.2872 21.9571 14.5062 21.9801Z" fill="white"/>
</mask>
<g mask="url(#mask1_33_1346)">
<path d="M14.253 21.6721C16.6605 21.9535 19.0926 21.9535 21.5001 21.6721C21.7351 21.6441 21.76 21.527 21.772 21.334C21.784 21.141 21.706 20.88 21.702 20.675C19.1542 20.9131 16.5899 20.9131 14.0421 20.675C14.0421 20.881 13.9651 21.1431 13.9781 21.3361C13.9911 21.5291 14.018 21.6471 14.253 21.6721Z" fill="#E6E6E6"/>
</g>
</g>
<path d="M23.045 17.3417C23.6148 16.772 23.6148 15.8482 23.045 15.2784C22.4752 14.7086 21.5515 14.7086 20.9817 15.2784C20.4119 15.8482 20.4119 16.772 20.9817 17.3417C21.5515 17.9115 22.4752 17.9115 23.045 17.3417Z" fill="#42210B"/>
<path d="M14.3201 17.7292C15.1043 17.5438 15.5897 16.7579 15.4044 15.9737C15.219 15.1895 14.433 14.7041 13.6489 14.8895C12.8647 15.0748 12.3793 15.8608 12.5646 16.645C12.75 17.4291 13.536 17.9146 14.3201 17.7292Z" fill="#42210B"/>
<path d="M20.4432 14.4141C20.4254 14.3947 20.4118 14.3719 20.4032 14.3471C20.3946 14.3223 20.3914 14.2959 20.3934 14.2697C20.3955 14.2435 20.4028 14.2181 20.4152 14.1949C20.4275 14.1717 20.4446 14.1513 20.4652 14.135C20.9058 13.7951 21.444 13.6055 22.0004 13.5942C22.5568 13.5828 23.1019 13.7503 23.556 14.072C23.5774 14.0875 23.5954 14.1073 23.6088 14.13C23.6221 14.1527 23.6307 14.178 23.6339 14.2042C23.6371 14.2303 23.6348 14.2569 23.6273 14.2822C23.6198 14.3074 23.6072 14.3308 23.5902 14.351C23.5587 14.3879 23.5144 14.4116 23.4662 14.4173C23.418 14.4231 23.3695 14.4105 23.3302 14.382C22.9443 14.1093 22.4811 13.9675 22.0087 13.9772C21.5363 13.9869 21.0795 14.1477 20.7052 14.436C20.6668 14.4661 20.6185 14.4806 20.5699 14.4766C20.5213 14.4725 20.476 14.4502 20.4432 14.4141Z" fill="#42210B"/>
<path d="M12.384 14.4141C12.3662 14.3947 12.3528 14.3719 12.3442 14.3471C12.3356 14.3223 12.3321 14.2959 12.3342 14.2697C12.3363 14.2435 12.3438 14.2181 12.3562 14.1949C12.3685 14.1717 12.3856 14.1513 12.4062 14.135C12.8469 13.7951 13.3847 13.6055 13.9411 13.5942C14.4975 13.5828 15.0429 13.7503 15.497 14.072C15.5184 14.0875 15.5364 14.1073 15.5498 14.13C15.5631 14.1527 15.5717 14.178 15.5749 14.2042C15.5781 14.2303 15.5758 14.2569 15.5683 14.2822C15.5608 14.3074 15.5482 14.3308 15.5312 14.351C15.4997 14.3882 15.4551 14.4121 15.4067 14.4178C15.3583 14.4236 15.3094 14.4108 15.27 14.382C14.8841 14.1093 14.4211 13.9675 13.9487 13.9772C13.4763 13.9869 13.0193 14.1477 12.645 14.436C12.6068 14.4661 12.5587 14.4805 12.5102 14.4764C12.4618 14.4723 12.4166 14.4501 12.384 14.4141Z" fill="#42210B"/>
</g>
<defs>
<clipPath id="clip0_33_1346">
<rect width="36" height="36" fill="white"/>
</clipPath>
</defs>
</svg>
