<svg xmlns="http://www.w3.org/2000/svg" width="24" height="24" viewBox="0 0 24 24">
    <path data-name="Rectangle 17286" style="fill:none" d="M0 0h24v24H0z"/>
    <path data-name="Path 734" d="M22.628 0H1.322A1.322 1.322 0 0 0 0 1.322v21.306a1.322 1.322 0 0 0 1.322 1.322h11.472v-9.262H9.683v-3.625h3.111V8.4c0-3.093 1.889-4.778 4.65-4.778a26.3 26.3 0 0 1 2.788.14v3.23h-1.9c-1.5 0-1.793.713-1.793 1.761v2.31h3.59l-.468 3.625h-3.126v9.262h6.092a1.322 1.322 0 0 0 1.323-1.322V1.322A1.322 1.322 0 0 0 22.628 0z" transform="translate(.05 .05)" style="fill:#fff"/>
    <path data-name="Path 735" d="M110.324 58.931v-9.223h3.109l.466-3.61h-3.575V43.8c0-1.043.289-1.753 1.785-1.753H114v-3.22a25.7 25.7 0 0 0-2.776-.14c-2.748 0-4.63 1.677-4.63 4.758V46.1h-3.1v3.61h3.1v9.223z" transform="translate(-93.735 -34.931)" style="fill:#4267b2"/>
</svg>
