<svg xmlns="http://www.w3.org/2000/svg" width="16" height="16" viewBox="0 0 16 16">
  <g id="flutterwave" transform="translate(-1531 680)">
    <rect id="Rectangle_17536" data-name="Rectangle 17536" width="16" height="16" transform="translate(1531 -680)" fill="none"/>
    <g id="Layer_x0020_1" transform="translate(1531 -678.504)">
      <g id="_2464828059600">
        <path id="Path_12495" data-name="Path 12495" d="M0,100.057A2.842,2.842,0,0,1,.763,97.98l.9.9c-1,1-.126,4.095,2.721,6.945s5.947,3.722,6.947,2.724l.9.9c-1.686,1.686-5.526.49-8.739-2.725C1.259,104.491,0,101.96,0,100.057Z" transform="translate(0 -97.217)" fill="#009a46"/>
        <path id="Path_12496" data-name="Path 12496" d="M462.868,111.6a2.845,2.845,0,0,1-2.078-.763l.9-.9c1,1,4.1.125,6.946-2.725s3.722-5.947,2.724-6.945l.9-.9c1.687,1.686.489,5.525-2.726,8.739-2.23,2.233-4.76,3.491-6.663,3.491Z" transform="translate(-457.202 -98.596)" fill="#ff5805"/>
        <path id="Path_12497" data-name="Path 12497" d="M101.9,9.807a13.059,13.059,0,0,0-3.138-4.726C95.551,1.865,91.711.669,90.025,2.355c-.119.12-.016.418.232.665s.545.351.665.231c1-1,4.1-.125,6.946,2.725a11.782,11.782,0,0,1,2.836,4.246c.424,1.221.383,2.206-.111,2.7-.12.119-.016.418.231.665s.545.351.666.231c.863-.863,1.01-2.29.411-4.012Z" transform="translate(-89.275 -1.58)" fill="#f5afcb"/>
        <path id="Path_12498" data-name="Path 12498" d="M375.1.783c-.865-.865-2.29-1.012-4.014-.413a13.071,13.071,0,0,0-4.726,3.137c-3.214,3.214-4.411,7.053-2.725,8.74.12.119.418.016.665-.231s.351-.546.231-.666c-1-1-.125-4.1,2.725-6.947A11.788,11.788,0,0,1,371.5,1.568c1.221-.423,2.206-.383,2.7.111.119.119.418.016.665-.232s.351-.545.232-.664Z" transform="translate(-360.046 -0.008)" fill="#ff9b00"/>
      </g>
    </g>
  </g>
</svg>
