<svg xmlns="http://www.w3.org/2000/svg" xmlns:xlink="http://www.w3.org/1999/xlink" width="24" height="24" viewBox="0 0 24 24">
  <defs>
    <clipPath id="clip-path">
      <rect id="Rectangle_265" data-name="Rectangle 265" width="24" height="17.613" fill="none"/>
    </clipPath>
  </defs>
  <g id="food_preparing" transform="translate(-1315 -1097)">
    <rect id="Rectangle_264" data-name="Rectangle 264" width="24" height="24" transform="translate(1315 1097)" fill="none"/>
    <g id="Group_8712" data-name="Group 8712" transform="translate(1315 1100.193)">
      <g id="Group_8711" data-name="Group 8711" transform="translate(0 0)" clip-path="url(#clip-path)">
        <path id="Path_650" data-name="Path 650" d="M1.573,17.613,1,17.039l-1-1V13.606L.436,13.6c.661,0,.906-.241.935-.906a9.093,9.093,0,0,1,.367-2.309,10.567,10.567,0,0,1,7.82-7.538.9.9,0,0,0,.744-.979,1.7,1.7,0,0,1,1.229-1.8,1.687,1.687,0,0,1,2.147,1.593c.012.826.176,1.034.975,1.238a10.646,10.646,0,0,1,7.841,8.663c.054.376.091.778.117,1.265a.764.764,0,0,0,.8.781l.073,0c.056,0,.106,0,.157,0l.156,0,.177,0H24c-.013.734-.009,1.471,0,2.34,0,.079-.011.09-.048.126-.443.434-.877.87-1.31,1.306l-.24.241ZM1.3,14.207a.725.725,0,0,0-.745.714A1.435,1.435,0,0,0,1.112,16.3a2.021,2.021,0,0,1,.311.312l.019.023a1.2,1.2,0,0,0,.96.424c1.119,0,2.224-.005,3.33-.005H21.6l.123,0a.868.868,0,0,0,.644-.252c.1-.1.194-.194.291-.289.173-.169.352-.344.522-.534a1.306,1.306,0,0,0,.2-1.232l0-.022a.687.687,0,0,0-.707-.538,1.636,1.636,0,0,0-.2.015.5.5,0,0,1-.053.006q-3.122-.005-6.25,0ZM19.237,13.6q.962,0,1.925.008h0a.867.867,0,0,0,.674-.26.837.837,0,0,0,.171-.679c-.016-.123-.029-.247-.043-.371-.017-.154-.033-.308-.054-.461a9.745,9.745,0,0,0-3.686-6.477,9.652,9.652,0,0,0-6.137-2.192,10.946,10.946,0,0,0-1.476.1A9.8,9.8,0,0,0,4.432,6.612a10.01,10.01,0,0,0-2.465,6.03.879.879,0,0,0,.171.73.893.893,0,0,0,.724.226H17.307ZM11.992.611a1.121,1.121,0,0,0-.464.1,1.055,1.055,0,0,0-.615,1.045.832.832,0,0,0,.209.613.679.679,0,0,0,.5.2.993.993,0,0,0,.222-.027l.074,0c.06,0,.107.006.154.006h.138l.109.01c.02,0,.047,0,.073,0a.641.641,0,0,0,.661-.615l0-.036a1.153,1.153,0,0,0-.39-1.069,1.09,1.09,0,0,0-.671-.238" transform="translate(0 0)" fill="#212121"/>
        <path id="Path_651" data-name="Path 651" d="M23.13,61.145H14.975a.293.293,0,1,1,0-.585H23.13a.293.293,0,1,1,0,.585" transform="translate(-11.696 -48.243)" fill="#1a1818"/>
        <path id="Path_652" data-name="Path 652" d="M64.443,61.145h-2.26a.293.293,0,1,1,0-.585h2.26a.293.293,0,0,1,0,.585" transform="translate(-49.303 -48.243)" fill="#1a1818"/>
      </g>
    </g>
  </g>
</svg>
