<svg xmlns="http://www.w3.org/2000/svg" xmlns:xlink="http://www.w3.org/1999/xlink" width="24" height="24" viewBox="0 0 24 24">
  <defs>
    <clipPath id="clip-path">
      <rect id="Rectangle_267" data-name="Rectangle 267" width="24" height="22.721" fill="none"/>
    </clipPath>
  </defs>
  <g id="food_delivery" transform="translate(-1354 -1097)">
    <rect id="Rectangle_266" data-name="Rectangle 266" width="24" height="24" transform="translate(1354 1097)" fill="none"/>
    <g id="Group_8714" data-name="Group 8714" transform="translate(1354 1097.639)">
      <g id="Group_8713" data-name="Group 8713" transform="translate(0 0)" clip-path="url(#clip-path)">
        <path id="Path_653" data-name="Path 653" d="M22.745,6.759c-1.38,0-2.763,0-4.145,0a1.146,1.146,0,0,0-.559.142,1.372,1.372,0,0,0-.711,1.328V12.3c0,.071,0,.142,0,.21.005.136-.05.2-.194.2-.357-.005-.716,0-1.076,0-.121,0-.165-.039-.139-.17a3.828,3.828,0,0,0,.06-.979,15.311,15.311,0,0,0-.226-2.136,6.469,6.469,0,0,0-2.107-3.967c-.1-.079-.066-.131,0-.207a3.317,3.317,0,0,0,.716-1.7A3.079,3.079,0,0,0,11.347,0,3.078,3.078,0,0,0,8.375,2.947c-.016.317.084.446.4.5.129.024.168.076.165.2a2.784,2.784,0,0,0,.018.491,2.426,2.426,0,0,0,1.758,2.046c.136.042.168.1.136.236a1.55,1.55,0,0,0-.079.459,1.439,1.439,0,0,1-.729,1.438.94.94,0,0,1-.467.176c-.325.015-.653.05-.979.078a3.084,3.084,0,0,1-1.469-.129c-.659-.26-1.341-.459-2.02-.669a.545.545,0,0,0-.763.572q0,.866,0,1.732c0,.388.108.509.5.5.228-.008.234.071.176.257-.184.6-.352,1.2-.522,1.8a.6.6,0,0,0-.047.3.382.382,0,0,0,.75.008c.171-.574.336-1.152.5-1.729.184-.632.184-.622.85-.632.228-.005.257.055.189.262a12,12,0,0,0-.561,3.028A10.548,10.548,0,0,0,6.7,17.624c.165.522.359,1.031.564,1.537.1.236.089.231-.171.249a.567.567,0,0,1-.5-.223c-.727-.826-1.456-1.65-2.2-2.461a.493.493,0,0,1-.123-.559c.168-.509.312-1.028.451-1.548a.376.376,0,0,0-.462-.5.421.421,0,0,0-.283.343c-.144.5-.294,1-.433,1.506a.253.253,0,0,1-.273.218A3.585,3.585,0,0,0,.85,17.317a3.968,3.968,0,0,0-.85,1.5v.375a.532.532,0,0,0,.451.254c.213.026.323.118.289.352a1.469,1.469,0,0,0,.042.464,2.711,2.711,0,0,0,5.04.8c.2-.37.108-.346.543-.257a.415.415,0,0,0,.564-.362c.034-.207.118-.268.32-.268q3.385.008,6.769,0a.266.266,0,0,1,.317.244,2.992,2.992,0,0,0,3.5,2.241,2.944,2.944,0,0,0,2.359-2.246c.05-.173.118-.239.3-.241.454-.01.617-.244.577-.706a4.652,4.652,0,0,1-.089-1.086,5.229,5.229,0,0,0-.352-3.025.221.221,0,0,1,.055-.289.92.92,0,0,0,.273-.722c-.008-.2.01-.406-.005-.609s.06-.273.268-.275a16.153,16.153,0,0,0,1.637-.021A1.259,1.259,0,0,0,24,12.2Q24,10.1,24,8.008a1.248,1.248,0,0,0-1.251-1.249M5.137,20.735a1.914,1.914,0,0,1-1.516.966A2.015,2.015,0,0,1,1.53,20.124c-.01-.052-.01-.108-.018-.163-.024-.192.026-.268.247-.215.939.226,1.881.436,2.823.651.152.034.3.081.454.1.178.026.186.1.1.234m1.036-.805c-.058.1-.189.008-.278-.013-1.619-.37-3.232-.745-4.851-1.112-.181-.042-.192-.121-.121-.26a2.8,2.8,0,0,1,2.409-1.6.41.41,0,0,1,.378.139c.771.871,1.548,1.734,2.319,2.6.063.071.2.15.144.239M19.064,7.494h3.421c.577,0,.779.2.779.769,0,.53.063.462-.457.464q-1.067,0-2.133,0c-.771,0-1.545-.008-2.317,0-.207,0-.268-.063-.265-.267,0-.853.113-.971.971-.971M18.5,9.5h4.444c.315,0,.315,0,.315.3,0,.375,0,.375-.383.375h-2.2c-.771,0-1.543,0-2.317,0-.2,0-.278-.047-.273-.26.013-.422,0-.422.415-.422m-3.319,2.834a1.091,1.091,0,0,1-1.165.986c-.577.029-1.154-.034-1.729.037a.88.88,0,0,0-.832.882c-.06.569-.029,1.139-.037,1.705-.005.323,0,.323-.323.323-.226,0-.451-.005-.677,0-.152.005-.21-.058-.207-.207.005-.344,0-.687,0-1.112a5.239,5.239,0,0,1,.147-1.632,1.74,1.74,0,0,1,1.212-1.251,1.137,1.137,0,0,1,.325-.037h3.041c.27,0,.294.031.241.3m-4.3,5.478c-.226.005-.451,0-.677,0-.336,0-.669-.005-1,0-.181,0-.213-.068-.16-.231a.7.7,0,0,1,.682-.54c.5-.01.994,0,1.493-.008.15,0,.21.058.207.207-.008.7.071.556-.54.569M14.438,7.719a8.578,8.578,0,0,1,.727,3.1c.026.441.018.443-.433.443h-1.1c-.454,0-.905-.008-1.356,0a.239.239,0,0,1-.281-.21c-.063-.265-.136-.528-.213-.79a.305.305,0,0,1,.16-.4,9.8,9.8,0,0,0,.879-.577,1.331,1.331,0,0,0,.538-1.619,1.269,1.269,0,0,0-1.6-.7c-.223.071-.254.044-.218-.192.013-.076.034-.152.045-.231a.331.331,0,0,1,.31-.317,2.756,2.756,0,0,0,.842-.273A.3.3,0,0,1,13.105,6a4.372,4.372,0,0,1,1.333,1.719M9.225,2.436a2.231,2.231,0,0,1,4.34.071,2.524,2.524,0,0,1-.9,2.608c-.073.052-.15.152-.244.1s-.037-.157-.039-.239c0-.482,0-.968,0-1.451a.751.751,0,0,0-.837-.842c-.171,0-.341,0-.514,0h-.514c-.367,0-.732-.008-1.1,0-.2,0-.241-.063-.189-.252m.483,1.212c.013-.139.073-.189.207-.189.5,0,1,0,1.493,0,.157,0,.2.066.2.21-.005.273,0,.546,0,.819s0,.546,0,.819c.005.17-.068.239-.236.234A1.717,1.717,0,0,1,9.708,3.648m-.291,5.62c.147,0,.294-.039.441-.037a.793.793,0,0,0,.548-.223c.433-.38.874-.756,1.312-1.131a1.308,1.308,0,0,1,.168-.126.551.551,0,0,1,.7.089.519.519,0,0,1-.058.685,1.28,1.28,0,0,1-.247.212q-.763.5-1.532.994c-.244.16-.519.045-.727.082H9.414c-.215,0-.168-.16-.171-.286s-.026-.257.173-.26m-1.768.165a2.585,2.585,0,0,1,.7-.066c.152.011.121.134.123.228s0,.213-.144.215c-.115,0-.234,0-.349,0v0H7.693c-.1,0-.2-.01-.21-.134a.216.216,0,0,1,.165-.25m-.929.275c.013.1-.094.105-.173.105-.218,0-.436,0-.653,0s-.422,0-.632,0c-.126,0-.184-.052-.184-.181,0-.3,0-.609,0-.911,0-.126.055-.147.163-.11.485.162.973.323,1.461.485.021.005.055.013.06.031.087.2-.068.378-.042.577m.769,7.861a9.918,9.918,0,0,1-.533-3.794,11.74,11.74,0,0,1,.609-3.014.226.226,0,0,1,.254-.178c.475.005.95,0,1.427,0,.443,0,.887,0,1.333,0,.071,0,.155.021.207-.01.307-.184.317.047.354.244.031.176.173.357.1.512s-.291.16-.438.244a2.649,2.649,0,0,0-1.257,1.881,12.057,12.057,0,0,0-.1,2.238,1.15,1.15,0,0,0,0,.213c.042.275-.052.42-.333.527a1.394,1.394,0,0,0-.847,1.1c-.026.123-.005.281-.226.286-.464.01-.464.021-.556-.249m5.94,1.5c-.058.338-.058.338-.409.338-1.506,0-3.012-.005-4.518.005-.234,0-.367-.063-.425-.289a1.6,1.6,0,0,0-.126-.3c-.1-.2-.021-.241.168-.241,1,.005,2,0,3,0a4.353,4.353,0,0,0,.488-.031.577.577,0,0,0,.588-.648c.005-.75.01-1.5-.005-2.248,0-.241.076-.3.31-.3.724.013,1.451.005,2.178.005.06,0,.123,0,.186,0,.278-.013.467-.178.457-.4a.407.407,0,0,0-.457-.373c-.779,0-1.561,0-2.34-.005-.115,0-.312.1-.32-.147s.076-.331.333-.338a15.488,15.488,0,0,0,1.776-.042,1.967,1.967,0,0,0,1.073-.478.446.446,0,0,1,.323-.108c1.419,0,2.841,0,4.261,0,.2,0,.265.071.252.262s0,.36,0,.538c-.008.249-.079.317-.331.317-1.052,0-2.107,0-3.159,0a1.244,1.244,0,0,0-.281.016.376.376,0,0,0-.005.735,1.1,1.1,0,0,0,.278.021c.929,0,1.858.008,2.786-.005a.391.391,0,0,1,.422.275,3.933,3.933,0,0,1,.341,1.729,4.6,4.6,0,0,0-1.065-.931,3.858,3.858,0,0,0-5.775,2.642M19.4,20.421a2.251,2.251,0,0,1-4.256.06c-.113-.283-.094-.3.2-.3h1.918c.653,0,1.309.005,1.965-.005.21,0,.231.066.168.247m.614-1.015q-2.806,0-5.612,0c-.252,0-.265-.021-.21-.275a3.082,3.082,0,0,1,6.053-.01c.055.252.029.286-.231.286m3.245-7.346a.589.589,0,0,1-.661.646c-1.427.005-2.857,0-4.284.005-.184,0-.226-.074-.223-.236.008-.43.01-.861,0-1.288-.005-.192.073-.239.249-.236.782.005,1.561,0,2.343,0s1.545.005,2.317-.005c.207,0,.278.063.265.27-.013.278,0,.561-.005.842" transform="translate(0 0)" fill="#212121"/>
      </g>
    </g>
  </g>
</svg>
