<svg width="36" height="36" viewBox="0 0 36 36" fill="none" xmlns="http://www.w3.org/2000/svg">
<g clip-path="url(#clip0_33_1344)">
<path d="M19.9166 1.81019L23.8233 9.80456C23.9754 10.1173 24.2014 10.3882 24.4818 10.5939C24.7621 10.7995 25.0885 10.9337 25.4324 10.9847L34.1687 12.2666C34.5646 12.3285 34.9355 12.4991 35.2401 12.7594C35.5448 13.0197 35.7711 13.3596 35.8939 13.741C36.0167 14.1224 36.0311 14.5305 35.9355 14.9196C35.84 15.3087 35.6382 15.6637 35.3528 15.9449L29.0309 22.1674C28.7824 22.4128 28.5968 22.7145 28.4899 23.047C28.3829 23.3794 28.3577 23.7328 28.4165 24.077L29.9089 32.8633C29.9794 33.2575 29.9379 33.6635 29.7892 34.0353C29.6405 34.4071 29.3906 34.7297 29.0677 34.9665C28.7449 35.2034 28.3622 35.345 27.9629 35.3752C27.5636 35.4054 27.1639 35.3231 26.809 35.1376L18.9947 30.9898C18.6885 30.8271 18.3471 30.7419 18.0004 30.7419C17.6537 30.7419 17.3122 30.8271 17.0061 30.9898L9.19175 35.1376C8.83692 35.3231 8.43716 35.4054 8.0379 35.3752C7.63864 35.345 7.25589 35.2034 6.93306 34.9665C6.61022 34.7297 6.36029 34.4071 6.21159 34.0353C6.06289 33.6635 6.02134 33.2575 6.09179 32.8633L7.58421 24.077C7.64301 23.7328 7.61789 23.3794 7.51094 23.047C7.40398 22.7145 7.21842 22.4128 6.96993 22.1674L0.648017 15.9449C0.362549 15.6637 0.160803 15.3087 0.0652637 14.9196C-0.0302761 14.5305 -0.0158701 14.1224 0.106916 13.741C0.229703 13.3596 0.456036 13.0197 0.760651 12.7594C1.06527 12.4991 1.43616 12.3285 1.83206 12.2666L10.5684 10.9847C10.9123 10.9336 11.2386 10.7995 11.5189 10.5938C11.7993 10.3882 12.0253 10.1172 12.1774 9.80456L16.0842 1.81019C16.258 1.44958 16.5299 1.14536 16.8689 0.932431C17.2079 0.719507 17.6001 0.606567 18.0004 0.606567C18.4007 0.606567 18.7928 0.719507 19.1318 0.932431C19.4708 1.14536 19.7428 1.44958 19.9166 1.81019Z" fill="#F5B82A"/>
<path d="M21.3934 18.1249C22.005 17.9803 22.3836 17.3673 22.239 16.7557C22.0944 16.1441 21.4814 15.7655 20.8698 15.9101C20.2582 16.0547 19.8796 16.6677 20.0242 17.2793C20.1688 17.8909 20.7818 18.2695 21.3934 18.1249Z" fill="#42210B"/>
<path d="M15.1301 18.1249C15.7417 17.9803 16.1203 17.3673 15.9758 16.7557C15.8312 16.1441 15.2182 15.7655 14.6066 15.9101C13.995 16.0547 13.6164 16.6677 13.761 17.2793C13.9055 17.8909 14.5185 18.2695 15.1301 18.1249Z" fill="#42210B"/>
<path d="M19.9056 15.5395C19.8918 15.5244 19.8813 15.5066 19.8747 15.4873C19.868 15.4679 19.8654 15.4474 19.867 15.427C19.8687 15.4066 19.8744 15.3868 19.884 15.3687C19.8936 15.3506 19.9068 15.3347 19.9228 15.3219C20.2663 15.0562 20.6863 14.908 21.1204 14.8991C21.5546 14.8902 21.98 15.0212 22.3341 15.2726C22.3508 15.2847 22.3647 15.3001 22.3752 15.3178C22.3856 15.3355 22.3924 15.3552 22.3949 15.3756C22.3973 15.396 22.3956 15.4168 22.3897 15.4365C22.3838 15.4562 22.3739 15.4745 22.3606 15.4902C22.336 15.5191 22.3015 15.5376 22.2638 15.5421C22.2261 15.5466 22.1881 15.5368 22.1574 15.5145C21.8565 15.3014 21.4951 15.1906 21.1266 15.1982C20.758 15.2058 20.4017 15.3314 20.1099 15.5567C20.08 15.5802 20.0423 15.5915 20.0044 15.5883C19.9665 15.5851 19.9312 15.5677 19.9056 15.5395Z" fill="#42210B"/>
<path d="M17.902 23.4642C19.0616 23.4654 20.1894 23.0844 21.1108 22.3803C21.1664 22.3378 21.2125 22.2842 21.2461 22.2228C21.2796 22.1614 21.2998 22.0936 21.3055 22.0239C21.3112 21.9542 21.3021 21.884 21.2789 21.818C21.2558 21.752 21.219 21.6916 21.171 21.6407C21.0862 21.5508 20.9712 21.4955 20.8481 21.4855C20.7249 21.4755 20.6025 21.5116 20.5043 21.5867C19.7554 22.1559 18.8404 22.4641 17.8997 22.4641C16.959 22.4641 16.0443 22.1559 15.2953 21.5867C15.1972 21.5116 15.0745 21.4755 14.9514 21.4855C14.8282 21.4955 14.7132 21.5508 14.6285 21.6407C14.5805 21.6916 14.5437 21.752 14.5205 21.818C14.4973 21.884 14.4883 21.9542 14.494 22.0239C14.4996 22.0936 14.5198 22.1614 14.5534 22.2228C14.5869 22.2842 14.633 22.3378 14.6887 22.3803C15.6113 23.0853 16.7408 23.4663 17.902 23.4642Z" fill="#42210B"/>
<path d="M13.6198 15.5395C13.606 15.5244 13.5955 15.5066 13.5889 15.4873C13.5822 15.4679 13.5796 15.4474 13.5812 15.427C13.5828 15.4066 13.5886 15.3868 13.5982 15.3687C13.6078 15.3506 13.621 15.3347 13.637 15.3219C13.9805 15.0562 14.4002 14.908 14.8344 14.8991C15.2686 14.8902 15.6942 15.0212 16.0483 15.2726C16.0649 15.2847 16.0789 15.3001 16.0893 15.3178C16.0998 15.3355 16.1065 15.3552 16.109 15.3756C16.1115 15.396 16.1097 15.4168 16.1039 15.4365C16.098 15.4562 16.0881 15.4745 16.0748 15.4902C16.0502 15.5191 16.0155 15.5376 15.9778 15.5421C15.9401 15.5466 15.9021 15.5368 15.8713 15.5145C15.5705 15.3014 15.2093 15.1906 14.8407 15.1982C14.4722 15.2058 14.1158 15.3314 13.8241 15.5567C13.7942 15.5802 13.7565 15.5915 13.7186 15.5883C13.6807 15.5851 13.6454 15.5677 13.6198 15.5395Z" fill="#42210B"/>
</g>
<defs>
<clipPath id="clip0_33_1344">
<rect width="36" height="36" fill="white"/>
</clipPath>
</defs>
</svg>
