<svg xmlns="http://www.w3.org/2000/svg" width="24" height="24" viewBox="0 0 24 24">
    <rect data-name="Rectangle 17289" width="24" height="24" rx="2" style="fill:#fff"/>
    <g data-name="Group 8561">
        <path data-name="Path 736" d="M266.66 230.462a10.547 10.547 0 0 0 2.8-9.462H260v3.912h5.392a4.452 4.452 0 0 1-2.009 3.013z" transform="translate(-247.801 -210.831)" style="fill:#4285f4"/>
        <path data-name="Path 737" d="M90 294.59a10.149 10.149 0 0 0 15.647 3.119l-3.277-2.537A6.058 6.058 0 0 1 93.33 292z" transform="translate(-86.787 -278.078)" style="fill:#34a853"/>
        <path data-name="Path 738" d="M74.424 176.449a6.027 6.027 0 0 1 0-3.859l-3.33-2.59a10.214 10.214 0 0 0 0 9.039z" transform="translate(-67.881 -162.527)" style="fill:#fbbc02"/>
        <path data-name="Path 739" d="M93.33 73.3c1.163-3.647 6.132-5.762 9.462-2.643l2.907-2.854A9.981 9.981 0 0 0 90 70.713z" transform="translate(-86.787 -63.239)" style="fill:#ea4335"/>
    </g>
</svg>
