<svg width="15" height="16" viewBox="0 0 15 16" fill="none" xmlns="http://www.w3.org/2000/svg">
<g clip-path="url(#clip0_158_7823)">
<path fill-rule="evenodd" clip-rule="evenodd" d="M1.88879 7.81893C2.26665 7.13352 2.34573 6.52719 2.32816 6.08782C2.7148 6.33387 3.31234 6.57991 4.14714 6.57991C4.23501 6.57991 4.30531 6.53598 4.34925 6.45689C4.77104 5.73633 4.85891 5.09485 4.84134 4.6467C5.20162 4.87517 5.76401 5.11243 6.5373 5.13C7.06454 5.81541 7.27543 6.5887 7.52148 7.46744C7.9257 8.97007 8.39143 10.6748 10.5971 12.5026C10.6586 12.5553 12.0821 13.8295 13.9978 14.7434C13.0399 14.8576 11.0276 14.8224 7.77631 13.5834C5.47403 12.5553 2.60057 10.0685 1.88879 7.81893ZM6.84485 4.76093L6.38791 3.96128C5.75522 2.87165 4.80619 2.52895 3.55839 2.95074C3.01357 1.61506 1.75698 0.806627 1.69547 0.771478C1.64275 0.736328 1.57245 0.727541 1.51093 0.745115L0.175258 1.09661C-0.0180635 1.14933 -0.0620003 1.41295 0.113747 1.52719C0.131321 1.53598 1.52851 2.43229 1.89758 3.82947C0.570688 4.77851 0.263131 5.86814 0.966119 7.08958L1.42306 7.88923C2.21392 10.5694 5.50039 13.0825 7.58299 14.014C7.59178 14.014 7.59178 14.014 7.60057 14.0228C10.228 15.0158 12.0733 15.2618 13.2508 15.2618C14.3053 15.2618 14.8062 15.0685 14.8501 15.0509C15.0434 14.9718 15.0434 14.6906 14.8501 14.6115C12.6709 13.724 10.9222 12.1599 10.9046 12.1423C8.80443 10.4112 8.36506 8.78554 7.96963 7.34441C7.7148 6.42174 7.47754 5.55179 6.84485 4.76093ZM1.99424 5.27939C1.83607 5.27939 1.72183 5.44635 1.77456 5.59573C1.79213 5.63088 2.04696 6.33387 1.62517 7.30048L1.37034 6.85232C0.597051 5.52543 1.41427 4.61155 2.7148 3.86462C3.91867 3.17042 5.17526 2.80135 5.97491 4.18976L6.23853 4.63791C5.17526 4.51489 4.69195 3.92613 4.68317 3.91735C4.51621 3.71524 4.19108 3.89977 4.28774 4.15461C4.29652 4.18097 4.59529 5.00698 4.00654 6.1054C2.76752 6.06146 2.20514 5.39362 2.17877 5.36726C2.13484 5.31454 2.06454 5.27939 1.99424 5.27939ZM3.11902 3.12649C2.86419 3.24072 2.5742 3.39889 2.31058 3.55707C1.99424 2.54652 1.23853 1.80838 0.772798 1.43053L1.52851 1.21963C1.8097 1.42174 2.7148 2.11594 3.11902 3.12649Z" fill="black"/>
<path fill-rule="evenodd" clip-rule="evenodd" d="M1.8886 7.81872C2.26645 7.1333 2.34554 6.52698 2.32796 6.08761C2.71461 6.33365 3.31215 6.5797 4.14694 6.5797C4.23482 6.5797 4.30512 6.53576 4.34905 6.45668C4.77085 5.73612 4.85872 5.09464 4.84114 4.64648C5.20143 4.87496 5.76381 5.11221 6.5371 5.12979C7.06434 5.8152 7.27524 6.58849 7.52128 7.46722C7.9255 8.96986 8.39123 10.6746 10.5969 12.5024C10.6584 12.5551 12.0819 13.8293 13.9976 14.7431C13.0397 14.8574 11.0274 14.8222 7.77612 13.5832C5.47383 12.5551 2.60037 10.0683 1.8886 7.81872Z" fill="#E32A03"/>
<path fill-rule="evenodd" clip-rule="evenodd" d="M4.00678 6.10536C2.76777 6.06143 2.20538 5.39359 2.17902 5.36723C2.13508 5.3145 2.06478 5.27935 1.99448 5.27935C1.83631 5.27935 1.72207 5.44631 1.7748 5.5957C1.79237 5.63085 2.04721 6.33383 1.62541 7.30044L1.37058 6.85229C0.597293 5.5254 1.41452 4.61151 2.71504 3.86459C3.91891 3.17039 5.1755 2.80132 5.97515 4.18972L6.23877 4.63788C5.1755 4.51485 4.6922 3.9261 4.68341 3.91731C4.51645 3.71521 4.19132 3.89974 4.28798 4.15457C4.29677 4.18093 4.59554 5.00694 4.00678 6.10536Z" fill="#66BD28"/>
<path fill-rule="evenodd" clip-rule="evenodd" d="M3.11914 3.12756C2.86431 3.24179 2.57433 3.39997 2.3107 3.55814C1.99436 2.54759 1.23865 1.80946 0.772919 1.4316L1.52863 1.2207C1.80983 1.42281 2.71492 2.11701 3.11914 3.12756Z" fill="#66BD28"/>
</g>
<defs>
<clipPath id="clip0_158_7823">
<rect width="15" height="15" fill="white" transform="matrix(-1 0 0 1 15 0.5)"/>
</clipPath>
</defs>
</svg>
