<svg width="16" height="16" viewBox="0 0 16 16" fill="none" xmlns="http://www.w3.org/2000/svg">
<g clip-path="url(#clip0_160_7844)">
<path d="M15.765 12.4111L13.5965 10.2425C13.6314 9.74406 13.63 9.29742 14.1305 8.79663C14.6064 8.3196 14.8737 7.67326 14.8737 6.99941C14.8737 6.32556 14.6064 5.67922 14.1305 5.20219C13.9636 5.03615 13.8312 4.83866 13.7411 4.62116C13.651 4.40366 13.605 4.17045 13.6056 3.93503C13.6048 3.2612 13.3368 2.61518 12.8603 2.1387C12.3839 1.66221 11.7379 1.39418 11.0641 1.39339C10.8286 1.39397 10.5954 1.34788 10.3779 1.25778C10.1605 1.16768 9.96299 1.03535 9.79696 0.868457C9.32004 0.392384 8.6737 0.125 7.99983 0.125C7.32596 0.125 6.67963 0.392384 6.20271 0.868457C6.03668 1.03535 5.83921 1.16768 5.62172 1.25778C5.40423 1.34788 5.17103 1.39397 4.93562 1.39339C4.26179 1.39418 3.61579 1.66222 3.13933 2.1387C2.66288 2.61519 2.39488 3.2612 2.39413 3.93503C2.39472 4.17046 2.34863 4.40366 2.25853 4.62116C2.16844 4.83866 2.03612 5.03615 1.86922 5.20219C1.39329 5.67922 1.126 6.32556 1.126 6.99941C1.126 7.67326 1.39329 8.3196 1.86922 8.79663C2.37225 9.30004 2.37216 9.79928 2.40319 10.2425L0.234691 12.4111C0.189544 12.4563 0.156691 12.5123 0.139249 12.5738C0.121807 12.6352 0.120353 12.7001 0.135025 12.7623C0.149697 12.8245 0.180008 12.8819 0.223086 12.9291C0.266164 12.9763 0.32058 13.0117 0.381176 13.032L2.32112 13.6785L2.9676 15.6185C2.98785 15.6791 3.02325 15.7336 3.07043 15.7767C3.11762 15.8197 3.17503 15.8501 3.23722 15.8647C3.29941 15.8794 3.36431 15.878 3.42578 15.8605C3.48725 15.8431 3.54325 15.8102 3.58845 15.765L6.21337 13.14C6.68917 13.61 7.33103 13.8736 7.99984 13.8736C8.66865 13.8736 9.31051 13.61 9.78631 13.14L12.4112 15.765C12.4564 15.8102 12.5124 15.8431 12.5739 15.8605C12.6354 15.878 12.7003 15.8794 12.7625 15.8648C12.8247 15.8501 12.8821 15.8198 12.9292 15.7767C12.9764 15.7336 13.0118 15.6791 13.0321 15.6185L13.6786 13.6785L15.6185 13.032C15.6791 13.0117 15.7335 12.9763 15.7766 12.9291C15.8197 12.8819 15.85 12.8245 15.8647 12.7623C15.8793 12.7001 15.8779 12.6352 15.8604 12.5738C15.843 12.5123 15.8101 12.4563 15.765 12.4111ZM3.48714 14.8055L2.97323 13.2634C2.95478 13.2083 2.92376 13.1581 2.88262 13.117C2.84148 13.0758 2.79135 13.0448 2.73617 13.0264L1.19417 12.5124L2.61367 11.0926C2.81301 11.5423 3.13844 11.9245 3.55054 12.193C3.96265 12.4615 4.44376 12.6048 4.93561 12.6054C5.15248 12.6057 5.36749 12.6454 5.57015 12.7226L3.48714 14.8055ZM6.73299 12.6001C6.49753 12.3632 6.21743 12.1755 5.90891 12.0477C5.60039 11.9198 5.26958 11.8545 4.93563 11.8554C4.46065 11.8548 4.00529 11.6659 3.66944 11.33C3.33359 10.9941 3.14467 10.5388 3.14413 10.0638C3.14504 9.72983 3.07969 9.399 2.95187 9.09047C2.82406 8.78193 2.63631 8.50181 2.3995 8.26632C2.06403 7.93003 1.87563 7.47442 1.87563 6.99941C1.87563 6.5244 2.06403 6.06879 2.3995 5.73249C2.6363 5.49701 2.82405 5.21689 2.95187 4.90836C3.07968 4.59982 3.14503 4.26899 3.14413 3.93503C3.14467 3.46005 3.33358 3.00468 3.66943 2.66881C4.00529 2.33294 4.46065 2.144 4.93563 2.14343C5.26958 2.14433 5.60039 2.07898 5.90891 1.95116C6.21743 1.82333 6.49753 1.63558 6.73299 1.39876C7.06923 1.06324 7.52484 0.87481 7.99984 0.87481C8.47484 0.87481 8.93044 1.06324 9.26668 1.39876C9.50214 1.63557 9.78224 1.82333 10.0908 1.95115C10.3993 2.07898 10.7301 2.14433 11.064 2.14343C11.539 2.14399 11.9944 2.33294 12.3302 2.66881C12.6661 3.00468 12.855 3.46005 12.8555 3.93503C12.8546 4.26899 12.92 4.59982 13.0478 4.90836C13.1756 5.2169 13.3634 5.49702 13.6002 5.73251C13.9356 6.0688 14.124 6.52442 14.124 6.99942C14.124 7.47443 13.9356 7.93005 13.6002 8.26634C13.3634 8.50182 13.1756 8.78194 13.0478 9.09048C12.92 9.39901 12.8546 9.72984 12.8556 10.0638C12.855 10.5388 12.6661 10.9942 12.3302 11.33C11.9944 11.6659 11.539 11.8548 11.0641 11.8554C10.7301 11.8545 10.3993 11.9199 10.0908 12.0477C9.78224 12.1755 9.50215 12.3633 9.26669 12.6001C8.93037 12.9354 8.47479 13.1238 7.99984 13.1238C7.52488 13.1238 7.0693 12.9354 6.73299 12.6001ZM13.2635 13.0264C13.2083 13.0448 13.1582 13.0758 13.1171 13.117C13.0759 13.1581 13.0449 13.2083 13.0265 13.2634L12.5125 14.8055L10.4295 12.7226C10.6322 12.6454 10.8472 12.6057 11.064 12.6054C11.5559 12.6047 12.037 12.4615 12.4491 12.193C12.8612 11.9245 13.1866 11.5423 13.386 11.0926L14.8055 12.5124L13.2635 13.0264Z" fill="#002F35"/>
<path d="M9.1189 6.85571C9.03664 6.88316 8.94741 6.88125 8.86639 6.85032C8.78538 6.81938 8.71759 6.76133 8.67456 6.68603L8.00025 5.50586L7.32593 6.68604C7.28294 6.76137 7.21515 6.81946 7.13413 6.8504C7.0531 6.88134 6.96385 6.88322 6.88159 6.85572L6.04639 6.57739L6.53662 8.375H9.46387L9.9541 6.57739L9.1189 6.85571Z" fill="#FE8A01"/>
<path d="M8 2.875C7.18415 2.875 6.38663 3.11693 5.70827 3.57019C5.02992 4.02345 4.50121 4.66769 4.189 5.42143C3.87679 6.17518 3.7951 7.00458 3.95426 7.80475C4.11343 8.60492 4.50629 9.33992 5.08319 9.91682C5.66008 10.4937 6.39508 10.8866 7.19525 11.0457C7.99543 11.2049 8.82483 11.1232 9.57857 10.811C10.3323 10.4988 10.9766 9.97008 11.4298 9.29173C11.8831 8.61337 12.125 7.81585 12.125 7C12.1237 5.90637 11.6887 4.85791 10.9154 4.08459C10.1421 3.31128 9.09363 2.87628 8 2.875ZM10.8618 6.09863L10.1118 8.84863C10.0902 8.92801 10.043 8.99806 9.97765 9.04801C9.91226 9.09795 9.83227 9.125 9.75 9.125H6.25C6.16773 9.125 6.08774 9.09795 6.02235 9.04801C5.95697 8.99807 5.90983 8.92801 5.88819 8.84863L5.13819 6.09863C5.12044 6.03316 5.12078 5.9641 5.13915 5.8988C5.15753 5.8335 5.19327 5.7744 5.24256 5.72779C5.29184 5.68118 5.35284 5.6488 5.41907 5.6341C5.48529 5.6194 5.55427 5.62292 5.61865 5.64429L6.8269 6.04713L7.67431 4.56397C7.70717 4.50662 7.75459 4.45896 7.81178 4.42582C7.86897 4.39268 7.9339 4.37522 7.99999 4.37522C8.06609 4.37522 8.13102 4.39268 8.18821 4.42582C8.24539 4.45896 8.29282 4.50662 8.32568 4.56397L9.17309 6.04713L10.3813 5.64429C10.4457 5.62289 10.5147 5.61935 10.5809 5.63404C10.6472 5.64873 10.7082 5.68111 10.7575 5.72773C10.8068 5.77434 10.8425 5.83345 10.8609 5.89877C10.8793 5.96408 10.8796 6.03315 10.8618 6.09863Z" fill="#FE8A01"/>
</g>
<defs>
<clipPath id="clip0_160_7844">
<rect width="16" height="16" fill="white"/>
</clipPath>
</defs>
</svg>
