<svg id="onboarrding_a" xmlns="http://www.w3.org/2000/svg" width="250" height="250" viewBox="0 0 250 250">
  <rect id="Rectangle_8" data-name="Rectangle 8" width="250" height="250" fill="none"/>
  <g id="Group_825" data-name="Group 825" transform="translate(-916.539 804.57)">
    <path id="Path_456" data-name="Path 456" d="M674.418,746.292c16.619-.149,45.672,13.9,65.23,41.626l-14.241,26.731s-34.162-7.743-41.431-33C681.813,774.135,674.418,746.292,674.418,746.292Z" transform="translate(354.505 -1436.249)" fill="#dd4a48"/>
    <path id="Path_457" data-name="Path 457" d="M399.113,1096.48s-14.681,27.2-15.694,55.842H490.765s-2.6-27.384-9.431-44.28S399.113,1096.48,399.113,1096.48Z" transform="translate(583.957 -1711.742)" fill="#292929"/>
    <path id="Path_458" data-name="Path 458" d="M428.568,746.3c-16.952,0-47.524,9.725-55.119,42.006s25.065,25.825,25.065,25.825Z" transform="translate(592.722 -1436.254)" fill="#dd4a48"/>
    <path id="Path_459" data-name="Path 459" d="M471.393,1140.6a.619.619,0,0,1-.151-.019.6.6,0,0,1-.429-.73c1.718-6.622,3.129-11.453,3.144-11.5a.6.6,0,1,1,1.149.336c-.014.047-1.42,4.863-3.133,11.465A.6.6,0,0,1,471.393,1140.6Z" transform="translate(515.062 -1737.16)" fill="#fff"/>
    <path id="Path_460" data-name="Path 460" d="M448.9,1184.616c-1.23,0-1.978-.058-2.077-.066a.6.6,0,0,1-.547-.646.608.608,0,0,1,.645-.548A44.985,44.985,0,0,0,464,1180.773c11.708-4.292,18.81-13.033,21.107-25.981a.6.6,0,0,1,1.179.209c-2.964,16.707-13.553,23.855-21.913,26.91A46.365,46.365,0,0,1,448.9,1184.616Z" transform="translate(534.398 -1757.961)" fill="#fff"/>
    <path id="Path_461" data-name="Path 461" d="M480.949,746.3S514.125,770.5,520.6,831.071a4.679,4.679,0,0,1-2.873,4.832c-5.885,2.414-19.185,6.67-34.015,3.478-18.342-3.947-33.064-12.578-51.293-6.564a2.529,2.529,0,0,1-3.207-3.235c5.967-16.671,25.523-68.255,44.109-83.286Z" transform="translate(547.974 -1436.254)" fill="#dd4a48"/>
    <path id="Path_462" data-name="Path 462" d="M807.035,955.745a.6.6,0,0,1-.595-.535c-1.99-18.628-6.718-35.684-14.052-50.7a.6.6,0,0,1,1.076-.526c7.4,15.137,12.161,32.327,14.167,51.094a.6.6,0,0,1-.6.662Z" transform="translate(261.534 -1560.329)" fill="#292929"/>
    <path id="Path_463" data-name="Path 463" d="M773.146,867.791a.6.6,0,0,1-.524-.309c-.5-.908-1.024-1.824-1.551-2.723a.6.6,0,1,1,1.032-.606c.533.907,1.06,1.832,1.567,2.749a.6.6,0,0,1-.523.889Z" transform="translate(278.36 -1528.95)" fill="#292929"/>
    <path id="Path_464" data-name="Path 464" d="M322.931,875.977a11.241,11.241,0,0,1-6.439,7.936c-8.584,3.781-14.833.648-19.312-5.59-9.7-13.509-11.1-41.589-9.929-45.487,1.709-5.7,19.368-9.684,22.78-3.8C310.03,829.038,327.1,860.033,322.931,875.977Z" transform="translate(660.06 -1499.207)" fill="#dd4a48"/>
    <path id="Path_465" data-name="Path 465" d="M352.141,846.827a.6.6,0,0,1-.562-.393,158.477,158.477,0,0,0-8.7-19.338c-1.762-3.04-7.927-3.071-12.907-1.808a.6.6,0,1,1-.294-1.16c5.583-1.416,12.152-1.229,14.243,2.379a159.931,159.931,0,0,1,8.783,19.515.6.6,0,0,1-.356.768A.606.606,0,0,1,352.141,846.827Z" transform="translate(626.688 -1496.976)" fill="#292929"/>
    <path id="Path_466" data-name="Path 466" d="M451.205,982.051a.6.6,0,0,1-.587-.486c-.214-1.114-.471-2.283-.766-3.474a.6.6,0,1,1,1.162-.287c.3,1.211.562,2.4.78,3.536a.6.6,0,0,1-.475.7A.58.58,0,0,1,451.205,982.051Z" transform="translate(531.588 -1618.438)" fill="#292929"/>
    <g id="Group_793" data-name="Group 793" transform="translate(942.899 -695.083)">
      <path id="Path_467" data-name="Path 467" d="M286.44,754.3a8.274,8.274,0,0,1-11.584-5.726,24.963,24.963,0,0,1-.559-8.862c.981-5.823-3.97-11.721-3.766-13.862s8.45-.85,9.336,5.367c0,0,8.861-2.392,11.9,1.279s.506,5.317.506,5.317,3.165,8.481-.127,12.279A18.031,18.031,0,0,1,286.44,754.3Z" transform="translate(-269.926 -724.291)" fill="#fff"/>
      <path id="Path_468" data-name="Path 468" d="M280.709,753.451a8.893,8.893,0,0,1-8.67-6.981,25.815,25.815,0,0,1-.564-9.088c.593-3.52-1.153-7.188-2.428-9.866-.832-1.748-1.434-3.01-1.344-3.953.087-.908.959-1.469,2.334-1.5,2.876-.059,7.105,2.048,8.07,6.193,2.144-.486,9.1-1.741,11.889,1.629,1.251,1.512,1.788,2.918,1.6,4.18a3.09,3.09,0,0,1-.851,1.7c.6,1.77,2.73,8.907-.373,12.487a18.635,18.635,0,0,1-5.9,4.358h0A8.832,8.832,0,0,1,280.709,753.451ZM270.16,723.257h-.095c-.736.017-1.152.228-1.17.418A9.957,9.957,0,0,0,270.128,727c1.344,2.822,3.184,6.686,2.528,10.579a24.653,24.653,0,0,0,.553,8.635,7.674,7.674,0,0,0,10.744,5.311h0a17.4,17.4,0,0,0,5.509-4.058c3.019-3.484.049-11.6.018-11.678a.6.6,0,0,1,.235-.711,1.848,1.848,0,0,0,.7-1.221,4.469,4.469,0,0,0-1.338-3.213c-2.757-3.332-11.2-1.105-11.283-1.083a.6.6,0,0,1-.748-.494C276.452,724.924,272.326,723.257,270.16,723.257Zm14.048,28.811h0Z" transform="translate(-267.695 -722.06)" fill="#292929"/>
    </g>
    <path id="Path_483" data-name="Path 483" d="M931.874,893.9s-7.912,5.281-5.507,8.319,9.268-2.686,9.268-2.686Z" transform="translate(156.203 -1552.635)" fill="#fff"/>
    <path id="Path_484" data-name="Path 484" d="M926.119,901.469a3.905,3.905,0,0,1-.4-.02,2.9,2.9,0,0,1-2.054-1.1,2.68,2.68,0,0,1-.545-2.163c.5-3.2,5.957-6.87,6.189-7.025a.6.6,0,0,1,.83.165l3.761,5.633a.6.6,0,0,1-.115.792C933.6,897.913,929.295,901.469,926.119,901.469Zm3.362-8.966c-1.689,1.216-4.864,3.867-5.179,5.875a1.507,1.507,0,0,0,.3,1.234,1.719,1.719,0,0,0,1.238.647c2.015.216,5.246-1.915,6.758-3.086Z" transform="translate(158.437 -1550.403)" fill="#292929"/>
    <g id="Group_798" data-name="Group 798" transform="translate(992.28 -750.312)">
      <g id="Group_796" data-name="Group 796" transform="translate(13.119 4.803)">
        <path id="Path_485" data-name="Path 485" d="M611.976,517.784c1.09-21.33-17.115-29.646-29.674-27.642-5.648-8.115-22.973-1.284-12.956,14.109C578.451,518.245,611.976,517.784,611.976,517.784Z" transform="translate(-565.634 -486.051)" fill="#292929"/>
        <path id="Path_486" data-name="Path 486" d="M566.373,502.189c-5.411-8.315-3.1-14.135.875-16.807,3.755-2.528,9.67-2.567,12.9,1.666a27.89,27.89,0,0,1,21.763,6.655c4.086,3.67,8.836,10.415,8.259,21.7a.635.635,0,0,1-.626.6c-.081,0-.268,0-.552,0C604.43,516.013,575.027,515.488,566.373,502.189Zm13.589-13.829a.636.636,0,0,1-.621-.264c-2.643-3.8-8.02-3.925-11.383-1.661-3.469,2.336-5.428,7.518-.52,15.061,8.15,12.525,36.957,13.214,41.489,13.243.357-10.427-4.057-16.671-7.865-20.091a26.76,26.76,0,0,0-17.455-6.571A23.174,23.174,0,0,0,579.962,488.361Z" transform="translate(-563.195 -483.643)" fill="#292929"/>
      </g>
      <path id="Path_487" data-name="Path 487" d="M631.216,697.576c-.247,4.838-.345,6.743-.465,9.089-.377,7.375-17.378,12.193-17.094,6.622.27-5.277.727-14.22.727-14.22Z" transform="translate(-589.863 -647.526)" fill="#fff"/>
      <path id="Path_488" data-name="Path 488" d="M614.956,714.073a5.462,5.462,0,0,1-2.948-.692,2.51,2.51,0,0,1-1.179-2.353l.726-14.22a.6.6,0,0,1,.545-.566l16.832-1.492a.6.6,0,0,1,.468.165.6.6,0,0,1,.183.462l-.465,9.089c-.142,2.779-2.456,5.514-6.348,7.5A18.674,18.674,0,0,1,614.956,714.073Zm-2.232-16.685-.7,13.7a1.321,1.321,0,0,0,.634,1.288c1.627,1.054,5.918.393,9.566-1.472,3.5-1.79,5.578-4.159,5.7-6.5l.429-8.4Z" transform="translate(-587.632 -645.295)" fill="#292929"/>
      <circle id="Ellipse_4" data-name="Ellipse 4" cx="23.266" cy="23.266" r="23.266" transform="translate(0 38.522) rotate(-45)" fill="#fff"/>
      <path id="Path_489" data-name="Path 489" d="M567.779,577.965c-.409,0-.819-.01-1.231-.031a23.864,23.864,0,0,1,2.435-47.666h0a23.865,23.865,0,0,1-1.2,47.7Zm-.04-46.533a22.7,22.7,0,1,0,1.183.03Q568.329,531.432,567.738,531.432Z" transform="translate(-534.862 -515.578)" fill="#292929"/>
      <g id="Group_797" data-name="Group 797" transform="translate(32.283 14.651)">
        <path id="Path_490" data-name="Path 490" d="M657.943,533.211c12.833.656,26.026,8.416,25.371,21.249-.5,9.785-6.691,17.332-12.013,20.146-3.749-6.511-2.678-13.07-2.484-16.882C659.539,555.192,654.263,540.519,657.943,533.211Z" transform="translate(-656.136 -532.576)" fill="#222"/>
        <path id="Path_491" data-name="Path 491" d="M668.418,572.554c-3.385-5.879-2.953-11.8-2.668-15.72.026-.354.05-.692.071-1.014-4.067-1.309-7.67-4.939-9.944-10.046-2.422-5.44-2.749-11.413-.833-15.218a.638.638,0,0,1,.6-.349c13.1.669,26.654,8.578,25.973,21.915-.51,9.988-6.76,17.719-12.351,20.675a.635.635,0,0,1-.848-.244Zm-11.38-27.3c2.21,4.964,5.714,8.421,9.614,9.485a.636.636,0,0,1,.467.645c-.024.473-.062.987-.1,1.539-.265,3.64-.662,9.08,2.2,14.447,5.137-3,10.663-10.146,11.132-19.315.632-12.372-11.994-19.776-24.345-20.558C654.453,534.994,654.844,540.331,657.038,545.258Z" transform="translate(-653.805 -530.207)" fill="#222"/>
      </g>
      <circle id="Ellipse_5" data-name="Ellipse 5" cx="7.119" cy="7.119" r="7.119" transform="translate(35.358 43.35) rotate(-45)" fill="#fff"/>
      <path id="Path_492" data-name="Path 492" d="M610.971,707.143a20.453,20.453,0,0,1-2.413-.127.6.6,0,0,1,.153-1.188c.065.008,6.6.8,11.227-2.036a.6.6,0,1,1,.626,1.021A18.9,18.9,0,0,1,610.971,707.143Z" transform="translate(-585.433 -652.358)" fill="#292929"/>
      <path id="Path_493" data-name="Path 493" d="M613.083,626.045a.6.6,0,0,1-.464-.22,5.934,5.934,0,0,0-2.44-1.549,3.374,3.374,0,0,0-2.632.114.6.6,0,1,1-.615-1.027,4.512,4.512,0,0,1,3.642-.218,7.014,7.014,0,0,1,2.973,1.923.6.6,0,0,1-.464.977Z" transform="translate(-584.333 -588.62)" fill="#292929"/>
      <path id="Path_494" data-name="Path 494" d="M546.176,623.735a.6.6,0,0,1-.5-.921,2.93,2.93,0,0,1,2.106-1.216,4.307,4.307,0,0,1,2.261.371.6.6,0,1,1-.555,1.061,3.164,3.164,0,0,0-1.589-.241,1.722,1.722,0,0,0-1.213.669A.6.6,0,0,1,546.176,623.735Z" transform="translate(-536.185 -587.601)" fill="#292929"/>
      <path id="Path_495" data-name="Path 495" d="M621.847,595.634a.6.6,0,0,1-.53-.319c-1.653-3.131-5.617-2.355-5.657-2.346a.6.6,0,1,1-.241-1.172c.049-.01,4.89-.956,6.958,2.959a.6.6,0,0,1-.529.878Z" transform="translate(-590.877 -564.034)" fill="#292929"/>
      <path id="Path_496" data-name="Path 496" d="M583.032,506.7a.6.6,0,0,1-.462-.978c.035-.043,3.521-4.2,7.845-2.177a.6.6,0,1,1-.507,1.085c-3.474-1.623-6.3,1.711-6.415,1.854A.6.6,0,0,1,583.032,506.7Z" transform="translate(-565.246 -494.099)" fill="#fff"/>
      <path id="Path_497" data-name="Path 497" d="M735.261,562.887a.6.6,0,0,1-.594-.531,22.582,22.582,0,0,0-6.606-13.542.6.6,0,0,1,.845-.849,23.769,23.769,0,0,1,6.951,14.256.6.6,0,0,1-.527.662C735.306,562.886,735.283,562.887,735.261,562.887Z" transform="translate(-679.933 -529.421)" fill="#fff"/>
      <path id="Path_498" data-name="Path 498" d="M706.56,531.995a.6.6,0,0,1-.323-.1c-.555-.356-.9-.533-.9-.535a.6.6,0,0,1,.547-1.065c.016.008.391.2,1,.593a.6.6,0,0,1-.324,1.1Z" transform="translate(-661.899 -515.577)" fill="#fff"/>
      <path id="Path_499" data-name="Path 499" d="M541.118,555.75a.6.6,0,0,1-.521-.3c-.307-.542-.591-1.09-.843-1.629a.6.6,0,1,1,1.085-.506c.238.51.507,1.03.8,1.544a.6.6,0,0,1-.52.894Z" transform="translate(-531.549 -533.501)" fill="#292929"/>
      <path id="Path_500" data-name="Path 500" d="M532.65,475.783a.6.6,0,0,1-.6-.555c-.653-9,7.2-13.993,7.535-14.2a.6.6,0,0,1,.633,1.017c-.076.047-7.574,4.829-6.974,13.1a.6.6,0,0,1-.554.64Z" transform="translate(-525.491 -460.936)" fill="#292929"/>
      <path id="Path_501" data-name="Path 501" d="M786.267,704.8a.6.6,0,0,1-.511-.909q.411-.679.79-1.35a.6.6,0,1,1,1.042.589q-.388.686-.809,1.381A.6.6,0,0,1,786.267,704.8Z" transform="translate(-725.496 -651.204)" fill="#292929"/>
      <path id="Path_502" data-name="Path 502" d="M762.346,537.02a.6.6,0,0,1-.554-.825c9.4-23.037-10.194-37.271-10.393-37.412a.6.6,0,0,1,.693-.977,35.87,35.87,0,0,1,9.1,10.345c3.591,6.105,6.8,16.005,1.706,28.5A.6.6,0,0,1,762.346,537.02Z" transform="translate(-698.275 -489.921)" fill="#292929"/>
    </g>
    <path id="Path_503" data-name="Path 503" d="M947.568,892.523c1.159,2.527,6.034,5.575,14.643,5.448s9.948-4.925,8.861-6.752C968.161,886.325,943.559,883.784,947.568,892.523Z" transform="translate(139.475 -1547)" fill="#fff"/>
    <path id="Path_504" data-name="Path 504" d="M435.339,894.936a.6.6,0,0,1-.562-.806c5.169-14.011,15.586-40.394,27.273-59.67a.6.6,0,0,1,1.024.621c-11.635,19.191-22.019,45.494-27.173,59.464A.6.6,0,0,1,435.339,894.936Z" transform="translate(543.49 -1505.543)" fill="#292929"/>
    <path id="Path_505" data-name="Path 505" d="M959.46,896.407a26.663,26.663,0,0,1-8.238-1.18.6.6,0,0,1,.371-1.139,25.576,25.576,0,0,0,8.382,1.117c5.547-.082,7.491-2.089,8.156-3.278a2.689,2.689,0,0,0,.2-2.569c-1.833-3.08-15.179-5.628-20.765-3.227-1.72.739-2.355,1.81-1.942,3.275a4.841,4.841,0,0,0,.261.7.6.6,0,0,1-1.088.5,6.014,6.014,0,0,1-.326-.874c-.58-2.055.351-3.724,2.622-4.7,5.822-2.5,19.973-.141,22.266,3.715a3.872,3.872,0,0,1-.184,3.765c-.791,1.414-3.035,3.8-9.183,3.891Q959.725,896.407,959.46,896.407Z" transform="translate(141.702 -1544.833)" fill="#292929"/>
    <path id="Path_506" data-name="Path 506" d="M588.065,1111.809a109.377,109.377,0,0,1-38.423-6.817,38.236,38.236,0,0,0-5.318-1.515.6.6,0,1,1,.242-1.172,39.372,39.372,0,0,1,5.486,1.563,108.921,108.921,0,0,0,42.414,6.666.616.616,0,0,1,.619.577.6.6,0,0,1-.578.619Q590.265,1111.808,588.065,1111.809Z" transform="translate(457.461 -1716.955)" fill="#292929"/>
    <path id="Path_507" data-name="Path 507" d="M480.522,1101.525a.6.6,0,0,1-.121-1.185c.8-.165,1.626-.3,2.463-.405a.6.6,0,0,1,.147,1.189c-.8.1-1.6.23-2.367.389A.608.608,0,0,1,480.522,1101.525Z" transform="translate(507.863 -1715.093)" fill="#292929"/>
    <path id="Path_508" data-name="Path 508" d="M852.625,933.282a.6.6,0,0,1-.54-.855c.584-1.232,2.944-3.218,4.625-4.528a18.187,18.187,0,0,0-7.363,2.664.6.6,0,0,1-.7-.97,19.832,19.832,0,0,1,10.1-3.091.6.6,0,0,1,.377,1.084c-1.441,1.036-5.319,4.019-5.952,5.355A.6.6,0,0,1,852.625,933.282Z" transform="translate(217.323 -1578.344)" fill="#292929"/>
    <path id="Path_509" data-name="Path 509" d="M329.037,870.074a.6.6,0,0,1-.046-1.2,23.272,23.272,0,0,0,15.929-7.722.6.6,0,0,1,.9.792,24.447,24.447,0,0,1-16.733,8.124Z" transform="translate(627.308 -1526.661)" fill="#292929"/>
    <path id="Path_510" data-name="Path 510" d="M301.71,898.76l-.051,0a17.2,17.2,0,0,1-1.777-.228.6.6,0,0,1,.236-1.173c.006,0,.616.122,1.642.209a.6.6,0,0,1-.05,1.195Z" transform="translate(650.204 -1555.354)" fill="#292929"/>
    <path id="Path_511" data-name="Path 511" d="M707.29,1273.238a.6.6,0,0,1-.1-1.189c18.009-3.061,21.265-17.08,21.3-17.222a.6.6,0,0,1,1.17.255c-.032.149-3.468,14.952-22.265,18.147A.651.651,0,0,1,707.29,1273.238Z" transform="translate(329.057 -1836.857)" fill="#fff"/>
    <path id="Path_512" data-name="Path 512" d="M440.6,1260.948a.6.6,0,0,1-.6-.6c0-5,1.26-13.059,3.746-23.949a.6.6,0,1,1,1.167.266c-2.466,10.8-3.716,18.771-3.716,23.682A.6.6,0,0,1,440.6,1260.948Z" transform="translate(539.338 -1822.332)" fill="#fff"/>
    <path id="Path_513" data-name="Path 513" d="M464.48,1202.777a.577.577,0,0,1-.143-.018.6.6,0,0,1-.439-.724q.268-1.094.534-2.156a.6.6,0,0,1,1.161.291q-.265,1.057-.532,2.149A.6.6,0,0,1,464.48,1202.777Z" transform="translate(520.513 -1793.546)" fill="#fff"/>
    <path id="Path_514" data-name="Path 514" d="M456.734,1361.85H268.294a.6.6,0,0,1,0-1.2H456.734a.6.6,0,0,1,0,1.2Z" transform="translate(675.204 -1920.671)" fill="#292929"/>
    <path id="Path_515" data-name="Path 515" d="M1194.288,1361.85h-13.914a.6.6,0,0,1,0-1.2h13.914a.6.6,0,0,1,0,1.2Z" transform="translate(-43.967 -1920.671)" fill="#292929"/>
    <path id="Path_516" data-name="Path 516" d="M954.619,851.636a.6.6,0,0,1-.485-.247c-.422-.581-.889-1.174-1.388-1.765a.6.6,0,0,1,.915-.773c.518.613,1,1.23,1.442,1.834a.6.6,0,0,1-.483.951Z" transform="translate(135.156 -1516.95)" fill="#292929"/>
    <path id="Path_517" data-name="Path 517" d="M869.428,785.643a.6.6,0,0,1-.38-.136,90.308,90.308,0,0,0-14.443-9.487.6.6,0,1,1,.541-1.068,91.609,91.609,0,0,1,14.662,9.63.6.6,0,0,1-.38,1.061Z" transform="translate(212.686 -1458.798)" fill="#292929"/>
    <path id="Path_518" data-name="Path 518" d="M349.069,1255.3c-.021,0-.043,0-.065,0a.6.6,0,0,1-.531-.66,121.934,121.934,0,0,1,3.263-16.442.6.6,0,1,1,1.159.3,120.822,120.822,0,0,0-3.233,16.274A.6.6,0,0,1,349.069,1255.3Z" transform="translate(611.513 -1823.759)" fill="#292929"/>
    <path id="Path_519" data-name="Path 519" d="M371.4,1203.256a.611.611,0,0,1-.162-.023.6.6,0,0,1-.414-.738c.254-.9.506-1.784.755-2.637a.6.6,0,1,1,1.15.334c-.247.85-.5,1.728-.752,2.626A.6.6,0,0,1,371.4,1203.256Z" transform="translate(593.908 -1793.546)" fill="#292929"/>
    <path id="Path_520" data-name="Path 520" d="M295.138,1064.924a.6.6,0,0,1-.571-.777c.689-2.2,1.25-3.916,1.565-4.862-14.415.223-21.682-12.628-25.269-23.57a.6.6,0,1,1,1.137-.372c3.529,10.762,10.714,23.433,24.943,22.718a.6.6,0,0,1,.6.791c-.008.022-.765,2.243-1.831,5.653A.6.6,0,0,1,295.138,1064.924Z" transform="translate(672.73 -1663.84)" fill="#292929"/>
    <path id="Path_521" data-name="Path 521" d="M259.665,987.5a.6.6,0,0,1-.588-.488c-.267-1.411-.374-2.246-.379-2.281a.6.6,0,1,1,1.188-.151c0,.008.108.838.368,2.21a.6.6,0,0,1-.477.7A.616.616,0,0,1,259.665,987.5Z" transform="translate(682.302 -1623.73)" fill="#292929"/>
    <path id="Path_522" data-name="Path 522" d="M1266.387,1276.83a.6.6,0,0,1-.5-.928c.732-1.113,1.425-2.275,2.061-3.454a.6.6,0,0,1,1.054.569c-.652,1.208-1.363,2.4-2.114,3.543A.6.6,0,0,1,1266.387,1276.83Z" transform="translate(-111.789 -1850.875)" fill="#292929"/>
    <path id="Path_523" data-name="Path 523" d="M1226.13,980.221a.6.6,0,0,1-.588-.717,59.876,59.876,0,0,0,1.14-11.816c0-30.013-20.531-48.318-20.738-48.5a.6.6,0,0,1,.788-.9c.211.185,21.147,18.85,21.147,49.4a61.087,61.087,0,0,1-1.163,12.053A.6.6,0,0,1,1226.13,980.221Z" transform="translate(-64.44 -1571.751)" fill="#292929"/>
    <path id="Path_524" data-name="Path 524" d="M351.184,532.176a.6.6,0,0,1-.323-1.1q.586-.375,1.181-.748a.6.6,0,1,1,.635,1.015q-.59.37-1.172.741A.6.6,0,0,1,351.184,532.176Z" transform="translate(609.846 -1265.89)" fill="#292929"/>
    <path id="Path_525" data-name="Path 525" d="M171.128,670.83a.6.6,0,0,1-.507-.28,98.887,98.887,0,0,1-12.337-37.045,74.545,74.545,0,0,1,3.955-35.079c5.083-13.575,14.473-25.7,27.909-36.047a.6.6,0,0,1,.73.949c-30,23.1-33.639,50.837-31.406,70.039a97.525,97.525,0,0,0,12.161,36.547.6.6,0,0,1-.506.917Z" transform="translate(761.919 -1291.138)" fill="#292929"/>
    <path id="Path_526" data-name="Path 526" d="M455.229,739.321a.6.6,0,0,1-.345-1.088,56.138,56.138,0,0,1,21.257-9.121.6.6,0,1,1,.231,1.174,54.937,54.937,0,0,0-20.8,8.925A.6.6,0,0,1,455.229,739.321Z" transform="translate(527.807 -1422.695)" fill="#292929"/>
    <path id="Path_527" data-name="Path 527" d="M424.579,795.2a.6.6,0,0,1-.443-1c.014-.015.342-.376.977-.984a.6.6,0,1,1,.828.865c-.6.575-.916.92-.919.923A.6.6,0,0,1,424.579,795.2Z" transform="translate(551.974 -1473.12)" fill="#292929"/>
    <path id="Path_528" data-name="Path 528" d="M383.12,419.28l30.917-25.851-33.916,12.719Z" transform="translate(586.557 -1158.02)" fill="#fff"/>
    <path id="Path_529" data-name="Path 529" d="M380.889,417.646a.6.6,0,0,1-.583-.465l-3-13.132a.6.6,0,0,1,.373-.694L411.6,390.636a.6.6,0,0,1,.594,1.02l-30.917,25.851A.6.6,0,0,1,380.889,417.646Zm-2.3-13.354,2.665,11.669,27.473-22.971Z" transform="translate(588.788 -1155.787)" fill="#292929"/>
    <path id="Path_530" data-name="Path 530" d="M384.982,410.7l-1.861,8.583-3-13.132,33.916-12.719Z" transform="translate(586.557 -1158.02)" fill="#fff"/>
    <path id="Path_531" data-name="Path 531" d="M380.889,417.647a.6.6,0,0,1-.583-.465l-3-13.132a.6.6,0,0,1,.373-.694L411.6,390.638a.6.6,0,0,1,.516,1.075l-28.833,17.135-1.806,8.328a.6.6,0,0,1-.582.471Zm-2.3-13.354,2.284,10,1.291-5.955a.6.6,0,0,1,.279-.388l23.272-13.83Z" transform="translate(588.788 -1155.788)" fill="#292929"/>
    <path id="Path_532" data-name="Path 532" d="M391.294,393.429l-21.4,24.2-7.652-6.928,19.543-12.925-24.4,8.376-6.1-5.687Z" transform="translate(609.3 -1158.02)" fill="#fff"/>
    <path id="Path_533" data-name="Path 533" d="M367.658,415.991a.6.6,0,0,1-.4-.155l-7.652-6.928a.6.6,0,0,1,.072-.943L375.3,397.629l-19.964,6.852a.6.6,0,0,1-.6-.128l-6.1-5.687a.6.6,0,0,1,.3-1.027l40.017-7.031a.6.6,0,0,1,.552.986l-21.4,24.2a.6.6,0,0,1-.415.2Zm-6.678-7.453,6.631,6,19.869-22.46-37.147,6.527,4.959,4.623,24.064-8.259a.6.6,0,0,1,.524,1.066Z" transform="translate(611.532 -1155.786)" fill="#292929"/>
    <g id="Group_799" data-name="Group 799" transform="translate(1105.421 -728.883)">
      <circle id="Ellipse_6" data-name="Ellipse 6" cx="6.983" cy="6.983" r="6.983" transform="matrix(0.257, -0.966, 0.966, 0.257, 0, 13.498)" fill="#fff"/>
      <path id="Path_534" data-name="Path 534" d="M859.452,555.364a.464.464,0,0,1-.348-.156,7.571,7.571,0,0,1-.605-.779.465.465,0,0,1,.771-.522,6.581,6.581,0,0,0,.53.682.465.465,0,0,1-.348.775Z" transform="translate(-856.131 -541.719)" fill="#dd4a48"/>
      <path id="Path_535" data-name="Path 535" d="M872.329,534.74a7.574,7.574,0,0,1-3.911-1.085.6.6,0,1,1,.618-1.025,6.388,6.388,0,0,0,9.367-7.443.6.6,0,0,1,1.139-.37,7.588,7.588,0,0,1-7.213,9.923Z" transform="translate(-863.787 -518.617)" fill="#dd4a48"/>
      <path id="Path_536" data-name="Path 536" d="M906.076,509.818a.6.6,0,0,1-.41-.162,6.516,6.516,0,0,0-.559-.468.6.6,0,1,1,.715-.96,7.629,7.629,0,0,1,.663.556.6.6,0,0,1-.41,1.035Z" transform="translate(-892.755 -505.769)" fill="#dd4a48"/>
      <path id="Path_537" data-name="Path 537" d="M852.991,511.627a.6.6,0,0,1-.577-.44,7.588,7.588,0,0,1,7.31-9.6q.3,0,.6.023a.6.6,0,0,1-.094,1.193c-.167-.013-.335-.02-.506-.02a6.391,6.391,0,0,0-6.156,8.086.6.6,0,0,1-.577.758Z" transform="translate(-851.182 -500.626)" fill="#dd4a48"/>
      <path id="Path_538" data-name="Path 538" d="M880.914,527.764a2.593,2.593,0,1,1-2.593-2.593A2.593,2.593,0,0,1,880.914,527.764Z" transform="translate(-869.78 -519.222)" fill="#dd4a48"/>
    </g>
    <g id="Group_800" data-name="Group 800" transform="translate(1053.407 -800.318)">
      <path id="Path_539" data-name="Path 539" d="M793.012,247.425c0,18.437,20.088,34.122,20.088,34.122s20.088-15.685,20.088-34.122a20.088,20.088,0,1,0-40.176,0Zm9.906,0A10.182,10.182,0,1,1,813.1,257.606,10.182,10.182,0,0,1,802.918,247.425Z" transform="translate(-792.414 -226.738)" fill="#dd4a48"/>
      <path id="Path_540" data-name="Path 540" d="M810.868,279.914a.6.6,0,0,1-.369-.127,70.542,70.542,0,0,1-9.823-9.852.6.6,0,1,1,.926-.758,70.98,70.98,0,0,0,9.265,9.368c2.716-2.246,19.49-16.792,19.49-33.351a19.416,19.416,0,0,0-3.159-10.642.6.6,0,1,1,1-.654,20.6,20.6,0,0,1,3.353,11.3c0,18.516-19.488,33.946-20.318,34.594A.6.6,0,0,1,810.868,279.914Zm-12.174-12.942a.6.6,0,0,1-.487-.249q-.4-.562-.8-1.143a.6.6,0,1,1,.989-.675q.388.569.784,1.119a.6.6,0,0,1-.486.948Zm-2.623-4a.6.6,0,0,1-.515-.293c-3.566-6.013-5.374-11.9-5.374-17.485a20.7,20.7,0,0,1,28.086-19.323.6.6,0,1,1-.428,1.118,19.5,19.5,0,0,0-26.461,18.206c0,5.372,1.752,11.049,5.207,16.874a.6.6,0,0,1-.514.9Zm14.8-7a10.792,10.792,0,0,1-10.78-10.78.6.6,0,0,1,1.2,0,9.583,9.583,0,1,0,3.17-7.121.6.6,0,1,1-.8-.89,10.78,10.78,0,1,1,7.214,18.791Zm-9.284-14.368a.6.6,0,0,1-.545-.845,10.748,10.748,0,0,1,.707-1.313.6.6,0,1,1,1.012.639,9.538,9.538,0,0,0-.628,1.167A.6.6,0,0,1,801.585,241.605Zm22.883-10.6a.6.6,0,0,1-.4-.158c-.284-.262-.582-.519-.884-.766a.6.6,0,0,1,.757-.927c.32.261.636.535.937.812a.6.6,0,0,1-.406,1.039Z" transform="translate(-790.182 -224.507)" fill="#292929"/>
    </g>
    <g id="Group_801" data-name="Group 801" transform="translate(924.685 -609.397)">
      <path id="Path_541" data-name="Path 541" d="M184.4,1140.753c0,9.851,10.733,18.232,10.733,18.232s10.733-8.381,10.733-18.232a10.733,10.733,0,1,0-21.467,0Zm5.293,0a5.44,5.44,0,1,1,5.44,5.44A5.44,5.44,0,0,1,189.7,1140.753Z" transform="translate(-183.805 -1129.42)" fill="#ff4863"/>
      <path id="Path_542" data-name="Path 542" d="M192.906,1157.351a.6.6,0,0,1-.368-.127,37.191,37.191,0,0,1-5.293-5.307.6.6,0,0,1,.926-.759,37.984,37.984,0,0,0,4.734,4.82c1.861-1.571,10.136-9.037,10.136-17.458a10.091,10.091,0,0,0-1.643-5.533.6.6,0,0,1,1-.655,11.286,11.286,0,0,1,1.837,6.188c0,10.028-10.516,18.354-10.963,18.7A.6.6,0,0,1,192.906,1157.351Zm-6.5-6.916a.6.6,0,0,1-.487-.249q-.218-.3-.432-.617a.6.6,0,1,1,.989-.675q.205.3.415.593a.6.6,0,0,1-.486.948ZM185,1148.3a.6.6,0,0,1-.515-.293,18.682,18.682,0,0,1-2.91-9.485,11.337,11.337,0,0,1,15.385-10.585.6.6,0,1,1-.428,1.117,10.142,10.142,0,0,0-13.76,9.468,17.513,17.513,0,0,0,2.743,8.874.6.6,0,0,1-.515.9Zm7.906-3.739a6.046,6.046,0,0,1-6.039-6.039.6.6,0,1,1,1.2,0,4.841,4.841,0,1,0,1.6-3.6.6.6,0,0,1-.8-.889,6.039,6.039,0,1,1,4.041,10.527Zm-4.961-7.678a.6.6,0,0,1-.545-.845,6.068,6.068,0,0,1,.4-.736.6.6,0,0,1,1.012.639,4.8,4.8,0,0,0-.317.59A.6.6,0,0,1,187.945,1136.882Zm12.227-5.663a.6.6,0,0,1-.4-.158q-.224-.206-.46-.4a.6.6,0,1,1,.757-.927q.263.215.513.445a.6.6,0,0,1-.405,1.039Z" transform="translate(-181.574 -1127.188)" fill="#292929"/>
    </g>
    <path id="Path_543" data-name="Path 543" d="M361.247,1050.616a11.242,11.242,0,0,1-6.439,7.936c-8.584,3.781-14.833.648-19.312-5.59C340.6,1049.6,351.424,1044.188,361.247,1050.616Z" transform="translate(621.744 -1673.846)" fill="#292929"/>
    <g id="Group_803" data-name="Group 803" transform="translate(1072.398 -653.906)">
      <path id="Path_539-2" data-name="Path 539" d="M793.012,261.376c0,31.241,34.039,57.82,34.039,57.82s34.039-26.579,34.039-57.82a34.039,34.039,0,1,0-68.078,0Zm16.786,0a17.253,17.253,0,1,1,17.253,17.253A17.253,17.253,0,0,1,809.8,261.376Z" transform="translate(-791.998 -226.323)" fill="#dd4a48"/>
      <path id="Path_540-2" data-name="Path 540" d="M825.236,318.394a1.013,1.013,0,0,1-.625-.215,119.527,119.527,0,0,1-16.645-16.694,1.014,1.014,0,1,1,1.569-1.285,120.3,120.3,0,0,0,15.7,15.874c4.6-3.805,33.026-28.454,33.026-56.515a32.9,32.9,0,0,0-5.352-18.032,1.014,1.014,0,1,1,1.7-1.109,34.915,34.915,0,0,1,5.682,19.141c0,31.375-33.023,57.522-34.428,58.619A1.016,1.016,0,0,1,825.236,318.394Zm-20.63-21.931a1.013,1.013,0,0,1-.824-.422q-.685-.953-1.357-1.937a1.014,1.014,0,1,1,1.675-1.144q.658.964,1.329,1.9a1.015,1.015,0,0,1-.823,1.606Zm-4.444-6.777a1.014,1.014,0,0,1-.873-.5c-6.042-10.189-9.106-20.157-9.106-29.629a35.075,35.075,0,0,1,47.593-32.744,1.014,1.014,0,1,1-.726,1.894,33.046,33.046,0,0,0-44.838,30.85c0,9.1,2.969,18.723,8.823,28.594a1.014,1.014,0,0,1-.872,1.532Zm25.074-11.859a18.288,18.288,0,0,1-18.267-18.267,1.014,1.014,0,0,1,2.029,0,16.238,16.238,0,1,0,5.372-12.067,1.015,1.015,0,0,1-1.358-1.507,18.267,18.267,0,1,1,12.225,31.841ZM809.5,253.48a1.015,1.015,0,0,1-.924-1.432,18.176,18.176,0,0,1,1.2-2.226,1.014,1.014,0,0,1,1.715,1.082,16.138,16.138,0,0,0-1.064,1.978A1.015,1.015,0,0,1,809.5,253.48Zm38.775-17.958a1.012,1.012,0,0,1-.686-.268c-.482-.443-.986-.88-1.5-1.3a1.014,1.014,0,0,1,1.283-1.571c.543.443,1.077.906,1.588,1.376a1.014,1.014,0,0,1-.687,1.761Z" transform="translate(-790.182 -224.507)" fill="#292929"/>
    </g>
  </g>
</svg>
