<svg id="onboarding_b" xmlns="http://www.w3.org/2000/svg" width="250" height="250" viewBox="0 0 250 250">
  <rect id="Rectangle_9" data-name="Rectangle 9" width="250" height="250" fill="none"/>
  <g id="Group_826" data-name="Group 826" transform="translate(-1179.751 817.482)">
    <path id="Path_544" data-name="Path 544" d="M1414.1,392.318c-25.608,11.49-50.208,11.359-53.435-.682-5.365-20.019,9.155-18.955,5.243-26.285-8.73-16.353-1.021-28.128,4.716-33.533,10.386-9.786,22.731-.884,34.81-17.673,10.346-14.381,9.62-29.336,30.781-28.953,33.239-20.316,65.84,22.111,35.07,39.712-2.546,19.113,2.19,21.2,8.267,26.04,5.742,4.57,20.375,8.616,24.039,22.876,4.409,17.161-7.917,39.7-28.1,39.336Z" transform="translate(-142.981 -1084.509)" fill="#292929"/>
    <path id="Path_545" data-name="Path 545" d="M1516.1,408.113c33.09,0,52.15,41.032,53.209,63.8s-20.119,37.855-20.119,37.855Z" transform="translate(-222.162 -1148.643)" fill="#dd4a48"/>
    <path id="Path_546" data-name="Path 546" d="M1386.251,630.155s-14.338,33.4-15.132,55.575h131.818s-3.978-34.841-12.442-53.858S1386.251,630.155,1386.251,630.155Z" transform="translate(-148.95 -1256.447)" fill="#292929"/>
    <path id="Path_547" data-name="Path 547" d="M1573.482,549.049c32.3,21.154,45.029,11.263,65.386-30.576a5.33,5.33,0,0,0-.832-5.926c-5.07-5.522-11.439-7.048-19.552-3.207,0,0-31.5,10.589-42.356,23.031S1573.482,549.049,1573.482,549.049Z" transform="translate(-248.769 -1198.714)" fill="#dd4a48"/>
    <path id="Path_548" data-name="Path 548" d="M1599.878,559.8c-7.512,0-16.3-3.505-27.563-10.88a6.834,6.834,0,0,1-3.2-4.634c-.694-3.641,1.213-8.077,5.669-13.186,10.863-12.453,41.389-22.815,42.683-23.25,7.932-3.763,14.805-2.625,20.348,3.411a6.112,6.112,0,0,1,.954,6.765c-11.067,22.746-20.439,37.536-32.945,40.984A22.222,22.222,0,0,1,1599.878,559.8Zm26.26-52.617a19.042,19.042,0,0,0-8.111,2.062c-.4.138-31.517,10.7-42.111,22.845-4.078,4.675-5.919,8.795-5.325,11.914a5.306,5.306,0,0,0,2.456,3.6c.022.012.046.025.067.039,13.987,9.162,23.952,12.221,32.305,9.916,11.96-3.3,21.108-17.823,31.991-40.19a4.6,4.6,0,0,0-.709-5.086C1633.578,508.879,1630.083,507.183,1626.138,507.183Z" transform="translate(-247.988 -1197.933)" fill="#292929"/>
    <path id="Path_549" data-name="Path 549" d="M1453.289,408.113s38.649,32.032,25.148,59.827c0,0,17.315,19.357,25.432,51.133a5.638,5.638,0,0,1-2.055,5.872c-7.41,5.655-16.759,20.555-45.878,19.5-21.02-.762-40.266-16.4-59.981-18.024a3.734,3.734,0,0,1-3.248-4.918l25.175-74.145Z" transform="translate(-159.832 -1147.266)" fill="#dd4a48"/>
    <path id="Path_550" data-name="Path 550" d="M1589.672,546.145a.753.753,0,0,1-.717-.524c-8.525-26.682-22.915-42.982-23.06-43.144a.754.754,0,0,1-.116-.831c3.661-7.537,3.708-16.13.145-25.542a.753.753,0,1,1,1.408-.533c3.648,9.63,3.652,18.471.017,26.284,2.223,2.625,15.137,18.566,23.041,43.306a.754.754,0,0,1-.718.983Z" transform="translate(-247.302 -1182.436)" fill="#292929"/>
    <path id="Path_551" data-name="Path 551" d="M1556.774,456.382a.753.753,0,0,1-.654-.378q-.8-1.393-1.655-2.739a.753.753,0,0,1,1.272-.807q.869,1.372,1.689,2.795a.753.753,0,0,1-.653,1.128Z" transform="translate(-241.805 -1171.518)" fill="#292929"/>
    <g id="Group_806" data-name="Group 806" transform="translate(1346.996 -729.491)">
      <g id="Group_804" data-name="Group 804" transform="translate(0 0)">
        <path id="Path_552" data-name="Path 552" d="M1648.927,486.229l-24.287-4.991a1.781,1.781,0,0,1-1.386-2.1l9.292-45.219a1.781,1.781,0,0,1,2.1-1.386l24.287,4.99a1.781,1.781,0,0,1,1.386,2.1l-9.291,45.219A1.782,1.782,0,0,1,1648.927,486.229Z" transform="translate(-1622.552 -431.828)" fill="#292929"/>
        <path id="Path_553" data-name="Path 553" d="M1648.105,486.193l-24.287-4.991a2.446,2.446,0,0,1-1.9-2.888l9.291-45.219a2.446,2.446,0,0,1,2.889-1.9l24.287,4.99a2.449,2.449,0,0,1,1.9,2.888l-9.292,45.219a2.445,2.445,0,0,1-2.888,1.9Zm-15.117-53.537a1.106,1.106,0,0,0-.479.707l-9.292,45.219a1.115,1.115,0,0,0,.868,1.317l24.287,4.99a1.117,1.117,0,0,0,1.318-.868l9.292-45.219a1.115,1.115,0,0,0-.868-1.317l-24.287-4.99a1.1,1.1,0,0,0-.838.161Z" transform="translate(-1621.864 -431.14)" fill="#292929"/>
      </g>
      <g id="Group_805" data-name="Group 805" transform="translate(0 0)">
        <path id="Path_554" data-name="Path 554" d="M1647.719,485.981l-23.079-4.742a1.781,1.781,0,0,1-1.386-2.1l9.292-45.219a1.781,1.781,0,0,1,2.1-1.386l23.079,4.742a1.781,1.781,0,0,1,1.386,2.1l-9.292,45.219A1.78,1.78,0,0,1,1647.719,485.981Z" transform="translate(-1622.552 -431.828)" fill="#fff"/>
        <path id="Path_555" data-name="Path 555" d="M1646.9,485.944l-23.079-4.742a2.446,2.446,0,0,1-1.9-2.888l9.291-45.219a2.446,2.446,0,0,1,2.889-1.9l23.079,4.742a2.447,2.447,0,0,1,1.9,2.889l-9.292,45.219a2.448,2.448,0,0,1-2.391,1.954A2.48,2.48,0,0,1,1646.9,485.944Zm-13.909-53.288a1.106,1.106,0,0,0-.479.707l-9.292,45.219a1.115,1.115,0,0,0,.868,1.317l23.079,4.742a1.116,1.116,0,0,0,1.318-.868l9.292-45.219a1.116,1.116,0,0,0-.869-1.318l-23.079-4.742a1.1,1.1,0,0,0-.838.161Z" transform="translate(-1621.864 -431.14)" fill="#292929"/>
      </g>
    </g>
    <path id="Path_556" data-name="Path 556" d="M1675.725,500.282c-.852-3.691-1.914-9.8-.768-13.706-2.883-2.1-.456-8.572,8.443-5.448,7.826,2.748,5.382,19.209.448,24.935a3.056,3.056,0,0,1-4.187.4l-.137-.109A10.967,10.967,0,0,1,1675.725,500.282Z" transform="translate(-301.265 -1185.484)" fill="#fff"/>
    <path id="Path_557" data-name="Path 557" d="M1680.769,507.09a3.784,3.784,0,0,1-2.35-.818l-.111-.088a11.793,11.793,0,0,1-4.093-6.518h0c-.944-4.085-1.838-9.687-.884-13.612a3.808,3.808,0,0,1-.572-4.5c1.172-2.234,4.444-3.91,10.115-1.921,2.417.849,4.134,2.944,4.966,6.059,1.775,6.644-.752,16.08-4.2,20.078A3.781,3.781,0,0,1,1680.769,507.09Zm-2.476-26.825c-2.267,0-3.641.922-4.2,1.988a2.241,2.241,0,0,0,.531,2.928.754.754,0,0,1,.28.821c-1.119,3.816.008,9.987.779,13.326h0a10.264,10.264,0,0,0,3.537,5.657l.127.1a2.311,2.311,0,0,0,3.153-.3c3.134-3.639,5.513-12.6,3.883-18.707-.708-2.65-2.057-4.341-4.009-5.026A12.446,12.446,0,0,0,1678.293,480.265Z" transform="translate(-300.489 -1184.698)" fill="#292929"/>
    <g id="Group_807" data-name="Group 807" transform="translate(1307.38 -689.357)">
      <path id="Path_558" data-name="Path 558" d="M1543.509,526.582c2-1.727,9.136-11.282,10.045-13.645s5.726-.545,5.454,3.363.818,4.181.818,4.181a40.5,40.5,0,0,1,4.908-3.817c2.818-2.909,5.363-5.182,7.908-3.181s-1.636,8.362-1.636,8.362c.455,4.09.727,13.361-11,22.9S1543.509,526.582,1543.509,526.582Z" transform="translate(-1543.509 -511.882)" fill="#fff"/>
    </g>
    <path id="Path_559" data-name="Path 559" d="M1438.5,408.113c-72.8.265-81,55.327-72.269,81.8,8.646,26.2,55.538,51.625,98.335,10.565a4.211,4.211,0,0,0,1.281-3.243c-.251-5.193-1.767-19.5-10.784-27.086a2.592,2.592,0,0,0-2.99-.213c-5.648,3.372-25.981,13.851-40.711,8.434-17.273-6.353-3.643-25.357,4.035-29.377S1438.5,408.113,1438.5,408.113Z" transform="translate(-145.458 -1148.474)" fill="#dd4a48"/>
    <path id="Path_560" data-name="Path 560" d="M1460.795,522.109a27.618,27.618,0,0,1-9.558-1.573c-4.852-1.785-7.745-4.664-8.6-8.558-1.429-6.524,3.286-14.043,7.757-18.5a20.837,20.837,0,0,1,4.786-3.694.754.754,0,0,1,.7,1.335,19.575,19.575,0,0,0-4.423,3.426c-4.533,4.518-8.564,11.561-7.348,17.109.736,3.359,3.308,5.871,7.646,7.466,15.656,5.76,37.613-6.91,40.065-8.373a3.338,3.338,0,0,1,3.861.283,22.315,22.315,0,0,1,1.8,1.7.753.753,0,0,1-1.091,1.039,20.865,20.865,0,0,0-1.677-1.581,1.833,1.833,0,0,0-2.119-.143C1490.546,513.265,1475.223,522.109,1460.795,522.109Z" transform="translate(-185.276 -1190.15)" fill="#292929"/>
    <path id="Path_561" data-name="Path 561" d="M1491.163,613.228a.754.754,0,0,1-.133-1.5c13.242-2.387,25.879-9.28,37.559-20.486a3.458,3.458,0,0,0,1.05-2.664.753.753,0,0,1,1.505-.072,4.967,4.967,0,0,1-1.512,3.823c-11.9,11.416-24.8,18.441-38.335,20.882A.789.789,0,0,1,1491.163,613.228Z" transform="translate(-209.436 -1239.373)" fill="#292929"/>
    <path id="Path_562" data-name="Path 562" d="M1462.82,639.546h-.023c-1.292-.037-2.6-.12-3.885-.244a.754.754,0,0,1-.677-.823.763.763,0,0,1,.822-.677c1.253.121,2.525.2,3.784.239a.753.753,0,0,1-.021,1.506Z" transform="translate(-193.569 -1264.707)" fill="#292929"/>
    <path id="Path_563" data-name="Path 563" d="M1413.368,621.712a.753.753,0,0,1-.223-.034,57.129,57.129,0,0,1-21.934-12.649.753.753,0,1,1,1.028-1.1,55.62,55.62,0,0,0,21.353,12.311.753.753,0,0,1-.224,1.472Z" transform="translate(-159.748 -1249.491)" fill="#292929"/>
    <path id="Path_564" data-name="Path 564" d="M1499.362,373.353c-.142,7.8-.236,12.992-.31,17.133-.126,6.971,12.81,18.562,16.485,15.781S1516.7,384.8,1516.7,384.8Z" transform="translate(-213.951 -1131.859)" fill="#fff"/>
    <path id="Path_565" data-name="Path 565" d="M1513.343,406.662a7.94,7.94,0,0,1-3.475-1.012c-4.985-2.535-12.453-10.193-12.348-15.957l.31-17.133a.753.753,0,0,1,1.168-.615l17.34,11.447a.752.752,0,0,1,.332.529c.263,1.957,2.456,19.207-1.457,22.168A3.017,3.017,0,0,1,1513.343,406.662Zm-14.032-32.7-.285,15.763c-.083,4.574,6.375,11.967,11.525,14.587,1.718.873,3.087,1.086,3.752.58,2.383-1.8,1.839-13.336.918-20.427Z" transform="translate(-213.171 -1131.082)" fill="#292929"/>
    <path id="Path_566" data-name="Path 566" d="M1516.641,312.848a26.464,26.464,0,1,0,25.981,26.938A26.462,26.462,0,0,0,1516.641,312.848Z" transform="translate(-208.963 -1101.465)" fill="#fff"/>
    <path id="Path_567" data-name="Path 567" d="M1515.4,365.745c-.168,0-.338,0-.507,0a27.274,27.274,0,0,1-12.488-3.284.753.753,0,1,1,.719-1.323,25.7,25.7,0,1,0-10.3-10.271.753.753,0,1,1-1.322.724,27.232,27.232,0,0,1,4.992-32.649,27.217,27.217,0,1,1,18.908,46.807Z" transform="translate(-208.181 -1100.691)" fill="#292929"/>
    <path id="Path_568" data-name="Path 568" d="M1489.512,381.851l-.328,12.793-10.846-8.072,7.241-6.265A9.25,9.25,0,0,0,1489.512,381.851Z" transform="translate(-203.618 -1135.446)" fill="#292929"/>
    <path id="Path_569" data-name="Path 569" d="M1455.413,309.968l-.722-.239-.625-.435q.547-1.094,1.083-2.152a.753.753,0,1,1,1.343.683Q1455.956,308.877,1455.413,309.968Zm-.722-.239h0Z" transform="translate(-191.495 -1098.583)" fill="#292929"/>
    <path id="Path_570" data-name="Path 570" d="M1493.691,349.025a9.3,9.3,0,1,0,9.126,9.463A9.3,9.3,0,0,0,1493.691,349.025Z" transform="translate(-206.518 -1119.74)" fill="#fff"/>
    <path id="Path_571" data-name="Path 571" d="M1524.616,308.317s-16.983,40.59-31.476,21.349C1493.14,329.666,1491.62,306.058,1524.616,308.317Z" transform="translate(-210.878 -1099.227)" fill="#292929"/>
    <path id="Path_572" data-name="Path 572" d="M1365.953,349.368a.753.753,0,0,1-.569-1.246,30.216,30.216,0,0,1,2.113-2.205c4.58-4.316,9.634-5.148,14.523-5.952,6.6-1.086,13.427-2.209,20.193-11.613a60.937,60.937,0,0,0,4.119-6.652.753.753,0,1,1,1.323.718,62.193,62.193,0,0,1-4.22,6.813c-7.128,9.91-14.267,11.084-21.172,12.22-4.88.8-9.488,1.561-13.733,5.561a28.793,28.793,0,0,0-2.007,2.1A.752.752,0,0,1,1365.953,349.368Z" transform="translate(-146.748 -1105.807)" fill="#292929"/>
    <path id="Path_573" data-name="Path 573" d="M1357.392,387.5a.754.754,0,0,1-.681-1.075c.375-.8.8-1.592,1.261-2.369a.753.753,0,1,1,1.295.77c-.438.736-.839,1.49-1.192,2.241A.754.754,0,0,1,1357.392,387.5Z" transform="translate(-142.612 -1137.193)" fill="#292929"/>
    <path id="Path_574" data-name="Path 574" d="M1591.656,286.195a.754.754,0,0,1-.735-.592c-2.8-12.73-15.555-22.521-29.667-22.774a.754.754,0,0,1,.027-1.507c14.789.266,28.165,10.565,31.112,23.957a.753.753,0,0,1-.574.9A.732.732,0,0,1,1591.656,286.195Z" transform="translate(-244.627 -1076.322)" fill="#292929"/>
    <path id="Path_575" data-name="Path 575" d="M1549.689,263.359a.754.754,0,0,1-.113-1.5q1.048-.16,2.084-.256a.753.753,0,0,1,.139,1.5q-.991.091-2,.245A.755.755,0,0,1,1549.689,263.359Z" transform="translate(-239.087 -1076.464)" fill="#292929"/>
    <path id="Path_576" data-name="Path 576" d="M1486.871,320.66a.753.753,0,0,1-.692-1.049q.2-.456.413-.875a.753.753,0,1,1,1.338.693q-.193.372-.365.775A.754.754,0,0,1,1486.871,320.66Z" transform="translate(-207.581 -1104.405)" fill="#fff"/>
    <path id="Path_577" data-name="Path 577" d="M1491.778,310.451a.754.754,0,0,1-.533-1.286c4.167-4.176,10.081-3.82,10.332-3.8a.753.753,0,0,1-.1,1.5c-.055-.005-5.49-.317-9.163,3.362A.748.748,0,0,1,1491.778,310.451Z" transform="translate(-209.98 -1097.885)" fill="#fff"/>
    <path id="Path_578" data-name="Path 578" d="M1396.058,405.4a.743.743,0,0,1-.372-.1.754.754,0,0,1-.282-1.027q.35-.616.749-1.18a.753.753,0,1,1,1.231.868q-.355.505-.67,1.057A.753.753,0,0,1,1396.058,405.4Z" transform="translate(-162.014 -1146.775)" fill="#fff"/>
    <path id="Path_579" data-name="Path 579" d="M1403.765,392.915a.754.754,0,0,1-.459-1.351c7.082-5.443,17.728-4.881,18.174-4.858a.753.753,0,0,1,.708.8.773.773,0,0,1-.8.709c-.106-.006-10.537-.549-17.168,4.548A.751.751,0,0,1,1403.765,392.915Z" transform="translate(-165.802 -1138.682)" fill="#fff"/>
    <path id="Path_580" data-name="Path 580" d="M1578.189,304.967a.755.755,0,0,1-.682-.431c-2.807-5.941-7.763-9.662-14.732-11.059a.753.753,0,0,1,.3-1.477c9.294,1.863,13.721,7.5,15.8,11.892a.753.753,0,0,1-.681,1.076Z" transform="translate(-245.609 -1091.158)" fill="#fff"/>
    <path id="Path_581" data-name="Path 581" d="M1598.341,333.165a.753.753,0,0,1-.753-.753,16.606,16.606,0,0,0-.169-1.986.753.753,0,1,1,1.493-.2,17.681,17.681,0,0,1,.182,2.19A.753.753,0,0,1,1598.341,333.165Z" transform="translate(-263.426 -1110.042)" fill="#fff"/>
    <path id="Path_582" data-name="Path 582" d="M1539.194,395.3c-5.995,0-8.27-5.563-8.293-5.622a.753.753,0,0,1,1.4-.557,7.6,7.6,0,0,0,7.865,4.616.754.754,0,0,1,.167,1.5A10.41,10.41,0,0,1,1539.194,395.3Z" transform="translate(-229.96 -1139.67)" fill="#292929"/>
    <path id="Path_583" data-name="Path 583" d="M1558.03,359.4a.752.752,0,0,1-.455-.153c-3.755-2.848-6.624-.371-6.743-.264a.754.754,0,0,1-1.01-1.119c.039-.034,3.892-3.435,8.663.183a.754.754,0,0,1-.456,1.354Z" transform="translate(-239.361 -1123.498)" fill="#292929"/>
    <path id="Path_584" data-name="Path 584" d="M1586.166,358.309a.753.753,0,0,1-.57-1.245c.175-.2,1.776-1.984,3.644-1.825a3.212,3.212,0,0,1,2.478,1.707.753.753,0,1,1-1.279.8,1.786,1.786,0,0,0-1.314-1,3.651,3.651,0,0,0-2.391,1.309A.754.754,0,0,1,1586.166,358.309Z" transform="translate(-257.362 -1122.918)" fill="#292929"/>
    <path id="Path_585" data-name="Path 585" d="M1547.554,342.148a.754.754,0,0,1-.62-1.18c.124-.18,3.095-4.408,7.436-3.805a.753.753,0,1,1-.209,1.492c-3.419-.48-5.96,3.132-5.986,3.169A.753.753,0,0,1,1547.554,342.148Z" transform="translate(-237.978 -1113.816)" fill="#292929"/>
    <g id="Group_808" data-name="Group 808" transform="translate(1264.306 -809.777)">
      <path id="Path_586" data-name="Path 586" d="M1458.992,277.689a4.214,4.214,0,1,0,4.214-4.214A4.214,4.214,0,0,0,1458.992,277.689Z" transform="translate(-1458.239 -272.722)" fill="#fff"/>
      <path id="Path_587" data-name="Path 587" d="M1462.428,281.878a4.967,4.967,0,1,1,4.966-4.968A4.973,4.973,0,0,1,1462.428,281.878Zm0-8.428a3.46,3.46,0,1,0,3.46,3.46A3.465,3.465,0,0,0,1462.428,273.45Z" transform="translate(-1457.46 -271.943)" fill="#292929"/>
    </g>
    <g id="Group_809" data-name="Group 809" transform="translate(1374.104 -730.427)">
      <path id="Path_588" data-name="Path 588" d="M1678.175,434.734a3.594,3.594,0,1,0,3.594-3.594A3.594,3.594,0,0,0,1678.175,434.734Z" transform="translate(-1677.589 -430.554)" fill="#fff"/>
      <path id="Path_589" data-name="Path 589" d="M1681.164,438.308a4.18,4.18,0,1,1,4.179-4.18A4.184,4.184,0,0,1,1681.164,438.308Zm0-7.188a3.008,3.008,0,1,0,3.008,3.008A3.011,3.011,0,0,0,1681.164,431.12Z" transform="translate(-1676.984 -429.949)" fill="#292929"/>
    </g>
    <g id="Group_810" data-name="Group 810" transform="translate(1216.48 -807.322)">
      <path id="Path_591" data-name="Path 591" d="M1699.439,414.4a.75.75,0,0,1-.582-.274,14.821,14.821,0,0,1-1.315-1.873.753.753,0,1,1,1.295-.769,13.421,13.421,0,0,0,1.183,1.683.753.753,0,0,1-.581,1.232Z" transform="translate(-1695.476 -389.905)" fill="#292929"/>
      <path id="Path_592" data-name="Path 592" d="M1708.243,397.589a14.783,14.783,0,0,1-5.544-1.085q-.71-.288-1.373-.637a.753.753,0,1,1,.7-1.333,13.274,13.274,0,1,0-7.073-12.174.735.735,0,0,1-.777.729.754.754,0,0,1-.729-.777,14.784,14.784,0,1,1,14.794,15.277Z" transform="translate(-1693.449 -367.991)" fill="#292929"/>
    </g>
    <g id="Group_811" data-name="Group 811" transform="translate(1372.669 -778.283)">
      <path id="Path_593" data-name="Path 593" d="M1287.442,228.64a23.917,23.917,0,1,1,23.917-23.917A23.944,23.944,0,0,1,1287.442,228.64Zm0-46.962a23.045,23.045,0,1,0,23.044,23.044A23.07,23.07,0,0,0,1287.442,181.679Z" transform="translate(-1263.525 -180.806)"/>
      <path id="Path_594" data-name="Path 594" d="M1287.442,228.64a23.917,23.917,0,1,1,23.917-23.917A23.944,23.944,0,0,1,1287.442,228.64Zm0-46.962a23.045,23.045,0,1,0,23.044,23.044A23.07,23.07,0,0,0,1287.442,181.679Z" transform="translate(-1263.525 -180.806)" fill="#292929"/>
    </g>
    <path id="Path_595" data-name="Path 595" d="M1249.361,318.795a.436.436,0,0,1-.361-.192q-.445-.655-.855-1.336a.436.436,0,0,1,.747-.45q.4.66.83,1.3a.436.436,0,0,1-.361.681Z" transform="translate(120.188 -1055.702)" fill="#292929"/>
    <path id="Path_596" data-name="Path 596" d="M1236.216,223.932a.436.436,0,0,1-.4-.272,29.216,29.216,0,0,1,6.957-32.151.436.436,0,1,1,.6.633,28.345,28.345,0,0,0-6.749,31.19.436.436,0,0,1-.4.6Z" transform="translate(130.492 -966.658)" fill="#292929"/>
    <path id="Path_597" data-name="Path 597" d="M1406.149,552.853a.753.753,0,0,1-.466-1.346l6.993-5.506-13.525,1.148a.753.753,0,0,1-.127-1.5l16.029-1.36a.753.753,0,0,1,.53,1.343l-6.628,5.219,10.853-1.879a.754.754,0,1,1,.257,1.485l-13.787,2.387A.766.766,0,0,1,1406.149,552.853Z" transform="translate(-163.442 -1217.726)" fill="#292929"/>
    <path id="Path_598" data-name="Path 598" d="M1543.092,582.073l-.067,0a.755.755,0,0,1-.685-.816c.013-.147,1.188-14.85-7.106-27.549a.753.753,0,0,1,1.261-.824c8.589,13.148,7.4,27.884,7.346,28.5A.753.753,0,0,1,1543.092,582.073Z" transform="translate(-232.109 -1221.662)" fill="#292929"/>
    <path id="Path_599" data-name="Path 599" d="M1515,647.444A97.774,97.774,0,0,1,1496,645.157a.754.754,0,0,1,.337-1.469c.175.04,17.654,3.994,27.025,1.306,3.7-1.064,8.762-4.311,14.626-9.391a.753.753,0,0,1,.986,1.138c-6.114,5.3-11.228,8.562-15.2,9.7A32.744,32.744,0,0,1,1515,647.444Z" transform="translate(-211.911 -1263.4)" fill="#292929"/>
    <path id="Path_600" data-name="Path 600" d="M1598.078,619.939a.753.753,0,0,1-.539-1.28c1.141-1.168,1.807-1.895,1.811-1.9a.753.753,0,0,1,1.111,1.017s-.678.742-1.844,1.935A.752.752,0,0,1,1598.078,619.939Z" transform="translate(-263.366 -1254.01)" fill="#292929"/>
    <path id="Path_601" data-name="Path 601" d="M1663.309,544.434a24.939,24.939,0,0,1-12.082-3.576.753.753,0,0,1,.736-1.315c5.834,3.262,11.191,4.17,15.918,2.7,6.766-2.1,9.967-8.458,10-8.522a.753.753,0,0,1,1.352.664,19.552,19.552,0,0,1-10.886,9.291A16.808,16.808,0,0,1,1663.309,544.434Z" transform="translate(-289.595 -1212.194)" fill="#292929"/>
    <path id="Path_602" data-name="Path 602" d="M1627.855,460.077a.754.754,0,0,1-.668-.4,18.808,18.808,0,0,0-1.094-1.821.753.753,0,0,1,1.247-.846,20.4,20.4,0,0,1,1.181,1.966.754.754,0,0,1-.666,1.1Z" transform="translate(-277.742 -1173.816)" fill="#fff"/>
    <path id="Path_603" data-name="Path 603" d="M1607.587,441.869a.75.75,0,0,1-.514-.2,41.1,41.1,0,0,0-10.82-7.042.753.753,0,0,1,.576-1.392,41.966,41.966,0,0,1,11.272,7.333.753.753,0,0,1-.514,1.3Z" transform="translate(-262.506 -1161.992)" fill="#fff"/>
    <path id="Path_604" data-name="Path 604" d="M1399.97,703.57h-.008a.753.753,0,0,1-.745-.761c.224-21.265,10.839-38.22,10.946-38.388a.753.753,0,1,1,1.272.807c-.105.165-10.492,16.775-10.711,37.6A.754.754,0,0,1,1399.97,703.57Z" transform="translate(-163.932 -1277.344)" fill="#fff"/>
    <path id="Path_605" data-name="Path 605" d="M1493.334,696.773a.753.753,0,0,1-.581-1.233c.748-.906,1.482-1.867,2.182-2.857a.753.753,0,1,1,1.229.871c-.72,1.019-1.477,2.009-2.249,2.945A.753.753,0,0,1,1493.334,696.773Z" transform="translate(-210.812 -1291.724)" fill="#fff"/>
    <path id="Path_606" data-name="Path 606" d="M1410.777,725.347a46.954,46.954,0,0,1-10.084-.987.753.753,0,1,1,.363-1.462c.182.045,18.43,4.389,34.6-5.9a.753.753,0,0,1,.809,1.271A47.808,47.808,0,0,1,1410.777,725.347Z" transform="translate(-164.261 -1304.182)" fill="#fff"/>
    <path id="Path_607" data-name="Path 607" d="M1543.286,712.947a.753.753,0,0,1-.123-1.5c26-4.323,26.316-27.2,26.316-28.176a.753.753,0,0,1,1.507,0c0,.251-.292,25.127-27.576,29.663A.832.832,0,0,1,1543.286,712.947Z" transform="translate(-235.655 -1286.722)" fill="#fff"/>
    <path id="Path_608" data-name="Path 608" d="M1354.843,700.832a.755.755,0,0,1-.746-.868c.069-.453.149-.922.238-1.4a.753.753,0,1,1,1.481.271q-.128.7-.229,1.36A.754.754,0,0,1,1354.843,700.832Z" transform="translate(-141.335 -1294.559)" fill="#292929"/>
    <path id="Path_609" data-name="Path 609" d="M1357.705,668.748a.753.753,0,0,1-.73-.941c1.349-5.239,3.447-11.8,6.236-19.5a.753.753,0,1,1,1.416.512c-2.772,7.657-4.856,14.173-6.193,19.366A.753.753,0,0,1,1357.705,668.748Z" transform="translate(-142.752 -1269.079)" fill="#292929"/>
    <path id="Path_610" data-name="Path 610" d="M1360.711,585.969a.743.743,0,0,1-.275-.053.753.753,0,0,1-.426-.976c.509-1.3.9-2.276,1.128-2.839-13.653-10.179-17.328-26.4-18-38.273a.753.753,0,1,1,1.5-.084c.657,11.688,4.289,27.68,17.853,37.487a.754.754,0,0,1,.256.9s-.516,1.261-1.342,3.363A.753.753,0,0,1,1360.711,585.969Z" transform="translate(-135.787 -1216.753)" fill="#292929"/>
    <path id="Path_611" data-name="Path 611" d="M1344.034,524.265a.578.578,0,0,1-.058,0,.753.753,0,0,1-.693-.809c.084-1.079.164-1.679.164-1.679a.761.761,0,0,1,.845-.647.753.753,0,0,1,.648.845c0,.012-.076.581-.155,1.6A.754.754,0,0,1,1344.034,524.265Z" transform="translate(-135.912 -1206.151)" fill="#292929"/>
    <path id="Path_612" data-name="Path 612" d="M1720.623,549.3a.752.752,0,0,1-.694-1.044q.522-1.246,1.04-2.54a.754.754,0,0,1,1.4.559q-.524,1.307-1.05,2.563A.755.755,0,0,1,1720.623,549.3Z" transform="translate(-324.675 -1218.244)" fill="#292929"/>
    <path id="Path_613" data-name="Path 613" d="M1653.384,600.527a.753.753,0,0,1-.254-1.462c7.4-2.656,18.472-10.48,29.209-32.675a.753.753,0,1,1,1.355.655c-10.957,22.654-22.392,30.687-30.055,33.437A.747.747,0,0,1,1653.384,600.527Z" transform="translate(-290.504 -1228.331)" fill="#292929"/>
    <path id="Path_614" data-name="Path 614" d="M1635.008,637.182h-.03a11.009,11.009,0,0,1-2.271-.284.753.753,0,0,1,.4-1.453,9.964,9.964,0,0,0,1.933.232.753.753,0,0,1-.029,1.506Z" transform="translate(-280.838 -1263.511)" fill="#292929"/>
    <path id="Path_615" data-name="Path 615" d="M1722.748,397.668a.754.754,0,0,1-.753-.753V383.692a.753.753,0,1,1,1.507,0v13.222A.754.754,0,0,1,1722.748,397.668Z" transform="translate(-491.476 -1182.883)" fill="#ff4863"/>
    <path id="Path_616" data-name="Path 616" d="M1722.528,397.889h-13.222a.753.753,0,1,1,0-1.507h13.222a.753.753,0,0,1,0,1.507Z" transform="translate(-484.644 -1189.693)" fill="#ff4863"/>
    <path id="Path_617" data-name="Path 617" d="M1484.127,750.58H1308.119a.753.753,0,0,1,0-1.507h176.008a.753.753,0,0,1,0,1.507Z" transform="translate(-118.366 -1320.543)" fill="#292929"/>
    <path id="Path_618" data-name="Path 618" d="M1699.7,750.58h-20.717a.753.753,0,0,1,0-1.507H1699.7a.753.753,0,0,1,0,1.507Z" transform="translate(-303.515 -1320.543)" fill="#292929"/>
    <g id="Group_813" data-name="Group 813" transform="translate(-18.095 -1717.28)">
      <path id="Path_619" data-name="Path 619" d="M1478.4,962.5h-15.888V946.607A15.888,15.888,0,0,1,1478.4,962.5Z" transform="translate(-46.452 -1.077)" fill="#ff4863"/>
      <path id="Path_620" data-name="Path 620" d="M1477.327,961.873h-15.888a.454.454,0,0,1-.455-.455V945.529a.454.454,0,0,1,.455-.454,16.361,16.361,0,0,1,16.343,16.343A.454.454,0,0,1,1477.327,961.873Zm-15.433-.909h14.972a15.453,15.453,0,0,0-14.972-14.973Z" transform="translate(-45.376 0)" fill="#1d1d1b"/>
      <path id="Path_621" data-name="Path 621" d="M1474.064,969.6a.454.454,0,0,1-.454-.454,12.185,12.185,0,0,0-12.171-12.172.454.454,0,1,1,0-.909,13.1,13.1,0,0,1,13.081,13.08A.454.454,0,0,1,1474.064,969.6Z" transform="translate(-45.376 -7.727)" fill="#1d1d1b"/>
      <path id="Path_622" data-name="Path 622" d="M1413.868,973.483h15.888a15.888,15.888,0,1,1-15.9-15.888Z" transform="translate(-1.076 -8.803)" fill="#ff4863"/>
      <path id="Path_623" data-name="Path 623" d="M1412.792,988.75a16.343,16.343,0,0,1-.016-32.685h0a.455.455,0,0,1,.455.454l.015,15.435h15.433a.454.454,0,0,1,.455.455A16.361,16.361,0,0,1,1412.792,988.75Zm-.47-31.769a15.434,15.434,0,1,0,15.9,15.881h-15.427a.454.454,0,0,1-.455-.454Z" transform="translate(0 -7.727)" fill="#1d1d1b"/>
      <path id="Path_624" data-name="Path 624" d="M1420.518,993.215a13.08,13.08,0,1,1,0-26.161.455.455,0,1,1,0,.909,12.172,12.172,0,1,0,12.171,12.172.455.455,0,0,1,.91,0A13.1,13.1,0,0,1,1420.518,993.215Z" transform="translate(-7.726 -15.454)" fill="#1d1d1b"/>
      <path id="Path_625" data-name="Path 625" d="M1427.648,1025.83a1.936,1.936,0,1,1-1.936-1.936A1.936,1.936,0,0,1,1427.648,1025.83Z" transform="translate(-19.215 -55.419)" fill="#fff"/>
      <circle id="Ellipse_7" data-name="Ellipse 7" cx="0.746" cy="0.746" r="0.746" transform="translate(1411.045 967.043)" fill="#fff"/>
      <path id="Path_626" data-name="Path 626" d="M1458.257,1032.713a2.3,2.3,0,1,1-2.3-2.3A2.3,2.3,0,0,1,1458.257,1032.713Z" transform="translate(-40.226 -60.003)" fill="#fff"/>
      <path id="Path_627" data-name="Path 627" d="M1475.231,1019.248a1.508,1.508,0,1,1-1.508-1.508A1.508,1.508,0,0,1,1475.231,1019.248Z" transform="translate(-53.273 -51.092)" fill="#fff"/>
      <path id="Path_628" data-name="Path 628" d="M1473.084,981.118a2.258,2.258,0,1,1-2.258-2.258A2.258,2.258,0,0,1,1473.084,981.118Z" transform="translate(-50.708 -23.755)" fill="#fff"/>
      <path id="Path_629" data-name="Path 629" d="M1471.946,965.91a1.129,1.129,0,1,1-1.129-1.129A1.129,1.129,0,0,1,1471.946,965.91Z" transform="translate(-51.496 -13.856)" fill="#fff"/>
      <path id="Path_630" data-name="Path 630" d="M1492.9,986.281a.827.827,0,1,1-.827-.827A.827.827,0,0,1,1492.9,986.281Z" transform="translate(-66.651 -28.391)" fill="#fff"/>
      <path id="Path_631" data-name="Path 631" d="M1433.437,983.306a2.47,2.47,0,1,1-2.47-2.47A2.47,2.47,0,0,1,1433.437,983.306Z" transform="translate(-22.534 -25.144)" fill="#fff"/>
      <path id="Path_632" data-name="Path 632" d="M1421.549,1003.9a1.331,1.331,0,1,1-1.331-1.331A1.331,1.331,0,0,1,1421.549,1003.9Z" transform="translate(-15.777 -40.425)" fill="#fff"/>
    </g>
    <g id="Group_814" data-name="Group 814" transform="translate(-218.338 -1763.646)">
      <circle id="Ellipse_8" data-name="Ellipse 8" cx="5.387" cy="5.387" r="5.387" transform="translate(1577.71 1055.469)" fill="#dd4a48"/>
      <path id="Path_633" data-name="Path 633" d="M1582.377,1106.056a.245.245,0,0,1-.19-.089,5.671,5.671,0,0,1-.614-.9.247.247,0,0,1,.433-.237,5.145,5.145,0,0,0,.56.823.246.246,0,0,1-.189.4Z" transform="translate(-3.423 -41.51)" fill="#1d1d1b"/>
      <path id="Path_634" data-name="Path 634" d="M1583.1,1066.49a5.617,5.617,0,0,1-2.017-.371.247.247,0,1,1,.177-.461,5.141,5.141,0,1,0-3.173-5.947,5.176,5.176,0,0,0-.128,1.146.247.247,0,0,1-.493,0,5.668,5.668,0,0,1,.14-1.255,5.635,5.635,0,1,1,5.494,6.889Z" fill="#292929"/>
      <path id="Path_635" data-name="Path 635" d="M1598.544,1082.745a.246.246,0,0,1-.173-.07l-2.131-2.084a.247.247,0,0,1,.345-.353l1.958,1.915,2.917-2.881a.247.247,0,1,1,.347.351l-3.09,3.052A.245.245,0,0,1,1598.544,1082.745Z" transform="translate(-15.691 -20.116)" fill="#fff"/>
    </g>
  </g>
</svg>
