<svg id="onboarding_c" xmlns="http://www.w3.org/2000/svg" width="250" height="250" viewBox="0 0 250 250">
  <rect id="Rectangle_10" data-name="Rectangle 10" width="250" height="250" fill="none"/>
  <g id="Group_836" data-name="Group 836" transform="translate(-3007.351 -901.842)">
    <path id="Path_636" data-name="Path 636" d="M3172.936,1265.779c-.672.384-1.365.768-2.07,1.174-8.716,4.939-16,6.71-22.072,6.486-20.941-.779-27.331-25.336-27.331-25.336l84.425-2.262S3209.484,1244.988,3172.936,1265.779Z" transform="translate(-66.27 -180.883)" fill="#dd4a48"/>
    <path id="Path_637" data-name="Path 637" d="M3205.613,1325.055s-7.608,26.849-9.337,43.449H3305.9s-.346-22.574-8.991-43.449S3205.613,1325.055,3205.613,1325.055Z" transform="translate(-107.58 -219.504)" fill="#292929"/>
    <path id="Path_638" data-name="Path 638" d="M3206.637,1283.932c-.672.384-1.365.768-2.07,1.174-8.715,4.939-16,6.71-22.072,6.486,2.369-3.606,10.412-14.562,19.352-12.663C3205.325,1279.664,3206.9,1281.659,3206.637,1283.932Z" transform="translate(-99.971 -199.035)" fill="#292929"/>
    <g id="Group_827" data-name="Group 827" transform="translate(3049.163 1066.535)">
      <path id="Path_639" data-name="Path 639" d="M3109.529,1250.9c.3,6.271,22.471,13.522,20.186,0Z" transform="translate(-3108.843 -1250.215)" fill="#fff"/>
      <path id="Path_640" data-name="Path 640" d="M3122.356,1258.4a20.126,20.126,0,0,1-8.134-1.955c-3.792-1.768-6.119-4.145-6.224-6.361a.685.685,0,0,1,.685-.717h20.185a.685.685,0,0,1,.677.571c.673,3.98-.748,6.005-2.06,7A8.383,8.383,0,0,1,3122.356,1258.4Zm-12.834-7.662c.549,1.493,2.513,3.174,5.28,4.464,3.795,1.769,9.123,2.725,11.852.649,1.362-1.038,1.906-2.755,1.623-5.113Z" transform="translate(-3107.997 -1249.369)" fill="#1d1d1b"/>
    </g>
    <path id="Path_641" data-name="Path 641" d="M3247.113,1106.271s-40.347,5.677-58.561,66.083h33.43Z" transform="translate(-103.315 -103.817)" fill="#dd4a48"/>
    <path id="Path_642" data-name="Path 642" d="M3412.84,1391.064a.685.685,0,0,1-.684-.648,114.945,114.945,0,0,0-5.688-28.158.686.686,0,0,1,1.292-.462,116.554,116.554,0,0,1,5.765,28.545.684.684,0,0,1-.646.722Z" transform="translate(-223.624 -244.664)" fill="#fff"/>
    <path id="Path_643" data-name="Path 643" d="M3366.18,1385.313c-36.1,0-39.522-28.9-39.553-29.2a.687.687,0,0,1,.612-.753.7.7,0,0,1,.753.612c.126,1.194,3.53,29.24,40.579,27.93h.024a.686.686,0,0,1,.024,1.371C3367.792,1385.3,3366.975,1385.313,3366.18,1385.313Z" transform="translate(-179.557 -241.359)" fill="#fff"/>
    <path id="Path_644" data-name="Path 644" d="M3256.791,1106.271s-38.669,25.107-50.678,107.933a3.168,3.168,0,0,0,4.2,3.452c5.959-2.132,16.362-5.1,25.785-4.034,13.69,1.552,31.906,19.937,67.5,10.088a4.812,4.812,0,0,0,3.392-5.732c-3.566-15.312-16.942-67.682-42.286-111.708Z" transform="translate(-112.993 -103.817)" fill="#dd4a48"/>
    <path id="Path_645" data-name="Path 645" d="M3205.31,1250.692a.8.8,0,0,1-.1-.007.688.688,0,0,1-.581-.777c4.475-30.854,13.1-57.255,25.639-78.465a.686.686,0,0,1,1.182.7c-12.448,21.057-21.015,47.286-25.463,77.963A.687.687,0,0,1,3205.31,1250.692Z" transform="translate(-112.189 -139.618)" fill="#1d1d1b"/>
    <path id="Path_646" data-name="Path 646" d="M3276.607,1148.057a.685.685,0,0,1-.558-1.084q.742-1.038,1.471-2.017a.686.686,0,1,1,1.1.819q-.72.969-1.454,2A.685.685,0,0,1,3276.607,1148.057Z" transform="translate(-151.56 -125.026)" fill="#1d1d1b"/>
    <rect id="Rectangle_11" data-name="Rectangle 11" width="117.426" height="12.608" transform="translate(3008.813 1054.567)" fill="#ff4863"/>
    <path id="Path_647" data-name="Path 647" d="M3134.633,1235.121H3017.208a.556.556,0,0,1-.556-.556v-12.608a.556.556,0,0,1,.556-.556h117.425a.555.555,0,0,1,.556.556v12.608A.555.555,0,0,1,3134.633,1235.121Zm-116.87-1.112h116.313v-11.5H3017.763Z" transform="translate(-8.393 -167.391)" fill="#1d1d1b"/>
    <path id="Path_648" data-name="Path 648" d="M3368.485,964.143a.686.686,0,0,1-.386-1.253l15.509-10.51a.686.686,0,1,1,.769,1.135l-15.508,10.51A.674.674,0,0,1,3368.485,964.143Z" transform="translate(-202.293 -18.775)" fill="#1d1d1b"/>
    <path id="Path_649" data-name="Path 649" d="M3154.372,1082.108a.685.685,0,0,1-.385-1.253l47.979-32.514a.686.686,0,0,1,.768,1.136l-47.979,32.514A.678.678,0,0,1,3154.372,1082.108Z" transform="translate(-84.062 -71.763)" fill="#1d1d1b"/>
    <g id="Group_828" data-name="Group 828" transform="translate(3095.906 1053.441)">
      <path id="Path_650" data-name="Path 650" d="M3244.275,1238.974c-1.279-4.168-4.156-9.49-6.786-11.489a11.131,11.131,0,0,1-3.075-4.352,2.355,2.355,0,0,0-4.019-.6c-1.834,2.03.017,5.79.179,7.266-5.83,1.634-10.607-.623-12.356-1.126-4.333-1.243-6.182,2.863-1.829,5.8.165,3.769,1.023,6.4,2.862,10.748,3.216,7.605,19.838,11.579,19.838,11.579Z" transform="translate(-3213.22 -1220.975)" fill="#fff"/>
      <path id="Path_651" data-name="Path 651" d="M3238.246,1256.638a.657.657,0,0,1-.16-.02c-.693-.165-17-4.143-20.309-11.979-1.787-4.223-2.692-6.942-2.9-10.646-2.582-1.874-2.828-4-2.229-5.287.738-1.58,2.667-2.184,4.916-1.541.259.075.585.186.967.318a18.069,18.069,0,0,0,10.4.965c-.058-.23-.131-.488-.207-.753-.525-1.856-1.32-4.658.318-6.47a3.328,3.328,0,0,1,2.919-1.06,2.958,2.958,0,0,1,2.235,1.844,10.76,10.76,0,0,0,2.864,4.084c2.876,2.187,5.767,7.729,7.026,11.833a.683.683,0,0,1,0,.393l-5.186,17.823A.687.687,0,0,1,3238.246,1256.638Zm-22.389-28.355a2.015,2.015,0,0,0-1.965,1c-.423.907.043,2.424,2.038,3.769a.688.688,0,0,1,.3.538c.161,3.694,1,6.228,2.807,10.513,2.7,6.38,15.7,10.2,18.733,11.015l4.942-16.985c-1.243-3.93-3.975-9.041-6.485-10.95a12.034,12.034,0,0,1-3.287-4.62,1.592,1.592,0,0,0-1.2-1.045,1.993,1.993,0,0,0-1.683.623c-1.129,1.25-.486,3.52-.016,5.178a10.476,10.476,0,0,1,.368,1.554.685.685,0,0,1-.5.735,19.039,19.039,0,0,1-11.832-.832c-.356-.122-.658-.227-.9-.3A4.851,4.851,0,0,0,3215.857,1228.282Z" transform="translate(-3212.376 -1220.13)" fill="#1d1d1b"/>
    </g>
    <path id="Path_652" data-name="Path 652" d="M3333.9,1106.2c-.3-.021-.456-.027-.456-.027S3333.543,1105.955,3333.9,1106.2Z" transform="translate(-183.324 -103.713)" fill="#dd4a48"/>
    <path id="Path_653" data-name="Path 653" d="M3342.344,1184.511c-6.184,10.811-17.285,18.633-30.482,22.161-16.586,4.44-36.486,2.089-54.109-9.677a2.632,2.632,0,0,1-1.141-2.6c1.411-9.213,4.7-17.029,10.271-23.136a2.632,2.632,0,0,1,2.586-.782c8.591,2.172,51.779,11.426,38.264-26.214-11.413-31.775-15.148-37.163-16.275-37.924,4.7.284,44.377,3.991,54.78,46.916C3349.122,1165.145,3347.331,1175.8,3342.344,1184.511Z" transform="translate(-140.879 -103.855)" fill="#dd4a48"/>
    <path id="Path_654" data-name="Path 654" d="M3294.947,1255.367a69.482,69.482,0,0,1-38.42-11.883,3.336,3.336,0,0,1-1.437-3.277c1.471-9.608,4.984-17.513,10.442-23.492a3.313,3.313,0,0,1,3.265-.983c6.387,1.617,27.909,6.186,36.483-2.872,4-4.23,4.592-11,1.746-20.116q-.354-1.132-.783-2.33a.686.686,0,1,1,1.292-.462q.439,1.225.8,2.384c3,9.628,2.312,16.851-2.059,21.467-9.086,9.6-31.244,4.922-37.819,3.259a1.95,1.95,0,0,0-1.915.582c-5.269,5.772-8.667,13.436-10.1,22.775a1.933,1.933,0,0,0,.844,1.926c15.739,10.509,34.73,14.137,52.1,9.953a.686.686,0,0,1,.321,1.334A63.062,63.062,0,0,1,3294.947,1255.367Z" transform="translate(-140.035 -149.773)" fill="#1d1d1b"/>
    <g id="Group_829" data-name="Group 829" transform="translate(3119.033 932.972)">
      <path id="Path_655" data-name="Path 655" d="M3325.72,987.145a28.916,28.916,0,0,0-22.358-7.54c-3.222-4.482-9.354-4.617-13.32-2.108-4.195,2.653-6.766,8.615-1.4,17.393,8.575,14.038,39.033,15.451,43.763,15.586.294.008.488.012.572.013a.659.659,0,0,0,.666-.606C3334.57,998.2,3329.847,991.069,3325.72,987.145Z" transform="translate(-3275.941 -964.778)" fill="#1d1d1b"/>
      <path id="Path_656" data-name="Path 656" d="M3325.579,1081.8c-.4,5.007-.556,6.979-.75,9.406-.608,7.633-18.371,12.124-17.912,6.359.435-5.462,1.173-14.716,1.173-14.716Z" transform="translate(-3287.704 -1023.278)" fill="#fff"/>
      <path id="Path_657" data-name="Path 657" d="M3309.943,1100.019a6,6,0,0,1-3.374-.819,2.662,2.662,0,0,1-1.179-2.532l1.172-14.716a.685.685,0,0,1,.643-.63l17.488-1.049a.656.656,0,0,1,.53.2.683.683,0,0,1,.194.534l-.749,9.406c-.231,2.9-2.723,5.686-6.839,7.644A19.777,19.777,0,0,1,3309.943,1100.019Zm-2.062-17.365-1.125,14.121a1.309,1.309,0,0,0,.591,1.294c1.637,1.128,6.074.569,9.893-1.248,3.661-1.741,5.869-4.115,6.061-6.513l.685-8.62Z" transform="translate(-3286.859 -1022.431)" fill="#1d1d1b"/>
      <path id="Path_658" data-name="Path 658" d="M3301.974,1000.773a24.122,24.122,0,1,1-25.963,22.129A24.122,24.122,0,0,1,3301.974,1000.773Z" transform="translate(-3270.6 -978.491)" fill="#fff"/>
      <path id="Path_659" data-name="Path 659" d="M3299.229,1048.783q-.987,0-1.989-.079a24.8,24.8,0,1,1,1.989.079Zm-.034-48.246a23.449,23.449,0,1,0,1.88.075C3300.444,1000.563,3299.816,1000.537,3299.2,1000.537Z" transform="translate(-3269.754 -977.647)" fill="#1d1d1b"/>
      <path id="Path_660" data-name="Path 660" d="M3357.882,1022.88c1.1-13.8-12.714-22.4-26.271-23.48a.66.66,0,0,0-.631.344c-2.1,3.887-1.936,10.087.413,15.8,2.206,5.36,5.833,9.229,10.01,10.706-.031.333-.066.683-.1,1.049-.412,4.053-1.034,10.177,2.3,16.371a.658.658,0,0,0,.561.346.65.65,0,0,0,.309-.068C3350.353,1041.044,3357.058,1033.217,3357.882,1022.88Z" transform="translate(-3300.185 -977.775)" fill="#1d1d1b"/>
      <path id="Path_661" data-name="Path 661" d="M3407.193,1077.1a.685.685,0,0,1-.544-1.1q.538-.7,1.04-1.447a.686.686,0,1,1,1.14.763c-.351.525-.717,1.033-1.092,1.522A.685.685,0,0,1,3407.193,1077.1Z" transform="translate(-3342.701 -1019.105)" fill="#1d1d1b"/>
      <path id="Path_662" data-name="Path 662" d="M3407.8,1027.222a.7.7,0,0,1-.271-.056.687.687,0,0,1-.36-.9,26.058,26.058,0,0,0,2.04-8.213c.908-11.414-3.691-18.366-7.709-22.187a.686.686,0,1,1,.946-.994c4.233,4.026,9.082,11.337,8.13,23.289a27.4,27.4,0,0,1-2.146,8.647A.686.686,0,0,1,3407.8,1027.222Z" transform="translate(-3339.82 -975.171)" fill="#1d1d1b"/>
      <path id="Path_663" data-name="Path 663" d="M3295.534,988.1a.657.657,0,0,0,.548-.265,5.451,5.451,0,0,1,4.108-2.087,4.761,4.761,0,0,1,3.675,1.188.658.658,0,1,0,.957-.9,6,6,0,0,0-4.709-1.6,6.763,6.763,0,0,0-5.088,2.616.659.659,0,0,0,.509,1.051Z" transform="translate(-3281.07 -969.506)" fill="#fff"/>
      <path id="Path_664" data-name="Path 664" d="M3357.96,1005.6a.659.659,0,0,0,.3-1.256q-.288-.134-.578-.245a.659.659,0,0,0-.472,1.23c.165.063.33.133.494.21A.654.654,0,0,0,3357.96,1005.6Z" transform="translate(-3315.245 -980.349)" fill="#fff"/>
      <path id="Path_665" data-name="Path 665" d="M3373.219,1030.281a.658.658,0,0,0,.667-.549,21.749,21.749,0,0,0-4.449-16.285.658.658,0,1,0-1.033.816,20.381,20.381,0,0,1,4.183,15.25.658.658,0,0,0,.54.759A.622.622,0,0,0,3373.219,1030.281Z" transform="translate(-3321.583 -985.394)" fill="#fff"/>
      <path id="Path_666" data-name="Path 666" d="M3318.825,981.35s25.865-.691,34.067,13.753c8.8,15.5.008,34.592-12.73,40.036l-4.861-24.292Z" transform="translate(-3294.284 -967.806)" fill="#dd4a48"/>
      <path id="Path_667" data-name="Path 667" d="M3382.407,1001.308a.688.688,0,0,1-.6-.348,21.612,21.612,0,0,0-9.165-8.326.685.685,0,0,1,.631-1.217,22.956,22.956,0,0,1,9.727,8.865.687.687,0,0,1-.6,1.025Z" transform="translate(-3323.798 -973.325)" fill="#1d1d1b"/>
      <path id="Path_668" data-name="Path 668" d="M3363.315,1089.771a.684.684,0,0,1-.673-.551l-1.873-9.361a.688.688,0,0,1,.539-.807.7.7,0,0,1,.807.539l1.7,8.516a24.937,24.937,0,0,0,8.949-7.51.686.686,0,0,1,1.092.829,25.936,25.936,0,0,1-10.274,8.292A.681.681,0,0,1,3363.315,1089.771Z" transform="translate(-3317.437 -1021.752)" fill="#1d1d1b"/>
      <path id="Path_669" data-name="Path 669" d="M3305.039,994.153s-8.457-37.015-31.216-42.422,1.251,26.349,1.251,26.349.126-.167.187-.236a12.7,12.7,0,0,1,20.26,1.511Z" transform="translate(-3264.022 -951.112)" fill="#dd4a48"/>
      <path id="Path_670" data-name="Path 670" d="M3334.493,1006.132a.686.686,0,0,1-.667-.533c-.046-.2-4.778-20.453-16.278-32.885a.686.686,0,1,1,1.006-.931c11.753,12.7,16.563,33.3,16.61,33.51a.687.687,0,0,1-.516.822A.706.706,0,0,1,3334.493,1006.132Z" transform="translate(-3293.478 -962.404)" fill="#1d1d1b"/>
      <path id="Path_671" data-name="Path 671" d="M3355.02,1037.444a.686.686,0,0,1-.365-1.268c4.837-3.029,11.23-9.534,14.612-13.142a.686.686,0,0,1,1,.938c-3.426,3.656-9.916,10.255-14.883,13.367A.681.681,0,0,1,3355.02,1037.444Z" transform="translate(-3313.891 -990.707)" fill="#1d1d1b"/>
      <path id="Path_672" data-name="Path 672" d="M3349.954,1050.106a7.381,7.381,0,1,1-7.944,6.772A7.38,7.38,0,0,1,3349.954,1050.106Z" transform="translate(-3307.073 -1005.762)" fill="#fff"/>
      <path id="Path_673" data-name="Path 673" d="M3311.343,1088.067a24.668,24.668,0,0,1-2.828-.148.685.685,0,0,1-.6-.765.677.677,0,0,1,.765-.6c.062.008,6.32.749,10.341-1.387a.687.687,0,0,1,.644,1.213A18.571,18.571,0,0,1,3311.343,1088.067Z" transform="translate(-3288.258 -1025.093)" fill="#1d1d1b"/>
      <path id="Path_674" data-name="Path 674" d="M3311.709,1045.088a.687.687,0,0,1-.621-.4c-1.666-3.557-5.827-2.354-6.006-2.3a.686.686,0,0,1-.395-1.315c1.886-.566,5.911-.661,7.642,3.034a.684.684,0,0,1-.331.911A.67.67,0,0,1,3311.709,1045.088Z" transform="translate(-3286.207 -1000.628)" fill="#1d1d1b"/>
      <path id="Path_675" data-name="Path 675" d="M3276.217,1042.312a.685.685,0,0,1-.565-1.072,4.283,4.283,0,0,1,3.971-1.784.686.686,0,1,1-.208,1.357,2.9,2.9,0,0,0-2.633,1.205A.689.689,0,0,1,3276.217,1042.312Z" transform="translate(-3270.378 -999.869)" fill="#1d1d1b"/>
      <path id="Path_676" data-name="Path 676" d="M3316.472,1030.8a.683.683,0,0,1-.531-.25,7.835,7.835,0,0,0-6.344-2.573.7.7,0,0,1-.752-.612.686.686,0,0,1,.612-.752,9.158,9.158,0,0,1,7.545,3.067.685.685,0,0,1-.53,1.121Z" transform="translate(-3288.771 -992.791)" fill="#1d1d1b"/>
    </g>
    <g id="Group_831" data-name="Group 831" transform="translate(3049.164 1006.033)">
      <circle id="Ellipse_9" data-name="Ellipse 9" cx="7.85" cy="7.85" r="7.85" transform="translate(0.685 0.685)" fill="#fff"/>
      <path id="Path_679" data-name="Path 679" d="M3126.4,1129.819a2.841,2.841,0,1,1-2.841-2.84A2.841,2.841,0,0,1,3126.4,1129.819Z" transform="translate(-3115.02 -1121.285)" fill="#dd4a48"/>
      <path id="Path_680" data-name="Path 680" d="M3108.7,1123.938a.685.685,0,0,1-.684-.643c-.01-.163-.014-.329-.014-.5a8.544,8.544,0,0,1,11.625-7.959.686.686,0,0,1-.5,1.28,7.17,7.17,0,0,0-9.759,6.68c0,.139,0,.275.012.411a.686.686,0,0,1-.642.727Z" transform="translate(-3107.998 -1114.264)" fill="#dd4a48"/>
      <path id="Path_681" data-name="Path 681" d="M3113.526,1145.186a.681.681,0,0,1-.456-.174,8.638,8.638,0,0,1-.908-.942.686.686,0,1,1,1.056-.875,7.494,7.494,0,0,0,.764.794.686.686,0,0,1-.456,1.2Z" transform="translate(-3110.21 -1130.102)" fill="#dd4a48"/>
      <path id="Path_682" data-name="Path 682" d="M3126.213,1141.011a.685.685,0,1,1,0-1.371,7.173,7.173,0,0,0,7.164-7.165.685.685,0,1,1,1.371,0A8.544,8.544,0,0,1,3126.213,1141.011Z" transform="translate(-3117.677 -1123.942)" fill="#dd4a48"/>
      <path id="Path_683" data-name="Path 683" d="M3139.291,1121.518a.685.685,0,0,1-.534-.255c-.141-.175-.291-.345-.447-.505a.687.687,0,0,1,.986-.957c.186.192.363.393.53.6a.685.685,0,0,1-.534,1.115Z" transform="translate(-3124.629 -1117.207)" fill="#dd4a48"/>
    </g>
    <g id="Group_832" data-name="Group 832" transform="translate(3184.555 918.261)">
      <path id="Path_684" data-name="Path 684" d="M3427.566,927.642a7.85,7.85,0,1,1-7.849-7.85A7.849,7.849,0,0,1,3427.566,927.642Z" transform="translate(-3411.182 -919.106)" fill="#fff"/>
      <path id="Path_685" data-name="Path 685" d="M3428.735,933.818a2.841,2.841,0,1,1-2.84-2.841A2.841,2.841,0,0,1,3428.735,933.818Z" transform="translate(-3417.359 -925.283)" fill="#dd4a48"/>
      <path id="Path_686" data-name="Path 686" d="M3411.12,928.728a.686.686,0,0,1-.676-.578,8.544,8.544,0,0,1,8.429-9.889,8.5,8.5,0,0,1,3.09.576.687.687,0,0,1-.5,1.279,7.168,7.168,0,0,0-9.666,7.817.687.687,0,0,1-.569.786A.644.644,0,0,1,3411.12,928.728Z" transform="translate(-3410.337 -918.261)" fill="#1d1d1b"/>
      <path id="Path_687" data-name="Path 687" d="M3415.865,949.183a.687.687,0,0,1-.455-.172,8.365,8.365,0,0,1-.91-.945.686.686,0,1,1,1.058-.873,7.065,7.065,0,0,0,.763.791.685.685,0,0,1-.456,1.2Z" transform="translate(-3412.549 -934.099)" fill="#1d1d1b"/>
      <path id="Path_688" data-name="Path 688" d="M3428.552,945.011a.686.686,0,0,1,0-1.371,7.173,7.173,0,0,0,7.165-7.165.685.685,0,0,1,1.371,0A8.544,8.544,0,0,1,3428.552,945.011Z" transform="translate(-3420.017 -927.94)" fill="#1d1d1b"/>
      <path id="Path_689" data-name="Path 689" d="M3441.63,925.517a.686.686,0,0,1-.535-.256c-.142-.176-.291-.344-.447-.507a.686.686,0,0,1,.987-.953q.279.287.528.6a.686.686,0,0,1-.534,1.116Z" transform="translate(-3426.969 -921.205)" fill="#1d1d1b"/>
    </g>
    <g id="Group_833" data-name="Group 833" transform="translate(3230.712 977.406)">
      <path id="Path_690" data-name="Path 690" d="M3530.642,1059.717a7.85,7.85,0,1,1-7.85-7.85A7.85,7.85,0,0,1,3530.642,1059.717Z" transform="translate(-3514.256 -1051.182)" fill="#fff"/>
      <path id="Path_691" data-name="Path 691" d="M3531.809,1065.894a2.841,2.841,0,1,1-2.841-2.841A2.841,2.841,0,0,1,3531.809,1065.894Z" transform="translate(-3520.432 -1057.359)" fill="#dd4a48"/>
      <path id="Path_692" data-name="Path 692" d="M3514.181,1060.725a.685.685,0,0,1-.677-.586,8.536,8.536,0,0,1,8.442-9.8,8.5,8.5,0,0,1,3.09.576.686.686,0,1,1-.5,1.279,7.167,7.167,0,0,0-9.757,6.68,7.388,7.388,0,0,0,.079,1.067.685.685,0,0,1-.579.778A.633.633,0,0,1,3514.181,1060.725Z" transform="translate(-3513.41 -1050.337)" fill="#1d1d1b"/>
      <path id="Path_693" data-name="Path 693" d="M3518.939,1081.259a.681.681,0,0,1-.456-.174,8.65,8.65,0,0,1-.908-.943.686.686,0,0,1,1.059-.873,7.28,7.28,0,0,0,.763.793.685.685,0,0,1-.457,1.2Z" transform="translate(-3515.623 -1066.175)" fill="#1d1d1b"/>
      <path id="Path_694" data-name="Path 694" d="M3531.626,1077.087a.686.686,0,1,1,0-1.371,7.172,7.172,0,0,0,7.164-7.164.686.686,0,1,1,1.371,0A8.545,8.545,0,0,1,3531.626,1077.087Z" transform="translate(-3523.09 -1060.016)" fill="#1d1d1b"/>
      <path id="Path_695" data-name="Path 695" d="M3544.7,1057.592a.686.686,0,0,1-.534-.255c-.142-.177-.292-.345-.448-.507a.686.686,0,0,1,.988-.953q.279.288.529.6a.686.686,0,0,1-.534,1.116Z" transform="translate(-3530.042 -1053.281)" fill="#1d1d1b"/>
    </g>
    <g id="Group_834" data-name="Group 834" transform="translate(3240.281 1094.806)">
      <circle id="Ellipse_10" data-name="Ellipse 10" cx="7.85" cy="7.85" r="7.85" transform="translate(0.685 0.686)" fill="#fff"/>
      <path id="Path_696" data-name="Path 696" d="M3553.176,1328.058a2.841,2.841,0,1,1-2.841-2.841A2.841,2.841,0,0,1,3553.176,1328.058Z" transform="translate(-3541.8 -1319.522)" fill="#ff4863"/>
      <path id="Path_697" data-name="Path 697" d="M3535.542,1322.843a.688.688,0,0,1-.679-.59,8.656,8.656,0,0,1-.085-1.218,8.542,8.542,0,0,1,11.625-7.959.686.686,0,0,1-.5,1.279,7.167,7.167,0,0,0-9.757,6.68,7.306,7.306,0,0,0,.073,1.024.687.687,0,0,1-.582.776A.826.826,0,0,1,3535.542,1322.843Z" transform="translate(-3534.778 -1312.5)" fill="#ff4863"/>
      <path id="Path_698" data-name="Path 698" d="M3540.306,1343.424a.683.683,0,0,1-.456-.173,8.624,8.624,0,0,1-.91-.945.686.686,0,0,1,1.059-.873,7.167,7.167,0,0,0,.764.793.686.686,0,0,1-.456,1.2Z" transform="translate(-3536.99 -1328.339)" fill="#ff4863"/>
      <path id="Path_699" data-name="Path 699" d="M3552.993,1339.25a.685.685,0,1,1,0-1.371,7.172,7.172,0,0,0,7.164-7.164.685.685,0,1,1,1.371,0A8.544,8.544,0,0,1,3552.993,1339.25Z" transform="translate(-3544.458 -1322.18)" fill="#ff4863"/>
      <path id="Path_700" data-name="Path 700" d="M3566.069,1319.758a.682.682,0,0,1-.535-.257c-.141-.175-.288-.343-.444-.5a.686.686,0,1,1,.981-.958c.187.192.366.394.533.6a.685.685,0,0,1-.535,1.114Z" transform="translate(-3551.408 -1315.445)" fill="#ff4863"/>
    </g>
    <path id="Path_701" data-name="Path 701" d="M3478.2,997.962a.687.687,0,0,1-.539-.261l-31.042-39.393a.686.686,0,1,1,1.077-.85l31.042,39.393a.686.686,0,0,1-.539,1.111Z" transform="translate(-245.735 -21.5)" fill="#1d1d1b"/>
    <path id="Path_702" data-name="Path 702" d="M3500.047,1325.345H3480.7a.685.685,0,0,1-.66-.871l1.376-4.908a.679.679,0,0,1,.846-.475.686.686,0,0,1,.475.846l-1.133,4.037h18.443a.686.686,0,1,1,0,1.371Z" transform="translate(-264.257 -221.319)" fill="#1d1d1b"/>
    <path id="Path_703" data-name="Path 703" d="M3494.357,1181.692a.654.654,0,0,1-.127-.013.686.686,0,0,1-.548-.8l15.306-81.924a.686.686,0,0,1,1.348.252l-15.306,81.925A.686.686,0,0,1,3494.357,1181.692Z" transform="translate(-271.798 -99.468)" fill="#1d1d1b"/>
    <path id="Path_704" data-name="Path 704" d="M3301.782,1433.71H3147.934a.685.685,0,1,1,0-1.371h153.848a.685.685,0,1,1,0,1.371Z" transform="translate(-80.508 -283.868)" fill="#1d1d1b"/>
    <path id="Path_705" data-name="Path 705" d="M3099.014,1433.517h-.007l-15.562-.156a.686.686,0,0,1,.007-1.371h.007l15.562.156a.685.685,0,0,1-.007,1.371Z" transform="translate(-44.901 -283.675)" fill="#1d1d1b"/>
    <path id="Path_706" data-name="Path 706" d="M3475.509,1246.507a.634.634,0,0,1-.076,0,.684.684,0,0,1-.606-.757q.1-.927.186-1.835a.686.686,0,1,1,1.367.125q-.086.923-.19,1.861A.685.685,0,0,1,3475.509,1246.507Z" transform="translate(-261.39 -179.475)" fill="#1d1d1b"/>
    <path id="Path_707" data-name="Path 707" d="M3435.707,1157.059a.685.685,0,0,1-.681-.617c-3.381-33.762-31.874-45.313-32.161-45.425a.686.686,0,0,1,.5-1.278c.294.116,29.559,11.948,33.025,46.566a.686.686,0,0,1-.614.751C3435.753,1157.058,3435.73,1157.059,3435.707,1157.059Z" transform="translate(-221.415 -105.706)" fill="#1d1d1b"/>
    <path id="Path_708" data-name="Path 708" d="M3460.528,1414.167a.684.684,0,0,1-.686-.678q-.01-.882-.04-1.772a.686.686,0,1,1,1.371-.046q.03.906.039,1.8a.684.684,0,0,1-.678.693Z" transform="translate(-253.097 -272.089)" fill="#1d1d1b"/>
    <path id="Path_709" data-name="Path 709" d="M3452.711,1362.855a.686.686,0,0,1-.679-.6,172.7,172.7,0,0,0-4.96-23.879.686.686,0,0,1,1.321-.367,174.009,174.009,0,0,1,5,24.074.686.686,0,0,1-.6.766A.574.574,0,0,1,3452.711,1362.855Z" transform="translate(-246.053 -231.501)" fill="#1d1d1b"/>
    <path id="Path_710" data-name="Path 710" d="M3440.63,1315.77a.687.687,0,0,1-.651-.47c-.4-1.209-.642-1.879-.643-1.884a.686.686,0,1,1,1.291-.463s.245.682.655,1.912a.687.687,0,0,1-.651.9Z" transform="translate(-241.772 -217.695)" fill="#1d1d1b"/>
    <path id="Path_711" data-name="Path 711" d="M3198.519,1152.616a.687.687,0,0,1-.646-.917c4.451-12.436,14.712-22.536,22.535-28.819a.685.685,0,1,1,.858,1.069c-7.685,6.172-17.759,16.078-22.1,28.212A.686.686,0,0,1,3198.519,1152.616Z" transform="translate(-108.44 -112.905)" fill="#1d1d1b"/>
    <path id="Path_712" data-name="Path 712" d="M3270.5,1107.107a.686.686,0,0,1-.364-1.269c1.07-.666,1.684-1.012,1.684-1.012a.686.686,0,0,1,.673,1.2c-.007,0-.6.34-1.631.981A.688.688,0,0,1,3270.5,1107.107Z" transform="translate(-148.187 -102.971)" fill="#1d1d1b"/>
    <path id="Path_713" data-name="Path 713" d="M3171.232,1409.32h-.015a.685.685,0,0,1-.67-.7,62.453,62.453,0,0,1,1.7-11.28.693.693,0,0,1,.819-.521.686.686,0,0,1,.521.819,61.163,61.163,0,0,0-1.669,11.013A.685.685,0,0,1,3171.232,1409.32Z" transform="translate(-93.373 -264.245)" fill="#1d1d1b"/>
    <path id="Path_714" data-name="Path 714" d="M3178.853,1380.051a.694.694,0,0,1-.177-.024.686.686,0,0,1-.485-.839c.179-.673.36-1.336.539-1.986a.686.686,0,1,1,1.323.365q-.268.97-.536,1.975A.688.688,0,0,1,3178.853,1380.051Z" transform="translate(-97.581 -253.143)" fill="#1d1d1b"/>
    <g id="Group_835" data-name="Group 835" transform="translate(3170.982 1079.271)">
      <path id="Path_715" data-name="Path 715" d="M3410.511,1279.195c-6.184,10.811-17.285,18.633-30.482,22.161a24.666,24.666,0,0,1,6.958-15.507C3393.911,1278.476,3403.629,1275.958,3410.511,1279.195Z" transform="translate(-3380.029 -1277.809)" fill="#292929"/>
    </g>
    <path id="Path_716" data-name="Path 716" d="M3276.083,1290.1a.6.6,0,0,1-.088-.006.686.686,0,0,1-.593-.768c.077-.6,1.953-14.688,7.734-23.644a.686.686,0,1,1,1.152.744c-5.614,8.7-7.508,22.933-7.526,23.076A.686.686,0,0,1,3276.083,1290.1Z" transform="translate(-151.27 -191.671)" fill="#1d1d1b"/>
    <path id="Path_717" data-name="Path 717" d="M3351.827,1346.417a67.567,67.567,0,0,1-19.932-3.032.685.685,0,0,1,.453-1.294c.208.072,20.945,7.157,38.8-.848a.686.686,0,0,1,.56,1.252A48.667,48.667,0,0,1,3351.827,1346.417Z" transform="translate(-182.214 -233.532)" fill="#1d1d1b"/>
    <path id="Path_718" data-name="Path 718" d="M3398.616,1239.386a.619.619,0,0,1-.078,0l-10-1.129a.685.685,0,0,1-.26-1.278l11.268-6.374-10.523,1.305a.686.686,0,0,1-.169-1.361l13.958-1.731a.685.685,0,0,1,.422,1.277l-12.439,7.036,7.9.892a.686.686,0,0,1-.076,1.367Z" transform="translate(-213.408 -171.481)" fill="#1d1d1b"/>
    <path id="Path_719" data-name="Path 719" d="M3296.5,940.344a.686.686,0,0,1-.414-.139c-.007-.005-.725-.547-1.895-1.251a.685.685,0,0,1,.706-1.175c1.24.745,1.987,1.309,2.018,1.332a.686.686,0,0,1-.416,1.233Z" transform="translate(-161.465 -10.723)" fill="#1d1d1b"/>
    <path id="Path_720" data-name="Path 720" d="M3252.751,957.5a.687.687,0,0,1-.615-.382c-.37-.745-8.968-18.324-.82-24.819a11.539,11.539,0,0,1,9.191-2.226.686.686,0,1,1-.194,1.359,10.233,10.233,0,0,0-8.144,1.94c-7.29,5.812,1.108,22.964,1.2,23.136a.687.687,0,0,1-.309.92A.7.7,0,0,1,3252.751,957.5Z" transform="translate(-136.042 -6.433)" fill="#1d1d1b"/>
    <path id="Path_721" data-name="Path 721" d="M3271.479,1410.479h-.017c-12.083-.312-19.785-7.173-24.117-12.875a.686.686,0,0,1,1.092-.829c4.15,5.462,11.521,12.035,23.06,12.334a.685.685,0,0,1-.018,1.371Z" transform="translate(-135.703 -264.079)" fill="#fff"/>
    <path id="Path_722" data-name="Path 722" d="M3075.278,1211.009h-53.347a.556.556,0,0,1,0-1.112h53.347a.556.556,0,0,1,0,1.112Z" transform="translate(-11.002 -161.038)" fill="#1d1d1b"/>
    <path id="Path_724" data-name="Path 724" d="M3164.732,1211.009h-11.057a.556.556,0,1,1,0-1.112h11.057a.556.556,0,1,1,0,1.112Z" transform="translate(-83.749 -161.038)" fill="#1d1d1b"/>
    <path id="Path_725" data-name="Path 725" d="M3138.712,1307.99c-14.427,0-23.773-8.379-29.3-16.012a.687.687,0,1,1,1.113-.8c6.163,8.524,17.266,18.007,35.175,14.8a.686.686,0,0,1,.242,1.35A40.977,40.977,0,0,1,3138.712,1307.99Z" transform="translate(-59.546 -205.761)" fill="#1d1d1b"/>
    <path id="Path_726" data-name="Path 726" d="M3099.755,1274.7a.686.686,0,0,1-.622-.4c-.314-.674-.465-1.059-.465-1.059a.686.686,0,0,1,1.277-.5c0,.01.145.367.431.984a.686.686,0,0,1-.622.975Z" transform="translate(-53.657 -195.5)" fill="#1d1d1b"/>
    <path id="Path_727" data-name="Path 727" d="M3126.441,1232.492a.555.555,0,0,1-.556-.556v-9.979a.556.556,0,1,1,1.112,0v9.979A.555.555,0,0,1,3126.441,1232.492Z" transform="translate(-68.711 -167.391)" fill="#1d1d1b"/>
    <path id="Path_728" data-name="Path 728" d="M3179.842,1230.33h-53.4a.556.556,0,0,1,0-1.112h53.4a.556.556,0,0,1,0,1.112Z" transform="translate(-68.711 -171.707)" fill="#1d1d1b"/>
    <path id="Path_729" data-name="Path 729" d="M3030.408,1230.33h-13.2a.556.556,0,1,1,0-1.112h13.2a.556.556,0,0,1,0,1.112Z" transform="translate(-8.393 -171.707)" fill="#1d1d1b"/>
    <path id="Path_730" data-name="Path 730" d="M3082.044,1230.33H3054.9a.556.556,0,0,1,0-1.112h27.146a.556.556,0,1,1,0,1.112Z" transform="translate(-29.206 -171.707)" fill="#1d1d1b"/>
  </g>
</svg>
