<svg xmlns="http://www.w3.org/2000/svg" width="24" height="24" viewBox="0 0 24 24">
  <g id="km" transform="translate(-9742 -234.937)">
    <rect id="Rectangle_17538" data-name="Rectangle 17538" width="24" height="24" transform="translate(9742 234.937)" fill="none"/>
    <g id="Group_8638" data-name="Group 8638" transform="translate(9742 235.064)">
      <path id="Path_12509" data-name="Path 12509" d="M443.192,560.474l-.893.036h0a2.342,2.342,0,0,0-.627,1.154l-.1.446v3.46l.923.721.824,0v-5.813Z" transform="translate(-436.243 -548.855)" fill="#cb0033"/>
      <g id="Group_8637" data-name="Group 8637">
        <path id="Path_12510" data-name="Path 12510" d="M448.728,556.58c.381.018.381.018.381.4v6.276c0,.087,0,.175-.007.263a.409.409,0,0,1-.317.078q-1.23,0-2.461,0a.5.5,0,0,1-.3-.06.282.282,0,0,1-.067-.2c-.009-.532-.013-1.063,0-1.595a.313.313,0,0,1,.027-.115c.064-.109.176-.1.278-.1.193-.007.385.006.576-.006a.622.622,0,0,0,.654-.654c.013-.906.01-1.811,0-2.718a.69.69,0,0,0-.5-.687.707.707,0,0,0-.808.324c-.04.058-.06.134-.142.152,0-.213-.024-.428-.012-.642a.785.785,0,0,1,.762-.717.38.38,0,0,1,.249-.069c.478,0,.957,0,1.435,0A.383.383,0,0,1,448.728,556.58Z" transform="translate(-434.097 -550.801)" fill="#dd4a48"/>
        <path id="Path_12511" data-name="Path 12511" d="M446.662,561.227l3.074,0c0,.408.013.815,0,1.223a.812.812,0,0,1-.536.7.314.314,0,0,1-.266.081c-.5,0-.993.01-1.489,0-.2.007-.4,0-.6,0-.358.007-.493.136-.5.5-.007.72,0,1.438,0,2.158a.617.617,0,0,1-.054.351.469.469,0,0,1-.339.072c-.245,0-.49,0-.735.012-.163-.036-.332,0-.494-.03a.221.221,0,0,1-.045-.076,1.14,1.14,0,0,1-.022-.311q0-1.888,0-3.775a1.355,1.355,0,0,1,.054-.451.7.7,0,0,1,.593-.5,7.282,7.282,0,0,1,1.224-.012A.208.208,0,0,1,446.662,561.227Z" transform="translate(-434.731 -548.524)" fill="gray"/>
        <path id="Path_12512" data-name="Path 12512" d="M450.662,568.071l-2.5.007-5.584,0c-.2-.045-.231-.245-.346-.367a1.491,1.491,0,0,1-.164-.236c-.042-.069-.087-.142.01-.206a1.025,1.025,0,0,1,.381-.033c1.9,0,3.8-.01,5.7.006a1.285,1.285,0,0,0,1.3-.794,1.927,1.927,0,0,1,1.762-1.136,1.483,1.483,0,0,0,1.492-1.383.64.64,0,0,1,.04-.211c.063-.087.143-.052.216-.024a8.529,8.529,0,0,1,.82.339.665.665,0,0,1,.394.769,1.626,1.626,0,0,1-1.581,1.409,1.891,1.891,0,0,0-1.495.742,1.868,1.868,0,0,0-.373.915A.312.312,0,0,1,450.662,568.071Z" transform="translate(-436.033 -547.293)" fill="#4f4f4f"/>
        <path id="Path_12513" data-name="Path 12513" d="M450.128,563.788l.009-3.845a.28.28,0,0,1,.221-.073c.693-.006,1.386-.008,2.079,0a.4.4,0,0,1,.161.033c.116.073.1.193.1.3a5.2,5.2,0,0,0,.015.528.3.3,0,0,0,.608,0,4.728,4.728,0,0,0,.012-.5c0-.11-.015-.228.085-.313a2.983,2.983,0,0,1,1.117,0c.093.064.088.166.09.26,0,.56.01,1.118,0,1.678a.832.832,0,0,1-.847.859c-.152.006-.3,0-.455,0a1.124,1.124,0,0,0-1.178.89c-.024.082-.028.176-.114.23a1.317,1.317,0,0,1-.518.042c-.357,0-.715,0-1.072,0C450.331,563.868,450.215,563.883,450.128,563.788Z" transform="translate(-432.05 -549.156)" fill="#dd4a48"/>
        <path id="Path_12514" data-name="Path 12514" d="M447.807,568.159a1.747,1.747,0,0,1,.391-1.142.563.563,0,0,1,.391-.078q1.754,0,3.509,0c.081,0,.16,0,.24,0,.282-.015.388-.117.4-.4a7.1,7.1,0,0,0-.073-1.39,1.348,1.348,0,0,1,.442-1.345,1.513,1.513,0,0,1,.62-.3.249.249,0,0,1,.254.054,16.7,16.7,0,0,1,.737,3.118,8.5,8.5,0,0,1,.018,1.154.357.357,0,0,1-.388.342c-.3.008-.593.008-.89.011a.448.448,0,0,1-.32.069q-1.863,0-3.729,0a.448.448,0,0,1-.319-.069Z" transform="translate(-433.194 -547.381)" fill="#cb0033"/>
        <path id="Path_12515" data-name="Path 12515" d="M448.707,566.627h4.368a2.308,2.308,0,0,1-1.465,2.953,2.2,2.2,0,0,1-2.292-.514,2.228,2.228,0,0,1-.663-2.256C448.669,566.749,448.689,566.688,448.707,566.627Z" transform="translate(-432.812 -545.833)" fill="#4f4f4f"/>
        <path id="Path_12516" data-name="Path 12516" d="M444.018,566.773a7.252,7.252,0,0,0,.541.766c0,.2,0,.4,0,.6a.56.56,0,0,1-.548.552c-.215.008-.43.006-.646.009a.563.563,0,0,1-.694-.254,1.024,1.024,0,0,1-.1-.316.54.54,0,0,0-.626-.518c-.894,0-1.79,0-2.685,0a.505.505,0,0,1-.346-.062H438a3.554,3.554,0,0,1,1.35-1.94.722.722,0,0,1,1.042.6.547.547,0,0,0,.582.491c.215.006.431.009.647,0a.557.557,0,0,0,.563-.564,1.178,1.178,0,0,0-.3-.923c-.09-.108-.227-.215-.149-.393a2.5,2.5,0,0,1,.815-.036.391.391,0,0,1,.073.021c.025.021,0-.012.021.012.5.61.938,1.259,1.374,1.913C444.024,566.739,444.019,566.757,444.018,566.773Z" transform="translate(-437.999 -546.751)" fill="#cb0033"/>
        <path id="Path_12517" data-name="Path 12517" d="M447.062,557.661a.776.776,0,0,1,1.523.282q0,1.3,0,2.6a.7.7,0,0,1-.772.778l-.769.006a.433.433,0,0,1-.3.072q-1.245,0-2.489,0a.5.5,0,0,1-.3-.061.325.325,0,0,1-.069-.226q-.011-.551,0-1.1a.291.291,0,0,1,.078-.221q1.286,0,2.571-.006c.378,0,.5-.127.506-.5Q447.053,558.466,447.062,557.661Z" transform="translate(-435.111 -550.522)" fill="#807f80"/>
        <path id="Path_12518" data-name="Path 12518" d="M438.647,566.629c1.059,0,2.117-.009,3.176-.006a.554.554,0,0,1,.544.484c.031.5.248.665.736.677a2.307,2.307,0,0,1-4.533.078A2.412,2.412,0,0,1,438.647,566.629Z" transform="translate(-437.741 -545.835)" fill="#4f4f4f"/>
        <path id="Path_12519" data-name="Path 12519" d="M445.993,555.017c-.191,0-.385-.017-.575,0-.17.012-.2-.055-.187-.206a2.3,2.3,0,0,1,2.122-2.093,5.153,5.153,0,0,1,1.789.085.439.439,0,0,1,.082.044.48.48,0,0,1,.069.275c0,.615.017,1.23,0,1.844a.986.986,0,0,1-1.386.82.705.705,0,0,1-.055-.375c-.006-.306-.016-.32-.331-.321-.4,0-.8,0-1.2,0A.483.483,0,0,1,445.993,555.017Z" transform="translate(-434.451 -552.679)" fill="#dd4a48"/>
        <path id="Path_12520" data-name="Path 12520" d="M451.42,563.785a1.166,1.166,0,0,1,1.144-1.147c.184,0,.367,0,.551,0a.758.758,0,0,0,.806-.815c0-.624,0-1.248,0-1.872a.16.16,0,0,1,.121-.069,7.145,7.145,0,0,1,1.117,0,.166.166,0,0,1,.1.057c0,1.235,0,2.47.012,3.7,0,.17-.093.146-.2.148q-1.25,0-2.5.006c-.217.124-.454.049-.681.066a1.361,1.361,0,0,1-.311-.008A.2.2,0,0,1,451.42,563.785Z" transform="translate(-431.413 -549.154)" fill="#cb0033"/>
        <path id="Path_12521" data-name="Path 12521" d="M445.741,554.248c.585,0,1.169,0,1.753-.009.133,0,.185.036.179.175-.007.2,0,.4,0,.6.1.135.058.291.067.439,0,.088,0,.176,0,.263,0,.375,0,.375.364.376.151,0,.3,0,.454,0,.094,0,.194,0,.264.08V557.7H446.9c0-.2,0-.4.006-.6,0-.126-.043-.172-.167-.167-.184.008-.367,0-.551,0-.3,0-.437-.136-.439-.437C445.743,555.749,445.743,555,445.741,554.248Z" transform="translate(-434.199 -551.91)" fill="#fbbea8"/>
        <path id="Path_12522" data-name="Path 12522" d="M454.006,562.5l1.014,0c0,.429-.015.857,0,1.284.01.219-.063.284-.263.251a.614.614,0,0,0-.118,0h-.251a4.113,4.113,0,0,1-.975.073c-1.118,0-2.237,0-3.355-.006-1.08.01-2.159,0-3.24,0a.476.476,0,0,1-.278-.058,1.07,1.07,0,0,1-.019-.79.6.6,0,0,1,.415-.075c2.034,0,4.067,0,6.1,0a.816.816,0,0,0,.9-.593A.28.28,0,0,1,454.006,562.5Z" transform="translate(-433.859 -547.858)" fill="#ef8516"/>
        <path id="Path_12523" data-name="Path 12523" d="M455.895,560.552l-1.339.007-1.148-.007c-.1-.094-.063-.222-.075-.336-.022-.234-.14-.367-.33-.36s-.285.134-.306.36c-.012.114.031.242-.075.336h-2.488v-.96c.107-.1.24-.073.367-.075q1.42,0,2.84,0c.694,0,.878-.125,1.136-.764a.356.356,0,0,1,.079-.119c.4,0,.8,0,1.2-.009.118,0,.149.039.148.151C455.9,559.368,455.9,559.96,455.895,560.552Z" transform="translate(-432.047 -549.76)" fill="#4f4f4f"/>
        <path id="Path_12524" data-name="Path 12524" d="M441.988,562.929c0,.384.018.445.008.769-.017.5,0,.779,0,1.247a.7.7,0,0,0,.76.758c.264,0,.529,0,.791,0,.069,0,.1.052.119.1q.154.378.331.746c.037.078.076.17-.052.215a6.5,6.5,0,0,1-.981.024c-.488.006-.975,0-1.463,0a.7.7,0,0,1-.37-.072l-.006-.006a.357.357,0,0,1-.073-.246q0-.717,0-1.433a.369.369,0,0,1,.07-.248c0-.56.015-1.12,0-1.68a1.744,1.744,0,0,1,.118-.8,5.816,5.816,0,0,1,.579-.923c.118-.178.211-.324.272-.418A17.671,17.671,0,0,0,441.988,562.929Z" transform="translate(-436.502 -548.614)" fill="#dd4a48"/>
        <path id="Path_12525" data-name="Path 12525" d="M454.007,562.5a.751.751,0,0,1-.8.763q-2.8,0-5.593,0h-1.056a.85.85,0,0,1-.009-.764l1.772-.013h5.549Z" transform="translate(-433.852 -547.861)" fill="#feb82d"/>
        <path id="Path_12526" data-name="Path 12526" d="M448.192,556.889c-.327,0-.655-.01-.983,0-.133,0-.184-.033-.178-.173.01-.327.008-.656.009-.983a2.864,2.864,0,0,0,.666-.042.81.81,0,0,0,.629-.848c0-.684,0-1.368,0-2.05a1.589,1.589,0,0,1,1.008,1.42c.006.594,0,1.187,0,1.781a.851.851,0,0,1-.888.891C448.369,556.883,448.28,556.886,448.192,556.889Z" transform="translate(-433.565 -552.625)" fill="#cb0033"/>
        <path id="Path_12527" data-name="Path 12527" d="M454.56,558.633a.955.955,0,0,1-1.036.956l-3.387,0c0-.273,0-.545-.01-.818,0-.117.04-.149.154-.149Q452.42,558.633,454.56,558.633Z" transform="translate(-432.05 -549.759)" fill="#7f7f7f"/>
        <path id="Path_12528" data-name="Path 12528" d="M441.271,564.843a2.062,2.062,0,0,0,.21.318,1.205,1.205,0,0,1,.323,1.006.605.605,0,0,1-.6.593q-.372.011-.744,0a.6.6,0,0,1-.584-.5c-.09-.521-.24-.65-.759-.651-.073,0-.145,0-.216,0a3.467,3.467,0,0,1,1.735-.726c.093-.068.211-.051.312-.089C441.064,564.775,441.179,564.745,441.271,564.843Z" transform="translate(-437.553 -546.741)" fill="#dd4a48"/>
        <path id="Path_12529" data-name="Path 12529" d="M452.164,556.817c-.626,0-1.251,0-1.877,0-.3,0-.448-.13-.449-.376s.148-.391.458-.393h3.754c.293,0,.454.136.457.378s-.16.391-.464.393Z" transform="translate(-432.193 -551.025)" fill="#dd4a48"/>
        <path id="Path_12530" data-name="Path 12530" d="M444.6,558.905v1.529a.261.261,0,0,1-.218.079c-.5.008-1.008.008-1.513,0a.346.346,0,0,1-.184-.045c-.115-.109-.082-.252-.084-.387a1.471,1.471,0,0,1,.146-.86.757.757,0,0,1,.888-.327Z" transform="translate(-435.74 -549.649)" fill="#fbbea8"/>
        <path id="Path_12531" data-name="Path 12531" d="M444,559.134c-.55.018-.784.16-.935.572a2.441,2.441,0,0,0-.036.591,2.258,2.258,0,0,1-1.129.024.05.05,0,0,1-.013-.078c.231-.566.467-1.132.691-1.7.049-.122.106-.178.24-.175q.6.009,1.2,0c.128,0,.172.03.13.166C444.086,558.729,444.046,558.933,444,559.134Z" transform="translate(-436.098 -549.887)" fill="#4f4f4f"/>
        <path id="Path_12532" data-name="Path 12532" d="M442.393,559.795v.051a.314.314,0,0,1,.066.2c.006.379.007.758,0,1.138a.272.272,0,0,1-.07.2c-.475.124-.951.245-1.425.372-.11.031-.119-.022-.118-.106,0-.2.006-.4.009-.6a.439.439,0,0,1,.318-.381.577.577,0,0,0,.384-.62,1.5,1.5,0,0,1,.061-.773c.222.049.448.087.666.151S442.336,559.677,442.393,559.795Z" transform="translate(-436.603 -549.441)" fill="#ef8616"/>
        <path id="Path_12533" data-name="Path 12533" d="M450.823,555.785c-.32,0-.641,0-.96,0a.385.385,0,1,1,0-.767q.985,0,1.969,0a.385.385,0,1,1,0,.767C451.5,555.788,451.161,555.785,450.823,555.785Z" transform="translate(-432.378 -551.528)" fill="#dd4a48"/>
        <path id="Path_12534" data-name="Path 12534" d="M451.365,558.107c-.321,0-.641,0-.962,0-.282,0-.442-.151-.436-.4s.163-.372.435-.373q.963,0,1.923,0c.282,0,.442.151.436.4s-.163.372-.436.373C452.005,558.108,451.684,558.107,451.365,558.107Z" transform="translate(-432.129 -550.392)" fill="#dd4a48"/>
        <path id="Path_12535" data-name="Path 12535" d="M440.694,565.459l-.333-.006a.392.392,0,0,1-.288,0l0-.338c.027-.223.17-.318.376-.37.345-.087.4-.181.42-.533.012-.226-.067-.461.066-.676l.666-.009,0,1.928Z" transform="translate(-436.976 -547.354)" fill="#ef8516"/>
        <path id="Path_12536" data-name="Path 12536" d="M441.876,561.192l.006-1.535,1.144,0a1.836,1.836,0,0,0,.011.385,3.282,3.282,0,0,1,.128,1.18Z" transform="translate(-436.095 -549.253)" fill="#7f7f7f"/>
        <path id="Path_12537" data-name="Path 12537" d="M441.615,559.334c0,.278-.009.555,0,.833a.533.533,0,0,1-.366.594.644.644,0,0,0-.4.346c0-.608,0-1.216-.01-1.823,0-.118.024-.154.149-.115C441.2,559.234,441.406,559.281,441.615,559.334Z" transform="translate(-436.603 -549.499)" fill="#feb82d"/>
        <path id="Path_12538" data-name="Path 12538" d="M440.938,563.531c0,.263,0,.524,0,.787a.415.415,0,0,1-.378.463.56.56,0,0,0-.481.33c0-.254-.008-.509-.006-.763A.769.769,0,0,1,440.938,563.531Z" transform="translate(-436.978 -547.351)" fill="#feb82d"/>
        <path id="Path_12539" data-name="Path 12539" d="M440.077,564.815h.288c-.092.075-.2.043-.3.039A.056.056,0,0,1,440.077,564.815Z" transform="translate(-436.98 -546.719)" fill="#f39340"/>
        <path id="Path_12540" data-name="Path 12540" d="M446.5,564.559l.009,1.532a.339.339,0,0,1-.29.085c-.578,0-1.154,0-1.732,0a.339.339,0,0,1-.29-.085c0-.142,0-.285,0-.428a1.047,1.047,0,0,1,.76-1.057l.015.011c.036.019.031.113.115.048a.425.425,0,0,1,.306-.078A9.513,9.513,0,0,1,446.5,564.559Z" transform="translate(-434.957 -546.848)" fill="#feb82d"/>
        <path id="Path_12541" data-name="Path 12541" d="M445.139,564.587a2.311,2.311,0,0,0-.306.134c-.182.112-.1-.04-.115-.1A.491.491,0,0,1,445.139,564.587Z" transform="translate(-434.703 -546.847)" fill="#69655e"/>
        <path id="Path_12542" data-name="Path 12542" d="M445.721,566.6c.771,0,1.541,0,2.311,0a.581.581,0,0,0,.629-.234,2.383,2.383,0,0,1,.252-.257c.7-.7.7-.7.661-1.7a1.145,1.145,0,0,0-.16-.421c-.066-.154-.143-.3-.215-.454l3.51,0c.185.058.4.036.524.237a1.563,1.563,0,0,1-1.011,1.586,4.928,4.928,0,0,1-.894.136,1.843,1.843,0,0,0-1.345,1.015,1.389,1.389,0,0,1-.663.757,1.411,1.411,0,0,1-.558.113q-2.981,0-5.964,0c-.1,0-.208,0-.312.006l-1.384-1.928,2.879-.007c.034.064.073.125.1.191A1.44,1.44,0,0,0,445.721,566.6Z" transform="translate(-436.481 -547.355)" fill="gray"/>
        <path id="Path_12543" data-name="Path 12543" d="M449.8,563.769l-.524-.237H453.6a2.056,2.056,0,0,0-.6.322,1.27,1.27,0,0,0-.391,1.265,7.921,7.921,0,0,1,.078,1.5c0,.251-.164.37-.46.37q-1.919,0-3.84,0c-.1,0-.209,0-.312,0a1.807,1.807,0,0,1,1.474-.772,1.562,1.562,0,0,0,1.584-1.329.6.6,0,0,0-.391-.755C450.428,564.008,450.112,563.893,449.8,563.769Z" transform="translate(-433.065 -547.353)" fill="#dd4a48"/>
        <path id="Path_12544" data-name="Path 12544" d="M451.8,560.169c0-.134,0-.27.01-.4a.383.383,0,0,1,.764,0c.01.134.007.27.01.4,0,.246,0,.493-.009.741a.385.385,0,1,1-.768,0C451.8,560.662,451.8,560.416,451.8,560.169Z" transform="translate(-431.225 -549.379)" fill="#dfd9df"/>
        <path id="Path_12545" data-name="Path 12545" d="M450.638,567.271a.383.383,0,1,1-.37-.391A.385.385,0,0,1,450.638,567.271Z" transform="translate(-432.169 -545.708)" fill="#ded8de"/>
        <path id="Path_12546" data-name="Path 12546" d="M440.579,567.276a.383.383,0,1,1-.366-.4A.385.385,0,0,1,440.579,567.276Z" transform="translate(-437.105 -545.708)" fill="#ded8de"/>
      </g>
    </g>
  </g>
</svg>
