<svg id="location" xmlns="http://www.w3.org/2000/svg" width="18" height="18" viewBox="0 0 18 18">
  <rect id="Rectangle_17292" data-name="Rectangle 17292" width="18" height="18" fill="none"/>
  <g id="Group_8561" data-name="Group 8561" transform="translate(2.321 0)">
    <path id="Path_2666" data-name="Path 2666" d="M-406.029,348a11.862,11.862,0,0,1,1.3.258,6.509,6.509,0,0,1,4.753,5.086,6.741,6.741,0,0,1-.53,4.154,14.392,14.392,0,0,1-1.543,2.617q-1.944,2.75-3.889,5.5a.646.646,0,0,1-1.184,0c-1.395-1.976-2.8-3.947-4.185-5.928a10.7,10.7,0,0,1-1.706-3.548,6.512,6.512,0,0,1,3.257-7.3,6.832,6.832,0,0,1,2.608-.8.619.619,0,0,0,.117-.034Zm-.5,16.26c.054-.073.1-.131.143-.191q1.525-2.153,3.051-4.305a15.515,15.515,0,0,0,1.661-2.717,5.577,5.577,0,0,0,.34-4,5.452,5.452,0,0,0-5.733-3.76,5.338,5.338,0,0,0-4.6,7,10.162,10.162,0,0,0,1.432,2.742c1.2,1.713,2.416,3.417,3.626,5.125C-406.591,364.184-406.565,364.214-406.529,364.26Z" transform="translate(413.202 -348)" fill="#2c272e"/>
    <path id="Path_2668" data-name="Path 2668" d="M-385.281,385.57c-.036-.046-.062-.077-.085-.109-1.209-1.708-2.424-3.412-3.626-5.125a10.162,10.162,0,0,1-1.432-2.742,5.338,5.338,0,0,1,4.6-7,5.452,5.452,0,0,1,5.733,3.76,5.577,5.577,0,0,1-.34,4,15.517,15.517,0,0,1-1.661,2.717q-1.53,2.149-3.051,4.305C-385.181,385.439-385.227,385.5-385.281,385.57Zm0-13.028a3.513,3.513,0,0,0-3.495,3.511,3.5,3.5,0,0,0,3.5,3.5,3.5,3.5,0,0,0,3.5-3.506A3.513,3.513,0,0,0-385.286,372.541Z" transform="translate(391.954 -369.309)" fill="#dd4a48"/>
    <path id="Path_2669" data-name="Path 2669" d="M-352.721,406.03a3.513,3.513,0,0,1,3.5,3.5,3.5,3.5,0,0,1-3.5,3.506,3.5,3.5,0,0,1-3.5-3.5A3.513,3.513,0,0,1-352.721,406.03Zm0,5.754a2.25,2.25,0,0,0,2.249-2.236,2.26,2.26,0,0,0-2.248-2.263,2.261,2.261,0,0,0-2.25,2.241A2.251,2.251,0,0,0-352.717,411.784Z" transform="translate(359.39 -402.798)" fill="#2c272e"/>
  </g>
</svg>
