<svg xmlns="http://www.w3.org/2000/svg" width="16" height="16" viewBox="0 0 16 16">
  <g id="midtrans_" data-name="midtrans " transform="translate(-7087 -375.554)">
    <rect id="Rectangle_17514" data-name="Rectangle 17514" width="16" height="15.108" transform="translate(7087 376)" fill="none"/>
    <g id="Group_1" data-name="Group 1">
      <path id="Path_74" data-name="Path 74" d="M1.118,21.127A1.074,1.074,0,0,1,0,20.105V12.668a1.074,1.074,0,0,1,1.118-1.022,1.074,1.074,0,0,1,1.118,1.022v7.437a1.074,1.074,0,0,1-1.118,1.022" transform="translate(7087.172 367.164)" fill="#73bde4"/>
      <path id="Path_75" data-name="Path 75" d="M49.118,21.145A1.073,1.073,0,0,1,48,20.123v-7.43a1.123,1.123,0,0,1,2.237,0v7.43a1.073,1.073,0,0,1-1.118,1.022" transform="translate(7052.591 367.146)" fill="#00a0d6"/>
      <path id="Path_76" data-name="Path 76" d="M25.118,16A1.09,1.09,0,0,1,24,14.941V1.059a1.12,1.12,0,0,1,2.237,0V14.941A1.09,1.09,0,0,1,25.118,16" transform="translate(7069.882 375.554)" fill="#006eb8"/>
    </g>
  </g>
</svg>
