<svg id="Component_92_1" data-name="Component 92 – 1" xmlns="http://www.w3.org/2000/svg" xmlns:xlink="http://www.w3.org/1999/xlink" width="235" height="235" viewBox="0 0 235 235">
  <defs>
    <clipPath id="clip-path">
      <rect id="Rectangle_17788" data-name="Rectangle 17788" width="235" height="150.376" fill="none"/>
    </clipPath>
    <clipPath id="clip-path-6">
      <rect id="Rectangle_17781" data-name="Rectangle 17781" width="12.3" height="16.198" fill="none"/>
    </clipPath>
    <clipPath id="clip-path-7">
      <rect id="Rectangle_17782" data-name="Rectangle 17782" width="2.068" height="9.582" fill="none"/>
    </clipPath>
    <clipPath id="clip-path-9">
      <rect id="Rectangle_17784" data-name="Rectangle 17784" width="117.958" height="85.114" fill="none"/>
    </clipPath>
    <clipPath id="clip-path-10">
      <rect id="Rectangle_17785" data-name="Rectangle 17785" width="30.457" height="29.676" fill="none"/>
    </clipPath>
  </defs>
  <rect id="Rectangle_17789" data-name="Rectangle 17789" width="235" height="235" fill="none"/>
  <g id="Group_8845" data-name="Group 8845" transform="translate(0 42.312)">
    <g id="Group_8844" data-name="Group 8844" clip-path="url(#clip-path)">
      <rect id="Rectangle_17775" data-name="Rectangle 17775" width="52.735" height="77.651" transform="translate(8.337 54.377) rotate(-33.777)" fill="#f5f5f5"/>
      <path id="Path_15485" data-name="Path 15485" d="M151.322,216.632l-.5,3.079-21.791-3.139.5-3.078Z" transform="translate(-78.626 -130.09)" fill="#e0e0e0"/>
      <path id="Path_15486" data-name="Path 15486" d="M152.588,193.415l3.127.45-3.467,21.454-3.127-.45Z" transform="translate(-90.866 -117.856)" fill="#e0e0e0"/>
      <g id="Group_8821" data-name="Group 8821">
        <g id="Group_8820" data-name="Group 8820" clip-path="url(#clip-path)">
          <path id="Path_15487" data-name="Path 15487" d="M75.836,123.613c.031.047-4.362,3.04-9.81,6.684s-9.893,6.562-9.924,6.515,4.361-3.039,9.811-6.685,9.892-6.562,9.924-6.515" transform="translate(-34.185 -75.322)" fill="#e0e0e0"/>
          <path id="Path_15488" data-name="Path 15488" d="M96.812,113.254c.031.047-7.274,4.988-16.314,11.034S64.1,135.2,64.07,135.154s7.272-4.986,16.315-11.035,16.4-10.911,16.427-10.865" transform="translate(-39.04 -69.01)" fill="#e0e0e0"/>
          <path id="Path_15489" data-name="Path 15489" d="M105.083,125.621c.031.047-7.274,4.988-16.314,11.034s-16.4,10.913-16.428,10.866,7.272-4.986,16.315-11.035,16.4-10.911,16.427-10.865" transform="translate(-44.08 -76.546)" fill="#e0e0e0"/>
          <path id="Path_15490" data-name="Path 15490" d="M113.355,137.987c.031.047-7.274,4.988-16.314,11.034s-16.4,10.913-16.428,10.866,7.272-4.986,16.315-11.035,16.4-10.911,16.427-10.865" transform="translate(-49.121 -84.081)" fill="#e0e0e0"/>
          <path id="Path_15491" data-name="Path 15491" d="M121.626,150.354c.031.047-7.274,4.988-16.314,11.034s-16.4,10.913-16.428,10.866,7.272-4.986,16.315-11.035,16.4-10.911,16.427-10.865" transform="translate(-54.161 -91.617)" fill="#e0e0e0"/>
          <rect id="Rectangle_17776" data-name="Rectangle 17776" width="44.289" height="65.213" transform="translate(161.931 92.938) rotate(-33.777)" fill="#f5f5f5"/>
          <path id="Path_15492" data-name="Path 15492" d="M523.67,302.936l-.418,2.585-18.3-2.636.418-2.585Z" transform="translate(-307.688 -182.985)" fill="#e0e0e0"/>
          <path id="Path_15493" data-name="Path 15493" d="M524.733,283.438l2.626.378-2.912,18.018-2.626-.378Z" transform="translate(-317.967 -172.71)" fill="#e0e0e0"/>
          <path id="Path_15494" data-name="Path 15494" d="M460.274,224.816c.031.047-3.654,2.566-8.23,5.627s-8.312,5.505-8.344,5.458,3.653-2.566,8.231-5.627,8.312-5.5,8.343-5.458" transform="translate(-270.365 -136.989)" fill="#e0e0e0"/>
          <path id="Path_15495" data-name="Path 15495" d="M477.891,216.117c.031.047-6.1,4.2-13.692,9.28s-13.775,9.159-13.806,9.112,6.1-4.2,13.693-9.281,13.773-9.157,13.8-9.111" transform="translate(-274.443 -131.689)" fill="#e0e0e0"/>
          <path id="Path_15496" data-name="Path 15496" d="M484.837,226.5c.031.047-6.1,4.2-13.691,9.28s-13.775,9.159-13.806,9.112,6.1-4.2,13.693-9.281,13.773-9.157,13.8-9.111" transform="translate(-278.675 -138.017)" fill="#e0e0e0"/>
          <path id="Path_15497" data-name="Path 15497" d="M491.784,236.888c.031.047-6.1,4.2-13.691,9.28s-13.775,9.159-13.806,9.112,6.1-4.2,13.693-9.281,13.773-9.157,13.8-9.111" transform="translate(-282.908 -144.346)" fill="#e0e0e0"/>
          <path id="Path_15498" data-name="Path 15498" d="M498.73,247.273c.031.047-6.1,4.2-13.691,9.28s-13.775,9.159-13.806,9.112,6.1-4.2,13.693-9.281,13.773-9.158,13.8-9.111" transform="translate(-287.141 -150.674)" fill="#e0e0e0"/>
          <rect id="Rectangle_17777" data-name="Rectangle 17777" width="67.072" height="45.551" transform="translate(68.706 65.087) rotate(-61.862)" fill="#f5f5f5"/>
          <path id="Path_15499" data-name="Path 15499" d="M247.025,146.344l-2.548.873-6.469-17.882,2.548-.873Z" transform="translate(-145.028 -78.277)" fill="#e0e0e0"/>
          <path id="Path_15500" data-name="Path 15500" d="M243.39,141.4l.928,2.566-17.759,6.082-.928-2.566Z" transform="translate(-137.486 -86.16)" fill="#e0e0e0"/>
          <path id="Path_15501" data-name="Path 15501" d="M275.184,58.775c-.032.059-4.105-2.059-9.1-4.729s-9.017-4.884-8.985-4.943,4.1,2.058,9.1,4.73,9.016,4.883,8.984,4.942" transform="translate(-156.662 -29.92)" fill="#e0e0e0"/>
          <path id="Path_15502" data-name="Path 15502" d="M281.266,76.066c-.032.059-6.774-3.486-15.058-7.916s-14.977-8.071-14.945-8.13,6.772,3.485,15.059,7.917,14.975,8.071,14.944,8.129" transform="translate(-153.105 -36.572)" fill="#e0e0e0"/>
          <path id="Path_15503" data-name="Path 15503" d="M275.2,87.4c-.032.059-6.774-3.486-15.058-7.916s-14.977-8.071-14.945-8.13,6.772,3.485,15.059,7.917S275.236,87.339,275.2,87.4" transform="translate(-149.412 -43.477)" fill="#e0e0e0"/>
          <path id="Path_15504" data-name="Path 15504" d="M269.145,98.73c-.032.059-6.774-3.486-15.058-7.916s-14.977-8.071-14.945-8.13,6.772,3.485,15.059,7.917,14.975,8.071,14.944,8.129" transform="translate(-145.719 -50.382)" fill="#e0e0e0"/>
          <path id="Path_15505" data-name="Path 15505" d="M263.084,110.062c-.032.059-6.774-3.486-15.058-7.916s-14.977-8.071-14.945-8.13,6.772,3.485,15.059,7.917,14.975,8.071,14.944,8.129" transform="translate(-142.026 -57.287)" fill="#e0e0e0"/>
        </g>
      </g>
      <g id="Group_8823" data-name="Group 8823">
        <g id="Group_8822" data-name="Group 8822" clip-path="url(#clip-path)">
          <path id="Path_15506" data-name="Path 15506" d="M225.54,381.539c0,.056-50.493.1-112.765.1C50.482,381.64,0,381.595,0,381.539s50.482-.1,112.775-.1c62.272,0,112.765.045,112.765.1" transform="translate(0 -232.425)" fill="#263238"/>
        </g>
      </g>
      <g id="Group_8825" data-name="Group 8825">
        <g id="Group_8824" data-name="Group 8824" clip-path="url(#clip-path)">
          <path id="Path_15507" data-name="Path 15507" d="M29.7,319.07a4.924,4.924,0,0,1,3.432,1.758,8.694,8.694,0,0,1,1.747,3.52,15.339,15.339,0,0,1-.45,7.844c-2.674-.956-4.323-3.808-5.069-5.307-1.179-2.37-1.87-7.369.34-7.814" transform="translate(-17.217 -194.423)" fill="#dd4a48"/>
          <path id="Path_15508" data-name="Path 15508" d="M52.866,349.272a4.2,4.2,0,0,1-.2-4.214,5.577,5.577,0,0,1,3.36-2.7,2.349,2.349,0,0,1,1.978.095,1.8,1.8,0,0,1,.691,1.685,3.641,3.641,0,0,1-.769,1.728c-1.3,1.761-2.882,3.226-5.063,3.407" transform="translate(-31.807 -208.51)" fill="#dd4a48"/>
          <path id="Path_15509" data-name="Path 15509" d="M53.448,362.184a2.975,2.975,0,0,1-.12-.513l-.275-1.408a14.741,14.741,0,0,1-.293-4.728,9.025,9.025,0,0,1,1.754-4.382,6.133,6.133,0,0,1,1.015-1.025,3.619,3.619,0,0,1,.318-.229c.075-.049.116-.073.119-.067a9.561,9.561,0,0,0-1.348,1.4,9.318,9.318,0,0,0-1.674,4.327,15.879,15.879,0,0,0,.238,4.681c.1.6.173,1.082.217,1.418a2.779,2.779,0,0,1,.048.525" transform="translate(-32.094 -213.166)" fill="#263238"/>
          <path id="Path_15510" data-name="Path 15510" d="M34.159,328.695a1.072,1.072,0,0,1,.108.2l.275.6c.236.518.568,1.272.971,2.208.806,1.871,1.883,4.471,3.007,7.369s2.082,5.546,2.748,7.471c.333.963.6,1.744.772,2.286l.2.625a1.04,1.04,0,0,1,.057.222,1.083,1.083,0,0,1-.092-.21l-.231-.614-.827-2.265c-.7-1.913-1.674-4.551-2.8-7.448s-2.181-5.5-2.955-7.385l-.917-2.231-.243-.609a1.066,1.066,0,0,1-.073-.217" transform="translate(-20.814 -200.287)" fill="#263238"/>
          <path id="Path_15511" data-name="Path 15511" d="M31.184,360.063a9.827,9.827,0,0,0-7.626-4.738c-.791-.057-1.742.075-2.094.786a2.035,2.035,0,0,0,.657,2.136,8.4,8.4,0,0,0,9.092,2.029" transform="translate(-13.004 -216.507)" fill="#dd4a48"/>
          <path id="Path_15512" data-name="Path 15512" d="M30.095,360.751a2.528,2.528,0,0,1,.495.018,4.8,4.8,0,0,1,.577.067c.223.041.482.066.758.143a8.631,8.631,0,0,1,.9.25,9.7,9.7,0,0,1,1,.382,10.932,10.932,0,0,1,2.116,1.255A10.711,10.711,0,0,1,37.7,364.6a9.345,9.345,0,0,1,.616.881,7.939,7.939,0,0,1,.459.816,7.226,7.226,0,0,1,.314.7,4.413,4.413,0,0,1,.2.547,2.522,2.522,0,0,1,.129.478c-.039.014-.23-.669-.756-1.669a8.489,8.489,0,0,0-.472-.793,9.76,9.76,0,0,0-.62-.857,11.129,11.129,0,0,0-1.729-1.691,11.4,11.4,0,0,0-2.073-1.246,10.2,10.2,0,0,0-.983-.392c-.31-.119-.611-.193-.883-.268-1.1-.277-1.8-.315-1.8-.355" transform="translate(-18.338 -219.817)" fill="#263238"/>
        </g>
      </g>
      <g id="Group_8833" data-name="Group 8833">
        <g id="Group_8832" data-name="Group 8832" clip-path="url(#clip-path)">
          <path id="Path_15513" data-name="Path 15513" d="M474.9,46.079c-1.149.264-1.708,1.586-1.817,2.76a10.5,10.5,0,0,1-.452,3.484c-.555,1.205-1.88,2.094-1.924,3.419-.027.809.453,1.569.43,2.377-.038,1.328-1.392,2.331-1.463,3.658-.051.955.585,1.872.432,2.816a13.24,13.24,0,0,1-.933,2.018c-.482,1.4.482,2.949,1.738,3.739a5.7,5.7,0,0,0,8.3-2.652,11.637,11.637,0,0,0,.392-5.406q-.706-8.5-1.049-17.025" transform="translate(-285.808 -27.584)" fill="#212121"/>
          <path id="Path_15514" data-name="Path 15514" d="M475.489,68.04a1.377,1.377,0,0,0,.525-.624,2.215,2.215,0,0,0,.134-.954,5.285,5.285,0,0,0-.285-1.265,3.6,3.6,0,0,1-.2-1.6,3.65,3.65,0,0,1,.931-1.6,3.568,3.568,0,0,0,.527-.8,1.3,1.3,0,0,0,.061-.937c-.2-.638-.827-1.108-1.114-1.844a1.994,1.994,0,0,1-.063-1.14,4.626,4.626,0,0,1,.377-1.023,8.754,8.754,0,0,0,.776-1.838c.274-1.239.146-2.422.332-3.394a3.771,3.771,0,0,1,.988-2.082,2.223,2.223,0,0,1,.516-.368.922.922,0,0,1,.207-.077,3.176,3.176,0,0,0-.667.5,3.8,3.8,0,0,0-.9,2.049,12.948,12.948,0,0,0-.109,1.579,9.613,9.613,0,0,1-.183,1.834,8.737,8.737,0,0,1-.779,1.881,2.571,2.571,0,0,0-.3,2.006c.248.665.878,1.137,1.114,1.856a1.491,1.491,0,0,1-.073,1.074,3.717,3.717,0,0,1-.56.843A2.563,2.563,0,0,0,476,65.158a5.23,5.23,0,0,1,.26,1.3,2.233,2.233,0,0,1-.175.99,1.188,1.188,0,0,1-.4.493.65.65,0,0,1-.2.1" transform="translate(-289.734 -29.548)" fill="#455a64"/>
          <path id="Path_15515" data-name="Path 15515" d="M435.355,122.235,431.828,132.4l-14.706.788-2.453,5.457,15.353,1.553a5.8,5.8,0,0,0,7.676-3.4l4.1-11.437Z" transform="translate(-252.676 -74.483)" fill="#b78876"/>
          <path id="Path_15516" data-name="Path 15516" d="M502.854,262.513s-10.777-34.228-11.005-35.34c-.207-1,3.911-25.637,4.43-32.011l-14.562.543s0,.039,0,.106l-6.19.343,5.544,70h6.7l-.664-23.225a226.29,226.29,0,0,0,10.053,22.4Z" transform="translate(-289.758 -118.92)" fill="#b78876"/>
          <path id="Path_15517" data-name="Path 15517" d="M501.827,315.694c.006-.212-.081-7.782-.081-7.782-.084.453-2.569-6.572-2.509-7,.031-.221,2.59,14.781,2.59,14.781" transform="translate(-304.205 -183.357)" fill="#a36957"/>
          <path id="Path_15518" data-name="Path 15518" d="M498.429,292.4a1.566,1.566,0,0,0-.043.424,11.2,11.2,0,0,0,.009,1.161c.009.245.035.513.067.8s.076.594.142.912a15.575,15.575,0,0,0,.548,2.04c.486,1.416,1.023,2.654,1.4,3.553l.466,1.058a1.564,1.564,0,0,0,.2.377,1.609,1.609,0,0,0-.118-.409c-.09-.258-.227-.629-.4-1.085-.344-.914-.858-2.162-1.34-3.565a17.7,17.7,0,0,1-.557-2.009c-.071-.312-.116-.614-.16-.9s-.073-.546-.093-.788c-.046-.483-.067-.877-.079-1.149a1.594,1.594,0,0,0-.044-.424" transform="translate(-303.68 -178.173)" fill="#a36957"/>
          <path id="Path_15519" data-name="Path 15519" d="M482.2,376.331l0-.629,6.864-.3.019,2.6-.423.029c-1.884.11-9.588.428-10.848.05-1.406-.422,4.392-1.746,4.392-1.746" transform="translate(-291.015 -228.748)" fill="#455a64"/>
          <path id="Path_15520" data-name="Path 15520" d="M489.176,381.639a.639.639,0,0,1-.117.013l-.337.021-1.241.058c-1.048.041-2.5.08-4.1.087s-3.051-.019-4.1-.051l-1.242-.047-.337-.019a.637.637,0,0,1-.118-.012.659.659,0,0,1,.118,0l.338,0,1.242.021c1.049.018,2.5.034,4.1.027s3.048-.036,4.1-.062l1.241-.032.338-.006a.647.647,0,0,1,.118,0" transform="translate(-291.014 -232.546)" fill="#263238"/>
          <path id="Path_15521" data-name="Path 15521" d="M482.675,380.546a1.807,1.807,0,0,0-.659-1.065,1.1,1.1,0,0,1,.659,1.065" transform="translate(-293.712 -231.232)" fill="#263238"/>
          <path id="Path_15522" data-name="Path 15522" d="M488.28,378.689c-.019.013-.116-.1-.216-.261s-.166-.293-.147-.305.116.1.216.261.166.294.146.306" transform="translate(-297.306 -230.405)" fill="#263238"/>
          <path id="Path_15523" data-name="Path 15523" d="M489.595,378.223c-.015.017-.123-.054-.241-.16s-.2-.2-.186-.222.123.054.241.16.2.2.186.221" transform="translate(-298.069 -230.233)" fill="#263238"/>
          <path id="Path_15524" data-name="Path 15524" d="M490.04,377.112a1.563,1.563,0,1,1-.357-.036.8.8,0,0,1,.357.036" transform="translate(-298.167 -229.768)" fill="#263238"/>
          <path id="Path_15525" data-name="Path 15525" d="M490.2,375.994a1,1,0,0,1-.808.064,28.431,28.431,0,0,0,.808-.064" transform="translate(-298.204 -229.104)" fill="#263238"/>
          <path id="Path_15526" data-name="Path 15526" d="M486.244,377.1a1.261,1.261,0,0,1-.439,0,2.572,2.572,0,0,1-.468-.1,1.306,1.306,0,0,1-.268-.109.237.237,0,0,1-.109-.136.172.172,0,0,1,.066-.175.8.8,0,0,1,1,.232.778.778,0,0,1,.144.292.246.246,0,0,1,.012.118,1.244,1.244,0,0,0-.2-.373.79.79,0,0,0-.375-.242.681.681,0,0,0-.523.037c-.07.052-.042.134.036.18a1.336,1.336,0,0,0,.247.1,3.042,3.042,0,0,0,.452.116c.263.046.43.045.43.059" transform="translate(-295.503 -229.41)" fill="#263238"/>
          <path id="Path_15527" data-name="Path 15527" d="M487.876,376.782a.432.432,0,0,1-.052-.3.72.72,0,0,1,.118-.321.441.441,0,0,1,.365-.225.175.175,0,0,1,.136.2.485.485,0,0,1-.074.2,1.351,1.351,0,0,1-.206.266.63.63,0,0,1-.251.179c-.008-.011.087-.079.208-.218a1.54,1.54,0,0,0,.183-.264c.06-.093.1-.26-.01-.279s-.221.1-.288.187a.717.717,0,0,0-.123.286,1.6,1.6,0,0,0-.006.3" transform="translate(-297.249 -229.07)" fill="#263238"/>
          <path id="Path_15528" data-name="Path 15528" d="M503.1,376.794c0,.016-.2-.018-.5.02a2.141,2.141,0,0,0-1.784,1.432c-.1.293-.112.49-.128.488a.385.385,0,0,1,0-.138,1.8,1.8,0,0,1,.073-.369,2.076,2.076,0,0,1,1.833-1.472,1.8,1.8,0,0,1,.376.008.4.4,0,0,1,.134.03" transform="translate(-305.086 -229.569)" fill="#263238"/>
          <path id="Path_15529" data-name="Path 15529" d="M495.349,380.239a5.61,5.61,0,0,1-2,.011c0-.024.448.005,1,0s.995-.036,1-.012" transform="translate(-300.621 -231.69)" fill="#263238"/>
          <path id="Path_15530" data-name="Path 15530" d="M501.584,380.211c.017.017-.036.095-.081.2s-.07.193-.093.192-.036-.108.018-.226.142-.18.157-.163" transform="translate(-305.518 -231.677)" fill="#263238"/>
          <path id="Path_15531" data-name="Path 15531" d="M502.769,378.6c.016.016-.027.087-.1.159s-.141.117-.157.1.027-.087.1-.159.141-.117.157-.1" transform="translate(-306.201 -230.694)" fill="#263238"/>
          <path id="Path_15532" data-name="Path 15532" d="M504.41,377.8c0,.023-.1.023-.2.058s-.173.09-.191.074.039-.11.164-.152.229,0,.222.02" transform="translate(-307.12 -230.187)" fill="#263238"/>
          <path id="Path_15533" data-name="Path 15533" d="M506.01,377.488c.008.022-.031.057-.087.079s-.109.023-.117,0,.03-.057.087-.079.109-.023.118,0" transform="translate(-308.207 -230.01)" fill="#263238"/>
          <path id="Path_15534" data-name="Path 15534" d="M524.994,370.524l-.261-.573,6.139-3.084,1.081,2.36-.375.2c-1.674.872-8.571,4.318-9.876,4.489-1.456.191,3.291-3.392,3.291-3.392" transform="translate(-317.726 -223.547)" fill="#455a64"/>
          <path id="Path_15535" data-name="Path 15535" d="M531.976,372.441a.623.623,0,0,1-.1.06l-.3.158-1.108.561c-.939.467-2.245,1.1-3.7,1.758s-2.79,1.233-3.76,1.633l-1.152.466-.315.121a.613.613,0,0,1-.112.037.632.632,0,0,1,.106-.052l.309-.136,1.141-.49c.964-.414,2.292-.992,3.749-1.654s2.765-1.281,3.711-1.735l1.12-.538.306-.144a.639.639,0,0,1,.109-.045" transform="translate(-317.726 -226.943)" fill="#263238"/>
          <path id="Path_15536" data-name="Path 15536" d="M525.564,381.495a1.806,1.806,0,0,0-1.037-.7,1.1,1.1,0,0,1,1.037.7" transform="translate(-319.616 -232.027)" fill="#263238"/>
          <path id="Path_15537" data-name="Path 15537" d="M529.919,377.51c-.012.019-.149-.048-.3-.15s-.271-.2-.259-.219.149.048.3.15.271.2.259.219" transform="translate(-322.558 -229.806)" fill="#263238"/>
          <path id="Path_15538" data-name="Path 15538" d="M530.927,376.541c-.007.022-.135,0-.286-.047s-.268-.1-.26-.126.135,0,.286.047.268.1.261.126" transform="translate(-323.183 -229.332)" fill="#263238"/>
          <path id="Path_15539" data-name="Path 15539" d="M530.9,374.945c.01.021-.127.105-.306.188a.8.8,0,0,1-.341.114c-.01-.021.127-.105.306-.189a.8.8,0,0,1,.341-.113" transform="translate(-323.107 -228.466)" fill="#263238"/>
          <path id="Path_15540" data-name="Path 15540" d="M530.6,373.763c.015.015-.111.159-.315.27a.689.689,0,0,1-.4.12,2.186,2.186,0,0,1,.356-.192,2.223,2.223,0,0,1,.355-.2" transform="translate(-322.885 -227.748)" fill="#263238"/>
          <path id="Path_15541" data-name="Path 15541" d="M527.529,376.524a1.27,1.27,0,0,1-.4.179,2.591,2.591,0,0,1-.468.1,1.286,1.286,0,0,1-.289.01.238.238,0,0,1-.155-.079.173.173,0,0,1-.012-.187.8.8,0,0,1,1-.2.777.777,0,0,1,.251.207c.047.061.064.1.059.1a1.237,1.237,0,0,0-.336-.258.79.79,0,0,0-.442-.067.68.68,0,0,0-.461.248c-.042.076.016.139.106.149a1.309,1.309,0,0,0,.268-.006,2.969,2.969,0,0,0,.46-.08c.259-.066.411-.135.417-.122" transform="translate(-320.625 -229.267)" fill="#263238"/>
          <path id="Path_15542" data-name="Path 15542" d="M529.067,375.627a.433.433,0,0,1-.172-.257.72.72,0,0,1-.023-.341.44.44,0,0,1,.241-.354c.1-.03.327.167.343.241s-.116.036-.123.1a1.345,1.345,0,0,1-.079.327.626.626,0,0,1-.156.265c-.011-.006.047-.107.1-.284a1.532,1.532,0,0,0,.059-.316c.017-.109-.014-.278-.123-.251s-.161.181-.186.289a.725.725,0,0,0,0,.311,1.631,1.631,0,0,0,.116.272" transform="translate(-322.257 -228.302)" fill="#263238"/>
          <path id="Path_15543" data-name="Path 15543" d="M543.687,368.231c.005.015-.186.064-.452.224a2.142,2.142,0,0,0-1.04,2.037c.026.31.1.493.083.5a.39.39,0,0,1-.057-.125,1.821,1.821,0,0,1-.084-.366,2.075,2.075,0,0,1,1.07-2.094,1.79,1.79,0,0,1,.346-.146.408.408,0,0,1,.135-.027" transform="translate(-330.336 -224.377)" fill="#263238"/>
          <path id="Path_15544" data-name="Path 15544" d="M537.011,374.769a5.612,5.612,0,0,1-1.816.827c-.007-.023.411-.179.911-.408s.893-.44.905-.42" transform="translate(-326.116 -228.361)" fill="#263238"/>
          <path id="Path_15545" data-name="Path 15545" d="M542.835,373.333c.022.008.006.1.007.213s.016.2-.007.213-.077-.084-.076-.213.056-.222.076-.213" transform="translate(-330.725 -227.487)" fill="#263238"/>
          <path id="Path_15546" data-name="Path 15546" d="M543.253,371.337c.021.008.011.091-.024.185s-.08.164-.1.157-.011-.091.024-.185.08-.164.1-.157" transform="translate(-330.943 -226.271)" fill="#263238"/>
          <path id="Path_15547" data-name="Path 15547" d="M544.367,369.889c0,.023-.078.06-.155.134s-.12.152-.143.145-.01-.116.087-.206.209-.095.211-.073" transform="translate(-331.518 -225.382)" fill="#263238"/>
          <path id="Path_15548" data-name="Path 15548" d="M545.651,369.039c.016.016-.005.064-.048.107s-.09.066-.106.05,0-.064.047-.107.09-.066.107-.05" transform="translate(-332.391 -224.867)" fill="#263238"/>
          <path id="Path_15549" data-name="Path 15549" d="M485.015,122.821l-1.143-13.945,5.871.1a23.333,23.333,0,0,0-.593-6.566,7.612,7.612,0,0,0-4.438-5.47v-.037l-.179-.046a16.781,16.781,0,0,0-5.377-1.4l-7.206.084s-5.505-.687-8.552,3.237c-1.174,1.512-4.806,11.859-4.806,11.859l8.65,4.166-.824-5.738a27.256,27.256,0,0,0,.695,5.478c.3.734,1.152,3.014,1.152,3.014l-.111,6.881Z" transform="translate(-279.438 -58.166)" fill="#dd4a48"/>
          <path id="Path_15550" data-name="Path 15550" d="M514.385,119.816l-1.07,4.557h10.091l-.664-7.64Z" transform="translate(-312.784 -71.13)" fill="#e8505b"/>
          <path id="Path_15551" data-name="Path 15551" d="M524.89,135.952a7.535,7.535,0,0,0-1.336-.132c-.827-.049-1.971-.089-3.236-.084s-2.41.061-3.236.127a7.236,7.236,0,0,0-1.332.164,8.961,8.961,0,0,0,1.341-.007c.826-.025,1.967-.055,3.228-.061s2.4.01,3.23.018a8.506,8.506,0,0,0,1.341-.025" transform="translate(-314.268 -82.709)" fill="#263238"/>
          <path id="Path_15552" data-name="Path 15552" d="M514.884,116.637a5.961,5.961,0,0,0-.034,1.159c.007.715.033,1.7.076,2.792s.093,2.077.141,2.79a5.979,5.979,0,0,0,.123,1.153,6.053,6.053,0,0,0,.034-1.159c-.007-.715-.034-1.7-.076-2.793s-.093-2.076-.141-2.789a5.973,5.973,0,0,0-.123-1.153" transform="translate(-313.718 -71.072)" fill="#263238"/>
          <g id="Group_8828" data-name="Group 8828" transform="translate(191.983 49.512)" opacity="0.3">
            <g id="Group_8827" data-name="Group 8827">
              <g id="Group_8826" data-name="Group 8826" clip-path="url(#clip-path-6)">
                <path id="Path_15553" data-name="Path 15553" d="M491.435,126.741s2.243,16.63,8.548,16.189c0,0,2.839-.034,3.752-1.92v-.743Z" transform="translate(-491.435 -126.741)"/>
              </g>
            </g>
          </g>
          <g id="Group_8831" data-name="Group 8831" transform="translate(199.959 46.545)" opacity="0.3">
            <g id="Group_8830" data-name="Group 8830">
              <g id="Group_8829" data-name="Group 8829" clip-path="url(#clip-path-7)">
                <path id="Path_15554" data-name="Path 15554" d="M513.057,119.146,511.85,127.3l.781,1.43,1.286-2.8-.544-.013Z" transform="translate(-511.85 -119.146)"/>
              </g>
            </g>
          </g>
          <path id="Path_15555" data-name="Path 15555" d="M480.2,135.594a1.722,1.722,0,0,1-.17-.389c-.1-.255-.228-.627-.379-1.091a33.165,33.165,0,0,1-.965-3.69,26.565,26.565,0,0,1-.478-3.786c-.023-.488-.031-.883-.023-1.156a1.686,1.686,0,0,1,.029-.424c.032,0,.054.6.138,1.57a35.191,35.191,0,0,0,.534,3.756c.29,1.454.638,2.752.9,3.688l.317,1.109a1.705,1.705,0,0,1,.095.414" transform="translate(-291.378 -76.202)" fill="#263238"/>
          <path id="Path_15556" data-name="Path 15556" d="M489.066,161.669c-.054.016-.21-.343-.349-.8a1.933,1.933,0,0,1-.154-.86c.054-.016.21.342.348.8a1.942,1.942,0,0,1,.154.86" transform="translate(-297.691 -97.499)" fill="#263238"/>
          <path id="Path_15557" data-name="Path 15557" d="M491.749,160.3a3.6,3.6,0,0,1-.036-2.437,79.215,79.215,0,0,0,.036,2.437" transform="translate(-299.502 -96.19)" fill="#263238"/>
          <path id="Path_15558" data-name="Path 15558" d="M467.3,138.525c-.025.05-2.038-.9-4.5-2.133s-4.43-2.265-4.405-2.315,2.038.9,4.5,2.133,4.43,2.264,4.4,2.315" transform="translate(-279.32 -81.698)" fill="#263238"/>
          <path id="Path_15559" data-name="Path 15559" d="M485.565,69.338c.045-1.976.056-4.058.056-4.058s-2.535-.489-2.977-3.824c-.421-3.181.757-10.644.757-10.644a8.909,8.909,0,0,1,10.088,2.869l-.63,16.046a3.444,3.444,0,0,1-3.727,3.19,3.639,3.639,0,0,1-3.568-3.579" transform="translate(-294.04 -30.616)" fill="#b78876"/>
          <path id="Path_15560" data-name="Path 15560" d="M484.23,66.384a.426.426,0,0,0,.4.44.407.407,0,0,0,.449-.373.426.426,0,0,0-.4-.441.408.408,0,0,0-.45.373" transform="translate(-295.061 -40.222)" fill="#263238"/>
          <path id="Path_15561" data-name="Path 15561" d="M483.815,64.87c.052.057.38-.173.839-.16s.788.251.84.2c.025-.024-.026-.125-.17-.236a1.171,1.171,0,0,0-.67-.226,1.123,1.123,0,0,0-.669.2c-.144.1-.194.2-.169.229" transform="translate(-294.805 -39.268)" fill="#263238"/>
          <path id="Path_15562" data-name="Path 15562" d="M496.136,67.125a.427.427,0,0,0,.4.441.408.408,0,0,0,.449-.373.426.426,0,0,0-.4-.441.408.408,0,0,0-.449.373" transform="translate(-302.316 -40.674)" fill="#263238"/>
          <path id="Path_15563" data-name="Path 15563" d="M496.048,65.612c.052.057.381-.173.839-.161s.788.251.84.2c.025-.024-.026-.126-.17-.236a1.171,1.171,0,0,0-.67-.226,1.127,1.127,0,0,0-.67.2c-.143.1-.194.2-.169.229" transform="translate(-302.259 -39.72)" fill="#263238"/>
          <path id="Path_15564" data-name="Path 15564" d="M489.766,68.921a3.035,3.035,0,0,0-.741-.154c-.117-.015-.227-.041-.245-.121a.6.6,0,0,1,.087-.345l.369-.882a15.336,15.336,0,0,0,.838-2.312,15.375,15.375,0,0,0-1.022,2.239q-.186.465-.355.888a.675.675,0,0,0-.073.458.294.294,0,0,0,.188.176.813.813,0,0,0,.2.033,2.983,2.983,0,0,0,.755.02" transform="translate(-297.728 -39.672)" fill="#263238"/>
          <path id="Path_15565" data-name="Path 15565" d="M490.406,87.063a8.454,8.454,0,0,0,4.479-1.072s-1.138,2.254-4.454,1.857Z" transform="translate(-298.825 -52.398)" fill="#a36957"/>
          <path id="Path_15566" data-name="Path 15566" d="M497.307,61.933c-.094.143-.443.08-.833.01s-.737-.148-.772-.316.365-.384.886-.284.814.455.719.59" transform="translate(-302.05 -37.364)" fill="#263238"/>
          <path id="Path_15567" data-name="Path 15567" d="M485.49,60.606c-.036.167-.409.228-.839.25s-.808-.009-.859-.172.313-.415.831-.438.9.2.867.36" transform="translate(-294.792 -36.709)" fill="#263238"/>
          <path id="Path_15568" data-name="Path 15568" d="M491.151,77.651a.232.232,0,0,0-.254.116.26.26,0,1,0,.156-.125" transform="translate(-299.105 -47.305)" fill="#a36957"/>
          <path id="Path_15569" data-name="Path 15569" d="M491.029,77.643c.021-.018-.073-.13-.273-.087a.347.347,0,0,0-.251.245.393.393,0,0,0,.138.415.387.387,0,0,0,.44,0,.33.33,0,0,0,.141-.326c-.04-.206-.193-.239-.2-.21s.053.1.039.219a.173.173,0,0,1-.093.144.2.2,0,0,1-.2-.009.206.206,0,0,1-.07-.189.2.2,0,0,1,.105-.145c.108-.061.2-.032.219-.061" transform="translate(-298.876 -47.252)" fill="#263238"/>
          <path id="Path_15570" data-name="Path 15570" d="M492.975,53.556c-.4.916-1.359,1.621-1.226,2.61.086.638.5,1.233.416,1.872-.1.8-.934,1.359-1.052,2.158-.145.981.81,1.744,1.191,2.66.556,1.333-.155,2.833-.172,4.277a4.587,4.587,0,0,0,4.061,4.461,2.477,2.477,0,0,0,2.359-.962,9.855,9.855,0,0,0,.534-2.137c.341-1.046,1.337-1.811,1.547-2.89.383-1.968-2-3.6-1.839-5.595a13.87,13.87,0,0,1,.818-2.425,3.553,3.553,0,0,0-.7-3.161c-.587-.7-1.438-1.157-1.938-1.92a8.4,8.4,0,0,1-.8-2.973,7.49,7.49,0,0,0-11.9-4.387,2.432,2.432,0,0,0,2.075,3.005c2.643.43,3.867-.066,4.166.993a2.8,2.8,0,0,0,.792,2.419c1.093,1.182,2.12.935,1.662,2" transform="translate(-295.061 -26.57)" fill="#212121"/>
          <path id="Path_15571" data-name="Path 15571" d="M510.551,82.645a1.052,1.052,0,0,1-.241-.025,3.528,3.528,0,0,1-.672-.182,4.734,4.734,0,0,1-2.045-1.514,5.338,5.338,0,0,1-.869-1.547,6.2,6.2,0,0,1-.356-2.006,8.168,8.168,0,0,1,.282-2.231,9.763,9.763,0,0,1,.374-1.13,11.225,11.225,0,0,0,.429-1.122,2.115,2.115,0,0,0,0-1.146,6.259,6.259,0,0,0-.445-1.07,7.16,7.16,0,0,1-.455-1.059,2.287,2.287,0,0,1-.082-1.122,7.972,7.972,0,0,1,.866-1.84,3.5,3.5,0,0,0,.354-1.664,3.931,3.931,0,0,0-.871-2.3,6.9,6.9,0,0,0-.663-.646,2.685,2.685,0,0,1,.724.595,3.914,3.914,0,0,1,.955,2.349,3.617,3.617,0,0,1-.345,1.744,8.094,8.094,0,0,0-.834,1.8,3.293,3.293,0,0,0,.532,2.058,6.34,6.34,0,0,1,.461,1.1,2.311,2.311,0,0,1,.005,1.251,11.192,11.192,0,0,1-.437,1.145,9.6,9.6,0,0,0-.369,1.107,8.084,8.084,0,0,0-.287,2.177,5.636,5.636,0,0,0,1.15,3.466,4.825,4.825,0,0,0,1.961,1.53c.553.223.889.257.884.28" transform="translate(-308.419 -37.802)" fill="#455a64"/>
          <path id="Path_15572" data-name="Path 15572" d="M498.277,53.538a2.763,2.763,0,0,1-.582.087,6.051,6.051,0,0,1-1.609-.042,3.059,3.059,0,0,1-2.03-1.232,6.6,6.6,0,0,1-.533-1.312,2.166,2.166,0,0,0-.89-1.1,6.341,6.341,0,0,0-2.74-.715,4.757,4.757,0,0,1-2.277-.709,2.254,2.254,0,0,1-.932-1.3,1.4,1.4,0,0,1-.03-.441c.014-.1.025-.152.032-.15a2.813,2.813,0,0,0,.075.572A2.25,2.25,0,0,0,487.7,48.4a4.743,4.743,0,0,0,2.216.641,6.353,6.353,0,0,1,2.829.731,2.354,2.354,0,0,1,.965,1.2,6.724,6.724,0,0,0,.5,1.282,2.952,2.952,0,0,0,1.9,1.192,6.833,6.833,0,0,0,1.577.1,4.031,4.031,0,0,1,.587-.008" transform="translate(-296.534 -28.408)" fill="#455a64"/>
          <path id="Path_15573" data-name="Path 15573" d="M498.426,49.566a1.2,1.2,0,0,1-.458.067,2.8,2.8,0,0,1-1.959-.782,3.7,3.7,0,0,1-.606-.808,3.366,3.366,0,0,0-1.422-1.63,4.669,4.669,0,0,0-2.189-.192,6.72,6.72,0,0,1-1.868-.016,2.322,2.322,0,0,1-1.152-.517,1.311,1.311,0,0,1-.23-.258c-.044-.066-.064-.1-.058-.105s.109.125.338.3a2.4,2.4,0,0,0,1.126.436,7.04,7.04,0,0,0,1.828-.029,4.7,4.7,0,0,1,2.287.193A2.254,2.254,0,0,1,495,47a10.427,10.427,0,0,1,.569.947,3.657,3.657,0,0,0,.563.784,2.692,2.692,0,0,0,.672.5,2.9,2.9,0,0,0,1.171.327c.291.016.454-.006.456.012" transform="translate(-297.653 -27.617)" fill="#455a64"/>
          <path id="Path_15574" data-name="Path 15574" d="M516.1,83.508c-.02-.009.1-.261.249-.741a6.722,6.722,0,0,0,.26-2.094,6.43,6.43,0,0,0-.833-2.983c-.285-.512-.72-.968-1.074-1.529a2.772,2.772,0,0,1-.393-.943,2.133,2.133,0,0,1,.087-1.055,12.312,12.312,0,0,0,.7-1.862,2.568,2.568,0,0,0-.507-1.694,7.866,7.866,0,0,1-.418-.776,2.809,2.809,0,0,1-.221-.816,7.238,7.238,0,0,1,.044-1.49,3.939,3.939,0,0,0-.185-2.076,1.89,1.89,0,0,0-.461-.612s.018,0,.047.023a.77.77,0,0,1,.124.089,1.439,1.439,0,0,1,.361.465,3.87,3.87,0,0,1,.257,2.123,7.335,7.335,0,0,0-.02,1.457,3.71,3.71,0,0,0,.633,1.517,5.174,5.174,0,0,1,.425.83,1.971,1.971,0,0,1,.118.986,11.691,11.691,0,0,1-.7,1.9,1.929,1.929,0,0,0-.081.956,2.587,2.587,0,0,0,.364.875c.335.54.772,1,1.066,1.541a6.449,6.449,0,0,1,.815,3.073,6.331,6.331,0,0,1-.329,2.121,4.636,4.636,0,0,1-.225.54.765.765,0,0,1-.1.178" transform="translate(-312.798 -39.508)" fill="#455a64"/>
          <path id="Path_15575" data-name="Path 15575" d="M475.317,216.012s-2.631-24.94-2.782-34.156,4.144-18.309,4.144-18.309l16.831-.712s3.327,9.351,3.386,13.278c.116,7.633-2.028,15.17-1.781,21.226l.563,18.673" transform="translate(-287.933 -99.222)" fill="#212121"/>
          <path id="Path_15576" data-name="Path 15576" d="M499.724,220.47a2.174,2.174,0,0,1-.275.208l-.154.108c-.052.045-.1.1-.163.157a2.524,2.524,0,0,0-.375.42,9.317,9.317,0,0,0-1.316,3.338,11.268,11.268,0,0,1-.852,2.373,4.283,4.283,0,0,1-.374.591c-.073.094-.14.194-.22.284l-.259.259a4.187,4.187,0,0,1-1.266.812c-.942.413-2.006.609-2.977,1.1a4.7,4.7,0,0,0-2.16,2.462c-.474,1.058-.761,2.17-1.157,3.207a5.811,5.811,0,0,1-1.757,2.664,4.824,4.824,0,0,1-2.755.863c-.906.053-1.745.027-2.5.141a3.944,3.944,0,0,0-1.884.711,2.624,2.624,0,0,0-.875,1.233,1.845,1.845,0,0,0-.065.958c.043.219.105.324.091.33a.986.986,0,0,1-.131-.32,1.811,1.811,0,0,1,.029-.991,2.678,2.678,0,0,1,.88-1.3,4.028,4.028,0,0,1,1.933-.765c.766-.125,1.615-.107,2.508-.167a4.671,4.671,0,0,0,2.652-.844,5.654,5.654,0,0,0,1.684-2.586c.389-1.025.674-2.139,1.158-3.22a4.892,4.892,0,0,1,2.256-2.556c1.01-.5,2.074-.691,2.993-1.091a4.011,4.011,0,0,0,1.218-.771l.249-.245c.077-.086.142-.182.212-.272a4.136,4.136,0,0,0,.365-.567,11.3,11.3,0,0,0,.862-2.331,9.06,9.06,0,0,1,1.393-3.348,2.456,2.456,0,0,1,.4-.416c.062-.055.116-.11.172-.152l.162-.1a2.108,2.108,0,0,1,.3-.175" transform="translate(-291.416 -134.341)" fill="#fafafa"/>
          <path id="Path_15577" data-name="Path 15577" d="M497.32,190.927a2.022,2.022,0,0,1,.022.334,4.149,4.149,0,0,1-.117.954,6.169,6.169,0,0,1-1.9,2.94,11.281,11.281,0,0,1-1.971,1.44c-.754.447-1.586.874-2.439,1.355a12.766,12.766,0,0,0-2.494,1.754,9.634,9.634,0,0,0-1.89,2.656,24.48,24.48,0,0,1-1.638,2.887,6.9,6.9,0,0,1-1.068,1.181,6.721,6.721,0,0,1-1.27.846,15.706,15.706,0,0,1-2.615,1c-.835.259-1.614.487-2.3.772a8.954,8.954,0,0,0-1.751.938,5.443,5.443,0,0,0-1.1,1.013,5.265,5.265,0,0,0-.659,1.1,2.055,2.055,0,0,1,.109-.317,3.892,3.892,0,0,1,.488-.828,5.342,5.342,0,0,1,1.1-1.057,8.842,8.842,0,0,1,1.761-.978c.687-.3,1.47-.536,2.3-.8a15.807,15.807,0,0,0,2.579-1.008,6.592,6.592,0,0,0,1.231-.827,6.715,6.715,0,0,0,1.033-1.15,24.745,24.745,0,0,0,1.621-2.866,9.784,9.784,0,0,1,1.932-2.7,12.8,12.8,0,0,1,2.54-1.772c.86-.48,1.693-.9,2.445-1.337a11.3,11.3,0,0,0,1.959-1.4,6.222,6.222,0,0,0,1.922-2.854,6.038,6.038,0,0,0,.172-1.268" transform="translate(-288.909 -116.34)" fill="#fafafa"/>
          <path id="Path_15578" data-name="Path 15578" d="M472.522,183.021a.249.249,0,0,1-.034-.076,1.673,1.673,0,0,1-.037-1.169,3.829,3.829,0,0,1,2.474-2.281c.693-.238,1.479-.382,2.3-.6a4.305,4.305,0,0,0,3.184-2.369,11.952,11.952,0,0,0,.583-1.4,15.277,15.277,0,0,1,1.239-3,4.784,4.784,0,0,1,2.549-1.981,23.369,23.369,0,0,1,2.924-.741,9.668,9.668,0,0,0,2.543-.866,5.327,5.327,0,0,0,1.721-1.55,5.808,5.808,0,0,0,1.093-3.165,9.028,9.028,0,0,0-.083-1.249,4.125,4.125,0,0,1,.162,1.25,5.771,5.771,0,0,1-1.055,3.246,5.44,5.44,0,0,1-1.756,1.614,9.737,9.737,0,0,1-2.583.9,23.867,23.867,0,0,0-2.9.745,4.6,4.6,0,0,0-2.446,1.9,15.343,15.343,0,0,0-1.223,2.955,12.021,12.021,0,0,1-.6,1.426,5.153,5.153,0,0,1-.874,1.212,5.1,5.1,0,0,1-2.44,1.231c-.831.209-1.612.344-2.3.569a3.785,3.785,0,0,0-2.444,2.168,1.909,1.909,0,0,0-.075.9c.044.205.079.313.07.316" transform="translate(-287.835 -99.066)" fill="#fafafa"/>
          <path id="Path_15579" data-name="Path 15579" d="M499.218,268.887a1.1,1.1,0,0,1,.027.245,2.584,2.584,0,0,1-.072.705,4.01,4.01,0,0,1-1.477,2.111,6.575,6.575,0,0,1-1.549.92c-.6.255-1.256.458-1.945.673a16.046,16.046,0,0,0-2.113.771,6.1,6.1,0,0,0-1.923,1.4c-.57.6-1.062,1.249-1.607,1.825a7.356,7.356,0,0,1-1.8,1.409,7.911,7.911,0,0,1-3.715.966,7.347,7.347,0,0,1-2.557-.425,4.661,4.661,0,0,1-.649-.278,1.06,1.06,0,0,1-.215-.119,1.136,1.136,0,0,1,.232.082,6.216,6.216,0,0,0,.657.24,7.7,7.7,0,0,0,2.529.356,7.894,7.894,0,0,0,3.626-.986,7.23,7.23,0,0,0,1.747-1.382c.534-.567,1.024-1.219,1.606-1.829A6.258,6.258,0,0,1,492,274.132a15.836,15.836,0,0,1,2.143-.77c.691-.21,1.347-.405,1.935-.649a6.539,6.539,0,0,0,1.525-.877,4.025,4.025,0,0,0,1.489-2.018,4.605,4.605,0,0,0,.121-.93" transform="translate(-292.254 -163.844)" fill="#fafafa"/>
          <path id="Path_15580" data-name="Path 15580" d="M498.729,105.774l-3.255.077a5.318,5.318,0,0,1-.736,1.846,56.182,56.182,0,0,1-5.355-13.6c.076-.254.166-.535.279-.849a3.6,3.6,0,0,0-.043-1.43c-.091-.566-.25-1.328-.3-1.681-.145-1.075-.318-1.244-.693-1.122-.51.165.209,3.018-.209,3.08-.225.034-.5-.944-.579-1.746s-.442-3.269-.708-3.434c-.389-.241-.727.14-.629.939s.225,3.219-.2,3.251-.768-4.058-.768-4.058.066-.89-.425-.868c-.885.038-.194,4.35-.118,4.759.053.284-.407.336-.447.028s-.255-4.09-1.157-4.06c-.691.023.536,3.553.148,4.371s-.658-2.779-1.319-2.73c-.246.019-.427.066.025,2.1a45.875,45.875,0,0,0,1.579,4.772c1.047,5.645,5.64,23.7,12.841,20.4,4.03-1.849,5.665-10.048,5.665-10.048Z" transform="translate(-293.683 -52.514)" fill="#b78876"/>
          <path id="Path_15581" data-name="Path 15581" d="M489.07,91.166a.221.221,0,0,0,.094-.013.21.21,0,0,0,.147-.226c-.009-.242-.047-.6-.1-1.052a14.989,14.989,0,0,1-.18-1.664c-.005-.327,0-.679.022-1.051a3.618,3.618,0,0,1,.057-.563c.03-.177.149-.379.286-.355l.015,0h.007c.139-.007.248.1.292.267a1.537,1.537,0,0,1,.051.523v.012a31.65,31.65,0,0,0,.418,3.262c.032.146.064.293.109.441a2.174,2.174,0,0,0,.081.224.693.693,0,0,0,.066.116.212.212,0,0,0,.163.1.292.292,0,0,0,.246-.205,1.179,1.179,0,0,0,.073-.24,3.67,3.67,0,0,0,.063-.477,14.249,14.249,0,0,0-.026-1.954,4.5,4.5,0,0,1-.041-.979.54.54,0,0,1,.192-.364.211.211,0,0,1,.168-.021.383.383,0,0,1,.093.04.126.126,0,0,1,.043.057,4.888,4.888,0,0,1,.271.982c.069.346.129.7.184,1.054s.105.717.148,1.08a7.6,7.6,0,0,0,.18,1.111,3.792,3.792,0,0,0,.176.552,1,1,0,0,0,.161.276.232.232,0,0,0,.234.085.25.25,0,0,0,.159-.175,1.909,1.909,0,0,0,.041-.608c-.008-.194-.024-.386-.041-.577-.028-.329-.059-.655-.07-.975a3.277,3.277,0,0,1,.012-.47.746.746,0,0,1,.047-.2.177.177,0,0,1,.037-.058c.006-.007.01,0,.015-.01l.051-.014c.259-.107.345.253.414.544s.1.616.159.924c.1.615.234,1.227.3,1.815a2.092,2.092,0,0,1-.034.841l-.274.838-.008.025.006.027a45.192,45.192,0,0,0,1.748,5.649c.618,1.667,1.237,3.107,1.783,4.286s1.032,2.088,1.37,2.708l.407.7a1.7,1.7,0,0,0,.151.235,1.619,1.619,0,0,0-.12-.252l-.377-.714c-.318-.629-.786-1.544-1.313-2.728s-1.13-2.626-1.734-4.293a46.362,46.362,0,0,1-1.709-5.63l0,.051.274-.827a2.27,2.27,0,0,0,.048-.935c-.07-.611-.2-1.2-.3-1.822-.06-.306-.1-.62-.161-.94a1.835,1.835,0,0,0-.159-.484.47.47,0,0,0-.216-.217.478.478,0,0,0-.308-.013l-.066.018a.358.358,0,0,0-.089.05.38.38,0,0,0-.1.139.938.938,0,0,0-.065.266,3.477,3.477,0,0,0-.013.5c.011.331.043.659.071.987.016.191.032.381.04.568a1.81,1.81,0,0,1-.029.525c-.01.041-.029.033-.007.053v0c0-.013,0,.02,0,.014v0a.039.039,0,0,1,0-.014s.011-.017.005-.018a.07.07,0,0,1-.023-.021.835.835,0,0,1-.12-.212,3.6,3.6,0,0,1-.166-.519,7.312,7.312,0,0,1-.176-1.083c-.044-.368-.095-.73-.151-1.088s-.118-.713-.189-1.064a4.84,4.84,0,0,0-.3-1.043.35.35,0,0,0-.123-.138.6.6,0,0,0-.145-.061.425.425,0,0,0-.331.046.732.732,0,0,0-.289.508,1.867,1.867,0,0,0-.006.536c.02.167.036.33.048.495a14.181,14.181,0,0,1,.036,1.924,3.481,3.481,0,0,1-.057.451,1.042,1.042,0,0,1-.059.2.269.269,0,0,1-.043.073c-.014.032-.027-.008-.025.045.02-.04,0-.018-.014-.052a.528.528,0,0,1-.047-.081,1.982,1.982,0,0,1-.074-.2c-.044-.139-.077-.282-.108-.424a32.456,32.456,0,0,1-.441-3.237v.012a1.673,1.673,0,0,0-.064-.581.593.593,0,0,0-.153-.26.4.4,0,0,0-.289-.106l.021,0a.338.338,0,0,0-.337.161.852.852,0,0,0-.12.3,3.726,3.726,0,0,0-.052.587c-.014.375-.017.729-.006,1.06a13.949,13.949,0,0,0,.216,1.672c.068.454.119.806.141,1.043a.185.185,0,0,1-.114.2c-.055.024-.087.027-.086.032" transform="translate(-297.911 -52.462)" fill="#a36957"/>
          <path id="Path_15582" data-name="Path 15582" d="M411.864,150.1a8.392,8.392,0,0,0-2.263.259c-2.017.531-5.5,2.642-5.644,5.249h2.53s-1.417,3.015-1,2.736a32.47,32.47,0,0,0,3.23-2.909Z" transform="translate(-246.148 -91.457)" fill="#b78876"/>
          <path id="Path_15583" data-name="Path 15583" d="M511.221,19.312c-.056.005-.286-2.087-.513-4.671s-.366-4.684-.31-4.689.285,2.086.513,4.671.366,4.684.31,4.689" transform="translate(-310.999 -6.064)" fill="#263238"/>
          <path id="Path_15584" data-name="Path 15584" d="M528.764,10.279c.046.032-1.663,2.513-3.817,5.54s-3.937,5.455-3.983,5.422,1.663-2.512,3.817-5.54,3.937-5.454,3.983-5.422" transform="translate(-317.445 -6.263)" fill="#263238"/>
          <path id="Path_15585" data-name="Path 15585" d="M538.775,39.048c.011.055-1.983.511-4.454,1.019s-4.484.875-4.5.82,1.983-.511,4.455-1.019,4.484-.875,4.5-.82" transform="translate(-322.844 -23.791)" fill="#263238"/>
        </g>
      </g>
      <g id="Group_8841" data-name="Group 8841">
        <g id="Group_8840" data-name="Group 8840" clip-path="url(#clip-path)">
          <path id="Path_15586" data-name="Path 15586" d="M188.257,168.934l-13.814,71.021-1.808,9.3,92.22-.455c4.139-.02,7.807-3.7,9.138-9.155l16.353-67.051c1.011-4.145-1.208-8.456-4.349-8.452l-93.337.1c-2.061,0-3.863,1.925-4.4,4.7" transform="translate(-105.194 -100.017)" fill="#e8505b"/>
          <g id="Group_8836" data-name="Group 8836" transform="translate(67.441 64.122)" opacity="0.5">
            <g id="Group_8835" data-name="Group 8835">
              <g id="Group_8834" data-name="Group 8834" clip-path="url(#clip-path-9)">
                <path id="Path_15587" data-name="Path 15587" d="M188.257,168.934l-13.814,71.021-1.808,9.3,92.22-.455c4.139-.02,7.807-3.7,9.138-9.155l16.353-67.051c1.011-4.145-1.208-8.456-4.349-8.452l-93.337.1c-2.061,0-3.863,1.925-4.4,4.7" transform="translate(-172.635 -164.139)"/>
              </g>
            </g>
          </g>
          <path id="Path_15588" data-name="Path 15588" d="M203.366,214.4,193.6,135.722a6.193,6.193,0,0,0-6-5.619l-21.411.07a5.835,5.835,0,0,0-4.229,1.876l-10.167,10.808-59.547.311A6.334,6.334,0,0,0,86.3,150.5l9.065,72.722a6.193,6.193,0,0,0,5.993,5.615l103.777-.205c11.558.239,12.662-3.174,12.662-3.174-13.246,2.936-14.426-11.043-14.427-11.052" transform="translate(-52.551 -79.277)" fill="#dd4a48"/>
          <g id="Group_8839" data-name="Group 8839" transform="translate(75.611 94.296)" opacity="0.5">
            <g id="Group_8838" data-name="Group 8838">
              <g id="Group_8837" data-name="Group 8837" clip-path="url(#clip-path-10)">
                <path id="Path_15589" data-name="Path 15589" d="M224,267.76l-3.5,3.759-26.957-24.25,3.5-3.759Z" transform="translate(-193.547 -242.677)" fill="#fff"/>
                <path id="Path_15590" data-name="Path 15590" d="M220.75,241.377l3.868,3.48-24.391,26.2-3.868-3.48Z" transform="translate(-195.261 -241.377)" fill="#fff"/>
              </g>
            </g>
          </g>
        </g>
      </g>
      <g id="Group_8843" data-name="Group 8843">
        <g id="Group_8842" data-name="Group 8842" clip-path="url(#clip-path)">
          <path id="Path_15591" data-name="Path 15591" d="M418.98,29.03a.73.73,0,0,1-.442-.639l-.156-3.627a.728.728,0,0,1,.9-.741,2.264,2.264,0,0,0,1.764-.348,2.04,2.04,0,0,0,.912-1.336,2.087,2.087,0,0,0-.438-1.568,2.328,2.328,0,0,0-1.54-.927,2.732,2.732,0,0,0-2.773,1.968.729.729,0,0,1-1.407-.382,4.2,4.2,0,0,1,4.347-3.034,3.76,3.76,0,0,1,2.535,1.5,3.547,3.547,0,0,1,.715,2.682,3.5,3.5,0,0,1-1.542,2.313,3.812,3.812,0,0,1-1.977.645l.121,2.8a.73.73,0,0,1-1.015.7" transform="translate(-253.345 -11.195)" fill="#dd4a48"/>
          <path id="Path_15592" data-name="Path 15592" d="M424.864,48.58a.6.6,0,1,1-.636-.554.6.6,0,0,1,.636.554" transform="translate(-258.161 -29.263)" fill="#dd4a48"/>
          <path id="Path_15593" data-name="Path 15593" d="M391.827,12.721a1.543,1.543,0,0,0,.035-.238c.018-.17.044-.4.077-.7a8.229,8.229,0,0,1,.189-1.123c.051-.219.078-.462.158-.708l.242-.789a13.435,13.435,0,0,1,1.943-3.722,13.1,13.1,0,0,1,12.11-5.1c.3.029.595.109.9.161a6.116,6.116,0,0,1,.9.217,12.427,12.427,0,0,1,3.494,1.584,13.07,13.07,0,0,1,5.164,6.485,12.749,12.749,0,0,1,.766,4.457,12.52,12.52,0,0,1-.817,4.587l-.176.446-.023.059.024.055,2.872,6.615.164-.187-5.85-2.248-.072-.028-.057.055a13.08,13.08,0,0,1-5.525,3.189,13,13,0,0,1-10.548-1.637,13.394,13.394,0,0,1-3.294-3.067,14.383,14.383,0,0,1-1.8-3.266A14.534,14.534,0,0,1,392,15.1q-.069-.572-.123-1.016-.012-.438-.02-.747c-.006-.192-.011-.343-.015-.457a.827.827,0,0,0-.013-.155.867.867,0,0,0-.009.155c0,.114,0,.266-.006.459s0,.457,0,.75q.045.448.1,1.025a14.2,14.2,0,0,0,.668,2.759,14.383,14.383,0,0,0,1.791,3.321,13.486,13.486,0,0,0,3.318,3.133,13.156,13.156,0,0,0,10.708,1.71,13.291,13.291,0,0,0,5.636-3.235l-.129.027,5.847,2.257.295.114-.13-.3-2.869-6.617v.114l.18-.456a12.793,12.793,0,0,0,.834-4.689,13.019,13.019,0,0,0-.787-4.554A13.3,13.3,0,0,0,412,2.086a12.629,12.629,0,0,0-3.562-1.6,6.323,6.323,0,0,0-.915-.217c-.306-.052-.607-.132-.911-.161a12.867,12.867,0,0,0-8.124,1.588,13.134,13.134,0,0,0-4.132,3.652,13.382,13.382,0,0,0-1.924,3.782q-.122.423-.232.8c-.077.249-.1.495-.148.716a7.791,7.791,0,0,0-.165,1.133c-.021.3-.038.532-.05.7a1.532,1.532,0,0,0-.008.239" transform="translate(-238.746 0)" fill="#263238"/>
        </g>
      </g>
    </g>
  </g>
</svg>
