<svg xmlns="http://www.w3.org/2000/svg" width="45" height="45" viewBox="0 0 45 45">
  <g id="notification" transform="translate(-6044 345)">
    <rect id="Rectangle_17474" data-name="Rectangle 17474" width="45" height="45" transform="translate(6044 -345)" fill="none"/>
    <g id="Group_8615" data-name="Group 8615" transform="translate(67 1)">
      <circle id="Ellipse_235" data-name="Ellipse 235" cx="15" cy="15" r="15" transform="translate(5987 -340)" fill="#dd4a48"/>
      <circle id="Ellipse_236" data-name="Ellipse 236" cx="2.5" cy="2.5" r="2.5" transform="translate(6017 -345)" fill="#dd4a48"/>
      <circle id="Ellipse_237" data-name="Ellipse 237" cx="1.5" cy="1.5" r="1.5" transform="translate(6004 -305)" fill="#dd4a48"/>
      <circle id="Ellipse_238" data-name="Ellipse 238" cx="3" cy="3" r="3" transform="translate(5977 -340)" fill="#dd4a48"/>
      <g id="Group_8616" data-name="Group 8616" transform="translate(5934.627 -656.603)">
        <path id="Path_12452" data-name="Path 12452" d="M67.373,336.95q-3.008,0-6.016,0a1.156,1.156,0,0,1-.327-.032.631.631,0,0,1-.47-.528.582.582,0,0,1,.28-.662,2.659,2.659,0,0,0,1.38-2.215,9.974,9.974,0,0,0,.1-1.384c.016-.858,0-1.715,0-2.573a4.72,4.72,0,0,1,3.94-4.694c.21-.037.214-.141.214-.3a.892.892,0,1,1,1.782-.053c.012.3.012.3.3.363a4.745,4.745,0,0,1,3.806,4,5.121,5.121,0,0,1,.045.728c.005.829,0,1.658,0,2.486a6.909,6.909,0,0,0,.27,2.145,2.275,2.275,0,0,0,1.174,1.476.639.639,0,0,1,.324.709.664.664,0,0,1-.554.529,1.694,1.694,0,0,1-.26.015Z" transform="translate(0 0)" fill="#fff"/>
        <path id="Path_12453" data-name="Path 12453" d="M103.292,443.457a2.358,2.358,0,0,1-4.566,0Z" transform="translate(-33.637 -105.61)" fill="#fff"/>
      </g>
    </g>
  </g>
</svg>
