<svg xmlns="http://www.w3.org/2000/svg" width="24" height="24.002" viewBox="0 0 24 24.002">
  <path id="order_placed" d="M19,6H17.774A3.395,3.395,0,0,0,13.559.68a5.754,5.754,0,0,0-1.547,1.813A5.743,5.743,0,0,0,10.465.68,3.394,3.394,0,0,0,6.253,6H5a5.006,5.006,0,0,0-5,5v8a5.006,5.006,0,0,0,5,5H19a5.006,5.006,0,0,0,5-5V11A5.006,5.006,0,0,0,19,6ZM14.76,2.28A1.389,1.389,0,0,1,15.6,2a1.577,1.577,0,0,1,1.123.56,1.464,1.464,0,0,1-.343,2.013A5.469,5.469,0,0,1,13.019,6h-.013a.986.986,0,0,0,.017-.283l0-.021A5.487,5.487,0,0,1,14.76,2.281ZM7.676,4.6a1.477,1.477,0,0,1-.37-2.037,1.394,1.394,0,0,1,.922-.546,1.411,1.411,0,0,1,1.038.267A5.5,5.5,0,0,1,11.006,5.7l0,.021A.986.986,0,0,0,11.021,6h-.013A5.42,5.42,0,0,1,7.676,4.6ZM5,8h5.824C10.073,9.95,7.158,10,7,10a1,1,0,0,0,0,2,6.775,6.775,0,0,0,5-2.056A6.771,6.771,0,0,0,17,12a1,1,0,0,0,0-2c-.142,0-3.078-.026-3.827-2H19a3,3,0,0,1,3,3v6H2V11A3,3,0,0,1,5,8ZM19,22H5a3,3,0,0,1-3-3H22A3,3,0,0,1,19,22Z" transform="translate(0 0.002)" fill="#fab44d"/>
</svg>
