<svg xmlns="http://www.w3.org/2000/svg" width="24" height="24" viewBox="0 0 24 24">
  <g id="order_pickup" transform="translate(-12395 -713)">
    <rect id="Rectangle_17563" data-name="Rectangle 17563" width="24" height="24" transform="translate(12395 713)" fill="none"/>
    <path id="location-alt" d="M32.332,15.993a3,3,0,0,0,1.342-.314l2-1a2.986,2.986,0,0,0,1.658-2.686V9.026a2.985,2.985,0,0,0-1.658-2.683l-2-1a3.014,3.014,0,0,0-2.683,0l-2,1a2.985,2.985,0,0,0-1.659,2.683v2.967a2.986,2.986,0,0,0,1.658,2.684l2,1A3,3,0,0,0,32.332,15.993Zm-3-4V9.026a1,1,0,0,1,.051-.3l2.18,1.09a1.72,1.72,0,0,0,1.538,0l2.18-1.09a1,1,0,0,1,.051.3v2.967a.994.994,0,0,1-.553.895l-2,1a1.009,1.009,0,0,1-.895,0l-2-1A.994.994,0,0,1,29.332,11.993Zm10,10H36.623l3.487-3.222a11,11,0,1,0-15.556,0l3.487,3.222H25.332a1,1,0,0,0,0,2h14a1,1,0,1,0,0-2ZM25.968,4.63a9,9,0,0,1,12.757,12.7L34.74,21.01a3.513,3.513,0,0,1-4.837-.017l-3.935-3.636A9.01,9.01,0,0,1,25.968,4.63Z" transform="translate(12374.668 713.007)" fill="#5e8df1"/>
  </g>
</svg>
