<svg xmlns="http://www.w3.org/2000/svg" width="24" height="24" viewBox="0 0 24 24">
  <path id="order_prepared" d="M1.331,7.238C.483,5.522-1.2,1.269,1.2.15A1.944,1.944,0,0,1,3.324.573l4.952,5.3A1,1,0,0,1,6.876,7.3L2,2.08c.119,3.777,2.339,6.6,4.833,9.439a1,1,0,0,1-1.388,1.446A24.521,24.521,0,0,1,1.331,7.238ZM17.977,16.2a1.256,1.256,0,0,0-1.088-.4,8.03,8.03,0,0,1-3.453-.29.982.982,0,0,0-.979.254c-1.492,2.256,3.269,2.113,4.305,2.08l5.474,5.839a1,1,0,1,0,1.456-1.371Zm-3-2.2a4.978,4.978,0,0,0,3.53-1.462L23.67,7.366A1,1,0,0,0,22.258,5.95L17.1,11.122a2.992,2.992,0,0,1-3.4.576l6.98-6.991a1,1,0,1,0-1.412-1.414l-6.982,6.991a3,3,0,0,1,.575-3.406l5.166-5.171A1,1,0,1,0,16.61.293L11.446,5.464a5.016,5.016,0,0,0-.634,6.293L.292,22.293A1,1,0,1,0,1.7,23.707L12.224,13.171A4.987,4.987,0,0,0,14.977,14Z" transform="translate(0.037)" fill="#dd4a48"/>
</svg>
