<svg xmlns="http://www.w3.org/2000/svg" width="24" height="24" viewBox="0 0 24 24">
  <path id="order_confirmed" d="M12,24a5.489,5.489,0,0,1-4.208-1.959,5.262,5.262,0,0,1-4.277-1.555,5.5,5.5,0,0,1-1.59-4.362A5.27,5.27,0,0,1,0,12,5.487,5.487,0,0,1,1.96,7.792,5.269,5.269,0,0,1,3.515,3.515a5.473,5.473,0,0,1,4.361-1.59A5.273,5.273,0,0,1,12,0a5.489,5.489,0,0,1,4.208,1.959,5.27,5.27,0,0,1,4.277,1.555,5.5,5.5,0,0,1,1.59,4.362A5.27,5.27,0,0,1,24,12a5.487,5.487,0,0,1-1.96,4.208,5.269,5.269,0,0,1-1.555,4.277,5.5,5.5,0,0,1-4.361,1.59A5.273,5.273,0,0,1,12,24ZM7.873,20.076a1.877,1.877,0,0,1,1.448.676,3.5,3.5,0,0,0,5.358,0,1.882,1.882,0,0,1,1.616-.67,3.5,3.5,0,0,0,3.788-3.788,1.876,1.876,0,0,1,.67-1.617,3.5,3.5,0,0,0,0-5.356,1.878,1.878,0,0,1-.67-1.617A3.5,3.5,0,0,0,16.3,3.916a1.872,1.872,0,0,1-1.617-.669,3.5,3.5,0,0,0-5.358,0,1.892,1.892,0,0,1-1.616.67A3.5,3.5,0,0,0,3.917,7.705a1.876,1.876,0,0,1-.67,1.617,3.5,3.5,0,0,0,0,5.356,1.878,1.878,0,0,1,.67,1.617A3.5,3.5,0,0,0,7.7,20.083c.057,0,.113-.007.169-.007ZM12.8,15.135l4.739-4.568a1,1,0,0,0-1.389-1.44L11.4,13.708a1.008,1.008,0,0,1-1.44-.025L7.681,11.566A1,1,0,0,0,6.32,13.031l2.252,2.092A3,3,0,0,0,10.7,16a2.966,2.966,0,0,0,2.1-.866Z" fill="#30b184"/>
</svg>
