<svg xmlns="http://www.w3.org/2000/svg" width="13.559" height="16" viewBox="0 0 13.559 16">
  <g id="paypal-seeklogo.com" transform="translate(-0.035 -0.816)">
    <path id="Path_12504" data-name="Path 12504" d="M11.58,2.022C10.839,1.178,9.5.816,7.787.816H2.814a.712.712,0,0,0-.7.6L.041,14.547a.427.427,0,0,0,.422.493h3.07l.771-4.89-.024.153a.71.71,0,0,1,.7-.6H6.439c2.866,0,5.11-1.164,5.765-4.531q.029-.149.051-.291h0a3.178,3.178,0,0,0-.674-2.859" transform="translate(0 0)" fill="#27346a"/>
    <path id="Path_12505" data-name="Path 12505" d="M5.478,4.432a.624.624,0,0,1,.269-.061h3.9a8.139,8.139,0,0,1,1.286.093q.169.027.328.063t.309.079c.05.015.1.03.147.046a3.522,3.522,0,0,1,.539.228,3.178,3.178,0,0,0-.674-2.859C10.839,1.178,9.5.816,7.787.816H2.814a.712.712,0,0,0-.7.6L.041,14.547a.427.427,0,0,0,.421.494h3.07L5.132,4.9A.623.623,0,0,1,5.478,4.432Z" transform="translate(0 0)" fill="#27346a"/>
    <path id="Path_12506" data-name="Path 12506" d="M70.618,77.563c-.655,3.367-2.9,4.531-5.765,4.531H63.394a.709.709,0,0,0-.7.6l-.959,6.08a.374.374,0,0,0,.369.432h2.588a.623.623,0,0,0,.615-.525l.025-.132.488-3.091.031-.171a.623.623,0,0,1,.615-.525h.387c2.507,0,4.47-1.018,5.043-3.964a3.376,3.376,0,0,0-.518-2.98,2.472,2.472,0,0,0-.709-.547c-.015.1-.031.192-.051.291Z" transform="translate(-58.414 -72.391)" fill="#2790c3"/>
    <path id="Path_12507" data-name="Path 12507" d="M87.153,67.935q-.15-.044-.309-.079c-.106-.023-.216-.044-.328-.062a8.091,8.091,0,0,0-1.286-.094h-3.9a.623.623,0,0,0-.615.526l-.828,5.253-.024.153a.709.709,0,0,1,.7-.6h1.459c2.866,0,5.11-1.164,5.765-4.531.02-.1.036-.2.051-.291a3.54,3.54,0,0,0-.539-.227c-.048-.016-.1-.031-.147-.046" transform="translate(-75.584 -63.327)" fill="#1f264f"/>
  </g>
</svg>
