<svg xmlns="http://www.w3.org/2000/svg" width="16" height="16" viewBox="0 0 16 16">
  <g id="paystack" transform="translate(-1497 678)">
    <rect id="Rectangle_17535" data-name="Rectangle 17535" width="16" height="16" transform="translate(1497 -678)" fill="none"/>
    <g id="Group_8633" data-name="Group 8633" transform="translate(1497 -677.846)">
      <path id="Path_12480" data-name="Path 12480" d="M606.614,678.857h-7.03a.879.879,0,0,1-.961-.965q0-.635,0-1.27a.877.877,0,0,1,.948-.942h14.1a.879.879,0,0,1,.952.957q0,.616,0,1.232a.883.883,0,0,1-.977.988Z" transform="translate(-598.622 -671.505)" fill="#09a4da"/>
      <path id="Path_12481" data-name="Path 12481" d="M606.21,785.4H612.8a.847.847,0,0,1,.943.948c0,.448,0,.9,0,1.345a.833.833,0,0,1-.879.882q-6.68,0-13.359,0a.868.868,0,0,1-.9-.913c0-.442,0-.884,0-1.326a.873.873,0,0,1,.932-.937Z" transform="translate(-598.607 -777.059)" fill="#09a4da"/>
      <path id="Path_12482" data-name="Path 12482" d="M606.208,568.9h-6.614a.879.879,0,0,1-.969-.975q0-.625,0-1.251a.9.9,0,0,1,.958-.961h13.247a.866.866,0,0,1,.935.93q0,.654,0,1.308a.844.844,0,0,1-.942.949Z" transform="translate(-598.624 -565.714)" fill="#09a4da"/>
      <path id="Path_12483" data-name="Path 12483" d="M603.244,898.312h-3.6a.911.911,0,0,1-1.023-1.029c0-.411,0-.821,0-1.232a.868.868,0,0,1,.923-.924h7.43a.832.832,0,0,1,.9.909q0,.663,0,1.327a.871.871,0,0,1-.956.949Q605.082,898.314,603.244,898.312Z" transform="translate(-598.619 -882.619)" fill="#09a4da"/>
    </g>
  </g>
</svg>
