<svg xmlns="http://www.w3.org/2000/svg" width="16" height="16" viewBox="0 0 16 16">
  <g id="paytm" transform="translate(-1594 678.013)">
    <rect id="Rectangle_17537" data-name="Rectangle 17537" width="16" height="16" transform="translate(1594 -678.013)" fill="none"/>
    <g id="Group_8634" data-name="Group 8634" transform="translate(1594 -672.448)">
      <path id="Path_12499" data-name="Path 12499" d="M768.836,738.868a1.168,1.168,0,0,1,.178-.124,1.062,1.062,0,0,1,.645-.127,1.035,1.035,0,0,1,.63.3c.016.016.025.014.04,0a1.053,1.053,0,0,1,.85-.3,1.065,1.065,0,0,1,.945.822.933.933,0,0,1,.021.2q0,1.511,0,3.022a.158.158,0,0,1-.165.163h-.688a.161.161,0,0,1-.175-.173c0-.136,0-.272,0-.408q0-1.163,0-2.326a.247.247,0,0,0-.157-.252.41.41,0,0,0-.324.005.26.26,0,0,0-.146.263c0,.243,0,.485,0,.728,0,.431,0,.862,0,1.293q0,.352,0,.7a.161.161,0,0,1-.122.169.173.173,0,0,1-.047,0c-.227,0-.455,0-.682,0a.17.17,0,0,1-.179-.18q0-1.361,0-2.721a.277.277,0,0,0-.091-.221.244.244,0,0,0-.12-.059.561.561,0,0,0-.206,0,.258.258,0,0,0-.21.261c0,.145,0,.291,0,.436,0,.77,0,1.54,0,2.31a.163.163,0,0,1-.165.166h-.691a.16.16,0,0,1-.169-.169v-3.845a.156.156,0,0,1,.166-.167h.694a.153.153,0,0,1,.165.164Z" transform="translate(-756.159 -737.971)" fill="#54c0ef"/>
      <path id="Path_12500" data-name="Path 12500" d="M723.917,741.236h0q0-.676,0-1.353a1.336,1.336,0,0,0-.045-.341.84.84,0,0,0-.5-.589,1.406,1.406,0,0,0-.542-.1c-.313,0-.626,0-.939,0-.039,0-.078,0-.116,0a.15.15,0,0,0-.145.149q0,.331,0,.662a.152.152,0,0,0,.1.144.221.221,0,0,0,.1.016h.9a.159.159,0,0,1,.162.16c0,.022,0,.044,0,.066a.155.155,0,0,1-.164.163h-.4a1.407,1.407,0,0,0-.306.027.993.993,0,0,0-.612.384.972.972,0,0,0-.181.589q0,.394,0,.788a1.461,1.461,0,0,0,.011.185.911.911,0,0,0,.882.823c.1.007.2,0,.3,0h1.087a.417.417,0,0,0,.428-.426C723.912,742.136,723.917,741.686,723.917,741.236Zm-1.031.681a.165.165,0,0,1-.171.173h-.292a.163.163,0,0,1-.17-.173q0-.144,0-.289c0-.1,0-.192,0-.288a.164.164,0,0,1,.17-.172h.292a.164.164,0,0,1,.171.172Z" transform="translate(-718.279 -738.166)" fill="#233266"/>
      <path id="Path_12501" data-name="Path 12501" d="M740.377,740.5v1.447a1.1,1.1,0,0,1-.15.581.972.972,0,0,1-.657.458,1.239,1.239,0,0,1-.262.025H738.18a.16.16,0,0,1-.177-.177q0-.336,0-.672a.161.161,0,0,1,.178-.179l1,0a.168.168,0,0,0,.17-.215.164.164,0,0,0-.154-.117c-.181,0-.362,0-.543-.006a.993.993,0,0,1-.95-.835,1.271,1.271,0,0,1-.019-.222q0-.794,0-1.588a.158.158,0,0,1,.174-.173c.224,0,.448,0,.672,0a.17.17,0,0,1,.182.18c0,.475,0,.95,0,1.425a.179.179,0,0,0,.193.192c.085,0,.17,0,.254,0a.168.168,0,0,0,.186-.187V739a.234.234,0,0,1,.008-.071.156.156,0,0,1,.151-.111h.71a.158.158,0,0,1,.159.169Q740.377,739.743,740.377,740.5Z" transform="translate(-731.672 -738.142)" fill="#233266"/>
      <path id="Path_12502" data-name="Path 12502" d="M708.229,739.814a1.2,1.2,0,0,0-.014-.209.894.894,0,0,0-.43-.65,1.03,1.03,0,0,0-.544-.136c-.5,0-1.007,0-1.511,0a.17.17,0,0,0-.181.183c0,.636,0,1.272,0,1.908v1.911c0,.125.056.181.182.181h.669a.23.23,0,0,0,.053,0,.157.157,0,0,0,.122-.167q0-.517,0-1.035c0-.026.005-.033.032-.033.211,0,.423,0,.635,0a1,1,0,0,0,.6-.178.9.9,0,0,0,.377-.747C708.234,740.5,708.229,740.155,708.229,739.814Zm-1.031.744a.165.165,0,0,1-.171.174c-.141,0-.283,0-.424,0-.025,0-.023-.013-.023-.029q0-.207,0-.414c0-.137,0-.274,0-.411,0-.021,0-.029.027-.029h.418a.165.165,0,0,1,.173.173Q707.2,740.291,707.2,740.557Z" transform="translate(-705.549 -738.14)" fill="#233266"/>
      <path id="Path_12503" data-name="Path 12503" d="M755.807,735.217c0,.207,0,.414,0,.621,0,.03.007.039.037.038.119,0,.239,0,.358,0a.159.159,0,0,1,.17.168q0,.345,0,.691a.16.16,0,0,1-.17.169c-.116,0-.232,0-.349,0-.031,0-.04.006-.04.039q0,.744,0,1.488h0c0,.491,0,.981,0,1.472a.164.164,0,0,1-.177.178h-.663a.163.163,0,0,1-.162-.092.185.185,0,0,1-.013-.083q0-1,0-1.99,0-.488,0-.976c0-.027-.006-.036-.034-.035-.127,0-.253,0-.38,0a.161.161,0,0,1-.175-.176v-.678a.161.161,0,0,1,.174-.174,1.024,1.024,0,0,0,.543-.136,1,1,0,0,0,.288-.285,1.767,1.767,0,0,1,.2-.258" transform="translate(-745.105 -735.197)" fill="#54c0ef"/>
    </g>
  </g>
</svg>
