<svg xmlns="http://www.w3.org/2000/svg" width="16" height="16" viewBox="0 0 16 16">
  <g id="phonepe-logo-icon" transform="translate(-0.012 -0.002)">
    <path id="Path_228" data-name="Path 228" d="M9.85.218A8,8,0,1,0,15.8,9.842,8,8,0,0,0,9.85.218Z" transform="translate(0 0)" fill="#5f259f"/>
    <path id="Path_229" data-name="Path 229" d="M38.64,20.675a.592.592,0,0,0-.584-.573h-1.08L34.5,17.288a.923.923,0,0,0-.945-.267l-.857.267a.2.2,0,0,0-.127.132.2.2,0,0,0,.037.179l2.7,2.54H31.221a.215.215,0,0,0-.161.062.211.211,0,0,0-.062.16v.445a.592.592,0,0,0,.584.579h.63v2.14c0,1.6.854,2.54,2.293,2.54a3.126,3.126,0,0,0,1.259-.223v1.428a.7.7,0,0,0,.208.507.714.714,0,0,0,.511.206h.629a.29.29,0,0,0,.27-.267V21.344h1.031a.215.215,0,0,0,.163-.062.211.211,0,0,0,.062-.162Zm-2.883,3.832a2.163,2.163,0,0,1-.9.178c-.719,0-1.078-.356-1.078-1.158V21.388h1.979V24.5Z" transform="translate(-26.974 -14.756)" fill="#fff"/>
  </g>
</svg>
