<svg xmlns="http://www.w3.org/2000/svg" width="24" height="24" viewBox="0 0 24 24">
  <g id="pickup" transform="translate(-7581 -79)">
    <rect id="Rectangle_17496" data-name="Rectangle 17496" width="24" height="24" transform="translate(7581 79)" fill="none"/>
    <g id="Group_8619" data-name="Group 8619" transform="translate(7804.465 -86.869)">
      <path id="Path_12457" data-name="Path 12457" d="M-203.7,184.1a1.352,1.352,0,0,0-.272-.829.5.5,0,0,1-.082-.276c-.008-.616.013-1.235-.01-1.85a3.277,3.277,0,0,0-1.851-2.985,15.1,15.1,0,0,0-1.936-.747c-.445-.154-.909-.258-1.367-.386,0-.292-.011-.557.006-.821a.465.465,0,0,1,.132-.265c.244-.251.527-.469.749-.737a3.989,3.989,0,0,0,.886-2.743.5.5,0,0,1,.159-.409,1.468,1.468,0,0,0,.23-1.77.786.786,0,0,1-.092-.348c-.01-.585.007-1.172-.009-1.757a2.352,2.352,0,0,0-2.257-2.286q-2.049-.039-4.1,0a2.292,2.292,0,0,0-2.207,1.966c-.081.686-.035,1.387-.057,2.08a.806.806,0,0,1-.094.348,1.443,1.443,0,0,0,.188,1.715.7.7,0,0,1,.2.557,3.816,3.816,0,0,0,1.327,3.1,1.18,1.18,0,0,1,.457,1.068c-.01.255-.094.334-.32.4a27.009,27.009,0,0,0-2.643.856,3.391,3.391,0,0,0-2.21,3.375c0,.547,0,1.093,0,1.639a.494.494,0,0,1-.082.276,1.336,1.336,0,0,0-.272.829c0,.4,0,.8,0,1.194a1.226,1.226,0,0,0,1.314,1.3h1.254c0,.647.021,1.271-.006,1.893a1.245,1.245,0,0,0,.889,1.388h2.344a.534.534,0,0,0,.328-.494.469.469,0,0,0-.507-.442c-.6,0-1.2,0-1.8,0-.273,0-.308-.036-.308-.315,0-.742,0-1.483.006-2.225a.427.427,0,0,1,.126-.273,1.89,1.89,0,0,0-.007-2.839.4.4,0,0,1-.12-.252c-.012-.382-.005-.764-.005-1.148,0-.135.017-.261.191-.262.709,0,1.418,0,2.152,0,0,.1.011.18.011.262,0,.812,0,1.624,0,2.436a.54.54,0,0,0,.256.56.55.55,0,0,0,.606-.108c.3-.211.6-.418.915-.61a.3.3,0,0,1,.258,0c.331.206.652.428.974.649a.5.5,0,0,0,.548.065.5.5,0,0,0,.252-.492q0-1.228,0-2.459v-.306h.926c.382,0,.764.006,1.147,0,.2,0,.287.066.283.271-.007.382.006.765-.007,1.147a.4.4,0,0,1-.122.251,1.892,1.892,0,0,0,0,2.839.422.422,0,0,1,.125.272c.01.749,0,1.5.008,2.248,0,.207-.073.3-.289.293-.57-.009-1.14,0-1.71,0-.353,0-.529.1-.6.328s.02.418.309.609h2.343a1.241,1.241,0,0,0,.89-1.387c-.025-.553,0-1.108,0-1.663v-.231c.45,0,.863,0,1.276,0a1.221,1.221,0,0,0,1.289-1.274C-203.7,184.909-203.7,184.5-203.7,184.1Zm-11.087-16.144a1.367,1.367,0,0,1,1.357-1.134q1.966-.014,3.932,0a1.419,1.419,0,0,1,1.4,1.314c.026.371,0,.747,0,1.162a5.94,5.94,0,0,0-3.355-1.042,5.874,5.874,0,0,0-3.349,1.026A9.232,9.232,0,0,1-214.79,167.953Zm-.2,3.432a.555.555,0,0,1,.095-.824,4.9,4.9,0,0,1,3.427-1.373A4.894,4.894,0,0,1-208,170.6a.54.54,0,0,1,.139.659.5.5,0,0,1-.564.28.873.873,0,0,1-.358-.2,3.874,3.874,0,0,0-5.379.012A.557.557,0,0,1-214.987,171.385Zm.438,1.115a2.1,2.1,0,0,0,1.257-.656,2.908,2.908,0,0,1,3.765.091,1.813,1.813,0,0,0,1.14.561,3.021,3.021,0,0,1-1.366,2.752,2.911,2.911,0,0,1-3.272.1A3.033,3.033,0,0,1-214.549,172.5Zm4.429,3.988a8.4,8.4,0,0,1-.134,1.317,1.236,1.236,0,0,1-1.323.863,1.262,1.262,0,0,1-1.153-1.028,10.392,10.392,0,0,1-.059-1.143A4.2,4.2,0,0,0-210.121,176.488Zm-6.716,9.162c-.367.007-.734,0-1.1,0-.254,0-.347-.1-.354-.358,0-.2,0-.406,0-.609s0-.391,0-.586c0-.214.1-.34.325-.34.39,0,.782-.011,1.172.006a.933.933,0,0,1,.9.949A.949.949,0,0,1-216.836,185.65Zm6.322-2.081-.536-.358c-.372-.248-.453-.249-.819,0l-.547.362v-1.937h1.9Zm3.024-2.89h-7.944a1.114,1.114,0,0,0-1.227,1.237c0,.294,0,.589,0,.891h-1.3c.028-.709,0-1.408.094-2.092a2.336,2.336,0,0,1,1.6-1.893c.851-.336,1.735-.59,2.611-.883a2.274,2.274,0,0,0,2.245,1.665c.931,0,1.55-.481,2.127-1.623a13.757,13.757,0,0,1,2.97,1.011,2.4,2.4,0,0,1,1.3,2.039c.035.583.007,1.17.007,1.774h-1.261c0-.3,0-.6,0-.906A1.113,1.113,0,0,0-207.49,180.679Zm2.849,4.628c-.008.245-.1.341-.345.344-.375,0-.75.007-1.125,0a.945.945,0,0,1-.929-.928.93.93,0,0,1,.894-.957c.4-.019.8-.007,1.194-.006a.283.283,0,0,1,.309.307c.007.218,0,.437,0,.656h0C-204.639,184.916-204.634,185.112-204.641,185.307Z" transform="translate(0 0)"/>
      <path id="Path_12458" data-name="Path 12458" d="M-204.327,211.636l-.092.065h-.282c-.031-.022-.061-.045-.092-.066a.459.459,0,0,1-.211-.54.445.445,0,0,1,.457-.327.446.446,0,0,1,.433.328A.462.462,0,0,1-204.327,211.636Z" transform="translate(-6.906 -21.831)"/>
    </g>
  </g>
</svg>
