<svg width="36" height="36" viewBox="0 0 36 36" fill="none" xmlns="http://www.w3.org/2000/svg">
<g clip-path="url(#clip0_33_1345)">
<path d="M19.969 2.01996L23.863 9.91095C24.0155 10.2201 24.2408 10.4876 24.5195 10.6906C24.7982 10.8935 25.1219 11.0257 25.463 11.0759L34.175 12.343C34.5682 12.4002 34.9376 12.5663 35.2414 12.8225C35.5452 13.0787 35.7712 13.4148 35.894 13.7928C36.0168 14.1707 36.0314 14.5755 35.9361 14.9613C35.8409 15.3471 35.6395 15.6986 35.355 15.976L29.055 22.118C28.8078 22.359 28.6229 22.6565 28.5163 22.9849C28.4097 23.3133 28.3845 23.6627 28.443 24.0029L29.93 32.676C29.997 33.0676 29.9532 33.4701 29.8034 33.8381C29.6537 34.2061 29.4039 34.5249 29.0825 34.7585C28.761 34.992 28.3807 35.131 27.9844 35.1597C27.5882 35.1884 27.1917 35.1057 26.84 34.921L19.053 30.8229C18.7474 30.6623 18.4072 30.5784 18.062 30.5784C17.7167 30.5784 17.3766 30.6623 17.071 30.8229L9.28199 34.918C8.93025 35.1027 8.53386 35.1854 8.13758 35.1567C7.7413 35.128 7.36094 34.989 7.0395 34.7555C6.71806 34.522 6.46831 34.2032 6.31855 33.8351C6.16879 33.4671 6.12494 33.0646 6.19196 32.673L7.67896 23.9999C7.73732 23.6596 7.71203 23.3101 7.60523 22.9818C7.49844 22.6534 7.31338 22.3559 7.06599 22.1149L0.765999 15.973C0.48144 15.6956 0.280134 15.3441 0.184883 14.9583C0.0896316 14.5725 0.104237 14.1677 0.226997 13.7897C0.349758 13.4118 0.575808 13.0757 0.879585 12.8195C1.18336 12.5633 1.55274 12.3972 1.94599 12.34L10.654 11.075C10.9951 11.0247 11.3189 10.8925 11.5975 10.6896C11.8762 10.4867 12.1015 10.2191 12.254 9.90997L16.148 2.01898C16.3239 1.66238 16.5961 1.36213 16.9338 1.15222C17.2715 0.942312 17.6612 0.831073 18.0588 0.831177C18.4564 0.831281 18.8461 0.942684 19.1837 1.15277C19.5212 1.36286 19.7933 1.66327 19.969 2.01996Z" fill="#F5B82A"/>
<path d="M23.0718 17.3447C23.6376 16.7788 23.6376 15.8613 23.0718 15.2955C22.5059 14.7296 21.5885 14.7296 21.0226 15.2955C20.4567 15.8613 20.4567 16.7788 21.0226 17.3447C21.5885 17.9105 22.5059 17.9105 23.0718 17.3447Z" fill="#42210B"/>
<path d="M15.2227 17.2C15.7083 16.5639 15.5864 15.6546 14.9503 15.169C14.3143 14.6833 13.405 14.8053 12.9193 15.4413C12.4337 16.0774 12.5556 16.9867 13.1917 17.4724C13.8277 17.958 14.737 17.8361 15.2227 17.2Z" fill="#42210B"/>
<path d="M20.4869 14.4371C20.4693 14.4178 20.456 14.3952 20.4475 14.3705C20.439 14.3459 20.4357 14.3197 20.4377 14.2938C20.4398 14.2678 20.4472 14.2425 20.4595 14.2195C20.4717 14.1965 20.4886 14.1762 20.509 14.16C20.9464 13.8215 21.481 13.6326 22.034 13.6213C22.587 13.6099 23.129 13.7767 23.5799 14.097C23.6011 14.1124 23.6189 14.1321 23.6322 14.1547C23.6454 14.1772 23.6539 14.2023 23.657 14.2283C23.6601 14.2543 23.6578 14.2807 23.6502 14.3058C23.6427 14.3309 23.6299 14.3541 23.6129 14.374C23.5816 14.4109 23.5375 14.4346 23.4895 14.4403C23.4415 14.446 23.3931 14.4334 23.354 14.405C22.9704 14.1347 22.5103 13.9941 22.0411 14.0038C21.5719 14.0136 21.1181 14.173 20.746 14.459C20.708 14.4887 20.6602 14.503 20.6122 14.4989C20.5641 14.4948 20.5193 14.4727 20.4869 14.4371Z" fill="#42210B"/>
<path d="M17.9349 21.4131C16.4569 21.4107 15.0194 21.8958 13.845 22.7931C13.7741 22.8471 13.7154 22.9155 13.6726 22.9937C13.6299 23.0718 13.604 23.1581 13.5968 23.247C13.5895 23.3358 13.601 23.4251 13.6305 23.5092C13.66 23.5933 13.7068 23.6703 13.7679 23.7351C13.8759 23.8499 14.0226 23.9204 14.1797 23.9332C14.3367 23.9459 14.4929 23.8999 14.618 23.8041C15.5714 23.0786 16.7364 22.6858 17.9344 22.6858C19.1325 22.6858 20.2975 23.0786 21.251 23.8041C21.3761 23.8997 21.5322 23.9456 21.6892 23.9328C21.8462 23.9201 21.9928 23.8497 22.1009 23.7351C22.1621 23.6703 22.2089 23.5933 22.2384 23.5092C22.2679 23.4251 22.2793 23.3358 22.2721 23.247C22.2648 23.1581 22.239 23.0718 22.1962 22.9937C22.1535 22.9155 22.0948 22.8471 22.0239 22.7931C20.8497 21.896 19.4126 21.4109 17.9349 21.4131Z" fill="#42210B"/>
<path d="M12.4809 14.4371C12.4634 14.4178 12.4499 14.3952 12.4415 14.3705C12.433 14.3459 12.4297 14.3197 12.4317 14.2938C12.4338 14.2678 12.4412 14.2425 12.4534 14.2195C12.4657 14.1965 12.4826 14.1762 12.503 14.16C12.9404 13.8215 13.4751 13.6326 14.0281 13.6213C14.5811 13.6099 15.123 13.7767 15.574 14.097C15.5952 14.1124 15.6131 14.1319 15.6265 14.1545C15.6398 14.177 15.6483 14.2021 15.6515 14.2281C15.6547 14.2541 15.6525 14.2805 15.645 14.3057C15.6375 14.3308 15.6249 14.354 15.608 14.374C15.5766 14.4109 15.5326 14.4346 15.4845 14.4403C15.4365 14.446 15.3881 14.4334 15.3489 14.405C14.9653 14.1347 14.5053 13.9941 14.0361 14.0038C13.5668 14.0136 13.1131 14.173 12.741 14.459C12.7029 14.489 12.6549 14.5035 12.6066 14.4994C12.5583 14.4953 12.5134 14.473 12.4809 14.4371Z" fill="#42210B"/>
</g>
<defs>
<clipPath id="clip0_33_1345">
<rect width="36" height="36" fill="white"/>
</clipPath>
</defs>
</svg>
