<svg xmlns="http://www.w3.org/2000/svg" width="14" height="14" viewBox="0 0 14 14">
  <g id="contactus" transform="translate(-0.833 0)">
    <rect id="Rectangle" width="14" height="14" transform="translate(0.833)" fill="none"/>
    <path id="icon" d="M7.612.584A.584.584,0,0,1,8.2,0a5.849,5.849,0,0,1,5.843,5.843.584.584,0,1,1-1.169,0A4.68,4.68,0,0,0,8.2,1.168.584.584,0,0,1,7.612.584ZM8.2,3.505a2.337,2.337,0,0,1,2.337,2.337.584.584,0,1,0,1.169,0A3.509,3.509,0,0,0,8.2,2.337a.584.584,0,1,0,0,1.169ZM13.509,9.78a1.811,1.811,0,0,1,0,2.558l-.532.613C8.192,17.532-3.453,5.89,1.058,1.09L1.73.505A1.8,1.8,0,0,1,4.258.529c.018.018,1.1,1.425,1.1,1.425a1.811,1.811,0,0,1,0,2.5l-.677.851a7.468,7.468,0,0,0,4.05,4.058l.856-.681a1.811,1.811,0,0,1,2.5,0S13.491,9.762,13.509,9.78Zm-.8.85s-1.4-1.076-1.416-1.094a.643.643,0,0,0-.905,0c-.016.016-1.194.955-1.194.955a.584.584,0,0,1-.572.089A8.77,8.77,0,0,1,3.464,5.433a.584.584,0,0,1,.085-.584S4.487,3.67,4.5,3.655a.643.643,0,0,0,0-.905c-.018-.018-1.094-1.417-1.094-1.417a.643.643,0,0,0-.882.023l-.672.584c-3.3,3.964,6.795,13.5,10.268,10.213l.532-.614a.655.655,0,0,0,.05-.91Z" transform="translate(0.794 0.001)" fill="#fff"/>
  </g>
</svg>
