<svg xmlns="http://www.w3.org/2000/svg" width="14" height="14" viewBox="0 0 14 14">
  <g id="wallet" transform="translate(-0.833)">
    <rect id="Rectangle" width="14" height="14" transform="translate(0.833)" fill="none"/>
    <path id="icon" d="M12.25,4.333H2.917a1.757,1.757,0,0,1-1.3-.583,1.747,1.747,0,0,1,1.3-.584h10.5a.583.583,0,1,0,0-1.167H2.917A2.917,2.917,0,0,0,0,4.917V10.75a2.917,2.917,0,0,0,2.917,2.917H12.25A1.75,1.75,0,0,0,14,11.917V6.083A1.75,1.75,0,0,0,12.25,4.333Zm.583,7.583a.584.584,0,0,1-.583.583H2.917a1.752,1.752,0,0,1-1.75-1.75V4.916a2.924,2.924,0,0,0,1.75.584H12.25a.584.584,0,0,1,.583.583ZM11.667,9a.583.583,0,1,1-.583-.583A.584.584,0,0,1,11.667,9Z" transform="translate(0.833 -0.833)" fill="#fff"/>
  </g>
</svg>
