<svg xmlns="http://www.w3.org/2000/svg" width="14.029" height="14" viewBox="0 0 14.029 14">
  <g id="help_support" transform="translate(-0.833)">
    <rect id="Rectangle" width="14" height="14" transform="translate(0.833)" fill="none"/>
    <path id="headphones" d="M12.3,8.1V7.267a5.267,5.267,0,0,0-10.534,0V8.1a2.926,2.926,0,0,0,1.17,5.6,1.17,1.17,0,0,0,1.17-1.17V9.023a1.17,1.17,0,0,0-1.17-1.17V7.267a4.1,4.1,0,0,1,8.193,0v.585a1.17,1.17,0,0,0-1.17,1.17v3.511a1.17,1.17,0,0,0,1.17,1.17A2.926,2.926,0,0,0,12.3,8.1ZM2.932,12.534h0a1.756,1.756,0,0,1,0-3.511Zm8.193,0V9.023a1.756,1.756,0,0,1,0,3.511Z" transform="translate(0.819 -0.852)" fill="#fff"/>
  </g>
</svg>
