<svg xmlns="http://www.w3.org/2000/svg" width="14.021" height="14" viewBox="0 0 14.021 14">
  <g id="share" transform="translate(-0.833 0)">
    <rect id="Rectangle" width="14" height="14" transform="translate(0.833)" fill="none"/>
    <path id="icon" d="M11.265,8.555A2.718,2.718,0,0,0,9.026,9.735L5.23,8.021a2.668,2.668,0,0,0,0-2.034L9.024,4.263a2.718,2.718,0,1,0-.482-1.542,2.7,2.7,0,0,0,.047.458L4.558,5.012a2.723,2.723,0,1,0-.009,3.982L8.59,10.818a2.763,2.763,0,0,0-.046.458,2.722,2.722,0,1,0,2.722-2.722Zm0-7.388A1.556,1.556,0,1,1,9.71,2.722a1.556,1.556,0,0,1,1.555-1.555ZM2.711,8.555A1.556,1.556,0,1,1,4.266,7,1.556,1.556,0,0,1,2.711,8.555Zm8.554,4.277a1.556,1.556,0,1,1,1.556-1.556,1.556,1.556,0,0,1-1.556,1.556Z" transform="translate(0.866 0)" fill="#fff"/>
  </g>
</svg>
