<svg xmlns="http://www.w3.org/2000/svg" width="14" height="14" viewBox="0 0 14 14">
  <g id="terms_condition" transform="translate(-0.833 0)">
    <rect id="Rectangle" width="14" height="14" transform="translate(0.833)" fill="none"/>
    <path id="icon" d="M10.75,8.167a.583.583,0,0,1-.583.583H5.5a.583.583,0,0,1,0-1.167h4.667A.583.583,0,0,1,10.75,8.167ZM8.417,9.917H5.5a.583.583,0,0,0,0,1.167H8.417a.583.583,0,0,0,0-1.167Zm5.25-3.8v4.967A2.92,2.92,0,0,1,10.75,14H4.917A2.92,2.92,0,0,1,2,11.083V2.917A2.92,2.92,0,0,1,4.917,0H7.55a4.059,4.059,0,0,1,2.888,1.2L12.47,3.229A4.055,4.055,0,0,1,13.667,6.116Zm-4.054-4.1A2.922,2.922,0,0,0,9,1.566V4.083a.583.583,0,0,0,.583.583H12.1a2.907,2.907,0,0,0-.456-.613Zm2.887,4.1c0-.1-.019-.188-.027-.283H9.583a1.75,1.75,0,0,1-1.75-1.75V1.194c-.094-.009-.187-.027-.283-.027H4.917a1.75,1.75,0,0,0-1.75,1.75v8.167a1.75,1.75,0,0,0,1.75,1.75H10.75a1.75,1.75,0,0,0,1.75-1.75Z" fill="#fff"/>
  </g>
</svg>
