<svg xmlns="http://www.w3.org/2000/svg" width="14" height="14" viewBox="0 0 14 14">
  <g id="transaction" transform="translate(-0.833)">
    <rect id="Rectangle" width="14" height="14" transform="translate(0.833)" fill="none"/>
    <path id="icon" d="M14,4.917V5.5a.583.583,0,0,1-1.167,0V4.917a1.752,1.752,0,0,0-1.75-1.75H2.917a1.752,1.752,0,0,0-1.75,1.75V10.75a1.752,1.752,0,0,0,1.75,1.75h1.75a.583.583,0,1,1,0,1.167H2.917A2.92,2.92,0,0,1,0,10.75V4.917A2.92,2.92,0,0,1,2.917,2h8.167A2.92,2.92,0,0,1,14,4.917ZM8.75,6.083h2.333a.583.583,0,1,0,0-1.167H8.75a.583.583,0,0,0,0,1.167Zm4.737,1.679a1.75,1.75,0,0,1,0,2.475L9.575,14.15a2.319,2.319,0,0,1-1.65.684H7a.583.583,0,0,1-.583-.583v-.925a2.316,2.316,0,0,1,.684-1.65l3.912-3.912a1.751,1.751,0,0,1,2.474,0ZM12.833,9a.583.583,0,0,0-1-.412L7.925,12.5a1.177,1.177,0,0,0-.342.825v.342h.342a1.159,1.159,0,0,0,.825-.342l3.912-3.912A.579.579,0,0,0,12.833,9ZM5.25,9.583H3.927a.587.587,0,0,1-.506-.292.583.583,0,1,0-1.009.584,1.755,1.755,0,0,0,1.516.874h.156a.583.583,0,1,0,1.167,0A1.752,1.752,0,0,0,7,9,1.611,1.611,0,0,0,5.65,7.406l-1.774-.3A.448.448,0,0,1,3.5,6.667a.584.584,0,0,1,.583-.583H5.407a.587.587,0,0,1,.506.292.583.583,0,1,0,1.009-.584,1.755,1.755,0,0,0-1.515-.875H5.25a.583.583,0,0,0-1.167,0,1.752,1.752,0,0,0-1.75,1.75A1.611,1.611,0,0,0,3.684,8.26l1.774.3A.448.448,0,0,1,5.833,9a.584.584,0,0,1-.583.583Zm2.917-1.75A.583.583,0,1,0,8.75,7.25.584.584,0,0,0,8.167,7.833Z" transform="translate(0.833 -1.417)" fill="#fff"/>
  </g>
</svg>
