<svg xmlns="http://www.w3.org/2000/svg" width="14" height="14" viewBox="0 0 14 14">
  <g id="icon" transform="translate(-0.833)">
    <rect id="Rectangle" width="14" height="14" transform="translate(0.833)" fill="none"/>
    <path id="Path_12554" data-name="Path 12554" d="M13.083,2.333H11.275A2.922,2.922,0,0,0,8.417,0H7.25A2.922,2.922,0,0,0,4.392,2.333H2.583a.583.583,0,0,0,0,1.167h.583v7.583A2.92,2.92,0,0,0,6.083,14h3.5A2.92,2.92,0,0,0,12.5,11.083V3.5h.583a.583.583,0,0,0,0-1.167ZM7.25,1.167H8.417a1.754,1.754,0,0,1,1.65,1.167H5.6A1.753,1.753,0,0,1,7.25,1.167Zm4.083,9.917a1.75,1.75,0,0,1-1.75,1.75h-3.5a1.75,1.75,0,0,1-1.75-1.75V3.5h7Z" fill="#fff"/>
    <path id="Path_12555" data-name="Path 12555" d="M9.583,14.667a.583.583,0,0,0,.583-.583v-3.5a.583.583,0,0,0-1.167,0v3.5A.583.583,0,0,0,9.583,14.667Z" transform="translate(-2.917 -4.167)" fill="#fff"/>
    <path id="Path_12556" data-name="Path 12556" d="M13.583,14.667a.583.583,0,0,0,.583-.583v-3.5a.583.583,0,0,0-1.167,0v3.5A.583.583,0,0,0,13.583,14.667Z" transform="translate(-4.583 -4.167)" fill="#fff"/>
  </g>
</svg>
