<svg xmlns="http://www.w3.org/2000/svg" width="14.011" height="14.011" viewBox="0 0 14.011 14.011">
  <g id="faqs" transform="translate(-0.833)">
    <rect id="Rectangle" width="14" height="14" transform="translate(0.833)" fill="none"/>
    <path id="icon" d="M14.011,9.341v4.67H9.341A4.67,4.67,0,0,1,5.3,11.673a6.4,6.4,0,0,0,1.309-.145,3.5,3.5,0,0,0,2.731,1.315h3.5v-3.5A3.5,3.5,0,0,0,11.529,6.61,6.444,6.444,0,0,0,11.673,5.3a4.67,4.67,0,0,1,2.337,4.04Zm-6.969.848a5.216,5.216,0,0,1-1.788.32H0V5.254A5.254,5.254,0,1,1,8.148,9.635l.894.867,2.225-2.162.816.835L9.87,11.338a1.167,1.167,0,0,1-1.646,0ZM5.254,9.341A4.087,4.087,0,1,0,1.168,5.254V9.341Zm.313-6.977A1.751,1.751,0,0,0,3.5,4.087H4.67a.584.584,0,0,1,.209-.448.575.575,0,0,1,.486-.126A.584.584,0,0,1,5.535,4.6,1.855,1.855,0,0,0,4.67,6.132v.289H5.838V6.132A.744.744,0,0,1,6.1,5.621a1.752,1.752,0,0,0-.532-3.258Zm-.9,5.81H5.838V7.005H4.67Z" transform="translate(0.833)" fill="#fff"/>
  </g>
</svg>
