<svg xmlns="http://www.w3.org/2000/svg" width="14" height="14" viewBox="0 0 14 14">
  <g id="refer_earn" transform="translate(-0.833)">
    <rect id="Rectangle" width="14" height="14" transform="translate(0.833)" fill="none"/>
    <path id="icon" d="M7,11.667A5.833,5.833,0,1,0,1.167,5.833,5.84,5.84,0,0,0,7,11.667Zm0-10.5A4.667,4.667,0,1,1,2.333,5.833,4.672,4.672,0,0,1,7,1.167ZM8.167,7a.449.449,0,0,0-.376-.444l-1.774-.3a1.611,1.611,0,0,1-1.35-1.594,1.752,1.752,0,0,1,1.75-1.75V2.333H7.583v.583a1.752,1.752,0,0,1,1.75,1.75H8.167a.584.584,0,0,0-.583-.583H6.417a.584.584,0,0,0-.583.583.449.449,0,0,0,.376.444l1.774.3A1.611,1.611,0,0,1,9.333,7a1.752,1.752,0,0,1-1.75,1.75v.583H6.417V8.75A1.752,1.752,0,0,1,4.667,7H5.833a.584.584,0,0,0,.583.583H7.583A.584.584,0,0,0,8.167,7ZM14,11.958A2.044,2.044,0,0,1,11.958,14H2.042a2.036,2.036,0,0,1-.636-3.972,7.052,7.052,0,0,0,.975,1.055H2.042a.875.875,0,1,0,0,1.75h9.917a.875.875,0,0,0,0-1.75h-.339a7.022,7.022,0,0,0,.975-1.055A2.038,2.038,0,0,1,14,11.958Z" transform="translate(0.833)" fill="#fff"/>
  </g>
</svg>
