<svg xmlns="http://www.w3.org/2000/svg" width="24" height="24" viewBox="0 0 24 24">
  <g id="translate" transform="translate(-2443 5795)">
    <rect id="Rectangle_18034" data-name="Rectangle 18034" width="24" height="24" transform="translate(2443 -5795)" fill="none"/>
    <path id="translate_FILL1_wght400_GRAD0_opsz24" d="M14.791,27.034a1.07,1.07,0,0,1-.956-.429,1.147,1.147,0,0,1-.069-1.066L17.81,14.819a1.628,1.628,0,0,1,.623-.762,1.647,1.647,0,0,1,.956-.319,1.671,1.671,0,0,1,.942.319,1.607,1.607,0,0,1,.637.762l4.044,10.719a1.147,1.147,0,0,1-.069,1.066,1.1,1.1,0,0,1-.983.429.881.881,0,0,1-.554-.194,1.115,1.115,0,0,1-.36-.471L22.1,23.655H16.73l-.969,2.714a1.049,1.049,0,0,1-.388.471A1,1,0,0,1,14.791,27.034Zm2.6-5.318h3.989l-1.939-5.484h-.111ZM7.922,12.132a13.576,13.576,0,0,0,.942,1.482,16.341,16.341,0,0,0,1.163,1.4,15.41,15.41,0,0,0,2.022-2.728,17.794,17.794,0,0,0,1.357-2.978H2.216a1.108,1.108,0,1,1,0-2.216H8.864V5.983a1.108,1.108,0,1,1,2.216,0V7.091h6.648a1.108,1.108,0,1,1,0,2.216H15.622a20.113,20.113,0,0,1-1.579,3.822,17.876,17.876,0,0,1-2.465,3.49l2.659,2.714-.831,2.271L9.972,18.17,5.207,22.935a1.051,1.051,0,0,1-.776.3,1.1,1.1,0,0,1-.776-1.856l4.82-4.82q-.748-.859-1.385-1.731a13.894,13.894,0,0,1-1.136-1.842.978.978,0,0,1-.028-1.025,1.052,1.052,0,0,1,.969-.443,1.148,1.148,0,0,1,.582.18A1.168,1.168,0,0,1,7.922,12.132Z" transform="translate(2441.892 -5798.955)" fill="#fff"/>
  </g>
</svg>
