<svg xmlns="http://www.w3.org/2000/svg" width="46.907" height="62.351" viewBox="0 0 46.907 62.351">
  <g id="pro_pass" transform="translate(-129.046 -1527.325)">
    <g id="password" transform="translate(120.137 1520.13)">
      <g id="Group_5431" data-name="Group 5431" transform="translate(0 7.194)">
        <path id="Path_6311" data-name="Path 6311" d="M20.515,353.566a.922.922,0,0,0-1.254-.33l-2.3,1.333v-2.653a.911.911,0,0,0-1.821,0v2.653l-2.3-1.333a.917.917,0,1,0-.924,1.584l2.31,1.346-2.31,1.346a.917.917,0,0,0,.924,1.584l2.3-1.333v2.653a.911.911,0,1,0,1.821,0v-2.653l2.3,1.333a.917.917,0,0,0,.924-1.584l-2.31-1.346,2.31-1.346A.913.913,0,0,0,20.515,353.566Z" transform="translate(-1.047 -305.628)"/>
        <path id="Path_6312" data-name="Path 6312" d="M143.093,358.667a.922.922,0,0,0,1.254.33l2.3-1.333v2.653a.911.911,0,1,0,1.821,0v-2.653l2.3,1.333a.917.917,0,1,0,.924-1.584l-2.31-1.346,2.31-1.346a.917.917,0,0,0-.924-1.584l-2.3,1.333v-2.653a.911.911,0,1,0-1.821,0v2.653l-2.3-1.32a.917.917,0,0,0-.924,1.584l2.31,1.346-2.31,1.333A.922.922,0,0,0,143.093,358.667Z" transform="translate(-115.192 -305.542)"/>
        <path id="Path_6313" data-name="Path 6313" d="M131.5,457.506v1.61a.7.7,0,0,0,.7.7h10.81a.7.7,0,0,0,.7-.7v-1.61a.7.7,0,0,0-.7-.7H132.2A.7.7,0,0,0,131.5,457.506Z" transform="translate(-105.235 -397.464)"/>
        <path id="Path_6314" data-name="Path 6314" d="M162.7,22.229h-.079v-3.59A11.393,11.393,0,0,0,151.288,7.2,11.178,11.178,0,0,0,140.32,18.348v.343a.941.941,0,0,0,.937.937h3a.941.941,0,0,0,.937-.937v-.106a6.437,6.437,0,0,1,5.873-6.507,6.281,6.281,0,0,1,6.678,6.256v3.88H148.5v.013h-8.539a2.945,2.945,0,0,0-2.864,2.93V41.393a2.946,2.946,0,0,0,2.943,2.943h22.648a2.946,2.946,0,0,0,2.943-2.943V25.172A2.926,2.926,0,0,0,162.7,22.229Zm-9.582,11.786a.634.634,0,0,0-.29.594c.013,1.188.013,2.376,0,3.577h0a1.252,1.252,0,0,1-.673,1.2,1.4,1.4,0,0,1-2.085-1.2V34.6a.623.623,0,0,0-.264-.568,2.712,2.712,0,0,1-.9-3.352,2.775,2.775,0,0,1,5.306,1.1A2.513,2.513,0,0,1,153.123,34.015Z" transform="translate(-119.005 -7.194)"/>
        <path id="Path_6315" data-name="Path 6315" d="M262.9,457.506v1.61a.7.7,0,0,0,.7.7h10.809a.7.7,0,0,0,.7-.7v-1.61a.7.7,0,0,0-.7-.7H263.6A.7.7,0,0,0,262.9,457.506Z" transform="translate(-219.292 -397.464)"/>
        <path id="Path_6316" data-name="Path 6316" d="M274.493,358.667a.921.921,0,0,0,1.254.33l2.3-1.333v2.653a.911.911,0,1,0,1.821,0v-2.653l2.3,1.333a.917.917,0,0,0,.924-1.584l-2.31-1.346,2.31-1.346a.917.917,0,0,0-.924-1.584l-2.3,1.333v-2.653a.911.911,0,1,0-1.821,0v2.653l-2.3-1.333a.917.917,0,0,0-.924,1.584l2.31,1.346-2.31,1.346A.922.922,0,0,0,274.493,358.667Z" transform="translate(-229.249 -305.542)"/>
        <path id="Path_6318" data-name="Path 6318" d="M.7,459.815H11.509a.7.7,0,0,0,.7-.7v-1.61a.7.7,0,0,0-.7-.7H.7a.7.7,0,0,0-.7.7v1.61A.7.7,0,0,0,.7,459.815Z" transform="translate(8.909 -397.464)"/>
      </g>
    </g>
  </g>
</svg>
