<svg xmlns="http://www.w3.org/2000/svg" width="14" height="14" viewBox="0 0 14 14">
  <g id="rate_us" transform="translate(-0.833)">
    <rect id="Rectangle" width="14" height="14" transform="translate(0.833)" fill="none"/>
    <path id="icon" d="M13.91,5.21a1.855,1.855,0,0,0-1.789-1.3H9.572L8.8,1.5a1.883,1.883,0,0,0-3.586,0L4.438,3.911H1.889A1.883,1.883,0,0,0,.78,7.314L2.855,8.831l-.789,2.443a1.883,1.883,0,0,0,2.908,2.1L7,11.875l2.031,1.493a1.883,1.883,0,0,0,2.907-2.1l-.789-2.443,2.077-1.517a1.854,1.854,0,0,0,.679-2.1ZM12.543,6.371,10.125,8.139a.583.583,0,0,0-.211.651l.919,2.841a.716.716,0,0,1-1.106.8L7.35,10.677a.583.583,0,0,0-.691,0l-2.377,1.75a.716.716,0,0,1-1.109-.8L4.1,8.79a.583.583,0,0,0-.211-.651L1.466,6.371a.716.716,0,0,1,.422-1.293H4.864a.583.583,0,0,0,.555-.4l.9-2.819a.716.716,0,0,1,1.363,0l.9,2.819a.583.583,0,0,0,.555.4h2.975a.716.716,0,0,1,.422,1.293Z" transform="translate(0.825 0.033)" fill="#fff"/>
  </g>
</svg>
