<svg xmlns="http://www.w3.org/2000/svg" width="14" height="14" viewBox="0 0 14 14">
  <g id="privacy_policy" transform="translate(-0.833 0)">
    <rect id="Rectangle" width="14" height="14" transform="translate(0.833)" fill="none"/>
    <path id="Path_12559" data-name="Path 12559" d="M11.672,1.248,8.018.03a.583.583,0,0,0-.369,0L3.994,1.248A2.913,2.913,0,0,0,2,4.015V7c0,4.412,5.367,6.848,5.6,6.95a.583.583,0,0,0,.474,0c.23-.1,5.6-2.538,5.6-6.95V4.015a2.913,2.913,0,0,0-1.994-2.767ZM12.5,7c0,3.182-3.686,5.269-4.667,5.769C6.852,12.271,3.167,10.19,3.167,7V4.015a1.75,1.75,0,0,1,1.2-1.66L7.833,1.2,11.3,2.355a1.75,1.75,0,0,1,1.2,1.66Z" fill="#fff"/>
    <path id="Path_12560" data-name="Path 12560" d="M11.9,8.178l-2.443,2.45L8.144,9.263a.583.583,0,1,0-.841.809l1.345,1.4a1.092,1.092,0,0,0,.785.35h.019a1.093,1.093,0,0,0,.779-.323l2.492-2.492a.586.586,0,1,0-.827-.829Z" transform="translate(-2.138 -3.336)" fill="#fff"/>
  </g>
</svg>
