<svg id="rating" xmlns="http://www.w3.org/2000/svg" width="11.966" height="11.589" viewBox="0 0 11.966 11.589">
  <rect id="Rectangle_17300" data-name="Rectangle 17300" width="11.22" height="11.22" transform="translate(0.376 0.184)" fill="none"/>
  <path id="star_4_" data-name="star(4)" d="M.666,6.281l1.776,1.3L1.768,9.666a1.61,1.61,0,0,0,2.486,1.793L5.99,10.181l1.737,1.277a1.61,1.61,0,0,0,2.486-1.791L9.538,7.578l1.776-1.3a1.61,1.61,0,0,0-.948-2.909H8.185L7.523,1.308a1.61,1.61,0,0,0-3.066,0L3.8,3.372H1.616A1.61,1.61,0,0,0,.668,6.281Z" transform="translate(-0.008 -0.19)" fill="#ecb809"/>
</svg>
