<svg xmlns="http://www.w3.org/2000/svg" width="16" height="16" viewBox="0 0 16 16">
  <g id="razorpay" transform="translate(-7087 -376)">
    <rect id="Rectangle_17514" data-name="Rectangle 17514" width="16" height="16" transform="translate(7087 376)" fill="none"/>
    <g id="Group_8628" data-name="Group 8628" transform="translate(7088.003 376)">
      <path id="Path_12460" data-name="Path 12460" d="M621.153,188.255q.231-.859.462-1.719l1.342-5.009,1.081-4.034a.074.074,0,0,0,0-.057l-4.424,2.861c.029-.111.053-.207.079-.3q.341-1.251.68-2.5a.153.153,0,0,1,.073-.1l4.188-2.712,3.71-2.4.042-.026v.084c-.143.608-.318,1.207-.477,1.811-.128.484-.259.967-.388,1.451q-.276,1.031-.553,2.061-.221.827-.443,1.654-.3,1.112-.6,2.224-.22.82-.44,1.641-.28,1.044-.56,2.088l-.492,1.838c-.1.362-.193.724-.292,1.085a.135.135,0,0,1-.029.063Z" transform="translate(-614.396 -172.255)" fill="#3394fe"/>
      <path id="Path_12461" data-name="Path 12461" d="M248.108,660.649c.032-.177.087-.348.133-.521q.529-1.982,1.061-3.964a.162.162,0,0,1,.074-.1l6.82-4.4.431-.278c-.024.094-.044.174-.066.254l-2.39,8.952a.11.11,0,0,0-.009.061Z" transform="translate(-248.108 -644.649)" fill="#072654"/>
    </g>
  </g>
</svg>
