<svg xmlns="http://www.w3.org/2000/svg" width="16" height="16" viewBox="0 0 16 16">
  <g id="stripe" transform="translate(-7533 -341)">
    <rect id="Rectangle_17515" data-name="Rectangle 17515" width="16" height="16" transform="translate(7533 341)" fill="none"/>
    <g id="Group_8635" data-name="Group 8635" transform="translate(6790.904 -401.248)">
      <path id="Exclusion_1" data-name="Exclusion 1" d="M754.52,749.69a1.758,1.758,0,0,0-.58-1.03,1.316,1.316,0,0,0-.85-.34,1.546,1.546,0,0,0-.43.07,1.143,1.143,0,0,0-.46.28v-.01l-.02-.07v-.01c-.01-.04-.01-.07-.02-.12s-.03-.06-.08-.06h-.91c-.01.01-.01.02-.01.05v5.08c0,.01,0,.03.01.03s.01.01.02.01h.01c.39-.08.71-.15,1.02-.21a.066.066,0,0,0,.06-.07v-1.15c-.01-.02-.01-.03.01-.04h.01a.035.035,0,0,1,.02.01l.02.01a1.27,1.27,0,0,0,.73.26,1.531,1.531,0,0,0,.69-.2,1.49,1.49,0,0,0,.66-.84A3.086,3.086,0,0,0,754.52,749.69Zm-1.24,1.42a.562.562,0,0,1-.48.27h-.01a.647.647,0,0,1-.48-.17.108.108,0,0,1-.03-.07v-.39c0-.39-.01-.78-.01-1.17a.127.127,0,0,1,.04-.09.692.692,0,0,1,.47-.18.6.6,0,0,1,.5.27,1.259,1.259,0,0,1,.2.59,1.089,1.089,0,0,1,.01.17A1.4,1.4,0,0,1,753.28,751.11Z" fill="#6772e4"/>
      <path id="Exclusion_2" data-name="Exclusion 2" d="M757.95,749.44a1.624,1.624,0,0,0-.59-.84,1.42,1.42,0,0,0-.85-.28,1.679,1.679,0,0,0-.5.07,1.523,1.523,0,0,0-1,.9,2.461,2.461,0,0,0-.23,1.23,2.639,2.639,0,0,0,.13.68,1.582,1.582,0,0,0,1.23,1.12,2.717,2.717,0,0,0,.49.05c.11,0,.23-.01.34-.02a2.267,2.267,0,0,0,.84-.25.075.075,0,0,0,.05-.07v-.85l-.02.01h-.01l-.04.02a2.276,2.276,0,0,1-.96.21,1.724,1.724,0,0,1-.32-.02.661.661,0,0,1-.6-.59.046.046,0,0,1,0-.05c.01-.01.02-.01.05-.01h2.02c.1,0,.1,0,.1-.1v-.06A2.8,2.8,0,0,0,757.95,749.44Zm-.92.49c-.01.01-.02.01-.04.01H755.9c0-.01-.01-.02,0-.03a.655.655,0,0,1,.28-.59.521.521,0,0,1,.29-.09.567.567,0,0,1,.53.42,1.986,1.986,0,0,1,.04.24C757.04,749.9,757.03,749.92,757.03,749.93Z" fill="#6772e4"/>
      <path id="Path_12464" data-name="Path 12464" d="M742.141,751.06c.093.043.183.088.276.127a2.641,2.641,0,0,0,.894.222.8.8,0,0,0,.279-.031.236.236,0,0,0,.184-.192.243.243,0,0,0-.1-.245,1.315,1.315,0,0,0-.372-.182,4.863,4.863,0,0,1-.6-.244,1.108,1.108,0,0,1-.5-.472,1.075,1.075,0,0,1-.1-.581,1.118,1.118,0,0,1,.318-.719,1.321,1.321,0,0,1,.713-.368,2.829,2.829,0,0,1,1.529.138c.024.009.043.016.043.05v1.006a.133.133,0,0,1-.059-.023,2.415,2.415,0,0,0-1.084-.254.527.527,0,0,0-.193.034.207.207,0,0,0-.133.261.2.2,0,0,0,.059.091.762.762,0,0,0,.287.158c.192.073.391.128.58.212a1.335,1.335,0,0,1,.572.421,1.071,1.071,0,0,1,.19.652,1.123,1.123,0,0,1-.346.846,1.417,1.417,0,0,1-.748.359,2.925,2.925,0,0,1-1.643-.192.047.047,0,0,1-.039-.049v-1.007Z" fill="#6772e4"/>
      <path id="Path_12465" data-name="Path 12465" d="M745.132,749.514v-1.789c0-.044.01-.061.055-.071.327-.067.652-.137.978-.208.044-.01.055,0,.055.047v.852c0,.044.011.057.056.057h.73c.042,0,.058.008.058.054v.842c0,.04-.012.052-.051.05h-.736c-.043,0-.057.011-.057.056v1.545a.407.407,0,0,0,.365.444.365.365,0,0,0,.074,0,1.045,1.045,0,0,0,.355-.059c.035-.012.049-.014.048.031v.815a.059.059,0,0,1-.041.064,1.446,1.446,0,0,1-.453.111,1.633,1.633,0,0,1-.649-.037,1.1,1.1,0,0,1-.779-.927,7.392,7.392,0,0,1-.01-.744v-1.131Z" fill="#6772e4"/>
      <path id="Path_12466" data-name="Path 12466" d="M748.444,748.722a.688.688,0,0,1,.367-.323.88.88,0,0,1,.523-.012.04.04,0,0,1,.035.044h0v.948c0,.04-.016.035-.046.029a.831.831,0,0,0-.617.081c-.018.011-.035.024-.053.036a.287.287,0,0,0-.133.261c.008.811,0,1.623,0,2.434,0,.055-.013.067-.068.067h-.991c-.041,0-.054-.01-.054-.052v-3.782c0-.041.01-.054.053-.054h.858c.038,0,.056.008.063.05C748.4,748.535,748.422,748.621,748.444,748.722Z" fill="#6772e4"/>
      <path id="Path_12467" data-name="Path 12467" d="M750.751,750.349v1.876c0,.052-.015.064-.065.062H749.7c-.047,0-.064-.008-.064-.06V748.46c0-.052.017-.061.064-.06h.986c.05,0,.065.011.065.063Q750.75,749.4,750.751,750.349Z" fill="#6772e4"/>
      <path id="Path_12468" data-name="Path 12468" d="M750.75,747.375v.41a.045.045,0,0,1-.043.052c-.342.072-.684.143-1.025.216-.042.009-.047,0-.047-.039v-.81c0-.034.008-.052.044-.058q.513-.106,1.025-.217c.044-.01.046.005.045.04C750.749,747.1,750.75,747.24,750.75,747.375Z" fill="#6772e4"/>
    </g>
  </g>
</svg>
