<svg xmlns="http://www.w3.org/2000/svg" width="280.589" height="186.187" viewBox="0 0 280.589 186.187">
  <g id="transaction" transform="translate(-2496.526 -1008.442)">
    <g id="woman" transform="translate(2524.447 1047.528)">
      <g id="Head" transform="translate(89.927 0)">
        <g id="Group_7535" data-name="Group 7535">
          <g id="Group_7534" data-name="Group 7534">
            <path id="Path_13692" data-name="Path 13692" d="M3348.482,1374.412a35.168,35.168,0,0,1-20.753-7.031,37.168,37.168,0,0,1-10.825-13.369c-2.384-4.96-3.313-9.815-2.55-13.319.016-.074.035-.157.056-.25a13.82,13.82,0,0,0,.313-5.11,15.873,15.873,0,0,0-4-8.109c-.115-.137-.219-.26-.309-.37-5.019-6.14-5.274-17.594-2.966-25.254a29.618,29.618,0,0,1,10.638-14.76,33.942,33.942,0,0,1,17.27-6.744c.839-.073,1.715-.11,2.6-.11a29.928,29.928,0,0,1,29.906,23.437,23.046,23.046,0,0,1-.264,13.7,19.45,19.45,0,0,0-1.008,6.472,22.122,22.122,0,0,0,1.127,5.967,32.931,32.931,0,0,0,3.726,8.406,24.3,24.3,0,0,1,3.249,7.7,22.378,22.378,0,0,1,.437,7.474c-1.4,11.234-12.927,17.716-13.417,17.986A27.06,27.06,0,0,1,3348.482,1374.412Z" transform="translate(-3305.383 -1279.32)" fill="#15171a"/>
            <g id="Group_7533" data-name="Group 7533">
              <path id="Path_13693" data-name="Path 13693" d="M3372.052,1346.217a24.384,24.384,0,0,0-3.911-12.476,32.423,32.423,0,0,1-3.662-8.252,21.666,21.666,0,0,1-1.1-5.8,18.9,18.9,0,0,1,.983-6.27,23.7,23.7,0,0,0,.268-14.058,35.545,35.545,0,0,0-2.739-7.3,30.243,30.243,0,0,0-7.949-9.883,31.9,31.9,0,0,0-19.863-6.746v.668h0v-.668c-.907,0-1.8.038-2.661.113a34.616,34.616,0,0,0-17.616,6.876,32.52,32.52,0,0,0-6.655,6.721,27.785,27.785,0,0,0-4.219,8.38,37.547,37.547,0,0,0-1.335,12.978c.265,3.737,1.248,9.009,4.422,12.891.092.113.2.238.314.378a15.049,15.049,0,0,1,3.85,7.767,13,13,0,0,1-.3,4.871c-.022.1-.042.181-.058.256a13.6,13.6,0,0,0-.251,3.59c.01.22.027.444.046.671s.042.441.07.665h0c.028.217.058.436.092.657.028.179.058.358.091.54a28.5,28.5,0,0,0,1.7,5.7h0q.391.96.856,1.927a37.833,37.833,0,0,0,11.024,13.612,35.851,35.851,0,0,0,21.156,7.166,27.73,27.73,0,0,0,13.557-3.365,32.877,32.877,0,0,0,6.589-5.052c4.1-4.044,6.579-8.69,7.169-13.438.056-.452.094-.9.118-1.331.016-.3.027-.591.029-.879h0C3372.063,1346.809,3372.06,1346.509,3372.052,1346.217Zm-37.607-69.454.14,0c.175,0,.355.006.54.013l.225.008h.009l.441.021h.013c.157.008.318.017.481.029.131.009.264.018.4.03l.029,0,.156.014.071.005c.1.008.192.016.29.027.517.049,1.057.115,1.616.2.07.009.143.02.214.032l.163.025c.1.015.192.03.288.047l.291.051c.1.016.2.035.294.053.129.024.257.049.387.076s.27.054.406.084q.143.029.286.062l.211.048.022,0c.168.038.338.079.509.122.208.052.416.106.626.163.1.028.21.057.316.087l.318.092c.133.039.267.079.4.12.15.046.3.094.452.145.1.032.207.067.31.1q.225.076.453.156c.218.077.436.159.656.243.138.053.275.107.413.162.079.031.158.063.237.1s.128.053.192.079l.161.068.277.119c.126.055.251.111.378.169.223.1.444.206.667.315q.5.245,1,.513.336.179.67.372.167.095.334.194c.2.116.389.234.585.356l.209.132c.1.064.2.129.3.2s.2.132.3.2q.3.2.6.417c.11.078.22.157.331.239,0,0,0,0,0,0,.219.162.438.327.656.5.109.085.218.172.327.26q.319.257.626.52c.135.116.27.233.4.35.1.086.191.172.286.26l.149.137.162.151c.1.1.2.193.3.291l.193.19c.076.076.152.15.226.227l.225.231q.114.117.224.234c.085.091.169.18.252.271a29.021,29.021,0,0,1,2.824,3.622h0c.286.437.557.871.81,1.3a33.76,33.76,0,0,1,3.551,8.7,23.947,23.947,0,0,1,.874,7.155c-.214,5.444-2.315,7.581-2.168,12.869a22.84,22.84,0,0,0,1.152,6.13c2.242,7.922,5.552,9.559,6.964,16.062a23.891,23.891,0,0,1,.491,3.169c.024.284.044.58.056.887.013.282.02.574.02.873a18.9,18.9,0,0,1-.14,2.321c-1.342,10.8-12.382,17.1-13.076,17.483a26.56,26.56,0,0,1-12.912,3.2,34.6,34.6,0,0,1-20.349-6.9,36.309,36.309,0,0,1-9.715-11.361,30.328,30.328,0,0,1-3.352-9.033c-.032-.173-.061-.345-.087-.515-.035-.229-.066-.456-.093-.68a0,0,0,0,1,0,0q-.042-.338-.068-.665t-.042-.672a12.152,12.152,0,0,1,.232-3.084,14.826,14.826,0,0,0,.379-5.591,15.21,15.21,0,0,0-3.073-7.109l0-.006c-.152-.2-.3-.388-.44-.564-.028-.036-.056-.07-.084-.1-.191-.235-.367-.447-.524-.634-.047-.054-.091-.107-.132-.156l-.053-.063-.052-.062-.094-.115c-5.16-6.313-4.889-17.848-2.843-24.637q.319-1.058.729-2.082.138-.341.284-.679c.028-.064.055-.129.084-.192s.056-.129.086-.192q.056-.127.117-.255c.079-.169.161-.337.242-.5.041-.084.083-.168.125-.25q.128-.25.258-.5s0,0,0,0c.089-.164.178-.328.269-.49h0c.069-.122.139-.243.209-.365s.15-.259.229-.386c.033-.057.068-.114.1-.17.082-.135.167-.27.251-.4l.229-.354c.155-.234.314-.468.474-.7.054-.077.108-.154.163-.23q.246-.344.5-.68c.114-.15.23-.3.347-.447s.235-.294.354-.44c.06-.072.12-.145.182-.217l.121-.144.291-.336c.092-.1.184-.209.278-.312l.055-.061c.039-.045.079-.09.122-.133.086-.1.175-.191.263-.285q.195-.207.393-.41c.084-.086.168-.171.253-.256s.163-.163.246-.244c.1-.1.207-.2.311-.3.045-.043.088-.085.133-.126.085-.08.17-.16.256-.239l.118-.108c.109-.1.221-.2.332-.3.04-.037.08-.071.121-.107l.138-.119c.01-.01.022-.02.033-.03.043-.039.087-.076.131-.112.147-.126.295-.251.446-.376.073-.062.147-.123.221-.182.147-.121.3-.24.447-.357.076-.06.152-.119.228-.177l.227-.173c.061-.047.122-.093.184-.138l.2-.145.315-.227q.165-.119.331-.234l.139-.1c.1-.071.2-.14.306-.209q.391-.265.791-.518c.064-.041.13-.083.2-.123.147-.092.3-.183.445-.272s.3-.179.448-.266.333-.193.5-.286q.378-.212.76-.414l.183-.1q.322-.168.648-.328l.328-.16.39-.185.315-.142c.19-.087.382-.171.574-.254.144-.062.287-.123.432-.182l.292-.118q.656-.263,1.323-.5c.129-.046.257-.091.387-.134l.309-.1q.367-.12.736-.233l.342-.1.353-.1.069-.02.343-.093c.215-.056.428-.111.643-.163.117-.029.235-.058.354-.084l.355-.08q.178-.04.355-.076l.356-.071.294-.056.1-.018q.321-.059.642-.11c.138-.022.275-.044.414-.063l.322-.046.322-.042q.568-.071,1.138-.12l.1-.008c.136-.011.3-.024.479-.037l.289-.017c.215-.013.454-.023.714-.031l.268-.007.224,0,.169,0C3333.985,1276.76,3334.21,1276.76,3334.444,1276.763Z" transform="translate(-3301.497 -1275.424)" fill="#464149"/>
            </g>
          </g>
        </g>
        <g id="Group_7537" data-name="Group 7537" transform="translate(1.337 1.337)">
          <g id="Group_7536" data-name="Group 7536">
            <path id="Path_13694" data-name="Path 13694" d="M3360.9,1291c-8.9-7.181-19.278-6.543-21.569-6.343-12.156,1.06-23.869,9.56-27.327,21.03-2.046,6.79-2.317,18.325,2.843,24.637.323.395.826.965,1.383,1.7l-.459-.852a31.618,31.618,0,0,1-3.361-11.624,35.613,35.613,0,0,1,1.3-12.157c3.458-11.472,15.171-19.972,27.325-21.03,2.293-.2,12.672-.841,21.571,6.343q.7.568,1.341,1.154A27.815,27.815,0,0,0,3360.9,1291Z" transform="translate(-3310.631 -1284.554)" fill="#fff"/>
          </g>
        </g>
        <path id="Path_13695" data-name="Path 13695" d="M3400.34,1621.6c-.548,1.01-8.735,15.5-25.242,16.672-10.177.722-20.806-3.81-26.468-11.812a24.34,24.34,0,0,1-2.659-4.86c1.554-.137,8.668-.88,13.831-3.972a8.953,8.953,0,0,0,3.954-3.956,8.775,8.775,0,0,0,.66-3.295c.081-1.155.145-2.593.134-4.282-.007-1.106-.047-2.319-.134-3.629h13.36c-.087,1.31-.126,2.525-.134,3.629-.013,1.69.052,3.127.134,4.282a8.783,8.783,0,0,0,.658,3.295,8.949,8.949,0,0,0,3.956,3.956C3386.952,1620.363,3397.987,1621.292,3400.34,1621.6Z" transform="translate(-3339.46 -1554.591)" fill="#fff"/>
        <g id="Group_7538" data-name="Group 7538" transform="translate(6.178 47.547)">
          <path id="Path_13696" data-name="Path 13696" d="M3400.34,1621.6c-.548,1.01-8.735,15.5-25.242,16.672-10.177.722-20.806-3.81-26.468-11.812a24.34,24.34,0,0,1-2.659-4.86c1.554-.137,8.668-.88,13.831-3.972a8.953,8.953,0,0,0,3.954-3.956,8.775,8.775,0,0,0,.66-3.295c.081-1.155.145-2.593.134-4.282-.007-1.106-.047-2.319-.134-3.629h13.36c-.087,1.31-.126,2.525-.134,3.629-.013,1.69.052,3.127.134,4.282a8.783,8.783,0,0,0,.658,3.295,8.949,8.949,0,0,0,3.956,3.956C3386.952,1620.363,3397.987,1621.292,3400.34,1621.6Z" transform="translate(-3345.638 -1602.138)" fill="#fff"/>
          <path id="Path_13697" data-name="Path 13697" d="M3371,1636.743a32.123,32.123,0,0,1-12.911-2.738,28.023,28.023,0,0,1-11.678-9.29,24.7,24.7,0,0,1-2.7-4.926.333.333,0,0,1,.279-.458c1.963-.173,8.75-.968,13.689-3.927a8.77,8.77,0,0,0,3.822-3.808,8.49,8.49,0,0,0,.63-3.181c.1-1.383.143-2.815.133-4.256-.008-1.176-.052-2.391-.133-3.609a.333.333,0,0,1,.333-.355h13.36a.333.333,0,0,1,.332.355c-.08,1.215-.125,2.429-.133,3.609-.01,1.441.033,2.833.133,4.256a8.478,8.478,0,0,0,.629,3.181,8.765,8.765,0,0,0,3.824,3.808c3.924,2.349,12.765,3.35,16.54,3.777.549.062.982.111,1.282.151a.334.334,0,0,1,.249.49,35.85,35.85,0,0,1-6.7,8.36,33.274,33.274,0,0,1-7.854,5.494,29.143,29.143,0,0,1-10.956,2.991Q3372.1,1636.743,3371,1636.743Zm-26.494-16.792a23.985,23.985,0,0,0,2.449,4.378c5.452,7.706,15.97,12.4,26.172,11.672a29.618,29.618,0,0,0,18.4-8.308,36.175,36.175,0,0,0,6.327-7.762l-.776-.089c-3.818-.432-12.76-1.444-16.808-3.868a9.373,9.373,0,0,1-4.089-4.1,9.132,9.132,0,0,1-.687-3.409c-.1-1.44-.145-2.849-.134-4.307.007-1.078.045-2.184.112-3.293h-12.65c.067,1.112.1,2.219.112,3.294.01,1.458-.036,2.907-.135,4.307a9.141,9.141,0,0,1-.688,3.409,9.382,9.382,0,0,1-4.086,4.1C3353.3,1618.809,3346.952,1619.7,3344.511,1619.951Z" transform="translate(-3343.695 -1600.195)" fill="#464149"/>
        </g>
        <g id="Group_7539" data-name="Group 7539" transform="translate(11.157 12.775)">
          <path id="Path_13698" data-name="Path 13698" d="M3406.65,1402.269a17.431,17.431,0,0,0,1.333-1.236,18.807,18.807,0,0,0,3.221-4.558,23.291,23.291,0,0,0,1.7-4.129,5.56,5.56,0,0,0,1.873-.582c2.806-1.471,3.739-5.2,3.5-7.9a5.916,5.916,0,0,0-1.844-4.361,5.316,5.316,0,0,0-3.581-1.1c-1.819-10.329-8.09-14.512-16.723-13.182-8.367,1.289-11.955,8.381-13.133,14.893a14.951,14.951,0,0,0-.238,2.552c-.125.277-.288.621-.5,1.016-.354.669-.653,1.132-.77,1.316-.965,1.53-1.8,2.854-1.379,3.606a3.982,3.982,0,0,0,1.663,1.123,1.49,1.49,0,0,1,.672.571,1.019,1.019,0,0,1,.083.333c0,.007,0,.012,0,.014v0a22.157,22.157,0,0,0,.481,3,12.389,12.389,0,0,0,1.653,4.684,13.269,13.269,0,0,0,10.685,6.127,11.411,11.411,0,0,0,1.416-.06Z" transform="translate(-3379.664 -1364.647)" fill="#fff"/>
          <path id="Path_13699" data-name="Path 13699" d="M3393.616,1402.832l-.232,0a13.583,13.583,0,0,1-10.964-6.287,12.725,12.725,0,0,1-1.7-4.8,22.547,22.547,0,0,1-.485-3.029c0-.006,0-.013,0-.019a.7.7,0,0,0-.056-.226,1.127,1.127,0,0,0-.5-.4h0a4.027,4.027,0,0,1-1.821-1.266c-.517-.925.324-2.259,1.388-3.946l.03-.047c.132-.208.405-.641.727-1.247.163-.308.317-.621.459-.933a15.348,15.348,0,0,1,.242-2.538,22.388,22.388,0,0,1,3.934-9.548,14.252,14.252,0,0,1,9.477-5.615c4.489-.692,8.247.077,11.168,2.283,2.979,2.25,4.958,5.913,5.883,10.889h0a5.537,5.537,0,0,1,3.514,1.178,6.234,6.234,0,0,1,1.964,4.589c.261,2.9-.777,6.709-3.672,8.227a5.831,5.831,0,0,1-1.771.586,23.629,23.629,0,0,1-1.665,3.986,19.2,19.2,0,0,1-3.277,4.634,17.894,17.894,0,0,1-1.359,1.259.333.333,0,1,1-.427-.512,17.21,17.21,0,0,0,1.308-1.212,18.58,18.58,0,0,0,3.166-4.482,22.994,22.994,0,0,0,1.678-4.07.334.334,0,0,1,.276-.234,5.212,5.212,0,0,0,1.761-.547c2.625-1.376,3.56-4.892,3.318-7.577a5.588,5.588,0,0,0-1.723-4.134,4.963,4.963,0,0,0-3.354-1.021.336.336,0,0,1-.344-.275c-1.706-9.686-7.51-14.271-16.344-12.911-9.138,1.407-11.977,9.766-12.856,14.623a14.626,14.626,0,0,0-.232,2.5.33.33,0,0,1-.03.134c-.155.346-.325.694-.506,1.035-.333.629-.616,1.077-.753,1.292l-.029.046c-.833,1.321-1.693,2.686-1.37,3.266a3.387,3.387,0,0,0,1.506.98l0,0a1.653,1.653,0,0,1,.846.737,1.369,1.369,0,0,1,.11.444v.014a21.878,21.878,0,0,0,.473,2.947c0,.009,0,.018.005.027a12.07,12.07,0,0,0,1.608,4.559,12.892,12.892,0,0,0,10.407,5.967,11.085,11.085,0,0,0,1.374-.058.333.333,0,1,1,.07.663A11.728,11.728,0,0,1,3393.616,1402.832Z" transform="translate(-3377.705 -1362.688)" fill="#464149"/>
        </g>
        <g id="Group_7540" data-name="Group 7540" transform="translate(44.34 30.461)">
          <path id="Path_13700" data-name="Path 13700" d="M3604.815,1490.7a.333.333,0,0,1-.215-.588,4.352,4.352,0,0,0,1.16-1.5l0-.011a3.571,3.571,0,0,0,.066-3.347,3.13,3.13,0,0,0-1.278-1.124.333.333,0,1,1,.294-.6,3.8,3.8,0,0,1,1.548,1.366,4.094,4.094,0,0,1-.025,3.984l-.005.01a5.018,5.018,0,0,1-1.335,1.732A.334.334,0,0,1,3604.815,1490.7Z" transform="translate(-3604.368 -1483.493)" fill="#464149"/>
        </g>
        <path id="Path_13701" data-name="Path 13701" d="M3446.12,1467.315c0,1.075-.648,1.947-1.448,1.947s-1.448-.872-1.448-1.947.648-1.947,1.448-1.947S3446.12,1466.24,3446.12,1467.315Z" transform="translate(-3422.475 -1437.56)" fill="#464149"/>
        <g id="Group_7541" data-name="Group 7541" transform="translate(19.669 41.671)">
          <path id="Path_13702" data-name="Path 13702" d="M3437.691,1562.782a5.263,5.263,0,0,1-1.544-.234.429.429,0,0,1,.253-.819,4.315,4.315,0,0,0,2.187.1,4.388,4.388,0,0,0,2.5-1.6.428.428,0,0,1,.677.525,5.246,5.246,0,0,1-2.994,1.914A5.04,5.04,0,0,1,3437.691,1562.782Z" transform="translate(-3435.845 -1560.06)" fill="#464149"/>
        </g>
        <g id="Group_7542" data-name="Group 7542" transform="translate(19.669 23.23)">
          <path id="Path_13703" data-name="Path 13703" d="M3441.095,1435.65a.427.427,0,0,1-.22-.061,4.447,4.447,0,0,0-1.432-.555,4.757,4.757,0,0,0-2.979.43.428.428,0,1,1-.379-.768,5.619,5.619,0,0,1,3.524-.5,5.3,5.3,0,0,1,1.707.661.428.428,0,0,1-.221.8Z" transform="translate(-3435.845 -1434.096)" fill="#464149"/>
        </g>
        <path id="Path_13704" data-name="Path 13704" d="M3467.781,1339.094a19.7,19.7,0,0,0,1.432,7.893,20.871,20.871,0,0,0,5.207,7.312,30.43,30.43,0,0,0,14.836,7.919,29.805,29.805,0,0,0,12.781-.232q-.166-9.784-.332-19.568a39.6,39.6,0,0,0-20.468-5.78A38.775,38.775,0,0,0,3467.781,1339.094Z" transform="translate(-3443.432 -1327.676)" fill="#15171a"/>
        <g id="Group_7543" data-name="Group 7543" transform="translate(24.011 11.085)">
          <path id="Path_13705" data-name="Path 13705" d="M3493.5,1375.578a30.306,30.306,0,0,1-6.454-.7,30.789,30.789,0,0,1-13.845-7.091,21.911,21.911,0,0,1-6.236-8.3,20.14,20.14,0,0,1-1.456-8.025.333.333,0,1,1,.666.014,19.479,19.479,0,0,0,1.408,7.761,21.322,21.322,0,0,0,6.064,8.054,29.748,29.748,0,0,0,25.771,7.027.333.333,0,1,1,.129.654A31.065,31.065,0,0,1,3493.5,1375.578Z" transform="translate(-3465.506 -1351.143)" fill="#464149"/>
        </g>
        <path id="Path_13706" data-name="Path 13706" d="M3350.689,1341.605a4.789,4.789,0,0,0,1.631,1.233c2.066.932,4.222-.074,6.633-1.09a22,22,0,0,0,7.924-5.7c2.808-3.189,3.183-5.525,3.257-6.055a8.9,8.9,0,0,0,.086-1.307l-2.385-3.3q-2.257,2.278-4.677,4.6c-1.9,1.823-3.246,3.047-5.011,4.674S3353.839,1338.647,3350.689,1341.605Z" transform="translate(-3343.487 -1318.076)" fill="#15171a"/>
        <g id="Group_7544" data-name="Group 7544" transform="translate(10.442 14.973)">
          <path id="Path_13707" data-name="Path 13707" d="M3373.154,1387.844a.333.333,0,0,1-.06-.661,21.459,21.459,0,0,0,12.423-6.7,18.605,18.605,0,0,0,1.9-2.625.333.333,0,0,1,.572.343,19.257,19.257,0,0,1-1.973,2.719,22.119,22.119,0,0,1-12.806,6.917A.343.343,0,0,1,3373.154,1387.844Z" transform="translate(-3372.821 -1377.698)" fill="#464149"/>
        </g>
      </g>
      <g id="Legs" transform="translate(93.742 144.341)">
        <g id="Group_7547" data-name="Group 7547">
          <g id="Group_7546" data-name="Group 7546">
            <path id="Path_13708" data-name="Path 13708" d="M3332.255,2267.93c.049-.21.1-.419.148-.628a.385.385,0,0,1,.009-.04c.052-.223.1-.446.157-.668.012-.052.024-.1.037-.154a.668.668,0,0,1,.65-.514l48.995.037a.67.67,0,0,1,.62.42c.033.084.066.167.1.25.09.222.177.443.263.667,0,0,0,0,0,0,.087.222.172.443.256.667h-1.533l-23.924-.019-25.091-.02Z" transform="translate(-3331.567 -2265.257)" fill="#15171a"/>
            <g id="Group_7545" data-name="Group 7545">
              <path id="Path_13709" data-name="Path 13709" d="M3379.94,2263.4h-.718s0,0,0,0h-.206c-.163,0-.334,0-.513,0v0q.131.331.259.666h1.431C3380.109,2263.848,3380.025,2263.625,3379.94,2263.4Zm0,0h0c-.086-.225-.172-.448-.26-.669-.067-.167-.132-.334-.2-.5a1.337,1.337,0,0,0-1.24-.839l-24.8-.019-24.19-.018h0a1.338,1.338,0,0,0-1.3,1.029c-.024.1-.049.206-.073.308-.053.221-.105.444-.157.667,0,.014-.007.028-.01.041l-.148.627h1.374c0-.016.008-.033.011-.049.046-.193.091-.386.137-.579,0-.014.006-.026.01-.04.052-.223.1-.446.157-.667h0l48.993.037h0q.134.333.264.669v0q.131.331.259.666h1.431C3380.109,2263.848,3380.025,2263.625,3379.94,2263.4Z" transform="translate(-3327.556 -2261.359)" fill="#1f1f1f"/>
            </g>
          </g>
        </g>
        <g id="Group_7549" data-name="Group 7549" transform="translate(1.364 2.624)">
          <g id="Group_7548" data-name="Group 7548">
            <path id="Path_13710" data-name="Path 13710" d="M3385.9,2279.372l-23.924-.018-25.091-.02h-.009c0-.017.008-.034.011-.049h.009l48.984.037C3385.888,2279.339,3385.894,2279.355,3385.9,2279.372Z" transform="translate(-3336.876 -2279.285)" fill="#fff"/>
          </g>
        </g>
      </g>
      <g id="Body" transform="translate(0 30.779)">
        <g id="Group_7560" data-name="Group 7560">
          <g id="Group_7553" data-name="Group 7553">
            <g id="Group_7552" data-name="Group 7552">
              <g id="Group_7551" data-name="Group 7551">
                <path id="Path_13711" data-name="Path 13711" d="M2722.132,1545.371c-3.908,0-7.568-2.471-10.3-6.958a34.775,34.775,0,0,1,0-33.067c2.736-4.487,6.4-6.958,10.3-6.958s7.569,2.471,10.3,6.958a34.773,34.773,0,0,1,0,33.067C2729.7,1542.9,2726.041,1545.371,2722.132,1545.371Z" transform="translate(-2704.659 -1496.525)" fill="#dd4a48"/>
                <g id="Group_7550" data-name="Group 7550">
                  <path id="Path_13712" data-name="Path 13712" d="M2712.8,1492.82c-2.814-4.615-6.6-7.156-10.658-7.156h-.084a9.713,9.713,0,0,0-2.72.412,10.521,10.521,0,0,0-1.173.432,15.3,15.3,0,0,0-6.682,6.311,35.186,35.186,0,0,0,0,33.5,15.3,15.3,0,0,0,6.682,6.311,10.184,10.184,0,0,0,1.169.431,9.729,9.729,0,0,0,2.807.415,10.19,10.19,0,0,0,5.412-1.6c.193-.118.383-.244.571-.375s.364-.261.544-.4a15.843,15.843,0,0,0,2.639-2.638l.038-.047a20.709,20.709,0,0,0,1.454-2.094,24.8,24.8,0,0,0,1.414-2.687,31.564,31.564,0,0,0,2.336-7.914q.067-.4.122-.8c.039-.268.073-.538.106-.809a38.649,38.649,0,0,0,.265-4.542A32.607,32.607,0,0,0,2712.8,1492.82Zm3.218,20.6q-.041.41-.093.817t-.111.806a30.746,30.746,0,0,1-2.677,8.926,21.334,21.334,0,0,1-2.383,3.849,15.052,15.052,0,0,1-2.671,2.674c-.179.138-.36.269-.544.394s-.378.25-.57.365a9.664,9.664,0,0,1-3.454,1.284c-.239.038-.479.067-.72.084-.217.017-.434.025-.654.025-3.656,0-6.983-2.284-9.484-6.031-.09-.131-.177-.265-.262-.4s-.17-.273-.255-.412-.168-.279-.248-.422c-.042-.071-.083-.142-.122-.215l-.128-.231q-.063-.117-.125-.234c-.042-.079-.084-.157-.124-.237-.07-.135-.139-.272-.207-.41q-.486-.985-.9-2.057c-.037-.093-.072-.186-.108-.28-.071-.187-.14-.377-.209-.57-.06-.169-.118-.341-.177-.515-.017-.051-.034-.1-.05-.154s-.033-.1-.051-.155q-.1-.314-.2-.634c-.016-.054-.032-.109-.048-.164q-.1-.353-.2-.716c-.023-.085-.046-.171-.067-.257-.012-.043-.022-.086-.033-.13-.017-.067-.034-.135-.051-.2s-.031-.125-.046-.19c-.022-.087-.042-.175-.062-.263-.01-.045-.021-.09-.031-.136-.016-.068-.031-.137-.047-.206s-.028-.125-.04-.188c-.02-.09-.038-.178-.056-.268s-.037-.178-.054-.267-.035-.18-.053-.271-.034-.182-.051-.272c-.049-.272-.1-.547-.139-.823-.015-.092-.029-.185-.042-.277s-.027-.186-.04-.279c-.028-.2-.054-.393-.078-.59-.016-.131-.032-.262-.047-.394-.018-.165-.036-.332-.053-.5a.033.033,0,0,0,0-.009c-.016-.163-.031-.327-.045-.492-.01-.119-.02-.24-.029-.36-.014-.175-.025-.349-.037-.525,0-.067-.008-.133-.012-.2-.007-.122-.012-.244-.018-.365s-.01-.224-.014-.337c-.008-.181-.013-.364-.017-.547,0-.1,0-.2-.006-.3,0-.2,0-.4,0-.595q0-.472.011-.938c0-.1.006-.2.009-.307.01-.325.024-.648.044-.969.008-.146.017-.292.028-.436.008-.124.017-.247.028-.37.012-.165.027-.33.042-.495q.053-.562.122-1.115a.162.162,0,0,1,0-.022q.035-.281.075-.561c.026-.186.054-.371.083-.556s.058-.368.091-.55c.02-.114.041-.227.061-.341s.04-.213.061-.319c.011-.067.025-.133.039-.2s.028-.141.043-.213c.018-.093.038-.186.058-.279q.057-.267.118-.531c.021-.087.042-.176.062-.263q.062-.262.13-.52c.023-.087.045-.172.067-.258s.046-.171.07-.256.046-.17.071-.255c.047-.169.1-.338.148-.5.1-.339.209-.672.323-1,.025-.077.052-.154.079-.23.113-.322.23-.64.353-.951.029-.078.06-.156.092-.233s.071-.177.108-.264c.022-.054.044-.107.066-.16.037-.089.074-.177.113-.264s.064-.151.1-.225c.06-.135.121-.269.183-.4s.124-.264.188-.4c.039-.082.08-.164.121-.246s.09-.178.136-.267c.071-.141.145-.28.219-.418l.114-.207c.076-.137.152-.271.23-.4l.118-.2c.039-.066.078-.131.118-.2.067-.11.135-.22.2-.328l0-.007q.078-.122.155-.241.26-.4.534-.774c.042-.059.084-.116.128-.173s.069-.094.1-.14.076-.1.115-.149c.021-.029.043-.058.066-.086.048-.062.1-.124.147-.185.135-.169.273-.334.414-.495.04-.047.082-.094.123-.14.086-.1.175-.194.263-.289q.1-.1.2-.207l.2-.2c.1-.1.194-.191.292-.284.037-.034.073-.07.111-.1l.111-.1c.053-.047.1-.094.157-.14.083-.072.166-.144.249-.214.06-.05.121-.1.183-.149s.122-.1.184-.146.107-.081.161-.122q.149-.112.3-.217l.127-.089c.057-.039.115-.078.174-.116s.121-.079.181-.117q.288-.183.582-.345.441-.243.894-.438l.152-.064.152-.061.2-.077q.2-.074.411-.14a.015.015,0,0,1,.009,0l.2-.061.2-.056c.065-.018.132-.034.2-.049.039-.01.077-.02.116-.028.079-.018.158-.034.238-.051l.238-.044.159-.025.16-.023.161-.02q.429-.048.864-.055h.126q.271,0,.538.017h0c.124.008.247.017.37.03s.244.029.367.047.228.036.34.056l.169.033a.06.06,0,0,1,.018,0l.165.037c.116.026.233.056.349.087l.173.049.173.053c.057.017.115.035.171.055.073.024.144.049.215.075s.143.053.213.08.138.054.207.083.143.061.216.093l.167.076.166.079.167.083.164.086c.055.03.109.059.164.09l.163.092c.054.031.108.062.162.1s.108.065.161.1.107.068.161.1l.2.13c.131.089.261.18.389.275.067.049.134.1.2.15q.155.117.306.242l.153.126.152.129c.1.087.2.176.3.266l.148.138.146.14c.049.047.1.1.146.144l.145.146.144.148.142.151c.047.052.094.1.14.154s.094.1.14.157c.186.211.369.428.547.654.067.084.134.169.2.254s.131.172.2.259c.093.125.185.253.274.381l.058.083c.019.026.038.054.056.081.042.061.084.123.125.185s.077.115.115.172c.053.08.106.162.157.243l.1.154c.033.053.066.106.1.159.113.181.222.366.328.554l.135.237,0,.008a32.431,32.431,0,0,1,3.677,15.555A37.725,37.725,0,0,1,2716.02,1513.422Z" transform="translate(-2687.243 -1485.664)" fill="#1f1f1f"/>
                </g>
              </g>
            </g>
          </g>
          <g id="Group_7555" data-name="Group 7555" transform="translate(9.395 7.576)">
            <g id="Group_7554" data-name="Group 7554">
              <path id="Path_13713" data-name="Path 13713" d="M2758.387,1570.787a.415.415,0,0,1-.415-.415v-3.18a6.58,6.58,0,0,1-3.657-2.706.414.414,0,0,1-.042-.383l1.36-3.457a.415.415,0,0,1,.325-.258.434.434,0,0,1,.061,0,.415.415,0,0,1,.325.157c1.038,1.306,1.87,1.888,2.7,1.888.651,0,1.315-.236,1.315-1.985,0-1.344-.912-2.106-2.067-3.07-1.572-1.312-3.529-2.946-3.529-6.714,0-3.373,1.194-5.84,3.212-6.681v-3.324a.415.415,0,0,1,.415-.415h2.068a.415.415,0,0,1,.415.415v3.252a5.908,5.908,0,0,1,3.089,2.9.414.414,0,0,1,.007.4l-1.559,2.929a.415.415,0,0,1-.345.219h-.021a.416.416,0,0,1-.344-.184c-.757-1.13-1.308-1.569-1.964-1.569-.573,0-1.158.216-1.158,1.821,0,1.171.849,1.839,1.924,2.685,1.635,1.287,3.671,2.889,3.671,6.984,0,3.5-1.2,6-3.3,6.9v3.384a.415.415,0,0,1-.415.415Z" transform="translate(-2753.831 -1539.825)" fill="#fff"/>
              <path id="Path_13714" data-name="Path 13714" d="M2762.155,1557.164h0a9.876,9.876,0,0,0-.087-.988,7.553,7.553,0,0,0-2.212-4.5c-.16-.163-.324-.316-.487-.46s-.344-.3-.512-.434-.35-.281-.518-.413c-1.161-.913-1.766-1.433-1.766-2.359,0-1.406.448-1.406.744-1.406.413,0,.848.235,1.618,1.385a.83.83,0,0,0,.689.368h.043a.833.833,0,0,0,.69-.439l1.558-2.929a.827.827,0,0,0-.013-.8,6.518,6.518,0,0,0-3.034-2.976v-2.964a.829.829,0,0,0-.829-.829h-2.068a.829.829,0,0,0-.829.829v3.057c-2.023,1-3.211,3.54-3.211,6.949,0,3.961,2.039,5.664,3.678,7.031,1.225,1.023,1.918,1.655,1.918,2.752,0,1.57-.542,1.57-.9,1.57-.68,0-1.433-.55-2.373-1.731a.828.828,0,0,0-.649-.314.867.867,0,0,0-.123.009.828.828,0,0,0-.649.517l-1.36,3.457a.827.827,0,0,0,.084.766,7.084,7.084,0,0,0,3.586,2.784v2.87a.829.829,0,0,0,.829.829h2.068a.829.829,0,0,0,.829-.829v-3.119c2.026-1.016,3.208-3.433,3.293-6.771,0-.13.006-.261.006-.394C2762.167,1557.5,2762.163,1557.329,2762.155,1557.164Zm-.817.509c0,3.323-1.134,5.855-3.3,6.618v3.666h-2.068v-3.51a6.056,6.056,0,0,1-3.727-2.606h0l1.36-3.456c.033.042.068.084.1.125.067.082.132.161.2.238l.1.113c.065.075.131.146.2.215a7.223,7.223,0,0,0,.572.55c.063.053.125.1.188.152s.124.093.186.135.124.085.185.121l.093.054c.061.035.123.067.184.1a2.094,2.094,0,0,0,.277.115,2.21,2.21,0,0,0,.744.131,1.845,1.845,0,0,0,.693-.119,1.309,1.309,0,0,0,.363-.209c.021-.016.04-.033.06-.052a.344.344,0,0,0,.029-.026l.059-.06a1.231,1.231,0,0,0,.113-.141c.015-.021.029-.042.042-.064s.028-.045.04-.068.026-.046.038-.07.024-.048.034-.073a.435.435,0,0,0,.029-.064.607.607,0,0,0,.028-.07.141.141,0,0,0,.01-.026c.023-.065.045-.134.064-.206a3.092,3.092,0,0,0,.075-.356c0-.024.007-.048.01-.074a.014.014,0,0,0,0-.007c0-.031.008-.062.011-.094s.006-.064.009-.1c.015-.164.022-.34.022-.525,0-.1,0-.207-.014-.306a3.052,3.052,0,0,0-.084-.471s0,0,0,0,0,0,0-.006a.339.339,0,0,0-.009-.037.228.228,0,0,0-.008-.027.28.28,0,0,0-.013-.043.018.018,0,0,0,0-.01.589.589,0,0,0-.018-.059.3.3,0,0,0-.013-.037.144.144,0,0,0-.01-.028.017.017,0,0,0,0-.01c-.014-.039-.03-.078-.046-.116s-.041-.1-.064-.142h0c-.753-1.567-2.815-2.406-4.131-4.338,0,0,0,0,0,0h0c-.032-.046-.063-.092-.094-.139s-.061-.1-.091-.145a6.241,6.241,0,0,1-.434-.849c-.017-.041-.035-.083-.051-.124q-.117-.3-.21-.623c-.025-.087-.048-.176-.07-.266s-.035-.155-.052-.236c-.006-.024-.01-.048-.015-.072-.014-.067-.025-.135-.037-.2-.006-.033-.011-.066-.016-.1s-.011-.066-.015-.1q-.014-.09-.024-.182t-.021-.2c-.007-.067-.013-.133-.017-.2,0-.033,0-.065-.007-.1s0-.068-.006-.1,0-.089-.006-.137c0-.025,0-.052,0-.078,0-.047,0-.1,0-.144s0-.1,0-.147c0-.1,0-.189,0-.283,0-.041,0-.082,0-.122s0-.086,0-.129,0-.111.008-.167c0-.077.008-.153.014-.227.006-.092.014-.184.022-.273s.016-.157.025-.235c0-.039.008-.078.014-.116.01-.083.021-.163.033-.244s.028-.185.045-.276.029-.162.045-.24c0-.015.006-.031.009-.046.034-.165.071-.325.115-.481.018-.069.037-.138.057-.2.009-.033.02-.067.03-.1.016-.055.033-.109.052-.162a6.594,6.594,0,0,1,.291-.736c.027-.058.054-.115.083-.171.02-.039.039-.078.06-.115s.054-.1.082-.148c.017-.03.033-.06.051-.087.04-.067.08-.132.123-.2.03-.046.06-.091.091-.135s.045-.063.068-.093.039-.053.06-.079l.064-.083c.033-.04.066-.08.1-.12.056-.065.115-.129.174-.189.022-.023.046-.046.069-.068a3.439,3.439,0,0,1,.3-.263l.07-.055.094-.069.122-.083c.04-.026.081-.053.124-.078a3.508,3.508,0,0,1,.71-.323v-3.612h2.068v3.56a5.333,5.333,0,0,1,3.145,2.793l-1.56,2.929c-.771-1.149-1.423-1.754-2.307-1.754-1.02,0-1.573.674-1.573,2.236,0,1.6,1.311,2.365,2.663,3.474.18.149.362.3.54.466s.38.359.563.558a6.535,6.535,0,0,1,1.5,2.661,7.794,7.794,0,0,1,.241,1.163,9.6,9.6,0,0,1,.079.99C2761.335,1557.432,2761.337,1557.552,2761.337,1557.672Z" transform="translate(-2751.414 -1537.409)" fill="#1f1f1f"/>
            </g>
          </g>
          <g id="Group_7559" data-name="Group 7559" transform="translate(10.224 8.406)">
            <g id="Group_7556" data-name="Group 7556" transform="translate(0.516)">
              <path id="Path_13715" data-name="Path 13715" d="M2761.777,1557.234a7.311,7.311,0,0,1-.824-3.578c0-3.214,1.09-5.476,2.889-6.271a.749.749,0,0,0,.322-.692v-2.119c0-.512.253-.926.565-.926h1.156v-.568h-2.069v3.609c-1.99.658-3.211,3-3.211,6.395A7.042,7.042,0,0,0,2761.777,1557.234Z" transform="translate(-2760.604 -1543.081)" fill="#dd4a48"/>
            </g>
            <g id="Group_7558" data-name="Group 7558" transform="translate(0 18.491)">
              <g id="Group_7557" data-name="Group 7557">
                <path id="Path_13716" data-name="Path 13716" d="M2762.9,1669.384a2.882,2.882,0,0,1,.292,1.3c0,1.583-.53,2.4-1.73,2.4-1,0-1.945-.69-3.022-2.042l-1.359,3.456.8-1.482c.356-.663.948-.827,1.414-.384a2.96,2.96,0,0,0,2.519,1.024,1.732,1.732,0,0,0,1.26-.93,3.079,3.079,0,0,0,.386-1.434A3.118,3.118,0,0,0,2762.9,1669.384Z" transform="translate(-2757.079 -1669.384)" fill="#dd4a48"/>
              </g>
            </g>
          </g>
        </g>
        <g id="Group_7562" data-name="Group 7562" transform="translate(16.135 20.222)">
          <g id="Group_7561" data-name="Group 7561">
            <path id="Path_13717" data-name="Path 13717" d="M2858.94,1696.239a11.284,11.284,0,0,1-1.455-.094,11.469,11.469,0,0,1-2.4-.588c-3.613-1.24-7.661-4.478-18.833-15.061-.1-.091-9.661-9.16-18.109-17.863-.872-.9-1.758-1.817-2.634-2.731a20.092,20.092,0,0,1-2.855-1.255,22.013,22.013,0,0,1-5.27-4.11c-.261-.26-.486-.485-.688-.672a8.414,8.414,0,0,1-2.3-2.91,6.049,6.049,0,0,1-.323-.7,3.062,3.062,0,0,1-.161-2.155,2.877,2.877,0,0,1,1.267-1.511,2.92,2.92,0,0,1-.352-1.172,3.161,3.161,0,0,1,1.055-2.519,3.2,3.2,0,0,1,1.261-.7,2.773,2.773,0,0,1,.063-1.719,2.987,2.987,0,0,1,2.021-1.759c.055-.018.11-.034.166-.049-.672-.6-1.134-1.081-1.583-1.545-.188-.194-.378-.391-.586-.6-.576-.577-.984-.942-1.456-1.363-.569-.508-1.215-1.084-2.3-2.169a3.772,3.772,0,0,1-1.433-2.622,2.075,2.075,0,0,1,.865-1.778,1.685,1.685,0,0,1,.88-.231,3.008,3.008,0,0,1,.927.172,2.977,2.977,0,0,1,.733.354h0c.027.017.051.035.074.051,3.425,2.449,9.838,8.427,10.11,8.68,1.3,1.216,1.957,1.821,2.316,2.153.414.383.448.415.63.6,2.391,2.423,3.97,4.023,5.286,6.484a5.282,5.282,0,0,1,.711,2.283,2.75,2.75,0,0,0,.26,1.055,9.187,9.187,0,0,0,.813,1.414,12.838,12.838,0,0,0,1.89,2.039c6.051,5.26,20.445,15.851,20.59,15.958l.031.024c2.365,1.96,4.5,2.953,6.356,2.953a4.875,4.875,0,0,0,1.156-.137c2.744-.671,4.256-3.736,5.591-6.44.188-.382.373-.756.558-1.117a50.06,50.06,0,0,1,14.974-17.059.668.668,0,0,1,.6-.1,12.258,12.258,0,0,1,5.859,3.66c2.337,2.745,3.169,6.58,2.473,11.4-1.687,11.684-12.241,26.543-18.261,30.477A15.805,15.805,0,0,1,2858.94,1696.239Z" transform="translate(-2801.357 -1627.692)" fill="#fff"/>
            <path id="Path_13718" data-name="Path 13718" d="M2806.891,1635.094c-.111-.092-.232-.193-.359-.3l-.22-.188-.137-.12q-.084.434-.179.86a2.926,2.926,0,0,1,.415-.03h.011a3,3,0,0,1,.416.031,2.884,2.884,0,0,1,.517.121C2807.227,1635.366,2807.071,1635.241,2806.891,1635.094Zm0,0c-.111-.092-.232-.193-.359-.3l-.22-.188-.137-.12q-.084.434-.179.86a2.926,2.926,0,0,1,.415-.03h.011a3,3,0,0,1,.416.031,2.884,2.884,0,0,1,.517.121C2807.227,1635.366,2807.071,1635.241,2806.891,1635.094Zm0,0c-.111-.092-.232-.193-.359-.3l-.22-.188-.137-.12q-.084.434-.179.86a2.926,2.926,0,0,1,.415-.03h.011a3,3,0,0,1,.416.031,2.884,2.884,0,0,1,.517.121C2807.227,1635.366,2807.071,1635.241,2806.891,1635.094Zm72.955,11.957a12.917,12.917,0,0,0-6.171-3.866,1.336,1.336,0,0,0-1.2.207,61.609,61.609,0,0,0-5.441,4.562s0,0,0,0a47.1,47.1,0,0,0-9.728,12.727c-.187.366-.378.752-.562,1.126l-.246.5s0,0,0,0a21.258,21.258,0,0,1-2.052,3.5,5.83,5.83,0,0,1-2.231,1.878h0a3.812,3.812,0,0,1-.619.21l-.017,0a4.04,4.04,0,0,1-.694.1c-.1.007-.191.01-.287.01-1.693,0-3.688-.942-5.93-2.8a.683.683,0,0,0-.061-.048c-.145-.107-14.53-10.693-20.547-15.924a12.148,12.148,0,0,1-1.785-1.923,8.6,8.6,0,0,1-.752-1.308,2.1,2.1,0,0,1-.2-.836,5.928,5.928,0,0,0-.787-2.535,28.178,28.178,0,0,0-5.4-6.639c-.192-.2-.236-.235-.652-.62-.353-.326-1.01-.935-2.314-2.151a0,0,0,0,0,0,0c-.072-.067-.564-.525-1.312-1.209l-.379-.346c-.122-.11-.248-.226-.38-.344-.546-.5-1.168-1.054-1.831-1.642l-.639-.564-.4-.35-.406-.353c-1.707-1.482-3.5-2.971-4.828-3.924-.024-.017-.054-.039-.091-.063a3.6,3.6,0,0,0-.9-.435,3.652,3.652,0,0,0-1.133-.2,2.347,2.347,0,0,0-1.224.326,2.25,2.25,0,0,0-.488.394,2.28,2.28,0,0,0-.254.328,2.487,2.487,0,0,0-.2.373,3.375,3.375,0,0,0-.251,1.25,4.378,4.378,0,0,0,1.63,3.1c.644.643,1.136,1.109,1.547,1.487.149.138.289.264.421.382l.362.325.047.043c.444.4.839.75,1.381,1.294.2.2.4.4.58.591.264.273.533.551.845.857a3.342,3.342,0,0,0-1.787,3.323,3.853,3.853,0,0,0-2.227,3.7,3.6,3.6,0,0,0,.187.892,3.377,3.377,0,0,0-1.069,1.523,3.731,3.731,0,0,0,.168,2.607,6.775,6.775,0,0,0,.337.743c0,.013.011.025.015.038.054.137.115.27.181.4s.135.249.211.37a7.229,7.229,0,0,0,.764,1.019q.14.16.29.317c.1.1.2.2.3.3.23.231.467.455.7.674.193.179.415.4.671.656a22.634,22.634,0,0,0,5.426,4.225,20.831,20.831,0,0,0,2.8,1.244c.838.874,1.688,1.754,2.527,2.62,4.421,4.554,9.114,9.173,12.273,12.245,1.789,1.74,3.284,3.179,4.225,4.08.515.5.923.883,1.2,1.149.172.164.311.3.434.4l0,.006c11.254,10.661,15.354,13.93,19.075,15.208a12.227,12.227,0,0,0,2.534.619,12.09,12.09,0,0,0,1.54.1,16.409,16.409,0,0,0,8.875-3.087c.32-.209.652-.447.992-.712q.259-.2.523-.419t.506-.433c.028-.024.054-.048.082-.071a43.968,43.968,0,0,0,5.329-5.857c1.188-1.535,2.367-3.209,3.489-4.967,4.14-6.492,6.853-13.054,7.636-18.48C2883.2,1653.962,2882.312,1649.948,2879.846,1647.051Zm-7.964,32.4a47.684,47.684,0,0,1-6.727,7.806q-.048.045-.1.086c-.171.152-.34.3-.507.433s-.351.287-.522.418q-.438.337-.847.6a15.052,15.052,0,0,1-8.144,2.869,10.558,10.558,0,0,1-1.368-.088,10.939,10.939,0,0,1-2.272-.557c-3.46-1.189-7.41-4.323-18.59-14.915,0,0-9.553-9.049-18.089-17.842-1.146-1.18-2.093-2.165-2.744-2.845a19.484,19.484,0,0,1-2.909-1.266,24.923,24.923,0,0,1-5.819-4.683c-.17-.157-.337-.315-.5-.471-.1-.1-.2-.2-.3-.3s-.2-.2-.291-.308a5.78,5.78,0,0,1-.905-1.252,3.4,3.4,0,0,1-.158-.367c-.009-.016-.017-.032-.025-.049-.07-.13-.135-.264-.2-.406-.031-.069-.06-.14-.087-.212a2.425,2.425,0,0,1-.153-1.7,2.5,2.5,0,0,1,1.461-1.4c.085-.034.151-.059.193-.072a2.391,2.391,0,0,1-.7-1.48,2.476,2.476,0,0,1,.836-1.97,2.631,2.631,0,0,1,1.594-.656c.065,0,.118,0,.156,0h.016a2.359,2.359,0,0,1-.264-2.017,2.412,2.412,0,0,1,1.6-1.359,2.735,2.735,0,0,1,.465-.109,2.926,2.926,0,0,1,.415-.03h.011a3,3,0,0,1,.416.031,2.884,2.884,0,0,1,.517.121c-.126-.1-.282-.225-.463-.372-.111-.092-.232-.193-.359-.3l-.22-.188-.137-.12c-1.082-.947-1.61-1.557-2.383-2.333-.94-.942-1.457-1.343-2.421-2.241-.153-.141-.317-.3-.5-.469s-.358-.344-.56-.543q-.137-.134-.283-.28a3.16,3.16,0,0,1-1.236-2.142,1.857,1.857,0,0,1,.016-.239,1.819,1.819,0,0,1,.121-.477,1.112,1.112,0,0,1,.226-.355.9.9,0,0,1,.177-.141,1.026,1.026,0,0,1,.536-.136,2.391,2.391,0,0,1,.722.139,2.3,2.3,0,0,1,.566.274s.029.018.057.039c1.506,1.077,3.624,2.869,5.527,4.542.131.115.261.229.388.342s.261.23.388.343c.907.805,1.732,1.553,2.375,2.141l.37.338.365.335c.4.366.629.582.629.582,2.784,2.6,2.6,2.408,2.926,2.734,2.345,2.376,3.9,3.954,5.173,6.33.949,1.776.379,2.071.956,3.305a9.884,9.884,0,0,0,.876,1.522h0a13.486,13.486,0,0,0,2,2.152c6.141,5.339,20.632,15.992,20.632,15.992,1.828,1.514,4.284,3.107,6.783,3.107a5.523,5.523,0,0,0,.91-.073c.135-.021.27-.048.405-.082.09-.022.178-.046.264-.072a5.126,5.126,0,0,0,.63-.233,5.829,5.829,0,0,0,1.22-.736c2.069-1.608,3.279-4.53,4.471-6.86,2.359-4.613,6.587-10.7,14.779-16.829a11.5,11.5,0,0,1,5.548,3.456C2885.013,1655.182,2878.863,1669.6,2871.882,1679.453Zm-64.991-44.359c-.111-.092-.232-.193-.359-.3l-.22-.188-.137-.12q-.084.434-.179.86a2.926,2.926,0,0,1,.415-.03h.011a3,3,0,0,1,.416.031,2.884,2.884,0,0,1,.517.121C2807.227,1635.366,2807.071,1635.241,2806.891,1635.094Z" transform="translate(-2797.457 -1623.791)" fill="#464149"/>
          </g>
        </g>
        <g id="Group_7565" data-name="Group 7565" transform="translate(150.88 75.554)">
          <g id="Group_7564" data-name="Group 7564">
            <path id="Path_13719" data-name="Path 13719" d="M3725.764,2045.693q-.868-8.609-1.8-19.523c-.02-.221-.038-.443-.056-.666q-.727-8.55-1.492-18.476a.668.668,0,0,1,.666-.72.644.644,0,0,1,.168.022l20.353,5.267a.668.668,0,0,1,.5.6c.81,12.552,1.347,23.871,1.678,33.492Z" transform="translate(-3721.745 -2005.64)" fill="#fff"/>
            <g id="Group_7563" data-name="Group 7563">
              <path id="Path_13720" data-name="Path 13720" d="M3741.281,2014.956c-.015-.25-.03-.5-.045-.754s-.03-.5-.046-.756q-.153-2.555-.323-5.186a1.337,1.337,0,0,0-1-1.208l-10.176-2.635-10.177-2.634a1.338,1.338,0,0,0-1.193.269,1.31,1.31,0,0,0-.161.161,1.331,1.331,0,0,0-.315.968q.6,7.8,1.18,14.761h0q.129,1.552.257,3.061.057.677.114,1.344c.02.224.039.446.059.667q.9,10.455,1.734,18.779h1.342c-.534-5.3-1.116-11.552-1.75-18.945-.019-.222-.038-.443-.057-.667s-.038-.444-.056-.668c-.469-5.5-.964-11.625-1.489-18.436l20.353,5.268q.193,2.989.365,5.877.022.376.044.75c.015.25.03.5.043.748.566,9.676.959,18.441,1.222,26.074h1.34C3742.277,2033.905,3741.867,2024.873,3741.281,2014.956Zm-20.5,7.895c-.019-.222-.038-.443-.057-.667s-.038-.444-.056-.668c-.22.033-.441.063-.663.092.018.223.037.445.056.666l-.3.037-.3.034c-.025,0-.051,0-.075,0,.02.224.039.446.059.667q.9,10.455,1.734,18.779h1.342C3722,2036.5,3721.415,2030.244,3720.782,2022.851Z" transform="translate(-3717.843 -2001.742)" fill="#464149"/>
            </g>
          </g>
        </g>
        <g id="Group_7568" data-name="Group 7568" transform="translate(69.093 32.154)">
          <g id="Group_7567" data-name="Group 7567">
            <path id="Path_13721" data-name="Path 13721" d="M3187.153,1792.6a.669.669,0,0,1-.667-.629c-.27-4.537-.506-8.625-.7-12.152-.122-2.208-.182-3.312-.209-3.811-.168-3.178-.226-4.814-.257-5.693a5.257,5.257,0,0,0-.112-1.336c-.208-.847-.466-1.622-.715-2.372a18.489,18.489,0,0,1-1.16-5.533q-.012-.315-.013-.63-.739,1.064-1.52,2.089c-.366.479-.743.959-1.123,1.426a.668.668,0,0,1-.5.246h-.021a.668.668,0,0,1-.49-.214,92.08,92.08,0,0,1-15.848-23.539.668.668,0,0,1,.05-.656c5.483-8.184,15.26-22.3,19.126-24.862.326-.216.637-.405.65-.413a22.14,22.14,0,0,1,8.591-2.807l.383-.063c2.862-.474,5.919-1.072,9.089-1.777a.669.669,0,0,1,.8.524,11.942,11.942,0,0,0,4.365,7.195,11.47,11.47,0,0,0,4.552,2.057,11.032,11.032,0,0,0,2.219.226,16.119,16.119,0,0,0,7.131-2.022,21.539,21.539,0,0,0,8.5-7.624.669.669,0,0,1,.56-.3.65.65,0,0,1,.1.008c3.727.564,7.5,1.156,11.216,1.761q1.479.241,2.953.485a.675.675,0,0,1,.083.019,27.047,27.047,0,0,1,7.857,3.794c5.881,4.145,8.775,9.932,10.83,15.045a90.6,90.6,0,0,1,6.052,27.831q.191,2.607.368,5.13a.669.669,0,0,1-.314.615c-8.128,5.041-15.27,7.766-22.474,8.578a.668.668,0,0,1-.606-.259c-.64,4.834-.872,6.193-.882,6.252-.575,3.169-1.125,5.539-1.335,6.411-.548,2.278-1.149,4.489-1.788,6.574a.669.669,0,0,1-.639.473Z" transform="translate(-3163.087 -1709.192)" fill="#dd4a48"/>
            <g id="Group_7566" data-name="Group 7566">
              <path id="Path_13722" data-name="Path 13722" d="M3243.138,1768.559c-.2.026-.406.051-.609.073-.02-.222-.039-.444-.057-.664l-.056-.011c-.332-.07-.643-.139-.922-.211-.767,5.87-1.037,7.43-1.037,7.43-.611,3.369-1.191,5.809-1.327,6.369-.6,2.477-1.207,4.674-1.777,6.535h-2.833q.134.332.264.668c.18,0,.35,0,.513,0h.206s0,0,0,0h.718c.085.22.169.443.254.667h.879a1.336,1.336,0,0,0,1.278-.945c.642-2.1,1.247-4.321,1.8-6.613.211-.876.765-3.259,1.343-6.443a.039.039,0,0,1,0-.01c.01-.056.217-1.269.773-5.435h.04c-.02-.222-.039-.443-.059-.667.024,0,.05,0,.075,0l.3-.034.3-.037C3243.174,1769,3243.156,1768.782,3243.138,1768.559Zm22.921-8.5c-.121-1.731-.245-3.457-.368-5.131a91.214,91.214,0,0,0-6.1-28.032c-1.839-4.577-4.342-9.687-9.017-13.739q-.339-.294-.7-.581c-.23-.187-.467-.372-.708-.552-.21-.158-.425-.316-.644-.47a27.722,27.722,0,0,0-8.051-3.888,1.373,1.373,0,0,0-.164-.039q-1.475-.243-2.955-.485c-3.712-.6-7.489-1.2-11.223-1.762a1.307,1.307,0,0,0-.2-.015,1.339,1.339,0,0,0-1.12.606c-.055.085-.112.17-.171.257a20.793,20.793,0,0,1-8.058,7.131,15.332,15.332,0,0,1-6.838,1.954,10.319,10.319,0,0,1-2.083-.213,10.763,10.763,0,0,1-4.282-1.934,11.276,11.276,0,0,1-4.115-6.791,1.276,1.276,0,0,0-.1-.311,1.34,1.34,0,0,0-1.211-.768,1.3,1.3,0,0,0-.289.032c-2.862.636-5.634,1.185-8.249,1.635l-.665.112-.139.023-.384.063-.139.023a22.417,22.417,0,0,0-8.676,2.865c-.175.1-.386.237-.687.435-3.765,2.5-12.58,15-19.311,25.048a1.334,1.334,0,0,0-.1,1.312q.17.365.347.73c.1.215.206.428.311.643s.206.42.311.63a92.518,92.518,0,0,0,12.52,18.922q.215.255.436.509c.146.168.292.335.44.5q.787.9,1.6,1.772a1.339,1.339,0,0,0,.981.428h.044a1.334,1.334,0,0,0,.994-.493c.385-.472.766-.958,1.136-1.443q.217-.284.431-.573a20.86,20.86,0,0,0,1.1,4.453c.256.772.5,1.5.7,2.321a4.876,4.876,0,0,1,.093,1.2c.031.882.09,2.521.257,5.7.027.495.086,1.587.207,3.766l0,.046c.194,3.527.43,7.617.7,12.156a1.319,1.319,0,0,0,.2.631,1.336,1.336,0,0,0,1.131.627h1.957l25.092.019,23.924.018h3.127a1.336,1.336,0,0,0,1.278-.945c.642-2.1,1.247-4.321,1.8-6.613.211-.876.765-3.259,1.343-6.443a.039.039,0,0,1,0-.01c.01-.056.217-1.269.773-5.435h.04c.03,0,.061,0,.091-.007.191-.022.383-.045.573-.069q.332-.041.662-.09c6.2-.884,12.381-3.178,19.2-7.129.216-.125.432-.251.649-.38s.43-.255.646-.386q.507-.3,1.018-.622A1.334,1.334,0,0,0,3266.059,1760.056Zm-23.644,7.9c-.332-.07-.643-.139-.922-.211-.767,5.87-1.037,7.43-1.037,7.43-.611,3.369-1.191,5.809-1.327,6.369-.6,2.477-1.207,4.674-1.777,6.535h-2.833l-48.993-.037h-2.272c-.334-5.614-.556-9.536-.7-12.15-.122-2.207-.183-3.311-.209-3.81-.356-6.752-.216-6.45-.387-7.153-.654-2.659-1.725-4.455-1.857-7.772a16.745,16.745,0,0,1,.163-3.089q-.3.469-.611.946c-.695,1.055-1.455,2.133-2.285,3.223q-.533.7-1.065,1.354l-.045.056h0q-.441-.474-.886-.97-.3-.333-.6-.673l-.063-.071q-.219-.25-.44-.5c-.145-.166-.29-.335-.437-.506q-.595-.7-1.2-1.432-.193-.236-.387-.476c-.13-.16-.258-.32-.388-.482-.065-.08-.13-.163-.194-.245-.2-.246-.389-.494-.585-.746q-.312-.4-.625-.815-.469-.62-.94-1.262t-.939-1.309q-.312-.445-.625-.9t-.624-.921q-.314-.465-.621-.941c-.051-.079-.1-.16-.155-.24l-.155-.239c-.152-.235-.3-.47-.447-.7q-.331-.527-.65-1.047-.212-.346-.419-.692-.308-.519-.607-1.031-.2-.341-.392-.68l-.242-.428c-.092-.164-.184-.328-.273-.492-.017-.03-.035-.061-.052-.092-.084-.151-.167-.3-.248-.453-.1-.179-.2-.358-.292-.538q-.091-.169-.18-.338c-.029-.053-.057-.107-.085-.161l-.26-.494q-.174-.333-.342-.663-.16-.314-.316-.624l-.007-.014c-.1-.2-.2-.4-.3-.6-.05-.1-.1-.2-.148-.3l-.074-.151c-.025-.051-.049-.1-.072-.15-.008-.017-.016-.033-.025-.051q-.226-.469-.441-.929l.412-.616.244-.362c.237-.351.49-.727.759-1.123.042-.064.086-.127.13-.192.348-.513.72-1.061,1.112-1.634.1-.144.2-.288.3-.434.05-.073.1-.147.152-.222l.122-.177.5-.726c.1-.146.2-.294.305-.442.012-.017.023-.035.036-.052q.107-.157.217-.314c1.267-1.83,2.658-3.808,4.075-5.771l.35-.484q.174-.241.35-.481c.935-1.283,1.875-2.546,2.791-3.745.139-.182.277-.362.416-.541.171-.222.341-.441.511-.658s.337-.431.5-.641l.418-.525q.41-.51.805-.989l.226-.272q.345-.413.678-.8l.023-.027c.141-.163.279-.322.416-.477q.342-.386.664-.736l.211-.227c.108-.114.213-.224.317-.331.071-.075.143-.147.212-.217.044-.043.086-.085.127-.128l.11-.108c.037-.037.073-.072.109-.106s.071-.069.107-.1.071-.068.106-.1l.1-.1c.138-.126.27-.242.4-.349l.1-.078c.032-.028.063-.053.094-.076l.091-.071.09-.068c.089-.067.176-.127.258-.183l.06-.04c.26-.169.5-.317.556-.351l.011-.008q.448-.272.889-.505c.1-.052.2-.1.294-.152s.194-.1.291-.145l.289-.137c.192-.089.384-.172.574-.252.38-.159.756-.3,1.128-.426.186-.063.371-.122.555-.178l.166-.049c.055-.017.112-.033.167-.048l.139-.04.147-.039c.084-.023.169-.046.253-.067s.167-.044.251-.063c.191-.047.38-.091.569-.132.243-.055.486-.1.726-.15.087-.018.174-.035.26-.051q.391-.073.774-.138c.171-.03.341-.059.511-.086l.128-.021.625-.1.035-.006.661-.11q.839-.143,1.834-.326.712-.131,1.5-.283l.439-.085q.591-.116,1.224-.245.317-.064.645-.132l.33-.069.335-.07.282-.06.4-.086q.7-.15,1.435-.314h0c.053.27.145.69.3,1.209,0,0,0,0,0,0a12.479,12.479,0,0,0,4.316,6.383,12.071,12.071,0,0,0,4.823,2.18,11.634,11.634,0,0,0,2.353.24,16.68,16.68,0,0,0,7.424-2.09,22.153,22.153,0,0,0,8.763-7.858,0,0,0,0,0,0,0q5.575.844,11.208,1.76,1.478.241,2.951.485a26.425,26.425,0,0,1,7.664,3.7q.779.55,1.49,1.137c.225.185.445.372.661.564s.435.392.646.59c3.625,3.447,5.888,7.707,7.8,12.457a90.331,90.331,0,0,1,6.006,27.631q.191,2.607.367,5.128c-.134.083-.269.167-.4.248q-.322.2-.646.392c-.214.13-.431.258-.646.386a53.116,53.116,0,0,1-19.23,7.291c-.22.033-.441.063-.663.092-.2.026-.406.051-.609.073-.02-.222-.039-.444-.057-.664Z" transform="translate(-3159.187 -1705.294)" fill="#464149"/>
            </g>
          </g>
        </g>
        <g id="Group_7570" data-name="Group 7570" transform="translate(70.431 33.491)">
          <g id="Group_7569" data-name="Group 7569">
            <path id="Path_13723" data-name="Path 13723" d="M3206.054,1715.639c-3.577.783-6.369,1.287-8.375,1.62a22.257,22.257,0,0,0-8.736,2.782s-.31.187-.627.4c-3.349,2.221-11.441,13.659-16.345,20.84a7.848,7.848,0,0,0-.452,8.12c1.089,2.042,2.325,4.17,3.726,6.353a90.992,90.992,0,0,0,8.859,11.627l-.046.057a91.545,91.545,0,0,1-15.732-23.369c3.89-5.806,14.89-21.991,18.94-24.679.319-.21.629-.4.629-.4a22.238,22.238,0,0,1,8.735-2.783c2.144-.355,5.189-.907,9.126-1.784Z" transform="translate(-3168.325 -1714.424)" fill="#fff"/>
          </g>
        </g>
        <g id="Group_7571" data-name="Group 7571" transform="translate(150.457 74.662)">
          <path id="Path_13724" data-name="Path 13724" d="M3716.361,2016.324l-.055,0a.619.619,0,0,1-.562-.671,75.744,75.744,0,0,0-.78-19.277.619.619,0,0,1,1.221-.207,77.036,77.036,0,0,1,.792,19.592A.619.619,0,0,1,3716.361,2016.324Z" transform="translate(-3714.954 -1995.651)" fill="#464149"/>
        </g>
        <g id="Group_7572" data-name="Group 7572" transform="translate(88.705 74.662)">
          <path id="Path_13725" data-name="Path 13725" d="M3293.772,2005.23a.621.621,0,0,1-.615-.7c.354-2.8.812-5.619,1.362-8.384a.619.619,0,1,1,1.214.241c-.544,2.737-1,5.529-1.348,8.3A.619.619,0,0,1,3293.772,2005.23Z" transform="translate(-3293.152 -1995.651)" fill="#464149"/>
        </g>
        <g id="Group_7573" data-name="Group 7573" transform="translate(19.762 38.481)">
          <path id="Path_13726" data-name="Path 13726" d="M2826.548,1753.464a.618.618,0,0,1-.474-.22c-.194-.23-.392-.459-.59-.681a30.752,30.752,0,0,0-3.039-2.96.619.619,0,0,1,.8-.944,31.983,31.983,0,0,1,3.162,3.079c.206.231.413.469.614.708a.619.619,0,0,1-.473,1.017Z" transform="translate(-2822.226 -1748.512)" fill="#464149"/>
        </g>
        <g id="Group_7574" data-name="Group 7574" transform="translate(21.735 34.354)">
          <path id="Path_13727" data-name="Path 13727" d="M2840.151,1725.2a.617.617,0,0,1-.453-.2l-.171-.183s-.217-.23-.437-.456a42.484,42.484,0,0,0-3.165-2.945.619.619,0,0,1,.8-.948,43.768,43.768,0,0,1,3.258,3.031c.227.234.449.47.449.47l.176.188a.619.619,0,0,1-.453,1.041Z" transform="translate(-2835.704 -1720.324)" fill="#464149"/>
        </g>
        <g id="Group_7575" data-name="Group 7575" transform="translate(22.907 34.966)">
          <path id="Path_13728" data-name="Path 13728" d="M2846.451,1737.5a3.223,3.223,0,0,1-1.617-.463,2.74,2.74,0,0,1-.793-.774c-.53-.823-.427-2.125.342-4.352.7-2.031,1.125-3.257,2.3-4.325a8.371,8.371,0,0,1,1.885-1.254,13.626,13.626,0,0,1,2.761-.98c1.046-.3,2.122-.575,3.2-.831a.619.619,0,1,1,.287,1.2c-1.058.252-2.116.528-3.146.819a12.186,12.186,0,0,0-2.53.889,7.166,7.166,0,0,0-1.618,1.069c-.9.823-1.234,1.709-1.961,3.814-.745,2.157-.667,2.973-.47,3.278a1.527,1.527,0,0,0,.4.391l.013.008a1.953,1.953,0,0,0,1.1.262c.577-.058,1.125-1.333,1.566-2.358.6-1.4,1.171-2.722,2.313-2.761a1.554,1.554,0,0,1,1.066.445,6.846,6.846,0,0,0,1.418.866,10.147,10.147,0,0,0,1.315.511.619.619,0,0,1-.366,1.182,11.393,11.393,0,0,1-1.477-.573,8.045,8.045,0,0,1-1.646-1.005,1.933,1.933,0,0,0-.27-.19c-.357.013-.9,1.266-1.217,2.014-.628,1.46-1.277,2.97-2.58,3.1A2.643,2.643,0,0,1,2846.451,1737.5Z" transform="translate(-2843.71 -1724.501)" fill="#464149"/>
        </g>
      </g>
    </g>
    <g id="plant" transform="translate(2525.785 1142.719)">
      <g id="Group_7579" data-name="Group 7579" transform="translate(12.372 0)">
        <path id="Path_13729" data-name="Path 13729" d="M2810.681,1938.683s-20.609,18.1-5.031,29.366C2805.65,1968.049,2826.485,1963.741,2810.681,1938.683Z" transform="translate(-2797.055 -1936.773)" fill="#dd4a48"/>
        <g id="Group_7576" data-name="Group 7576" transform="translate(5.81 29.38)">
          <path id="Path_13730" data-name="Path 13730" d="M2823.868,2148.844a.619.619,0,0,1-.594-.446c-.034-.117-3.381-11.787-2.566-21.516a.619.619,0,0,1,1.234.1c-.8,9.5,2.488,20.953,2.521,21.068a.62.62,0,0,1-.595.792Z" transform="translate(-2820.58 -2126.314)" fill="#464149"/>
        </g>
        <g id="Group_7577" data-name="Group 7577">
          <path id="Path_13731" data-name="Path 13731" d="M2787.335,1956.237a.618.618,0,0,1-.363-.118c-3.836-2.775-5.876-6.2-6.065-10.19-.2-4.181,1.61-8.848,5.371-13.871a45.017,45.017,0,0,1,5.679-6.271.619.619,0,0,1,.932.135c5.688,9.018,7.358,16.446,4.963,22.077a13.757,13.757,0,0,1-6.262,6.618,16.487,16.487,0,0,1-4.13,1.607A.6.6,0,0,1,2787.335,1956.237Zm4.9-29.022a46.061,46.061,0,0,0-4.982,5.606c-2.458,3.287-5.34,8.219-5.111,13.053.167,3.512,1.958,6.564,5.325,9.074,1.284-.339,6.991-2.118,9.25-7.444C2798.884,1942.4,2797.376,1935.574,2792.237,1927.215Z" transform="translate(-2780.893 -1925.633)" fill="#464149"/>
        </g>
        <g id="Group_7578" data-name="Group 7578" transform="translate(5.936 10.217)">
          <path id="Path_13732" data-name="Path 13732" d="M2822.058,2015.822h-.029a.619.619,0,0,1-.59-.646c.022-.5.586-12.27,3.668-19.381a.619.619,0,1,1,1.136.492c-2.993,6.9-3.562,18.825-3.568,18.945A.619.619,0,0,1,2822.058,2015.822Z" transform="translate(-2821.439 -1995.421)" fill="#464149"/>
        </g>
      </g>
      <g id="Group_7583" data-name="Group 7583" transform="translate(0 18.418)">
        <g id="Group_7580" data-name="Group 7580" transform="translate(3.374 17.366)">
          <path id="Path_13733" data-name="Path 13733" d="M2720.046,2186.117a.619.619,0,0,1-.572-.855,36.638,36.638,0,0,0,1.985-14.545.619.619,0,1,1,1.236-.072,37.149,37.149,0,0,1-2.076,15.088A.618.618,0,0,1,2720.046,2186.117Z" transform="translate(-2719.427 -2170.062)" fill="#464149"/>
        </g>
        <path id="Path_13734" data-name="Path 13734" d="M2705.416,2055.669s12.879,12.465,1.4,18.412c0,0-10.042-1.256-1.754-18.1l.351-.317Z" transform="translate(-2700.996 -2055.05)" fill="#fff"/>
        <g id="Group_7581" data-name="Group 7581">
          <path id="Path_13735" data-name="Path 13735" d="M2702.454,2071.162a.611.611,0,0,1-.136-.016,8.011,8.011,0,0,1-5.229-4.46c-1.579-3.653-.509-8.679,3.181-14.939a.619.619,0,0,1,.977-.117c.283.292,6.931,7.208,6.036,13.433a8.2,8.2,0,0,1-4.524,6.019A.62.62,0,0,1,2702.454,2071.162Zm-1.54-18.056a25.449,25.449,0,0,0-3.106,7.919,9.072,9.072,0,0,0,.417,5.17,6.81,6.81,0,0,0,4.145,3.682,6.934,6.934,0,0,0,3.687-4.988C2706.724,2060.259,2702.472,2054.892,2700.914,2053.105Z" transform="translate(-2696.382 -2051.442)" fill="#464149"/>
        </g>
        <g id="Group_7582" data-name="Group 7582" transform="translate(5.069 8.215)">
          <path id="Path_13736" data-name="Path 13736" d="M2732.008,2119.057a.62.62,0,0,1-.615-.7,34.5,34.5,0,0,0-.375-10.057.619.619,0,0,1,1.21-.263,35.146,35.146,0,0,1,.393,10.477A.62.62,0,0,1,2732.008,2119.057Z" transform="translate(-2731.004 -2107.552)" fill="#464149"/>
        </g>
      </g>
      <g id="Group_7587" data-name="Group 7587" transform="translate(31.3 13.694)">
        <g id="Group_7584" data-name="Group 7584" transform="translate(4.903 19.915)">
          <path id="Path_13737" data-name="Path 13737" d="M2946.69,2173.435a.619.619,0,0,1-.573-.383,42.512,42.512,0,0,1-2.374-17.263.619.619,0,1,1,1.236.071,42.093,42.093,0,0,0,2.283,16.72.62.62,0,0,1-.572.854Z" transform="translate(-2943.667 -2155.205)" fill="#464149"/>
        </g>
        <path id="Path_13738" data-name="Path 13738" d="M2919.757,2023.4s-14.77,14.3-1.609,21.115c0,0,11.517-1.44,2.011-20.752l-.4-.364Z" transform="translate(-2912.321 -2022.778)" fill="#fff"/>
        <g id="Group_7585" data-name="Group 7585">
          <path id="Path_13739" data-name="Path 13739" d="M2915.719,2041.6a.62.62,0,0,1-.3-.08c-3-1.695-4.735-4-5.143-6.837-.432-3,.606-6.5,3.084-10.4a33.453,33.453,0,0,1,3.814-4.926.619.619,0,0,1,.977.117c4.215,7.152,5.441,12.889,3.642,17.05a9.091,9.091,0,0,1-5.933,5.063A.625.625,0,0,1,2915.719,2041.6Zm1.782-20.772c-1.719,1.956-6.786,8.25-6,13.681a8.05,8.05,0,0,0,4.305,5.805,7.954,7.954,0,0,0,4.857-4.3,10.518,10.518,0,0,0,.473-5.978A29.49,29.49,0,0,0,2917.5,2020.832Z" transform="translate(-2910.177 -2019.171)" fill="#464149"/>
        </g>
        <g id="Group_7586" data-name="Group 7586" transform="translate(4.673 9.42)">
          <path id="Path_13740" data-name="Path 13740" d="M2942.965,2096.531a.619.619,0,0,1-.613-.541,40.191,40.191,0,0,1,.45-11.984.619.619,0,0,1,1.209.263,39.6,39.6,0,0,0-.431,11.564.619.619,0,0,1-.536.692A.668.668,0,0,1,2942.965,2096.531Z" transform="translate(-2942.096 -2083.519)" fill="#464149"/>
        </g>
      </g>
    </g>
    <g id="windows" transform="translate(2536.891 1008.442)">
      <rect id="Rectangle_17523" data-name="Rectangle 17523" width="64.991" height="46.802" rx="23.401" transform="translate(171.737 41.328)" fill="#fff"/>
      <g id="Group_7592" data-name="Group 7592" transform="translate(175.233 42.906)">
        <path id="Path_13741" data-name="Path 13741" d="M4114.063,1328.332a1.988,1.988,0,1,1-1.989-1.988A1.989,1.989,0,0,1,4114.063,1328.332Z" transform="translate(-4089.458 -1322.709)" fill="#fff"/>
        <g id="Group_7591" data-name="Group 7591">
          <path id="Path_13742" data-name="Path 13742" d="M4034.177,1305.987v6.772h-64.991v-6.669a4.578,4.578,0,0,1,4.578-4.578H4029.7A4.475,4.475,0,0,1,4034.177,1305.987Z" transform="translate(-3969.186 -1301.512)" fill="#dd4a48"/>
          <g id="Group_7588" data-name="Group 7588" transform="translate(6.244 3.016)">
            <path id="Path_13743" data-name="Path 13743" d="M4014.446,1327.33a2.607,2.607,0,1,1,2.607-2.607A2.61,2.61,0,0,1,4014.446,1327.33Zm0-3.976a1.369,1.369,0,1,0,1.369,1.369A1.371,1.371,0,0,0,4014.446,1323.354Z" transform="translate(-4011.839 -1322.116)" fill="#464149"/>
          </g>
          <g id="Group_7589" data-name="Group 7589" transform="translate(13.127 3.016)">
            <circle id="Ellipse_262" data-name="Ellipse 262" cx="1.988" cy="1.988" r="1.988" transform="translate(0.215 4.085) rotate(-76.718)" fill="#dd4a48"/>
            <path id="Path_13744" data-name="Path 13744" d="M4061.455,1327.33a2.607,2.607,0,1,1,2.607-2.607A2.61,2.61,0,0,1,4061.455,1327.33Zm0-3.976a1.369,1.369,0,1,0,1.369,1.369A1.371,1.371,0,0,0,4061.455,1323.354Z" transform="translate(-4058.848 -1322.116)" fill="#464149"/>
          </g>
          <g id="Group_7590" data-name="Group 7590" transform="translate(20.009 3.016)">
            <path id="Path_13745" data-name="Path 13745" d="M4114.063,1328.332a1.988,1.988,0,1,1-1.989-1.988A1.989,1.989,0,0,1,4114.063,1328.332Z" transform="translate(-4109.467 -1325.725)" fill="#fff"/>
            <path id="Path_13746" data-name="Path 13746" d="M4108.465,1327.33a2.607,2.607,0,1,1,2.607-2.607A2.61,2.61,0,0,1,4108.465,1327.33Zm0-3.976a1.369,1.369,0,1,0,1.369,1.369A1.371,1.371,0,0,0,4108.465,1323.354Z" transform="translate(-4105.858 -1322.116)" fill="#464149"/>
          </g>
        </g>
      </g>
      <g id="Group_7593" data-name="Group 7593" transform="translate(171.118 40.709)">
        <path id="Path_13747" data-name="Path 13747" d="M4001.954,1334.551h-55.526a5.357,5.357,0,0,1-5.352-5.351v-37.337a5.357,5.357,0,0,1,5.352-5.351h55.526a5.357,5.357,0,0,1,5.352,5.351V1329.2A5.357,5.357,0,0,1,4001.954,1334.551Zm-55.526-46.8a4.118,4.118,0,0,0-4.114,4.114V1329.2a4.118,4.118,0,0,0,4.114,4.114h55.526a4.118,4.118,0,0,0,4.114-4.114v-37.337a4.119,4.119,0,0,0-4.114-4.114Z" transform="translate(-3941.077 -1286.511)" fill="#464149"/>
      </g>
      <g id="Group_7594" data-name="Group 7594" transform="translate(171.118 51.579)">
        <path id="Path_13748" data-name="Path 13748" d="M4006.687,1361.993H3941.7a.619.619,0,1,1,0-1.238h64.991a.619.619,0,1,1,0,1.238Z" transform="translate(-3941.077 -1360.755)" fill="#464149"/>
      </g>
      <g id="Group_7595" data-name="Group 7595" transform="translate(176.654 58.11)">
        <path id="Path_13749" data-name="Path 13749" d="M3991.214,1430.016a12.325,12.325,0,1,1,12.325-12.325A12.338,12.338,0,0,1,3991.214,1430.016Zm0-23.412a11.087,11.087,0,1,0,11.087,11.087A11.1,11.1,0,0,0,3991.214,1406.6Z" transform="translate(-3978.89 -1405.366)" fill="#464149"/>
      </g>
      <g id="Group_7596" data-name="Group 7596" transform="translate(183.213 63.234)">
        <path id="Path_13750" data-name="Path 13750" d="M4029.457,1454.563a.618.618,0,0,1-.437-.181l-5.147-5.142a.619.619,0,0,1,.875-.876l4.461,4.456,4.4-12.046a.619.619,0,1,1,1.163.425l-4.731,12.957a.619.619,0,0,1-.581.407Z" transform="translate(-4023.691 -1440.367)" fill="#464149"/>
      </g>
      <g id="Group_7597" data-name="Group 7597" transform="translate(206.356 63.234)">
        <path id="Path_13751" data-name="Path 13751" d="M4204.6,1441.607H4182.39a.619.619,0,0,1,0-1.238H4204.6a.619.619,0,1,1,0,1.238Z" transform="translate(-4181.771 -1440.369)" fill="#464149"/>
      </g>
      <g id="Group_7598" data-name="Group 7598" transform="translate(206.356 69.713)">
        <path id="Path_13752" data-name="Path 13752" d="M4204.6,1485.859H4182.39a.619.619,0,0,1,0-1.238H4204.6a.619.619,0,1,1,0,1.238Z" transform="translate(-4181.771 -1484.621)" fill="#464149"/>
      </g>
      <g id="Group_7599" data-name="Group 7599" transform="translate(206.356 76.191)">
        <path id="Path_13753" data-name="Path 13753" d="M4204.6,1530.112H4182.39a.619.619,0,0,1,0-1.238H4204.6a.619.619,0,1,1,0,1.238Z" transform="translate(-4181.771 -1528.874)" fill="#464149"/>
      </g>
      <g id="Group_7615" data-name="Group 7615" transform="translate(0)">
        <path id="Path_13754" data-name="Path 13754" d="M2859.846,1019.584v30.175a6.915,6.915,0,0,1-6.915,6.915h-69.546c-3.819,0-6.915-3.1-6.915-7.737v-30.175c0-3,3.1-6.092,6.915-6.092h69.546A6.915,6.915,0,0,1,2859.846,1019.584Z" transform="translate(-2775.851 -1012.05)" fill="#fff"/>
        <g id="Group_7602" data-name="Group 7602" transform="translate(5.658 1.441)">
          <path id="Path_13755" data-name="Path 13755" d="M2894.264,1025.2v2.743h-83.376v-3.566c0-3,3.1-6.092,6.915-6.092h69.546A6.915,6.915,0,0,1,2894.264,1025.2Z" transform="translate(-2810.888 -1018.288)" fill="#dd4a48"/>
          <g id="Group_7600" data-name="Group 7600" transform="translate(3.23 2.903)">
            <path id="Path_13756" data-name="Path 13756" d="M2835.556,1043.333a2.607,2.607,0,1,1,2.607-2.607A2.61,2.61,0,0,1,2835.556,1043.333Zm0-3.976a1.369,1.369,0,1,0,1.369,1.369A1.371,1.371,0,0,0,2835.556,1039.357Z" transform="translate(-2832.949 -1038.119)" fill="#464149"/>
          </g>
          <g id="Group_7601" data-name="Group 7601" transform="translate(10.112 2.903)">
            <circle id="Ellipse_263" data-name="Ellipse 263" cx="1.988" cy="1.988" r="1.988" transform="translate(0.215 4.085) rotate(-76.718)" fill="#dd4a48"/>
            <path id="Path_13757" data-name="Path 13757" d="M2882.566,1043.333a2.607,2.607,0,1,1,2.607-2.607A2.61,2.61,0,0,1,2882.566,1043.333Zm0-3.976a1.369,1.369,0,1,0,1.369,1.369A1.371,1.371,0,0,0,2882.566,1039.357Z" transform="translate(-2879.959 -1038.119)" fill="#464149"/>
          </g>
          <circle id="Ellipse_264" data-name="Ellipse 264" cx="1.988" cy="1.988" r="1.988" transform="translate(16.79 5.51) rotate(-45)" fill="#fff"/>
        </g>
        <g id="Group_7614" data-name="Group 7614">
          <g id="Group_7603" data-name="Group 7603" transform="translate(0)">
            <path id="Path_13758" data-name="Path 13758" d="M2825.624,1053.684h-45.849a7.194,7.194,0,0,1-5.344-2.327,8.8,8.8,0,0,1-2.19-6.029v-30.175a6.427,6.427,0,0,1,2.226-4.626,7.841,7.841,0,0,1,5.308-2.085h69.546a7.542,7.542,0,0,1,7.533,7.534v30.175a7.525,7.525,0,0,1-5.147,7.147.619.619,0,0,1-.392-1.174,6.288,6.288,0,0,0,4.3-5.973v-30.175a6.3,6.3,0,0,0-6.3-6.3h-69.546a6.607,6.607,0,0,0-4.471,1.759,5.194,5.194,0,0,0-1.825,3.714v30.175c0,4.125,2.648,7.118,6.3,7.118h45.849a.619.619,0,0,1,0,1.238Z" transform="translate(-2772.242 -1008.442)" fill="#464149"/>
          </g>
          <g id="Group_7604" data-name="Group 7604" transform="translate(0 10.481)">
            <path id="Path_13759" data-name="Path 13759" d="M2856.234,1081.268h-83.375a.619.619,0,0,1,0-1.238h83.375a.619.619,0,1,1,0,1.238Z" transform="translate(-2772.24 -1080.03)" fill="#464149"/>
          </g>
          <g id="Group_7605" data-name="Group 7605" transform="translate(22.652 4.345)">
            <path id="Path_13760" data-name="Path 13760" d="M2929.576,1043.333a2.607,2.607,0,1,1,2.607-2.607A2.61,2.61,0,0,1,2929.576,1043.333Zm0-3.976a1.369,1.369,0,1,0,1.369,1.369A1.371,1.371,0,0,0,2929.576,1039.357Z" transform="translate(-2926.969 -1038.119)" fill="#464149"/>
          </g>
          <path id="Path_13761" data-name="Path 13761" d="M3200.416,1284.6l5.1-.449,2.83,13.343,6.979-.758-3.126-13.348,4.718-.5-10.819-13.34Z" transform="translate(-3137.73 -1231.324)" fill="#dd4a48"/>
          <g id="Group_7606" data-name="Group 7606" transform="translate(59.91 36.168)">
            <path id="Path_13762" data-name="Path 13762" d="M3190.011,1284.67a.619.619,0,0,1-.6-.491l-2.717-12.807-4.556.4a.619.619,0,0,1-.634-.835l5.683-15.049a.619.619,0,0,1,1.06-.171l10.819,13.34a.619.619,0,0,1-.416,1.005l-4.02.423,2.967,12.664a.619.619,0,0,1-.536.756l-6.978.758A.631.631,0,0,1,3190.011,1284.67Zm-2.83-14.581a.619.619,0,0,1,.605.49l2.714,12.8,5.727-.622-2.967-12.667a.619.619,0,0,1,.538-.757l3.583-.377-9.422-11.617-4.954,13.119,4.12-.363Z" transform="translate(-3181.46 -1255.489)" fill="#464149"/>
          </g>
          <g id="Group_7607" data-name="Group 7607" transform="translate(39.649 22.002)">
            <path id="Path_13763" data-name="Path 13763" d="M3078.206,1174.739h-1.047a.619.619,0,1,1,0-1.238h1.047a1.373,1.373,0,0,0,1.371-1.371v-10.792a1.372,1.372,0,0,0-1.371-1.371h-32.534a1.373,1.373,0,0,0-1.371,1.371v10.792a1.373,1.373,0,0,0,1.371,1.371H3064a.619.619,0,1,1,0,1.238h-18.323a2.612,2.612,0,0,1-2.609-2.609v-10.792a2.612,2.612,0,0,1,2.609-2.609h32.534a2.612,2.612,0,0,1,2.609,2.609v10.792A2.612,2.612,0,0,1,3078.206,1174.739Z" transform="translate(-3043.063 -1158.729)" fill="#464149"/>
          </g>
          <g id="Group_7609" data-name="Group 7609" transform="translate(45.314 24.264)">
            <g id="Group_7608" data-name="Group 7608">
              <path id="Path_13764" data-name="Path 13764" d="M3081.764,1185.79v-11.611h4.38a10.568,10.568,0,0,1,1.766.111,3.5,3.5,0,0,1,1.434.542,2.852,2.852,0,0,1,.93,1.121,3.778,3.778,0,0,1-.59,4.091,4.521,4.521,0,0,1-3.406,1.026H3083.3v4.721Zm1.536-6.091h3a3.183,3.183,0,0,0,2.115-.554,1.976,1.976,0,0,0,.626-1.56,2.1,2.1,0,0,0-.368-1.247,1.722,1.722,0,0,0-.97-.685,6.564,6.564,0,0,0-1.433-.1h-2.97Z" transform="translate(-3081.764 -1174.179)" fill="#464149"/>
              <path id="Path_13765" data-name="Path 13765" d="M3138.731,1185.79l4.459-11.611h1.656l4.752,11.611h-1.75l-1.354-3.517h-4.855l-1.275,3.517Zm3.35-4.768h3.937l-1.212-3.216q-.554-1.465-.824-2.408a14.832,14.832,0,0,1-.625,2.218Z" transform="translate(-3130.391 -1174.179)" fill="#464149"/>
              <path id="Path_13766" data-name="Path 13766" d="M3209.371,1185.79v-4.918l-4.475-6.693h1.869l2.289,3.5q.634.982,1.18,1.964.523-.911,1.267-2.051l2.25-3.414h1.79l-4.634,6.693v4.918Z" transform="translate(-3186.869 -1174.179)" fill="#464149"/>
            </g>
          </g>
          <g id="Group_7610" data-name="Group 7610" transform="translate(6.256 16.856)">
            <path id="Path_13767" data-name="Path 13767" d="M2839.884,1124.817h-24.3a.619.619,0,0,1,0-1.238h24.3a.619.619,0,1,1,0,1.238Z" transform="translate(-2814.969 -1123.579)" fill="#464149"/>
          </g>
          <g id="Group_7611" data-name="Group 7611" transform="translate(6.256 23.232)">
            <path id="Path_13768" data-name="Path 13768" d="M2839.884,1168.367h-24.3a.619.619,0,1,1,0-1.238h24.3a.619.619,0,1,1,0,1.238Z" transform="translate(-2814.969 -1167.129)" fill="#464149"/>
          </g>
          <g id="Group_7612" data-name="Group 7612" transform="translate(6.256 29.608)">
            <path id="Path_13769" data-name="Path 13769" d="M2839.884,1211.917h-24.3a.619.619,0,0,1,0-1.238h24.3a.619.619,0,1,1,0,1.238Z" transform="translate(-2814.969 -1210.679)" fill="#464149"/>
          </g>
          <g id="Group_7613" data-name="Group 7613" transform="translate(6.256 35.983)">
            <path id="Path_13770" data-name="Path 13770" d="M2839.884,1255.467h-24.3a.619.619,0,1,1,0-1.238h24.3a.619.619,0,1,1,0,1.238Z" transform="translate(-2814.969 -1254.229)" fill="#464149"/>
          </g>
        </g>
      </g>
    </g>
    <g id="decor" transform="translate(2496.526 1013.813)">
      <circle id="Ellipse_265" data-name="Ellipse 265" cx="2.44" cy="2.44" r="2.44" transform="translate(240.058 129.53) rotate(-76.717)" fill="#464149"/>
      <path id="Path_13771" data-name="Path 13771" d="M4142.085,1803.065a2.44,2.44,0,1,1-2.44,2.44A2.439,2.439,0,0,1,4142.085,1803.065Z" transform="translate(-3899.092 -1692.103)" fill="#464149"/>
      <path id="Path_13772" data-name="Path 13772" d="M4142.085,1705.294a2.44,2.44,0,1,1-2.44,2.44A2.439,2.439,0,0,1,4142.085,1705.294Z" transform="translate(-3899.092 -1608.646)" fill="#464149"/>
      <path id="Path_13773" data-name="Path 13773" d="M4247.634,1900.836a2.44,2.44,0,1,1-2.44,2.44A2.439,2.439,0,0,1,4247.634,1900.836Z" transform="translate(-3989.188 -1775.561)" fill="#464149"/>
      <path id="Path_13774" data-name="Path 13774" d="M4247.634,1803.065a2.44,2.44,0,1,1-2.44,2.44A2.439,2.439,0,0,1,4247.634,1803.065Z" transform="translate(-3989.188 -1692.103)" fill="#464149"/>
      <path id="Path_13775" data-name="Path 13775" d="M4247.634,1705.294a2.44,2.44,0,1,1-2.44,2.44A2.439,2.439,0,0,1,4247.634,1705.294Z" transform="translate(-3989.188 -1608.646)" fill="#464149"/>
      <circle id="Ellipse_266" data-name="Ellipse 266" cx="2.44" cy="2.44" r="2.44" transform="translate(270.447 127.716) rotate(-45)" fill="#464149"/>
      <path id="Path_13776" data-name="Path 13776" d="M4353.182,1803.065a2.44,2.44,0,1,1-2.44,2.44A2.44,2.44,0,0,1,4353.182,1803.065Z" transform="translate(-4079.284 -1692.103)" fill="#464149"/>
      <path id="Path_13777" data-name="Path 13777" d="M4353.182,1705.294a2.44,2.44,0,1,1-2.44,2.44A2.44,2.44,0,0,1,4353.182,1705.294Z" transform="translate(-4079.284 -1608.646)" fill="#464149"/>
      <g id="Group_7621" data-name="Group 7621" transform="translate(0 0)">
        <g id="Group_7619" data-name="Group 7619" transform="translate(0 12.719)">
          <g id="Group_7616" data-name="Group 7616" transform="translate(11.049 66.431)">
            <path id="Path_13778" data-name="Path 13778" d="M2574.141,1588.833a.617.617,0,0,1-.462-.207c-.025-.028-.617-.691-1.548-1.851a.619.619,0,1,1,.966-.774c.908,1.132,1.5,1.795,1.505,1.8a.619.619,0,0,1-.461,1.031Z" transform="translate(-2571.996 -1585.769)" fill="#464149"/>
          </g>
          <g id="Group_7617" data-name="Group 7617" transform="translate(0 2.281)">
            <path id="Path_13779" data-name="Path 13779" d="M2505.318,1209.147a.619.619,0,0,1-.507-.263c-.95-1.352-1.841-2.714-2.646-4.048a.619.619,0,0,1,1.059-.64c.791,1.309,1.666,2.647,2.6,3.976a.619.619,0,0,1-.506.975Zm-4.927-8.213a.619.619,0,0,1-.556-.347,40.232,40.232,0,0,1-1.889-4.486.619.619,0,0,1,1.17-.406,38.912,38.912,0,0,0,1.831,4.347.619.619,0,0,1-.555.891Zm13.375-5.551a13.033,13.033,0,0,1-1.646-.106.619.619,0,0,1,.157-1.228,11.759,11.759,0,0,0,1.489.1,10.318,10.318,0,0,0,2.993-.434.619.619,0,0,1,.359,1.185A11.562,11.562,0,0,1,2513.766,1195.382Zm-6.08-1.593a.616.616,0,0,1-.332-.1,10.356,10.356,0,0,1-3.417-3.7.619.619,0,0,1,1.077-.611,9.132,9.132,0,0,0,3.005,3.271.619.619,0,0,1-.333,1.141Zm13.368-1.237a.619.619,0,0,1-.42-1.074,11.378,11.378,0,0,0,2.623-3.671.619.619,0,0,1,1.129.508,12.624,12.624,0,0,1-2.912,4.072A.617.617,0,0,1,2521.053,1192.552Zm-23.7-.674a.619.619,0,0,1-.611-.527,18.756,18.756,0,0,1-.215-2.768,15.048,15.048,0,0,1,.156-2.187.619.619,0,0,1,1.225.181,13.841,13.841,0,0,0-.142,2.007,17.546,17.546,0,0,0,.2,2.584.619.619,0,0,1-.52.7A.627.627,0,0,1,2497.352,1191.879Zm5.475-6.057a.619.619,0,0,1-.6-.488,25.552,25.552,0,0,1-.547-4.873.619.619,0,1,1,1.238-.026,24.344,24.344,0,0,0,.519,4.636.62.62,0,0,1-.605.751Zm22.056-1.78h-.011a.619.619,0,0,1-.608-.63q0-.092,0-.183a8.545,8.545,0,0,0-1-4.12.619.619,0,0,1,1.084-.6,9.78,9.78,0,0,1,1.153,4.717c0,.068,0,.137,0,.206A.619.619,0,0,1,2524.884,1184.042Zm-25.975-1.408a.619.619,0,0,1-.524-.947,13.037,13.037,0,0,1,3.443-3.618.619.619,0,0,1,.727,1,11.8,11.8,0,0,0-3.12,3.273A.619.619,0,0,1,2498.909,1182.634Zm7.5-5.691a.619.619,0,0,1-.226-1.2,29.43,29.43,0,0,1,3.386-1.079c.44-.113.878-.215,1.3-.3a.619.619,0,0,1,.252,1.212c-.406.084-.826.182-1.247.29a28.243,28.243,0,0,0-3.243,1.033A.615.615,0,0,1,2506.406,1176.942Zm-3.854-.658a.644.644,0,0,1-.076,0,.619.619,0,0,1-.539-.69,40.432,40.432,0,0,1,.889-4.784.619.619,0,1,1,1.2.3,39.123,39.123,0,0,0-.862,4.636A.619.619,0,0,1,2502.551,1176.284Zm17.833-.094a.617.617,0,0,1-.273-.064,10.667,10.667,0,0,0-4.378-1,.619.619,0,1,1,.041-1.237,11.883,11.883,0,0,1,4.885,1.127.619.619,0,0,1-.274,1.174ZM2504.841,1167a.62.62,0,0,1-.58-.835,42.466,42.466,0,0,1,1.953-4.452.619.619,0,1,1,1.1.562,41.328,41.328,0,0,0-1.9,4.322A.619.619,0,0,1,2504.841,1167Zm4.355-8.514a.619.619,0,0,1-.511-.966,34.667,34.667,0,0,1,3.008-3.838.619.619,0,0,1,.917.832,33.46,33.46,0,0,0-2.9,3.7A.618.618,0,0,1,2509.2,1158.483Zm6.445-7.046a.619.619,0,0,1-.385-1.1,25.984,25.984,0,0,1,4.106-2.673.619.619,0,0,1,.572,1.1,24.744,24.744,0,0,0-3.91,2.545A.615.615,0,0,1,2515.64,1151.437Z" transform="translate(-2496.526 -1147.59)" fill="#464149"/>
          </g>
          <g id="Group_7618" data-name="Group 7618" transform="translate(26.979)">
            <path id="Path_13780" data-name="Path 13780" d="M2681.426,1133.758a.619.619,0,0,1-.165-1.215,23.207,23.207,0,0,1,2.388-.527.619.619,0,0,1,.2,1.221,21.964,21.964,0,0,0-2.26.5A.623.623,0,0,1,2681.426,1133.758Z" transform="translate(-2680.807 -1132.006)" fill="#464149"/>
          </g>
        </g>
        <g id="Group_7620" data-name="Group 7620" transform="translate(137.326)">
          <path id="Path_13781" data-name="Path 13781" d="M3505.454,1076.713a15.837,15.837,0,0,1-3.831-.488.619.619,0,0,1,.3-1.2,14.143,14.143,0,0,0,4.521.413.619.619,0,0,1,.1,1.234C3506.185,1076.7,3505.819,1076.713,3505.454,1076.713Zm5.571-1.368a.619.619,0,0,1-.3-1.158,7.746,7.746,0,0,0,3.072-3.077.619.619,0,0,1,1.093.582,8.984,8.984,0,0,1-3.557,3.573A.616.616,0,0,1,3511.025,1075.346Zm-13.674-.835a.617.617,0,0,1-.291-.073,25.753,25.753,0,0,1-4.047-2.711.619.619,0,1,1,.78-.961,24.521,24.521,0,0,0,3.851,2.581.619.619,0,0,1-.293,1.165Zm46.415-5.071a.616.616,0,0,1-.413-.158c-1.172-1.051-2.389-2.071-3.616-3.03a.619.619,0,0,1,.763-.975c1.249.977,2.487,2.014,3.68,3.083a.619.619,0,0,1-.414,1.08Zm-53.77-.888a.617.617,0,0,1-.479-.226,12.037,12.037,0,0,1-2.406-4.363.619.619,0,0,1,1.193-.329,10.826,10.826,0,0,0,2.169,3.906.619.619,0,0,1-.478,1.012Zm25.225-1.138a.618.618,0,0,1-.615-.562,10.924,10.924,0,0,0-1.388-4.251.619.619,0,1,1,1.083-.6,12.139,12.139,0,0,1,1.537,4.734.619.619,0,0,1-.559.674C3515.26,1067.413,3515.24,1067.414,3515.221,1067.414Zm21.047-3.83a.615.615,0,0,1-.345-.106c-1.3-.88-2.65-1.72-4-2.5a.619.619,0,0,1,.617-1.073c1.376.791,2.747,1.647,4.075,2.544a.619.619,0,0,1-.347,1.132Zm-48.162-3.794a.619.619,0,0,1-.553-.9,9.475,9.475,0,0,1,3.462-3.645.619.619,0,0,1,.671,1.041,8.267,8.267,0,0,0-3.026,3.158A.619.619,0,0,1,3488.106,1059.79Zm22.809-.667a.616.616,0,0,1-.448-.192,28.045,28.045,0,0,0-3.494-3.069.619.619,0,1,1,.742-.991,29.292,29.292,0,0,1,3.648,3.206.619.619,0,0,1-.448,1.046Zm17.105-.277a.616.616,0,0,1-.267-.061c-1.42-.682-2.874-1.312-4.323-1.875a.619.619,0,1,1,.448-1.154c1.478.574,2.962,1.218,4.41,1.913a.619.619,0,0,1-.269,1.177Zm-92.855-.993a.619.619,0,0,1-.32-1.149c.063-.038,1.58-.949,4.263-2.264a.619.619,0,0,1,.545,1.111c-2.63,1.289-4.154,2.2-4.169,2.213A.616.616,0,0,1,3435.165,1057.853Zm83.987-2.446a.616.616,0,0,1-.177-.026c-1.515-.452-3.051-.84-4.563-1.153a.619.619,0,1,1,.251-1.212c1.546.32,3.116.717,4.666,1.179a.619.619,0,0,1-.177,1.212Zm-23.471-.96a.619.619,0,0,1-.181-1.211,28.321,28.321,0,0,1,4.76-.99.619.619,0,1,1,.153,1.228,27.073,27.073,0,0,0-4.551.945A.617.617,0,0,1,3495.68,1054.447Zm-51.968-.82a.619.619,0,0,1-.245-1.188c1.461-.627,2.959-1.227,4.451-1.784a.619.619,0,0,1,.433,1.16c-1.474.55-2.952,1.142-4.4,1.762A.616.616,0,0,1,3443.712,1053.627Zm66.125-.137a.663.663,0,0,1-.069,0,44.542,44.542,0,0,0-4.685-.278.619.619,0,0,1,0-1.238h0a45.668,45.668,0,0,1,4.816.285.619.619,0,0,1-.068,1.234Zm-6.472-.115a.616.616,0,0,1-.31-.084c-1.11-.643-2.306-1.274-3.554-1.875q-.309-.149-.619-.293a.619.619,0,1,1,.522-1.123q.317.147.634.3c1.276.615,2.5,1.261,3.637,1.92a.619.619,0,0,1-.311,1.155Zm-50.728-3.076a.619.619,0,0,1-.187-1.209c1.532-.487,3.081-.937,4.605-1.336a.619.619,0,1,1,.314,1.2c-1.5.394-3.032.837-4.544,1.318A.612.612,0,0,1,3452.637,1050.3Zm42.1-.913a.617.617,0,0,1-.206-.036c-1.463-.516-2.978-.971-4.5-1.353a.619.619,0,1,1,.3-1.2c1.561.391,3.113.857,4.612,1.386a.619.619,0,0,1-.206,1.2Zm-32.887-1.495a.619.619,0,0,1-.123-1.225c1.583-.323,3.174-.6,4.729-.818a.619.619,0,1,1,.174,1.225c-1.531.217-3.1.488-4.656.806A.6.6,0,0,1,3461.85,1047.891Zm23.667-.822a.656.656,0,0,1-.1-.008c-1.525-.24-3.1-.421-4.676-.536a.619.619,0,1,1,.09-1.235c1.613.118,3.22.3,4.779.547a.619.619,0,0,1-.1,1.23Zm-14.242-.508a.619.619,0,0,1-.046-1.236c1.613-.122,3.228-.188,4.8-.2a.619.619,0,0,1,.006,1.238c-1.543.007-3.129.072-4.712.192Z" transform="translate(-3434.545 -1045.13)" fill="#464149"/>
        </g>
      </g>
    </g>
    <g id="cup" transform="translate(2520.287 1144.085)">
      <g id="Group_7624" data-name="Group 7624" transform="translate(198.954 27.495)">
        <path id="Rectangle_17524" data-name="Rectangle 17524" d="M3.888,0h8.77a3.888,3.888,0,0,1,3.888,3.888v9.6a8.272,8.272,0,0,1-8.272,8.272h0A8.272,8.272,0,0,1,0,13.489v-9.6A3.888,3.888,0,0,1,3.888,0Z" transform="translate(3.383 0.571)" fill="#dd4a48"/>
        <g id="Group_7622" data-name="Group 7622">
          <path id="Path_13782" data-name="Path 13782" d="M4028.935,2145.671h-4.583a6.56,6.56,0,0,1-6.552-6.552v-12.97a3.386,3.386,0,0,1,3.382-3.382H4032.1a3.386,3.386,0,0,1,3.382,3.382v12.97A6.56,6.56,0,0,1,4028.935,2145.671Zm-7.753-21.762a2.242,2.242,0,0,0-2.239,2.24v12.97a5.416,5.416,0,0,0,5.409,5.41h4.583a5.416,5.416,0,0,0,5.41-5.41v-12.97a2.242,2.242,0,0,0-2.24-2.24Z" transform="translate(-4017.799 -2122.766)" fill="#464149"/>
        </g>
        <g id="Group_7623" data-name="Group 7623" transform="translate(16.545 3.677)">
          <path id="Path_13783" data-name="Path 13783" d="M4131.585,2161.566h-.773V2147.88h.773a6.749,6.749,0,0,1,6.742,6.741v.2A6.749,6.749,0,0,1,4131.585,2161.566Zm.369-12.532v11.377a5.607,5.607,0,0,0,5.23-5.587v-.2A5.606,5.606,0,0,0,4131.955,2149.035Z" transform="translate(-4130.812 -2147.88)" fill="#464149"/>
        </g>
      </g>
      <path id="Path_13784" data-name="Path 13784" d="M4075.6,1965s-4.744-5.485-1.454-11.655,3.291-8.227,2.6-10.969a12.861,12.861,0,0,1,.363,11.312C4074.285,1959.515,4074.313,1963.491,4075.6,1965Z" transform="translate(-3865.953 -1941.29)" fill="#dd4a48"/>
      <g id="Group_7625" data-name="Group 7625" transform="translate(204.615)">
        <path id="Path_13785" data-name="Path 13785" d="M4059.649,1958.727a.569.569,0,0,1-.432-.2,12.694,12.694,0,0,1-2.066-3.693,10.351,10.351,0,0,1,.54-8.6c3.188-5.978,3.223-7.891,2.555-10.562a.571.571,0,0,1,1.048-.426,13.3,13.3,0,0,1,1.308,3.64,12.69,12.69,0,0,1-.925,8.209c-2.665,5.486-2.735,9.293-1.621,10.659l.02.024.008.009a.571.571,0,0,1-.434.942Zm1.934-19.061a25.492,25.492,0,0,1-2.884,7.1,9.114,9.114,0,0,0-.487,7.641c.013.037.027.074.041.111a21.516,21.516,0,0,1,2.4-7.928A11.372,11.372,0,0,0,4061.583,1939.666Z" transform="translate(-4056.466 -1934.961)" fill="#464149"/>
      </g>
      <g id="Group_7626" data-name="Group 7626" transform="translate(0 49.354)">
        <rect id="Rectangle_17525" data-name="Rectangle 17525" width="247.551" height="1.143" fill="#464149"/>
      </g>
    </g>
  </g>
</svg>
