<svg width="36" height="36" viewBox="0 0 36 36" fill="none" xmlns="http://www.w3.org/2000/svg">
<g clip-path="url(#clip0_33_1343)">
<path d="M19.936 1.98401L23.836 9.89203C23.9891 10.2024 24.2153 10.471 24.4953 10.6744C24.7752 10.8779 25.1005 11.0102 25.443 11.06L34.171 12.328C34.5651 12.3854 34.9352 12.5519 35.2397 12.8087C35.5441 13.0654 35.7706 13.4023 35.8937 13.781C36.0167 14.1598 36.0314 14.5654 35.9361 14.952C35.8407 15.3387 35.6391 15.6909 35.354 15.969L29.039 22.125C28.7912 22.3665 28.6059 22.6647 28.4989 22.9938C28.392 23.3228 28.3666 23.673 28.425 24.014L29.916 32.706C29.9835 33.0989 29.9396 33.5029 29.7894 33.8721C29.6391 34.2414 29.3885 34.5612 29.0659 34.7953C28.7433 35.0295 28.3615 35.1687 27.9639 35.1971C27.5663 35.2255 27.1686 35.1419 26.816 34.956L19.01 30.856C18.7036 30.6949 18.3626 30.6108 18.0165 30.6108C17.6703 30.6108 17.3294 30.6949 17.023 30.856L9.21698 34.956C8.86436 35.1419 8.46672 35.2255 8.06908 35.1971C7.67144 35.1687 7.2897 35.0295 6.96708 34.7953C6.64445 34.5612 6.39382 34.2414 6.24358 33.8721C6.09334 33.5029 6.04948 33.0989 6.11698 32.706L7.60799 24.014C7.66638 23.673 7.64099 23.3228 7.53403 22.9938C7.42707 22.6647 7.24173 22.3665 6.99398 22.125L0.67899 15.969C0.393913 15.6909 0.192285 15.3387 0.0969126 14.952C0.00154012 14.5654 0.0162253 14.1598 0.139286 13.781C0.262347 13.4023 0.488885 13.0654 0.793308 12.8087C1.09773 12.5519 1.46791 12.3854 1.86199 12.328L10.59 11.06C10.9325 11.0102 11.2577 10.8779 11.5377 10.6744C11.8177 10.471 12.0439 10.2024 12.197 9.89203L16.097 1.98401C16.272 1.6238 16.5448 1.32008 16.8842 1.1076C17.2236 0.895127 17.616 0.782471 18.0165 0.782471C18.4169 0.782471 18.8093 0.895127 19.1488 1.1076C19.4882 1.32008 19.761 1.6238 19.936 1.98401Z" fill="#F5B82A"/>
<path d="M23.0433 17.3435C23.6107 16.776 23.6107 15.856 23.0433 15.2886C22.4758 14.7212 21.5559 14.7212 20.9884 15.2886C20.421 15.856 20.421 16.776 20.9884 17.3435C21.5559 17.9109 22.4758 17.9109 23.0433 17.3435Z" fill="#42210B"/>
<path d="M14.3555 17.7298C15.1365 17.5452 15.6199 16.7624 15.4353 15.9815C15.2507 15.2005 14.468 14.7171 13.687 14.9017C12.9061 15.0863 12.4227 15.869 12.6073 16.65C12.7919 17.4309 13.5746 17.9144 14.3555 17.7298Z" fill="#42210B"/>
<path d="M20.451 14.4289C20.4333 14.4097 20.4197 14.387 20.4111 14.3623C20.4026 14.3375 20.3992 14.3113 20.4013 14.2851C20.4034 14.259 20.4108 14.2337 20.4231 14.2106C20.4355 14.1875 20.4525 14.1672 20.473 14.151C20.9115 13.8117 21.4474 13.6224 22.0016 13.611C22.5559 13.5997 23.0991 13.7669 23.551 14.088C23.5723 14.1034 23.5903 14.123 23.6036 14.1457C23.617 14.1683 23.6255 14.1934 23.6287 14.2195C23.6319 14.2456 23.6297 14.2721 23.6221 14.2973C23.6146 14.3225 23.602 14.3459 23.585 14.366C23.5537 14.4028 23.5096 14.4264 23.4616 14.4322C23.4136 14.4379 23.3652 14.4254 23.326 14.397C22.9418 14.1252 22.4806 13.9838 22.0101 13.9935C21.5397 14.0032 21.0847 14.1636 20.712 14.451C20.6738 14.481 20.6257 14.4955 20.5772 14.4914C20.5288 14.4873 20.4837 14.465 20.451 14.4289Z" fill="#42210B"/>
<path d="M17.893 21.421C20.198 21.421 22.086 22.715 22.242 24.354C22.253 24.468 22.117 24.56 21.961 24.544C19.2561 24.2675 16.53 24.2675 13.825 24.544C13.669 24.56 13.533 24.467 13.544 24.354C13.701 22.715 15.588 21.421 17.893 21.421Z" fill="#42210B"/>
<mask id="mask0_33_1343" style="mask-type:luminance" maskUnits="userSpaceOnUse" x="13" y="21" width="10" height="4">
<path d="M17.893 21.421C20.198 21.421 22.086 22.715 22.242 24.354C22.253 24.468 22.117 24.56 21.961 24.544C19.2561 24.2675 16.53 24.2675 13.825 24.544C13.669 24.56 13.533 24.467 13.544 24.354C13.701 22.715 15.588 21.421 17.893 21.421Z" fill="white"/>
</mask>
<g mask="url(#mask0_33_1343)">
<path d="M15.043 24.514C15.043 25.046 16.319 25.478 17.893 25.478C19.467 25.478 20.743 25.047 20.743 24.514C20.743 23.981 19.528 23.55 17.954 23.55C17.929 23.55 17.835 23.687 17.81 23.688C17.785 23.689 17.653 23.55 17.623 23.55C16.127 23.579 15.043 24 15.043 24.514Z" fill="#FF4340"/>
<path opacity="0.3" d="M21.766 25.2599C19.12 25.3549 16.457 25.3549 13.81 25.2599C13.588 25.1599 13.465 25.06 13.465 24.944C13.465 24.507 15.397 24.153 17.781 24.153C20.165 24.153 22.097 24.507 22.097 24.944C22.097 25.056 21.98 25.1629 21.766 25.2599Z" fill="#C1272D"/>
<path d="M15.884 22.154C17.2035 21.8555 18.572 21.847 19.895 22.129C20.054 22.159 20.051 22.089 20.109 21.982C20.1462 21.8593 20.176 21.7344 20.198 21.608C18.6792 21.2687 17.1035 21.2763 15.588 21.63C15.6084 21.756 15.6365 21.8805 15.672 22.003C15.729 22.111 15.727 22.179 15.884 22.154Z" fill="#F2F2F2"/>
<mask id="mask1_33_1343" style="mask-type:luminance" maskUnits="userSpaceOnUse" x="15" y="21" width="6" height="2">
<path d="M15.884 22.154C17.2035 21.8555 18.572 21.847 19.895 22.129C20.054 22.159 20.051 22.089 20.109 21.982C20.1462 21.8593 20.176 21.7344 20.198 21.608C18.6792 21.2687 17.1035 21.2763 15.588 21.63C15.6084 21.756 15.6365 21.8805 15.672 22.003C15.729 22.111 15.727 22.179 15.884 22.154Z" fill="white"/>
</mask>
<g mask="url(#mask1_33_1343)">
<path d="M15.677 21.941C16.612 21.821 17.239 21.651 17.851 21.641C18.6076 21.6903 19.3608 21.7824 20.107 21.917C20.288 21.939 20.269 21.869 20.337 21.753C20.405 21.637 20.383 21.476 20.437 21.353C18.7606 21.0216 17.0347 21.0287 15.361 21.374C15.41 21.499 15.386 21.66 15.452 21.774C15.518 21.888 15.496 21.964 15.677 21.941Z" fill="#E6E6E6"/>
</g>
</g>
<path d="M12.426 14.4289C12.4083 14.4097 12.3947 14.387 12.3861 14.3623C12.3775 14.3375 12.3742 14.3113 12.3763 14.2851C12.3783 14.259 12.3858 14.2337 12.3981 14.2106C12.4105 14.1875 12.4275 14.1672 12.448 14.151C12.8864 13.8117 13.4223 13.6224 13.9766 13.611C14.5309 13.5997 15.074 13.7669 15.526 14.088C15.5473 14.1034 15.5652 14.123 15.5786 14.1457C15.5919 14.1683 15.6005 14.1934 15.6037 14.2195C15.6068 14.2456 15.6046 14.2721 15.5971 14.2973C15.5896 14.3225 15.577 14.3459 15.56 14.366C15.5287 14.4028 15.4846 14.4264 15.4366 14.4322C15.3886 14.4379 15.3402 14.4254 15.301 14.397C14.9169 14.1254 14.4559 13.9842 13.9856 13.9939C13.5153 14.0036 13.0606 14.1638 12.688 14.451C12.6497 14.4813 12.6013 14.496 12.5527 14.4919C12.504 14.4878 12.4587 14.4653 12.426 14.4289Z" fill="#42210B"/>
</g>
<defs>
<clipPath id="clip0_33_1343">
<rect width="36" height="36" fill="white"/>
</clipPath>
</defs>
</svg>
