<svg xmlns="http://www.w3.org/2000/svg" xmlns:xlink="http://www.w3.org/1999/xlink" width="280.465" height="237.062" viewBox="0 0 280.465 237.062">
  <defs>
    <clipPath id="clip-path">
      <path id="Path_13824" data-name="Path 13824" d="M2127.114,1147.446l-78.668-6.269a4.838,4.838,0,0,1-4.438-5.207l4.506-56.547a4.838,4.838,0,0,1,5.207-4.438l78.667,6.269a4.838,4.838,0,0,1,4.438,5.207l-4.506,56.547A4.838,4.838,0,0,1,2127.114,1147.446Z" transform="translate(-2043.993 -1074.969)" fill="#ecf3fe"/>
    </clipPath>
  </defs>
  <g id="Group_7656" data-name="Group 7656" transform="translate(-660.552 -528.525)">
    <g id="Group_7655" data-name="Group 7655" transform="translate(660.552 528.525)">
      <path id="Path_13786" data-name="Path 13786" d="M2155.356,1551.455h77.214a83.542,83.542,0,1,0-77.214,0Z" transform="translate(-1997.04 -1326.143)" fill="#ecf3fe"/>
      <ellipse id="Ellipse_267" data-name="Ellipse 267" cx="109.973" cy="15.176" rx="109.973" ry="15.176" transform="translate(41.2 206.711)" fill="#d7e4f9"/>
      <circle id="Ellipse_268" data-name="Ellipse 268" cx="83.542" cy="83.542" r="83.542" transform="translate(50.669 0)" fill="#ecf3fe"/>
      <g id="Group_7627" data-name="Group 7627" transform="translate(0 93.952)">
        <path id="Path_13787" data-name="Path 13787" d="M836.073,1840.314s-46.263-96.279-75.859-110.051a3.451,3.451,0,0,0-4.878,2.665c-.79,5.908,2.83,20.109,32.134,51.858C831.142,1832.1,836.073,1840.314,836.073,1840.314Z" transform="translate(-747.838 -1729.938)" fill="#c4d7f2"/>
        <path id="Path_13788" data-name="Path 13788" d="M750.094,2312.714s-59.421-70.488-86.547-74.755a2.587,2.587,0,0,0-2.995,2.61c.118,4.682,5.116,15.705,37.611,36.669C744.276,2306.986,750.094,2312.714,750.094,2312.714Z" transform="translate(-660.552 -2198.201)" fill="#c4d7f2"/>
        <path id="Path_13789" data-name="Path 13789" d="M1468.212,2047s-4.587-79.125-21.059-96.036a2.224,2.224,0,0,0-3.406.254c-2.331,3.284-4.569,13.445,7,44.614C1467.158,2040.065,1468.212,2047,1468.212,2047Z" transform="translate(-1380.772 -1933.06)" fill="#c4d7f2"/>
      </g>
      <path id="Path_13790" data-name="Path 13790" d="M3318.415,1262.636c-2.233-7.8-9.946-9.822-5.365-16.983,4.517-7.061,11-25.749-1.083-33.529a.935.935,0,0,0-.415-.141,29.337,29.337,0,0,1-1.439-2.619l-1.354.6.167-3.657.01-1.19a1.624,1.624,0,0,0,.32.121.826.826,0,0,0,.3.02,6.32,6.32,0,0,0,2.844-2.339,8.631,8.631,0,0,0,1.9-4.433c.271-3.45.646-7.877-2.629-10.489s-9.227-4.7-12.859-3.294.967,4.829.384,5.163c-.5.289-1.753,1.815-1.664,2.716a.669.669,0,0,0,.144.36,9.1,9.1,0,0,0,.638.708l-.077.1c-.306.387-.683.86-1.085,1.37-.028.032-.054.064-.08.1-1.482,1.869-3.438,4.029-3.924,4.478-.862.8,2.636,2.757,2.658,3.323.021.476.091,6.883,4.061,6.991l.068,3.472.008.393-1.794.8-.667,3.5q-.225.247-.475.537l-9.512,4.537-11.872,2.267a2,2,0,0,1-1.9-.629l-14.493-15.529-.7.58-.521-.548c-.017-.018-.034-.038-.049-.057a1.333,1.333,0,0,1-.308-.914l.112-2.864a1.369,1.369,0,0,0-.859-1.349l-2.934-1.168a1.8,1.8,0,0,0-2.244.939l-1.717,3.581a1.605,1.605,0,0,0,.567,2.1l2.819,1.7.4.241a1.811,1.811,0,0,1,.532.484l.6.818-.541.444,6.8,8.391-6.2-3.654-.539.734-.659-.38c-.021-.012-.043-.027-.063-.041a1.291,1.291,0,0,1-.545-.782l-.651-2.736a1.361,1.361,0,0,0-1.2-1.047l-3.2-.328a1.842,1.842,0,0,0-1.957,1.481l-.738,3.839a1.557,1.557,0,0,0,1.117,1.835l3.224.859.458.122a1.856,1.856,0,0,1,.652.317l.807.614-.414.563,21.168,14.556a3.839,3.839,0,0,0,3.417.51l13.388-4.2.84-.036c-.816,3.446-1.983,7.4-3.167,11.1-.743,2.328-1.5,4.555-2.168,6.5-1.184,3.394-2.133,5.9-2.4,6.515-.567,1.274-.7,2.367.276,3.318l-.395,1.794-17.691,80.428,1.01.162-.673,2.535-.431-.132a8.749,8.749,0,0,1-6.2,3.323c-4.776.341-7.343.634-8.34,3.2-.841,2.166,15.025,3.653,20.028,4.066a1.562,1.562,0,0,0,1.648-1.376l.738-6.817-.485-.148.782-3.525,1.013.162,7.74-23.828,1.985,5.895,5.82,17.279.872-.264.567,2.439-.458.09a8.792,8.792,0,0,1-4.131,5.723c-4.225,2.523-6.444,3.972-6.152,6.622.247,2.234,15.511-3.92,20.3-5.908a1.522,1.522,0,0,0,.867-1.941l-2.526-6.139-.515.1-.875-3.131.745-.226c-1.041-12.615-7.1-26.612-8.989-30.709-.351-.767-.558-1.185-.558-1.185l7.023-30.732a20.579,20.579,0,0,0,5.4-8.8q.233-.713.435-1.486a6.905,6.905,0,0,0,2.756.609c4.4.106,7.559,9.271,7.559,9.271h0C3311.492,1278.738,3320.647,1270.431,3318.415,1262.636Z" transform="translate(-3043.256 -1132.974)" fill="#003889" opacity="0.18" style="mix-blend-mode: multiply;isolation: isolate"/>
      <path id="Path_13791" data-name="Path 13791" d="M1902.595,1115.9l-92.973-3.148a7.552,7.552,0,0,1-7.292-7.8l5.5-162.374a7.552,7.552,0,0,1,7.8-7.292l92.973,3.148a7.552,7.552,0,0,1,7.292,7.8l-5.5,162.374A7.552,7.552,0,0,1,1902.595,1115.9Z" transform="translate(-1713.037 -903.468)" fill="#003889" opacity="0.18" style="mix-blend-mode: multiply;isolation: isolate"/>
      <path id="Path_13792" data-name="Path 13792" d="M2081.66,1055.8l-92.973-3.148a7.552,7.552,0,0,1-7.292-7.8l5.5-162.374a7.552,7.552,0,0,1,7.8-7.292l92.974,3.148a7.552,7.552,0,0,1,7.292,7.8l-5.5,162.374A7.552,7.552,0,0,1,2081.66,1055.8Z" transform="translate(-1878.1 -848.068)" fill="#dd4a48"/>
      <path id="Path_13793" data-name="Path 13793" d="M1921.375,1095.266l-92.733-7.389a7.552,7.552,0,0,1-6.928-8.128L1834.619,917.8a7.552,7.552,0,0,1,8.128-6.928l92.733,7.389a7.552,7.552,0,0,1,6.928,8.128L1929.5,1088.338A7.552,7.552,0,0,1,1921.375,1095.266Z" transform="translate(-1730.888 -880.945)" fill="#fff"/>
      <g id="Group_7634" data-name="Group 7634" transform="translate(108.186 42.732)">
        <path id="Path_13794" data-name="Path 13794" d="M3111.864,1559.615l-.458,3.839a1.691,1.691,0,0,0,1.25,1.835l3.287.859.467.122a2.015,2.015,0,0,1,.675.317l2.313,1.667,2.573-3.945-2.239-1.24c-.022-.012-.045-.027-.066-.041a1.425,1.425,0,0,1-.6-.782l-.85-2.736a1.5,1.5,0,0,0-1.281-1.047l-3.22-.328A1.69,1.69,0,0,0,3111.864,1559.615Z" transform="translate(-3027.923 -1520.342)" fill="#fdc8aa"/>
        <path id="Path_13795" data-name="Path 13795" d="M3169.566,1623.942l.467.122a2.015,2.015,0,0,1,.675.317l2.313,1.667,2.573-3.945-2.239-1.24c-.022-.012-.045-.027-.066-.041C3172.471,1621.505,3170.667,1623.019,3169.566,1623.942Z" transform="translate(-3081.545 -1578.135)" fill="#efa37d"/>
        <path id="Path_13796" data-name="Path 13796" d="M3242.415,1610.018l-26.439,8.486a3.957,3.957,0,0,1-3.455-.51l-22.229-14.556,3.341-5.049,19.175,10.844a2.124,2.124,0,0,0,2.046.091l25.293-12.5S3248.056,1601.561,3242.415,1610.018Z" transform="translate(-3100.65 -1556.015)" fill="#2c272e"/>
        <path id="Path_13797" data-name="Path 13797" d="M3799.28,1439.557l.337,3.644.375,4.054,8.317-3.124-.219-8.1-.167-2.567Z" transform="translate(-3662.015 -1405.425)" fill="#fdc8aa"/>
        <path id="Path_13798" data-name="Path 13798" d="M3799.28,1439.557l.337,3.644c2.9-.692,6.983-5.56,8.472-7.174l-.167-2.567Z" transform="translate(-3662.015 -1405.426)" fill="#efa37d"/>
        <path id="Path_13799" data-name="Path 13799" d="M3705.48,1291.708c.067.57.822,9.653,7.358,6.223a25.98,25.98,0,0,0,5.027-3.36c.307-.266.6-.533.869-.805a12.808,12.808,0,0,0,2.344-3.083,7.165,7.165,0,0,0,.894-4.133c-.209-1.938-3.172-4.077-6.409-5.229l-.016-.005c-2.918-1.041-6.056-1.276-7.584.166-.089.083-.355.445-.726.958-.278.387-.62.86-.986,1.37-.025.032-.049.064-.073.1a54.042,54.042,0,0,1-3.6,4.478C3701.777,1289.184,3705.417,1291.142,3705.48,1291.708Z" transform="translate(-3572.77 -1264.396)" fill="#fdc8aa"/>
        <path id="Path_13800" data-name="Path 13800" d="M3763.6,1198.488a8.027,8.027,0,0,1-1.575,4.433,5.7,5.7,0,0,1-2.674,2.339.837.837,0,0,1-.3-.02c-.958-.231-2.57-1.856-3.392-2.906a3.5,3.5,0,0,1-.5-.77.466.466,0,0,1,.069-.377,1.836,1.836,0,0,1,.106-.173c.553-.8,2.107-2.118,2.018-4.1-.109-2.526-3.864-.228-3.864-.228-.285-.074-.558-.15-.821-.229h0a13.83,13.83,0,0,1-5.11-2.543,9.555,9.555,0,0,1-.982-.967.722.722,0,0,1-.17-.36c-.155-.9.982-2.427,1.466-2.716.559-.334-4.291-3.755-.76-5.163s9.634.682,13.1,3.294S3763.62,1195.038,3763.6,1198.488Z" transform="translate(-3612.726 -1175.707)" fill="#2c272e"/>
        <path id="Path_13801" data-name="Path 13801" d="M3844.629,2031.164s-3.829-9.165-8.235-9.271a6.731,6.731,0,0,1-5.973-3.583l4.438-17.811s14.534,12.07,12.658,19.865S3844.629,2031.164,3844.629,2031.164Z" transform="translate(-3690.72 -1928.123)" fill="#49444c"/>
        <path id="Path_13802" data-name="Path 13802" d="M3795.475,3161.745l2.562,7.272-7.405,1.192-1.761-5.769Z" transform="translate(-3652.419 -2998.558)" fill="#fff"/>
        <path id="Path_13803" data-name="Path 13803" d="M3681.828,3254.287c-.485-2.65,1.628-4.1,5.669-6.622a8.005,8.005,0,0,0,3.714-5.723l8.236-1.642,2.974,6.139a1.432,1.432,0,0,1-.725,1.94C3697.053,3250.366,3682.237,3256.521,3681.828,3254.287Z" transform="translate(-3553.685 -3070.969)" fill="#2c272e"/>
        <path id="Path_13804" data-name="Path 13804" d="M3646.559,2317.756l-5.914,43.4,4.441,10.842,7.079,17.279,8.5-2.633c-1.961-12.615-9.045-26.612-11.228-30.708-.407-.767-.644-1.186-.644-1.186l5.738-36.866Z" transform="translate(-3515.785 -2220.569)" fill="#2c272e"/>
        <path id="Path_13805" data-name="Path 13805" d="M3646.559,2317.756l-5.914,43.4,4.441,10.842c1.089-4.031,2.713-10.049,4.352-16.062-.407-.767-.644-1.186-.644-1.186l5.738-36.866Z" transform="translate(-3515.785 -2220.569)" fill="#131014"/>
        <path id="Path_13806" data-name="Path 13806" d="M3485.329,3191.648l-1.135,7.626-7.1-2.408,1.14-5.923Z" transform="translate(-3365.021 -3025.472)" fill="#fff"/>
        <path id="Path_13807" data-name="Path 13807" d="M3293.276,3261.43c.81-2.569,3.355-2.862,8.107-3.2a8,8,0,0,0,5.958-3.323l8.048,2.4-.241,6.817a1.432,1.432,0,0,1-1.548,1.376C3308.567,3265.083,3292.593,3263.6,3293.276,3261.43Z" transform="translate(-3195.561 -3084.431)" fill="#2c272e"/>
        <path id="Path_13808" data-name="Path 13808" d="M3472.215,2227.343l9.195,1.454,16.516-65.554s3.546-2.842,5.148-9.16a24.66,24.66,0,0,0,.615-3.456c.05-.447.087-.908.114-1.382a30.245,30.245,0,0,0,0-3.262l-19.178-3.031-.223,1.505-.068.468-.292,1.989Z" transform="translate(-3360.527 -2059.435)" fill="#2c272e"/>
        <path id="Path_13809" data-name="Path 13809" d="M3623.475,2164.659c3.859,1.969,14.584,7.6,19.03,7.169a24.7,24.7,0,0,0,.616-3.456q.074-.671.113-1.382l-19.4-4.788-.068.468Z" transform="translate(-3499.958 -2077.179)" fill="#2c272e"/>
        <path id="Path_13810" data-name="Path 13810" d="M3618.105,1585.308c2.249,1.122,19.266,7.822,19.318,3.931a36.823,36.823,0,0,1,1.263-6.933c.111-.45.227-.9.344-1.342.941-3.568,1.945-6.767,1.945-6.767l0-.008.486-2.319,5.826-27.843-6.368-9.237-11.063,5.152a26.229,26.229,0,0,0-7.16,14.891,128.753,128.753,0,0,1-2.691,13.355c-.573,2.328-1.162,4.555-1.695,6.5-.936,3.394-1.7,5.9-1.929,6.515C3615.772,1582.842,3615.854,1584.185,3618.105,1585.308Z" transform="translate(-3493.121 -1498.833)" fill="#fff"/>
        <path id="Path_13811" data-name="Path 13811" d="M3860.767,1990.169c.077.127,2.575,8.735,3.493,11.9.112-.45.227-.9.344-1.342.941-3.567,1.945-6.767,1.945-6.767l0-.008.486-2.319Z" transform="translate(-3718.694 -1918.599)" fill="#c4d7f2"/>
        <path id="Path_13812" data-name="Path 13812" d="M3786.514,1505.369c.022.208,1.826,2.915,1.826,2.915l-14,7.379.587-4.989Z" transform="translate(-3639.03 -1471.711)" fill="#d4e6fc"/>
        <path id="Path_13813" data-name="Path 13813" d="M3783.406,1566.454q.32.677.7,1.365c.72,1.29,1.4,2.464,2.034,3.546,7.722,13.1,9.74,12.537,13.467,34.182,0,0,8.561-8.312,5.76-16.112s-10.662-9.822-6.6-16.983c4-7.061,9.125-25.749-3.527-33.529a.98.98,0,0,0-1.067.022C3791.171,1540.98,3776.513,1551.884,3783.406,1566.454Z" transform="translate(-3645.702 -1502.506)" fill="#2c272e"/>
        <path id="Path_13814" data-name="Path 13814" d="M3804.894,1804.747q.321.676.7,1.365c.72,1.29,1.4,2.464,2.034,3.546,1.863-2.454,9.321-12.265,9.441-12.374Z" transform="translate(-3667.19 -1740.799)" fill="#2c272e"/>
        <g id="Group_7633" data-name="Group 7633">
          <g id="Group_7632" data-name="Group 7632">
            <path id="Path_13815" data-name="Path 13815" d="M2127.114,1147.446l-78.668-6.269a4.838,4.838,0,0,1-4.438-5.207l4.506-56.547a4.838,4.838,0,0,1,5.207-4.438l78.667,6.269a4.838,4.838,0,0,1,4.438,5.207l-4.506,56.547A4.838,4.838,0,0,1,2127.114,1147.446Z" transform="translate(-2043.993 -1074.969)" fill="#ecf3fe"/>
            <g id="Group_7631" data-name="Group 7631" clip-path="url(#clip-path)">
              <path id="Path_13816" data-name="Path 13816" d="M2702.145,1042.935l3.551-1.6,2.913,12.781a2.268,2.268,0,0,0,3.333,1.5l59.081-26.683a3.679,3.679,0,0,0,2.092-3.946L2764.3,986.3a2.267,2.267,0,0,0-3.333-1.5l-59.081,26.683a3.68,3.68,0,0,0-2.093,3.946l2.913,12.781-3.552,1.6a2.662,2.662,0,0,0-1.513,2.854l2.093,9.182A1.64,1.64,0,0,0,2702.145,1042.935Z" transform="translate(-2646.479 -991.611)" fill="#b23030"/>
              <ellipse id="Ellipse_269" data-name="Ellipse 269" cx="23.579" cy="23.66" rx="23.579" ry="23.66" transform="matrix(0.528, -0.849, 0.849, 0.528, 11.867, 47.394)" fill="#003889" opacity="0.18" style="mix-blend-mode: multiply;isolation: isolate"/>
              <g id="Group_7629" data-name="Group 7629" transform="translate(14.186 3.755)">
                <ellipse id="Ellipse_270" data-name="Ellipse 270" cx="23.579" cy="23.66" rx="23.579" ry="23.66" transform="matrix(0.528, -0.849, 0.849, 0.528, 0, 40.057)" fill="#f4b545"/>
                <g id="Group_7628" data-name="Group 7628" transform="translate(19.557 19.249)">
                  <path id="Path_13817" data-name="Path 13817" d="M2500.923,1381.455l-5.4-1.288a4.318,4.318,0,0,0-2.174-5.03q-3.117-1.937-4.37.079a2.13,2.13,0,0,0-.262,1.723,6.9,6.9,0,0,0,2.035,2.606,30.849,30.849,0,0,1,4.159,4.517,7.563,7.563,0,0,1,1.275,3.938,7.03,7.03,0,0,1-1.081,4.177,8.216,8.216,0,0,1-5.6,3.789q-3.716.757-8.316-2.1a12.477,12.477,0,0,1-4.9-5.215,8.749,8.749,0,0,1-.309-6.632l5.55,1.926q-1.124,3.641,2.618,5.965a5.084,5.084,0,0,0,3.125.976,2.429,2.429,0,0,0,1.92-1.113,2.037,2.037,0,0,0,.142-2.024,11.447,11.447,0,0,0-2.472-2.945q-3.736-3.549-4.607-6.214a6.5,6.5,0,0,1,.961-5.615,7.816,7.816,0,0,1,5.3-3.679,9.739,9.739,0,0,1,7.18,1.621Q2502.3,1375.019,2500.923,1381.455Z" transform="translate(-2475.475 -1369.134)" fill="#fff"/>
                </g>
              </g>
              <path id="Path_13818" data-name="Path 13818" d="M2684.208,1117.175l62.876-9.111a2.864,2.864,0,0,1,3.293,2.343l5.778,39.249a2.848,2.848,0,0,1-2.48,3.18l-62.876,9.111a2.864,2.864,0,0,1-3.293-2.343l-5.778-39.249A2.848,2.848,0,0,1,2684.208,1117.175Z" transform="translate(-2631.83 -1105.447)" fill="#003889" opacity="0.18" style="mix-blend-mode: multiply;isolation: isolate"/>
              <g id="Group_7630" data-name="Group 7630" transform="translate(47.517 -8.192)">
                <path id="Path_13819" data-name="Path 13819" d="M2684.649,984.26l61.976-13.977a2.864,2.864,0,0,1,3.466,2.079l8.815,38.68a2.848,2.848,0,0,1-2.225,3.363l-61.976,13.977a2.864,2.864,0,0,1-3.466-2.079l-8.815-38.68A2.848,2.848,0,0,1,2684.649,984.26Z" transform="translate(-2679.953 -970.207)" fill="#dd4a48"/>
                <path id="Path_13820" data-name="Path 13820" d="M2733.994,1061.893l-.024,0a.292.292,0,0,1-.066-.58h0l.02,0a2.054,2.054,0,0,0,.211-.036l1.252-.282a.292.292,0,1,1,.129.57l-1.252.282A2.622,2.622,0,0,1,2733.994,1061.893Zm3.006-.665a.292.292,0,0,1-.1-.575l1.512-.341a.292.292,0,0,1,.128.57l-1.512.341Zm-4.5.308a.29.29,0,0,1-.2-.047,2.338,2.338,0,0,1-.986-1.42.292.292,0,1,1,.569-.131,1.755,1.755,0,0,0,.741,1.065.292.292,0,0,1-.129.533Zm7.529-.99a.292.292,0,0,1-.1-.575l1.512-.341a.292.292,0,1,1,.129.57l-1.513.341Zm3.025-.682a.292.292,0,0,1-.1-.575l1.513-.341a.292.292,0,1,1,.128.57l-1.512.341Zm3.025-.682a.292.292,0,0,1-.1-.575l1.512-.341a.292.292,0,1,1,.128.57l-1.512.341Zm3.025-.682a.292.292,0,0,1-.1-.575l1.513-.341a.292.292,0,1,1,.128.57l-1.512.341Zm3.025-.682a.292.292,0,0,1-.1-.575l1.513-.341a.292.292,0,0,1,.128.57l-1.512.341Zm3.025-.682a.292.292,0,0,1-.1-.575l1.513-.341a.292.292,0,1,1,.128.57l-1.512.341Zm3.025-.682a.292.292,0,0,1-.1-.575l1.513-.341a.292.292,0,0,1,.129.57l-1.513.341Zm3.025-.682a.292.292,0,0,1-.1-.575l1.512-.341a.292.292,0,1,1,.128.57l-1.512.341Zm3.025-.682a.292.292,0,0,1-.1-.575l1.513-.341a.292.292,0,1,1,.128.57l-1.512.341Zm-32.937,3.693a.292.292,0,0,1-.318-.225l-.344-1.512a.292.292,0,0,1,.57-.13l.344,1.512a.292.292,0,0,1-.22.35Zm35.962-4.376a.292.292,0,0,1-.1-.575l1.512-.341a.292.292,0,1,1,.128.57l-1.512.341Zm3.025-.682a.292.292,0,0,1-.1-.575l1.513-.341a.292.292,0,1,1,.128.57l-1.512.341Zm3.025-.682a.292.292,0,0,1-.1-.575l1.513-.341a.292.292,0,0,1,.128.57l-1.513.341Zm3.025-.682a.292.292,0,0,1-.1-.575l1.512-.341a.292.292,0,1,1,.129.57l-1.513.341Zm3.025-.682a.292.292,0,0,1-.1-.575l1.513-.341a.292.292,0,1,1,.128.57l-1.513.341Zm3.025-.682a.292.292,0,0,1-.1-.575l1.512-.341a.292.292,0,1,1,.129.57l-1.512.341Zm3.025-.682a.292.292,0,0,1-.1-.575l1.512-.341a.292.292,0,0,1,.129.57l-1.513.341Zm3.025-.682a.292.292,0,0,1-.1-.575l1.512-.341a.292.292,0,0,1,.128.57l-1.512.341Zm3.025-.682a.292.292,0,0,1-.1-.575l.2-.044a1.951,1.951,0,0,0,1-.573.292.292,0,1,1,.428.4,2.532,2.532,0,0,1-1.3.745l-.2.044Zm-60.852,6.81a.292.292,0,0,1-.318-.225l-.344-1.512a.292.292,0,1,1,.569-.13l.344,1.512a.292.292,0,0,1-.22.35Zm62.771-8.918-.036,0a.292.292,0,0,1-.29-.294,1.743,1.743,0,0,0-.011-.211,1.715,1.715,0,0,0-.032-.185l-.241-1.056a.292.292,0,1,1,.569-.13l.241,1.056a2.294,2.294,0,0,1,.042.247,2.326,2.326,0,0,1,.016.283A.292.292,0,0,1,2793.37,1046.84Zm-63.46,5.894a.292.292,0,0,1-.318-.225l-.345-1.512a.292.292,0,0,1,.57-.13l.344,1.512a.292.292,0,0,1-.22.35Zm62.823-8.925a.292.292,0,0,1-.318-.225l-.345-1.512a.292.292,0,1,1,.57-.13l.344,1.512a.292.292,0,0,1-.22.35Zm-63.512,5.9a.292.292,0,0,1-.318-.225l-.344-1.512a.292.292,0,0,1,.57-.13l.344,1.512a.292.292,0,0,1-.22.35Zm62.823-8.925a.292.292,0,0,1-.318-.225l-.344-1.512a.292.292,0,1,1,.57-.13l.344,1.512a.292.292,0,0,1-.22.35Zm-63.512,5.9a.292.292,0,0,1-.318-.225l-.344-1.512a.292.292,0,0,1,.569-.13l.345,1.512a.292.292,0,0,1-.22.349Zm62.823-8.925a.292.292,0,0,1-.318-.225l-.344-1.512a.292.292,0,1,1,.569-.13l.344,1.512a.292.292,0,0,1-.22.349Zm-63.512,5.9a.292.292,0,0,1-.318-.225l-.344-1.512a.292.292,0,1,1,.569-.13l.344,1.512a.292.292,0,0,1-.22.35Zm62.823-8.925a.292.292,0,0,1-.318-.225L2790,1033a.292.292,0,0,1,.57-.13l.345,1.512a.292.292,0,0,1-.22.35Zm-63.512,5.9a.292.292,0,0,1-.318-.225l-.344-1.512a.292.292,0,0,1,.57-.13l.344,1.512a.292.292,0,0,1-.22.35Zm62.823-8.925a.292.292,0,0,1-.318-.225l-.344-1.512a.292.292,0,1,1,.57-.13l.344,1.512a.292.292,0,0,1-.22.35Zm-63.512,5.9a.292.292,0,0,1-.318-.225l-.344-1.512a.292.292,0,1,1,.57-.13l.344,1.512a.292.292,0,0,1-.22.35Zm62.823-8.926a.292.292,0,0,1-.318-.225l-.344-1.512a.292.292,0,1,1,.569-.13l.344,1.512a.292.292,0,0,1-.22.35Zm-63.512,5.9a.292.292,0,0,1-.318-.225l-.344-1.512a.292.292,0,1,1,.569-.13l.344,1.512a.292.292,0,0,1-.22.35Zm62.823-8.925a.292.292,0,0,1-.318-.225l-.344-1.512a.292.292,0,1,1,.569-.13l.345,1.512a.292.292,0,0,1-.22.35Zm-63.512,5.9a.292.292,0,0,1-.318-.225l-.345-1.512a.292.292,0,1,1,.569-.13l.345,1.512a.292.292,0,0,1-.22.349Zm62.823-8.925a.292.292,0,0,1-.318-.225l-.344-1.512a.292.292,0,0,1,.569-.13l.344,1.512a.292.292,0,0,1-.22.35Zm-63.512,5.9a.292.292,0,0,1-.318-.225l-.345-1.512a.292.292,0,1,1,.569-.13l.344,1.512a.292.292,0,0,1-.22.35Zm62.823-8.925a.292.292,0,0,1-.318-.225l-.345-1.512a.292.292,0,0,1,.57-.13l.344,1.512a.292.292,0,0,1-.219.35Zm-63.459,5.894-.036,0a.292.292,0,0,1-.291-.293,2.378,2.378,0,0,1,.644-1.6.292.292,0,0,1,.429.4,1.792,1.792,0,0,0-.488,1.208A.293.293,0,0,1,2723.761,1025.516Zm62.77-8.918a.292.292,0,0,1-.318-.225l-.344-1.512a.292.292,0,1,1,.569-.13l.344,1.512a.292.292,0,0,1-.22.35Zm-60.856,6.807a.292.292,0,0,1-.1-.575l1.512-.341a.292.292,0,1,1,.128.57l-1.512.341Zm3.025-.682a.292.292,0,0,1-.1-.575l1.512-.341a.292.292,0,1,1,.129.57l-1.513.341Zm3.025-.682a.292.292,0,0,1-.1-.575l1.512-.341a.292.292,0,0,1,.128.57l-1.512.341Zm3.025-.682a.292.292,0,0,1-.1-.575l1.512-.341a.292.292,0,1,1,.129.57l-1.513.341Zm3.025-.682a.292.292,0,0,1-.1-.575l1.512-.341a.292.292,0,0,1,.129.57l-1.512.341Zm3.025-.682a.292.292,0,0,1-.1-.575l1.512-.341a.292.292,0,1,1,.129.57l-1.513.341Zm3.025-.682a.292.292,0,0,1-.1-.575l1.512-.341a.292.292,0,1,1,.128.57l-1.512.341Zm3.025-.682a.292.292,0,0,1-.1-.575l1.512-.341a.292.292,0,0,1,.128.57l-1.512.341Zm3.025-.682a.292.292,0,0,1-.1-.575l1.512-.341a.292.292,0,1,1,.128.57l-1.512.341Zm35.967-4.373a.292.292,0,0,1-.318-.225l-.344-1.512a.3.3,0,0,1,.218-.353.289.289,0,0,1,.349.215l-.284.066.286-.059.345,1.514a.292.292,0,0,1-.22.35Zm-32.942,3.69a.292.292,0,0,1-.1-.575l1.512-.341a.292.292,0,0,1,.129.57l-1.513.341Zm3.025-.682a.292.292,0,0,1-.1-.575l1.512-.341a.292.292,0,1,1,.128.57l-1.512.341Zm3.025-.682a.292.292,0,0,1-.1-.575l1.512-.341a.292.292,0,1,1,.128.57l-1.512.341Zm3.025-.682a.292.292,0,0,1-.1-.575l1.512-.341a.292.292,0,1,1,.128.57l-1.512.341Zm3.025-.682a.292.292,0,0,1-.1-.575l1.512-.341a.292.292,0,1,1,.128.57l-1.512.341Zm3.025-.682a.292.292,0,0,1-.1-.575l1.512-.341a.292.292,0,0,1,.128.57l-1.512.341Zm3.025-.682a.292.292,0,0,1-.1-.575l1.513-.341a.292.292,0,1,1,.128.57l-1.512.341Zm3.025-.682a.292.292,0,0,1-.1-.575l1.513-.341a.292.292,0,1,1,.128.57l-1.513.341Zm3.025-.682a.292.292,0,0,1-.1-.575l1.512-.341a.292.292,0,1,1,.129.57l-1.512.341Zm7.53-.993a.291.291,0,0,1-.2-.047,1.936,1.936,0,0,0-1.283-.309.292.292,0,0,1-.065-.58h0a2.522,2.522,0,0,1,1.67.4.292.292,0,0,1-.128.533Zm-4.5.311a.292.292,0,0,1-.1-.575l1.513-.341a.292.292,0,1,1,.128.57l-1.513.341Z" transform="translate(-2717.819 -1006.761)" fill="#fff"/>
                <path id="Path_13821" data-name="Path 13821" d="M2681.466,1351.741l14.59-3.291a2.071,2.071,0,0,1,2.506,1.5l2.092,9.182a2.059,2.059,0,0,1-1.609,2.432l-14.59,3.291a2.071,2.071,0,0,1-2.506-1.5l-2.093-9.182A2.059,2.059,0,0,1,2681.466,1351.741Z" transform="translate(-2677.604 -1318.821)" fill="#003889" opacity="0.18" style="mix-blend-mode: multiply;isolation: isolate"/>
                <path id="Path_13822" data-name="Path 13822" d="M2653.282,1327.667l14.59-3.291a2.071,2.071,0,0,1,2.506,1.5l2.092,9.182a2.06,2.06,0,0,1-1.609,2.432l-14.59,3.29a2.071,2.071,0,0,1-2.506-1.5l-2.093-9.182A2.06,2.06,0,0,1,2653.282,1327.667Z" transform="translate(-2651.624 -1296.63)" fill="#c4d7f2"/>
                <path id="Path_13823" data-name="Path 13823" d="M2771.038,1389.2a3.074,3.074,0,0,1,2.4-3.629,3.158,3.158,0,0,1,3.29,1.226,2.894,2.894,0,0,1,.451,1.018,3.074,3.074,0,0,1-2.4,3.629,3.249,3.249,0,0,1-1.574-.033A3,3,0,0,1,2771.038,1389.2Z" transform="translate(-2761.632 -1353.012)" fill="#dd4a48"/>
              </g>
            </g>
          </g>
        </g>
        <path id="Path_13825" data-name="Path 13825" d="M3159.524,1424.049l-1.457,3.581a1.69,1.69,0,0,0,.72,2.1l2.943,1.7.417.241a2.016,2.016,0,0,1,.567.484l1.789,2.219,3.526-3.124-1.831-1.788c-.018-.018-.036-.038-.053-.057a1.424,1.424,0,0,1-.374-.914l-.1-2.864a1.5,1.5,0,0,0-.958-1.349l-3.019-1.168A1.69,1.69,0,0,0,3159.524,1424.049Z" transform="translate(-3070.83 -1395.78)" fill="#fdc8aa"/>
        <path id="Path_13826" data-name="Path 13826" d="M3206.377,1506.972l.417.241a2.014,2.014,0,0,1,.567.484l1.789,2.219,3.525-3.124-1.831-1.788c-.018-.018-.036-.038-.053-.057C3209.823,1505.391,3207.683,1506.373,3206.377,1506.972Z" transform="translate(-3115.477 -1471.322)" fill="#efa37d"/>
        <path id="Path_13827" data-name="Path 13827" d="M3269.425,1529.4l-27.742,1.191a3.956,3.956,0,0,1-3.2-1.406l-17.588-19.918,4.558-3.986,15.625,15.529a2.123,2.123,0,0,0,1.949.629l27.7-5.363S3277.1,1522.732,3269.425,1529.4Z" transform="translate(-3128.863 -1471.628)" fill="#2c272e"/>
      </g>
      <path id="Path_13828" data-name="Path 13828" d="M2365.788,2239.986l-84.216-10.5a3.549,3.549,0,0,0-3.961,3.083l-5.529,44.358a3.55,3.55,0,0,0,3.083,3.961l84.216,10.5a3.549,3.549,0,0,0,3.961-3.083l5.529-44.358A3.549,3.549,0,0,0,2365.788,2239.986Z" transform="translate(-2146.033 -2096.447)" fill="#003889" opacity="0.18" style="mix-blend-mode: multiply;isolation: isolate"/>
      <g id="Group_7637" data-name="Group 7637" transform="translate(123.871 130.826)">
        <path id="Path_13829" data-name="Path 13829" d="M2332.421,2259.9l-84.6-6.777a3.549,3.549,0,0,1-3.255-3.821l3.569-44.558a3.549,3.549,0,0,1,3.822-3.255l84.6,6.777a3.55,3.55,0,0,1,3.255,3.822l-3.569,44.558A3.55,3.55,0,0,1,2332.421,2259.9Z" transform="translate(-2244.558 -2201.473)" fill="#ecf3fe"/>
        <g id="Group_7635" data-name="Group 7635" transform="translate(76.186 11.698)">
          <path id="Path_13830" data-name="Path 13830" d="M3234.185,2351.057l-6.16,3.8,11.635.932Z" transform="translate(-3227.303 -2351.057)" fill="#97b2d3"/>
          <rect id="Rectangle_17526" data-name="Rectangle 17526" width="1.435" height="6.609" transform="translate(2.472 4.473) rotate(4.58)" fill="#97b2d3"/>
          <rect id="Rectangle_17527" data-name="Rectangle 17527" width="1.435" height="6.609" transform="matrix(0.997, 0.08, -0.08, 0.997, 5.782, 4.739)" fill="#97b2d3"/>
          <rect id="Rectangle_17528" data-name="Rectangle 17528" width="1.435" height="6.609" transform="matrix(0.997, 0.08, -0.08, 0.997, 9.093, 5.004)" fill="#97b2d3"/>
          <rect id="Rectangle_17529" data-name="Rectangle 17529" width="11.673" height="1.375" transform="translate(0.11 11.445) rotate(4.58)" fill="#97b2d3"/>
        </g>
        <g id="Group_7636" data-name="Group 7636" transform="translate(9.302 27.528)">
          <path id="Path_13831" data-name="Path 13831" d="M2363.882,2555.416l.083-1.037a2.9,2.9,0,0,0,1.788-.89l.857.068-.336,4.194,1.4.112-.074.923-4.083-.327.074-.923,1.529.122.231-2.883A11.179,11.179,0,0,1,2363.882,2555.416Z" transform="translate(-2363.512 -2553.489)" fill="#97b2d3"/>
          <path id="Path_13832" data-name="Path 13832" d="M2424.627,2562.344l-.165,1-3.78-.3.078-.978q.2-.125.644-.39a12.152,12.152,0,0,0,1.607-1.1,1.335,1.335,0,0,0,.543-.839.66.66,0,0,0-.15-.5.682.682,0,0,0-.491-.23q-.738-.059-.933.895l-1.022-.316a1.845,1.845,0,0,1,2.079-1.509,1.882,1.882,0,0,1,1.334.579,1.516,1.516,0,0,1,.389,1.157,1.7,1.7,0,0,1-.6,1.16,9.2,9.2,0,0,1-1.947,1.178Z" transform="translate(-2416.211 -2557.71)" fill="#97b2d3"/>
          <path id="Path_13833" data-name="Path 13833" d="M2478.965,2564.593l.531.042a.8.8,0,0,0,.632-.139.608.608,0,0,0,.195-.389.6.6,0,0,0-.145-.441.661.661,0,0,0-.485-.226.743.743,0,0,0-.823.584l-1.031-.25a1.64,1.64,0,0,1,.7-.915,1.953,1.953,0,0,1,1.254-.284,2.183,2.183,0,0,1,1.25.465,1.148,1.148,0,0,1,.439,1.031,1.132,1.132,0,0,1-.954,1.058,1.177,1.177,0,0,1,.919,1.277,1.358,1.358,0,0,1-.606,1.05,2.189,2.189,0,0,1-1.465.313,2.058,2.058,0,0,1-1.351-.551,1.769,1.769,0,0,1-.527-1.141l1.083-.069a.851.851,0,0,0,.838.851.839.839,0,0,0,.578-.139.618.618,0,0,0,.255-.476.6.6,0,0,0-.158-.505,1.256,1.256,0,0,0-.742-.223l-.462-.037Z" transform="translate(-2468.587 -2561.857)" fill="#97b2d3"/>
          <path id="Path_13834" data-name="Path 13834" d="M2538.116,2567.4l-.246,3.071.705.057-.071.882-.705-.056-.093,1.163-1.178-.094.093-1.163-2.2-.177.071-.882,2.279-2.909Zm-2.738,2.872,1.369.11.137-1.706c.005-.066.014-.146.027-.239l.024-.206Z" transform="translate(-2521.053 -2566.212)" fill="#97b2d3"/>
          <path id="Path_13835" data-name="Path 13835" d="M2580.839,2579.817l-.748-.06,4.106-6.01.74.059Z" transform="translate(-2563.155 -2572.163)" fill="#97b2d3"/>
          <path id="Path_13836" data-name="Path 13836" d="M2644.064,2577.86l.083-1.037a2.9,2.9,0,0,0,1.788-.89l.856.069-.336,4.194,1.4.112-.074.923-4.083-.327.074-.923,1.528.122.231-2.883A11.2,11.2,0,0,1,2644.064,2577.86Z" transform="translate(-2621.784 -2574.178)" fill="#97b2d3"/>
          <path id="Path_13837" data-name="Path 13837" d="M2704.81,2584.787l-.166,1-3.78-.3.079-.978q.2-.126.644-.391a12.162,12.162,0,0,0,1.607-1.1,1.338,1.338,0,0,0,.543-.839.66.66,0,0,0-.15-.5.681.681,0,0,0-.49-.23q-.739-.059-.934.895l-1.022-.316a1.845,1.845,0,0,1,2.079-1.509,1.883,1.883,0,0,1,1.334.579,1.516,1.516,0,0,1,.389,1.157,1.7,1.7,0,0,1-.6,1.16,9.194,9.194,0,0,1-1.946,1.178Z" transform="translate(-2674.483 -2578.399)" fill="#97b2d3"/>
          <path id="Path_13838" data-name="Path 13838" d="M2759.147,2587.037l.532.042a.8.8,0,0,0,.632-.139.607.607,0,0,0,.194-.389.6.6,0,0,0-.145-.441.664.664,0,0,0-.485-.227.744.744,0,0,0-.823.584l-1.031-.25a1.64,1.64,0,0,1,.7-.915,1.953,1.953,0,0,1,1.254-.284,2.189,2.189,0,0,1,1.25.465,1.148,1.148,0,0,1,.439,1.032,1.133,1.133,0,0,1-.954,1.058,1.177,1.177,0,0,1,.919,1.277,1.357,1.357,0,0,1-.606,1.05,2.19,2.19,0,0,1-1.465.313,2.06,2.06,0,0,1-1.351-.551,1.773,1.773,0,0,1-.527-1.141l1.083-.069a.851.851,0,0,0,.838.851.84.84,0,0,0,.578-.139.618.618,0,0,0,.255-.476.6.6,0,0,0-.158-.506,1.258,1.258,0,0,0-.742-.223l-.461-.037Z" transform="translate(-2726.859 -2582.546)" fill="#97b2d3"/>
          <path id="Path_13839" data-name="Path 13839" d="M2818.3,2589.843l-.246,3.072.705.057-.071.882-.705-.056-.093,1.163-1.178-.094.093-1.163-2.2-.177.071-.882,2.278-2.909Zm-2.738,2.872,1.369.11.137-1.706c.005-.066.014-.146.027-.239l.024-.206Z" transform="translate(-2779.324 -2586.901)" fill="#97b2d3"/>
          <path id="Path_13840" data-name="Path 13840" d="M2861.021,2602.26l-.749-.06,4.106-6.01.74.059Z" transform="translate(-2821.426 -2592.852)" fill="#97b2d3"/>
          <path id="Path_13841" data-name="Path 13841" d="M2975.263,2604.674a1.305,1.305,0,0,1,.835,1.316,1.39,1.39,0,0,1-.625,1.076,2.382,2.382,0,0,1-1.578.316,2.208,2.208,0,0,1-1.393-.519,1.279,1.279,0,0,1-.412-1.072,1.167,1.167,0,0,1,.991-1.051,1.263,1.263,0,0,1-.639-1.206,1.366,1.366,0,0,1,.57-1.012,1.967,1.967,0,0,1,1.392-.327,2.125,2.125,0,0,1,1.293.482,1.157,1.157,0,0,1,.413.991A1.114,1.114,0,0,1,2975.263,2604.674Zm-1.421.5q-.644.134-.685.651a.579.579,0,0,0,.2.512,1.144,1.144,0,0,0,.672.234,1.241,1.241,0,0,0,.635-.089.446.446,0,0,0,.273-.389.538.538,0,0,0-.14-.4A3.06,3.06,0,0,0,2973.842,2605.178Zm.673-.9a.631.631,0,0,0,.56-.6.607.607,0,0,0-.174-.5.9.9,0,0,0-.593-.233.758.758,0,0,0-.514.113.492.492,0,0,0-.212.378.5.5,0,0,0,.146.4A2.653,2.653,0,0,0,2974.515,2604.283Z" transform="translate(-2924.494 -2598.377)" fill="#97b2d3"/>
          <path id="Path_13842" data-name="Path 13842" d="M3031.96,2609.216a1.3,1.3,0,0,1,.834,1.316,1.39,1.39,0,0,1-.625,1.076,2.383,2.383,0,0,1-1.578.316,2.207,2.207,0,0,1-1.393-.519,1.28,1.28,0,0,1-.412-1.072,1.167,1.167,0,0,1,.991-1.051,1.264,1.264,0,0,1-.639-1.206,1.366,1.366,0,0,1,.57-1.012,1.966,1.966,0,0,1,1.392-.327,2.124,2.124,0,0,1,1.293.482,1.157,1.157,0,0,1,.413.991A1.114,1.114,0,0,1,3031.96,2609.216Zm-1.421.5q-.644.134-.685.651a.58.58,0,0,0,.2.512,1.146,1.146,0,0,0,.672.234,1.242,1.242,0,0,0,.635-.089.446.446,0,0,0,.273-.389.54.54,0,0,0-.14-.4A3.072,3.072,0,0,0,3030.539,2609.72Zm.673-.9a.631.631,0,0,0,.56-.6.606.606,0,0,0-.174-.5.9.9,0,0,0-.593-.233.756.756,0,0,0-.514.113.492.492,0,0,0-.212.378.5.5,0,0,0,.146.4A2.646,2.646,0,0,0,3031.212,2608.825Z" transform="translate(-2976.757 -2602.563)" fill="#97b2d3"/>
          <path id="Path_13843" data-name="Path 13843" d="M3088.658,2613.758a1.3,1.3,0,0,1,.835,1.316,1.391,1.391,0,0,1-.625,1.076,2.383,2.383,0,0,1-1.578.316,2.207,2.207,0,0,1-1.393-.519,1.28,1.28,0,0,1-.412-1.073,1.167,1.167,0,0,1,.991-1.051,1.263,1.263,0,0,1-.639-1.206,1.366,1.366,0,0,1,.57-1.012,1.966,1.966,0,0,1,1.392-.327,2.125,2.125,0,0,1,1.293.482,1.157,1.157,0,0,1,.413.991A1.114,1.114,0,0,1,3088.658,2613.758Zm-1.421.5q-.644.134-.685.651a.579.579,0,0,0,.2.512,1.144,1.144,0,0,0,.672.234,1.248,1.248,0,0,0,.635-.089.446.446,0,0,0,.273-.389.539.539,0,0,0-.14-.4A3.066,3.066,0,0,0,3087.237,2614.262Zm.673-.9a.631.631,0,0,0,.56-.6.607.607,0,0,0-.174-.5.9.9,0,0,0-.593-.233.755.755,0,0,0-.514.113.494.494,0,0,0-.212.378.5.5,0,0,0,.146.4A2.653,2.653,0,0,0,3087.91,2613.367Z" transform="translate(-3029.021 -2606.75)" fill="#97b2d3"/>
          <path id="Path_13844" data-name="Path 13844" d="M3145.355,2618.3a1.305,1.305,0,0,1,.835,1.316,1.39,1.39,0,0,1-.625,1.077,2.381,2.381,0,0,1-1.578.316,2.209,2.209,0,0,1-1.393-.519,1.28,1.28,0,0,1-.412-1.072,1.166,1.166,0,0,1,.991-1.051,1.264,1.264,0,0,1-.639-1.206,1.369,1.369,0,0,1,.57-1.013,1.969,1.969,0,0,1,1.392-.327,2.124,2.124,0,0,1,1.293.482,1.157,1.157,0,0,1,.413.991A1.113,1.113,0,0,1,3145.355,2618.3Zm-1.421.5q-.644.134-.685.651a.58.58,0,0,0,.2.512,1.145,1.145,0,0,0,.672.234,1.236,1.236,0,0,0,.635-.089.447.447,0,0,0,.273-.389.54.54,0,0,0-.14-.4A3.062,3.062,0,0,0,3143.934,2618.8Zm.673-.9a.632.632,0,0,0,.56-.6.606.606,0,0,0-.174-.5.9.9,0,0,0-.592-.233.756.756,0,0,0-.514.113.493.493,0,0,0-.212.378.5.5,0,0,0,.146.4A2.669,2.669,0,0,0,3144.607,2617.909Z" transform="translate(-3081.284 -2610.937)" fill="#97b2d3"/>
        </g>
        <rect id="Rectangle_17530" data-name="Rectangle 17530" width="35.057" height="3.626" transform="matrix(0.997, 0.08, -0.08, 0.997, 8.805, 37.271)" fill="#97b2d3"/>
        <rect id="Rectangle_17531" data-name="Rectangle 17531" width="52.201" height="3.626" transform="translate(8.318 43.353) rotate(4.58)" fill="#97b2d3"/>
      </g>
      <circle id="Ellipse_271" data-name="Ellipse 271" cx="9.352" cy="9.352" r="9.352" transform="matrix(0.996, -0.084, 0.084, 0.996, 179.53, 128.867)" fill="#003889" opacity="0.22" style="mix-blend-mode: multiply;isolation: isolate"/>
      <g id="Group_7638" data-name="Group 7638" transform="translate(178.704 125.161)">
        <circle id="Ellipse_272" data-name="Ellipse 272" cx="9.352" cy="9.352" r="9.352" fill="#33da82"/>
        <path id="Path_13845" data-name="Path 13845" d="M2993.606,2204.5a1.149,1.149,0,0,1-.789-.391l-2.6-2.983a1.151,1.151,0,0,1,1.734-1.514l1.847,2.116,6.33-5.527a1.151,1.151,0,1,1,1.514,1.733l-7.2,6.284A1.147,1.147,0,0,1,2993.606,2204.5Z" transform="translate(-2986.473 -2190.684)" fill="#fff"/>
      </g>
      <ellipse id="Ellipse_273" data-name="Ellipse 273" cx="22.83" cy="22.752" rx="22.83" ry="22.752" transform="translate(57.09 134.27)" fill="#003889" opacity="0.18" style="mix-blend-mode: multiply;isolation: isolate"/>
      <path id="Path_13846" data-name="Path 13846" d="M1335.8,2583.38l-5.512-14.99,4.727-.977a2.147,2.147,0,0,0,1.762-2.847l-3.96-10.769a3.074,3.074,0,0,0-3.459-1.768l-4.728.977-5.512-14.99a4.251,4.251,0,0,0-4.784-2.446l-78.643,16.244a2.969,2.969,0,0,0-2.437,3.938l16.68,45.365a4.251,4.251,0,0,0,4.785,2.445l78.643-16.244A2.969,2.969,0,0,0,1335.8,2583.38Z" transform="translate(-1188.293 -2378.538)" fill="#003889" opacity="0.18" style="mix-blend-mode: multiply;isolation: isolate"/>
      <path id="Path_13847" data-name="Path 13847" d="M2024.21,1474.884a.512.512,0,0,1-.444-.767,28.491,28.491,0,0,1,4.744-5.758,31.707,31.707,0,0,1,14.7-8.036.512.512,0,0,1,.231,1,30.681,30.681,0,0,0-14.218,7.777,27.938,27.938,0,0,0-4.563,5.528A.512.512,0,0,1,2024.21,1474.884Z" transform="translate(-1917.099 -1387.443)" fill="#81a4c1"/>
      <path id="Path_13848" data-name="Path 13848" d="M1564.773,1880.636a.518.518,0,0,1-.058,0,.513.513,0,0,1-.452-.566,28.508,28.508,0,0,1,2.064-7.169,31.708,31.708,0,0,1,10.291-13.215.512.512,0,0,1,.608.824,30.68,30.68,0,0,0-9.941,12.754,28.093,28.093,0,0,0-2,6.92A.512.512,0,0,1,1564.773,1880.636Z" transform="translate(-1493.59 -1755.493)" fill="#81a4c1"/>
      <path id="Path_13849" data-name="Path 13849" d="M1622.48,1969.067a.512.512,0,0,1-.512-.5,28.5,28.5,0,0,1,1.124-7.375,31.708,31.708,0,0,1,8.505-14.429.512.512,0,0,1,.709.74,30.682,30.682,0,0,0-8.227,13.963,27.946,27.946,0,0,0-1.088,7.085.512.512,0,0,1-.5.521Z" transform="translate(-1546.784 -1835.72)" fill="#81a4c1"/>
      <path id="Path_13850" data-name="Path 13850" d="M2035.411,1394.5a.513.513,0,0,1-.4-.832,28.5,28.5,0,0,1,5.572-4.961,31.708,31.708,0,0,1,15.756-5.683.512.512,0,1,1,.074,1.022,30.681,30.681,0,0,0-15.214,5.48,28.086,28.086,0,0,0-5.388,4.782A.512.512,0,0,1,2035.411,1394.5Z" transform="translate(-1927.424 -1316.203)" fill="#81a4c1"/>
      <path id="Path_13851" data-name="Path 13851" d="M1666.629,1726.929a71.618,71.618,0,0,0-9.027-4c-13.651-4.991-26.129-5.2-27.868-.464l-2.442,6.643a4.022,4.022,0,0,0,.131,2.849c1.76,4.65,10.259,10.675,21.435,14.761,13.651,4.991,26.129,5.2,27.868.464l2.442-6.644C1680.492,1736.935,1675.228,1731.515,1666.629,1726.929Z" transform="translate(-1551.505 -1625.942)" fill="#003889" opacity="0.18" style="mix-blend-mode: multiply;isolation: isolate"/>
      <g id="Group_7641" data-name="Group 7641" transform="translate(74.358 87.12)">
        <path id="Path_13852" data-name="Path 13852" d="M1664.2,1711.47l-1.853,6.832c-1.319,4.869-13.767,5.752-27.8,1.972-11.491-3.094-20.483-8.354-22.643-12.832a4.022,4.022,0,0,1-.38-2.826l1.852-6.83,9.353,2.518q1.257-.016,2.609.046a61.278,61.278,0,0,1,8.9,1.112q1.961.382,3.989.9c.364.092.731.189,1.1.287a68.724,68.724,0,0,1,11.579,4.21q.836.4,1.625.809c.814.421,1.588.853,2.317,1.289Z" transform="translate(-1611.406 -1693.469)" fill="#e59d29"/>
        <g id="Group_7640" data-name="Group 7640" transform="translate(1.852)">
          <path id="Path_13853" data-name="Path 13853" d="M1686.03,1660.581c-1.321,4.869-13.767,5.752-27.8,1.972a71.453,71.453,0,0,1-9.084-3.092c-9.115-3.829-14.953-8.827-13.938-12.565,1.319-4.869,13.767-5.752,27.8-1.972a71.639,71.639,0,0,1,9.343,3.2C1681.317,1651.942,1687.034,1656.882,1686.03,1660.581Z" transform="translate(-1635.092 -1642.579)" fill="#f4b545"/>
          <g id="Group_7639" data-name="Group 7639" transform="translate(11.75 5.306)">
            <path id="Path_13854" data-name="Path 13854" d="M1812.868,1719.32a2.651,2.651,0,0,0-.771-1.491,6.766,6.766,0,0,0-1.06-.906,18.035,18.035,0,0,0-5.734-2.5,15.149,15.149,0,0,0-5.527-.684,6.1,6.1,0,0,0-3.553,1.735,3.367,3.367,0,0,1-1.553.948,4.163,4.163,0,0,1-1.9-.157,5.024,5.024,0,0,1-1.878-.895,1.217,1.217,0,0,1-.527-1.328q.416-1.537,4.227-.874l-.016-.047-.747-2.3a15.318,15.318,0,0,0-5.874-.172,3.4,3.4,0,0,0-2.279,1.364,1.992,1.992,0,0,0-.235.547q-.513,1.889,1.856,3.558a18.763,18.763,0,0,0,5.968,2.64,18.358,18.358,0,0,0,4.276.671,7.543,7.543,0,0,0,3-.378,7.419,7.419,0,0,0,2.216-1.617,2.369,2.369,0,0,1,1.444-.771,4.929,4.929,0,0,1,1.68.194q2.395.646,2.049,1.925-.327,1.2-3.58.72l.815,1.482.459.833q6.458.906,7.2-1.8A1.8,1.8,0,0,0,1812.868,1719.32Z" transform="translate(-1785.35 -1710.432)" fill="#fff"/>
          </g>
        </g>
      </g>
      <g id="Group_7645" data-name="Group 7645" transform="translate(41.2 128.456)">
        <path id="Path_13855" data-name="Path 13855" d="M1269.677,2185.973l-3.978,2.538-5.81-15.462a2.767,2.767,0,0,0-4.275-1.354l-66.167,42.219a4.584,4.584,0,0,0-1.8,5.231l17.583,46.794a2.767,2.767,0,0,0,4.275,1.354l66.167-42.219a4.584,4.584,0,0,0,1.8-5.23l-5.81-15.463,3.977-2.538a3.315,3.315,0,0,0,1.3-3.782l-4.174-11.108A2,2,0,0,0,1269.677,2185.973Z" transform="translate(-1187.403 -2171.166)" fill="#b23030"/>
        <g id="Group_7643" data-name="Group 7643" transform="translate(19.837 0)">
          <ellipse id="Ellipse_274" data-name="Ellipse 274" cx="22.83" cy="22.752" rx="22.83" ry="22.752" fill="#f4b545"/>
          <g id="Group_7642" data-name="Group 7642" transform="translate(12.405 9.654)">
            <path id="Path_13856" data-name="Path 13856" d="M1619.861,2300.592l-5.082,1.695a4.166,4.166,0,0,0-4.343-3.017q-3.541,0-3.541,2.29a2.055,2.055,0,0,0,.662,1.545,6.658,6.658,0,0,0,2.994,1.1,29.778,29.778,0,0,1,5.709,1.584,7.3,7.3,0,0,1,3.05,2.578,6.783,6.783,0,0,1,1.241,3.974,7.926,7.926,0,0,1-2.66,5.957q-2.66,2.513-7.886,2.513a12.039,12.039,0,0,1-6.673-1.778,8.444,8.444,0,0,1-3.63-5.278l5.53-1.248q.932,3.557,5.183,3.556a4.906,4.906,0,0,0,3.058-.791,2.345,2.345,0,0,0,1.007-1.89,1.968,1.968,0,0,0-.915-1.732,11.056,11.056,0,0,0-3.526-1.155q-4.87-1.006-6.94-2.747a6.276,6.276,0,0,1-2.071-5.092,7.542,7.542,0,0,1,2.473-5.715,9.4,9.4,0,0,1,6.71-2.327Q1617.715,2294.615,1619.861,2300.592Z" transform="translate(-1599.703 -2294.615)" fill="#fff"/>
          </g>
        </g>
        <g id="Group_7644" data-name="Group 7644" transform="translate(0.348 17.259)">
          <path id="Path_13857" data-name="Path 13857" d="M1286.145,2445.472l-71.943,26.849a3.531,3.531,0,0,1-4.54-2.059l-17.583-46.794a3.512,3.512,0,0,1,2.066-4.525l71.943-26.849a3.531,3.531,0,0,1,4.54,2.059l17.583,46.794A3.512,3.512,0,0,1,1286.145,2445.472Z" transform="translate(-1191.853 -2391.87)" fill="#dd4a48"/>
          <path id="Path_13858" data-name="Path 13858" d="M1265.1,2517.264a3.034,3.034,0,0,1-1.385-.337.36.36,0,1,1,.331-.641,2.311,2.311,0,0,0,1.624.185.36.36,0,1,1,.18.7A3,3,0,0,1,1265.1,2517.264Zm2.477-.746a.361.361,0,0,1-.126-.7l1.812-.676a.36.36,0,0,1,.252.675l-1.812.676A.356.356,0,0,1,1267.577,2516.518Zm-4.955-.962a.361.361,0,0,1-.338-.235l.338-.125-.339.124-.682-1.815a.36.36,0,1,1,.675-.253l.684,1.82a.361.361,0,0,1-.338.486Zm8.58-.391a.361.361,0,0,1-.126-.7l1.812-.677a.36.36,0,0,1,.252.675l-1.812.677A.363.363,0,0,1,1271.2,2515.166Zm3.624-1.353a.361.361,0,0,1-.126-.7l1.812-.677a.36.36,0,0,1,.252.676l-1.812.676A.363.363,0,0,1,1274.825,2513.813Zm3.625-1.353a.361.361,0,0,1-.126-.7l1.812-.677a.361.361,0,0,1,.252.676l-1.812.676A.364.364,0,0,1,1278.449,2512.46Zm-17.192-.533a.361.361,0,0,1-.338-.233l-.68-1.811a.36.36,0,1,1,.675-.254l.68,1.811a.36.36,0,0,1-.21.464A.356.356,0,0,1,1261.258,2511.927Zm20.816-.819a.361.361,0,0,1-.126-.7l1.812-.676a.36.36,0,1,1,.252.675l-1.812.676A.357.357,0,0,1,1282.074,2511.108Zm3.624-1.353a.36.36,0,0,1-.126-.7l1.812-.677a.36.36,0,0,1,.252.675l-1.812.677A.361.361,0,0,1,1285.7,2509.755Zm3.624-1.352a.361.361,0,0,1-.126-.7l1.812-.676a.36.36,0,0,1,.252.676l-1.812.676A.362.362,0,0,1,1289.322,2508.4Zm-29.425-.1a.361.361,0,0,1-.337-.234l-.68-1.811a.36.36,0,1,1,.675-.254l.68,1.811a.361.361,0,0,1-.337.488Zm33.05-1.256a.36.36,0,0,1-.126-.7l1.812-.676a.36.36,0,1,1,.252.675l-1.812.677A.356.356,0,0,1,1292.946,2507.05Zm3.624-1.353a.36.36,0,0,1-.126-.7l1.812-.676a.36.36,0,0,1,.252.675l-1.812.676A.357.357,0,0,1,1296.571,2505.7Zm-38.034-1.013a.36.36,0,0,1-.337-.234l-.681-1.811a.361.361,0,0,1,.675-.253l.68,1.811a.361.361,0,0,1-.337.487Zm41.659-.34a.36.36,0,0,1-.126-.7l1.812-.676a.361.361,0,0,1,.252.676l-1.812.676A.362.362,0,0,1,1300.195,2504.345Zm3.624-1.353a.361.361,0,0,1-.126-.7l1.812-.676a.36.36,0,0,1,.252.675l-1.812.676A.363.363,0,0,1,1303.819,2502.992Zm3.624-1.353a.361.361,0,0,1-.126-.7l1.812-.676a.361.361,0,0,1,.252.676l-1.812.676A.357.357,0,0,1,1307.443,2501.64Zm-50.268-.576a.361.361,0,0,1-.337-.234l-.68-1.811a.36.36,0,1,1,.675-.253l.68,1.811a.36.36,0,0,1-.211.464A.354.354,0,0,1,1257.175,2501.064Zm53.892-.776a.361.361,0,0,1-.126-.7l1.812-.677a.36.36,0,0,1,.252.676l-1.812.676A.363.363,0,0,1,1311.068,2500.287Zm3.624-1.353a.361.361,0,0,1-.126-.7l1.812-.676a.36.36,0,0,1,.252.675l-1.812.676A.357.357,0,0,1,1314.692,2498.935Zm3.624-1.353a.36.36,0,0,1-.126-.7l1.812-.676a.36.36,0,0,1,.252.675l-1.812.676A.363.363,0,0,1,1318.316,2497.582Zm-62.5-.14a.36.36,0,0,1-.337-.234l-.68-1.811a.36.36,0,1,1,.675-.254l.68,1.811a.36.36,0,0,1-.337.487Zm66.126-1.213a.361.361,0,0,1-.126-.7l1.812-.676a.36.36,0,0,1,.252.675l-1.812.676A.361.361,0,0,1,1321.94,2496.23Zm3.624-1.353a.36.36,0,0,1-.126-.7l1.812-.676a.36.36,0,0,1,.252.675l-1.812.676A.362.362,0,0,1,1325.564,2494.877Zm-71.111-1.056a.361.361,0,0,1-.337-.234l-.68-1.811a.36.36,0,0,1,.675-.254l.68,1.811a.361.361,0,0,1-.337.487Zm74.735-.3a.361.361,0,0,1-.126-.7l1.812-.676a.36.36,0,0,1,.252.676l-1.812.676A.362.362,0,0,1,1329.189,2493.525Zm3.623-1.357a.36.36,0,0,1-.145-.691,2.279,2.279,0,0,0,1.162-1.147.36.36,0,0,1,.656.3,3,3,0,0,1-1.53,1.509A.361.361,0,0,1,1332.812,2492.168Zm-79.719-1.968a.36.36,0,0,1-.337-.234l-.68-1.811a.36.36,0,1,1,.675-.253l.68,1.811a.36.36,0,0,1-.211.464A.356.356,0,0,1,1253.093,2490.2Zm81.176-1.247a.36.36,0,0,1-.343-.251c-.012-.037-.024-.074-.038-.11l-.633-1.684a.36.36,0,1,1,.675-.253l.633,1.684q.027.072.051.146a.361.361,0,0,1-.234.453A.356.356,0,0,1,1334.269,2488.953Zm-82.537-2.374a.361.361,0,0,1-.337-.234l-.68-1.811a.36.36,0,0,1,.675-.253l.68,1.811a.36.36,0,0,1-.211.464A.355.355,0,0,1,1251.732,2486.579Zm81.18-1.249a.361.361,0,0,1-.338-.234l-.68-1.811a.36.36,0,1,1,.675-.253l.68,1.811a.36.36,0,0,1-.337.487Zm-82.54-2.373a.361.361,0,0,1-.337-.234l-.68-1.811a.36.36,0,1,1,.675-.253l.68,1.811a.36.36,0,0,1-.337.487Zm81.179-1.248a.361.361,0,0,1-.337-.234l-.68-1.811a.36.36,0,0,1,.675-.254l.68,1.811a.36.36,0,0,1-.337.487Zm-82.54-2.373a.361.361,0,0,1-.337-.234l-.68-1.811a.36.36,0,1,1,.675-.254l.68,1.811a.36.36,0,0,1-.211.464A.366.366,0,0,1,1249.011,2479.336Zm81.18-1.248a.36.36,0,0,1-.337-.234l-.68-1.811a.36.36,0,1,1,.675-.254l.68,1.811a.361.361,0,0,1-.337.488Zm-82.54-2.373a.36.36,0,0,1-.337-.234l-.631-1.68q-.028-.075-.052-.15a.36.36,0,1,1,.687-.218c.012.038.025.076.04.114l.631,1.68a.361.361,0,0,1-.337.487Zm81.179-1.249a.361.361,0,0,1-.337-.234l-.68-1.811a.36.36,0,0,1,.675-.254l.68,1.811a.361.361,0,0,1-.337.487Zm-81.742-2.451a.36.36,0,0,1-.328-.51,3,3,0,0,1,1.532-1.507.36.36,0,0,1,.288.661,2.279,2.279,0,0,0-1.164,1.145A.36.36,0,0,1,1247.088,2472.016Zm80.381-1.17a.361.361,0,0,1-.338-.234l-.68-1.811a.36.36,0,1,1,.675-.253l.68,1.811a.361.361,0,0,1-.337.487Zm-77.222-.835a.361.361,0,0,1-.126-.7l1.812-.677a.36.36,0,0,1,.252.676l-1.812.676A.364.364,0,0,1,1250.247,2470.011Zm3.624-1.353a.361.361,0,0,1-.126-.7l1.812-.677a.36.36,0,0,1,.252.676l-1.812.676A.357.357,0,0,1,1253.872,2468.658Zm3.624-1.353a.361.361,0,0,1-.126-.7l1.812-.677a.36.36,0,0,1,.252.675l-1.812.677A.363.363,0,0,1,1257.5,2467.306Zm68.613-.081a.361.361,0,0,1-.337-.234l-.68-1.811a.36.36,0,1,1,.675-.254l.68,1.811a.36.36,0,0,1-.337.487Zm-64.988-1.271a.361.361,0,0,1-.126-.7l1.812-.676a.36.36,0,1,1,.252.675l-1.812.676A.361.361,0,0,1,1261.12,2465.953Zm3.624-1.353a.36.36,0,0,1-.126-.7l1.812-.677a.36.36,0,0,1,.252.675l-1.812.677A.363.363,0,0,1,1264.744,2464.6Zm60-1a.36.36,0,0,1-.337-.234l-.68-1.811a.36.36,0,1,1,.675-.253l.68,1.811a.36.36,0,0,1-.211.464A.365.365,0,0,1,1324.748,2463.6Zm-56.379-.355a.36.36,0,0,1-.126-.7l1.812-.676a.36.36,0,0,1,.252.676l-1.812.676A.355.355,0,0,1,1268.368,2463.248Zm3.624-1.353a.361.361,0,0,1-.126-.7l1.812-.676a.36.36,0,1,1,.252.675l-1.812.677A.362.362,0,0,1,1271.993,2461.9Zm3.624-1.353a.361.361,0,0,1-.126-.7l1.812-.676a.361.361,0,1,1,.252.676l-1.812.676A.356.356,0,0,1,1275.617,2460.543Zm47.77-.561a.361.361,0,0,1-.337-.234l-.68-1.811a.36.36,0,0,1,.675-.254l.68,1.811a.36.36,0,0,1-.211.464A.356.356,0,0,1,1323.387,2459.982Zm-44.146-.792a.36.36,0,0,1-.126-.7l1.812-.676a.361.361,0,0,1,.252.676l-1.812.676A.357.357,0,0,1,1279.241,2459.19Zm3.624-1.353a.361.361,0,0,1-.126-.7l1.812-.676a.36.36,0,0,1,.252.675l-1.812.676A.363.363,0,0,1,1282.865,2457.838Zm3.624-1.353a.36.36,0,0,1-.126-.7l1.812-.676a.36.36,0,0,1,.252.676l-1.812.676A.363.363,0,0,1,1286.49,2456.485Zm35.537-.124a.361.361,0,0,1-.338-.234l-.68-1.81a.36.36,0,1,1,.675-.253l.68,1.81a.36.36,0,0,1-.21.464A.356.356,0,0,1,1322.026,2456.361Zm-31.912-1.228a.361.361,0,0,1-.126-.7l1.812-.677a.36.36,0,1,1,.252.676l-1.812.676A.362.362,0,0,1,1290.114,2455.133Zm3.624-1.353a.361.361,0,0,1-.126-.7l1.812-.676a.36.36,0,0,1,.252.675l-1.812.676A.357.357,0,0,1,1293.738,2453.78Zm26.927-1.04a.361.361,0,0,1-.337-.234l-.68-1.811a.36.36,0,0,1,.675-.254l.68,1.811a.361.361,0,0,1-.337.487Zm-23.3-.312a.36.36,0,0,1-.126-.7l1.812-.677a.36.36,0,0,1,.252.676l-1.812.676A.363.363,0,0,1,1297.363,2452.427Zm3.624-1.352a.361.361,0,0,1-.126-.7l1.812-.676a.36.36,0,0,1,.252.675l-1.812.676A.361.361,0,0,1,1300.987,2451.075Zm3.625-1.353a.36.36,0,0,1-.126-.7l1.812-.676a.36.36,0,1,1,.252.675l-1.812.677A.36.36,0,0,1,1304.611,2449.722Zm14.694-.6a.36.36,0,0,1-.337-.234l-.679-1.807a.36.36,0,0,1,.673-.26l0,.01.677,1.8a.36.36,0,0,1-.337.487Zm-11.07-.749a.361.361,0,0,1-.126-.7l1.812-.676a.36.36,0,0,1,.252.675l-1.812.677A.364.364,0,0,1,1308.235,2448.37Zm3.624-1.353a.36.36,0,0,1-.126-.7l1.812-.677a.361.361,0,0,1,.252.676l-1.812.676A.362.362,0,0,1,1311.859,2447.017Zm5.508-1.122a.361.361,0,0,1-.166-.04,2.312,2.312,0,0,0-1.624-.187.36.36,0,1,1-.179-.7,3.042,3.042,0,0,1,2.134.245.361.361,0,0,1-.166.681Z" transform="translate(-1242.331 -2440.732)" fill="#fff"/>
          <path id="Path_13859" data-name="Path 13859" d="M2093.239,2644.036l-16.937,6.321a2.553,2.553,0,0,1-3.283-1.489l-4.174-11.108a2.539,2.539,0,0,1,1.494-3.272l16.937-6.321a2.553,2.553,0,0,1,3.283,1.489l4.174,11.108A2.539,2.539,0,0,1,2093.239,2644.036Z" transform="translate(-2000.113 -2609.539)" fill="#003889" opacity="0.18" style="mix-blend-mode: multiply;isolation: isolate"/>
          <path id="Path_13860" data-name="Path 13860" d="M2115.574,2612.115l-16.937,6.321a2.553,2.553,0,0,1-3.283-1.489l-4.174-11.108a2.539,2.539,0,0,1,1.494-3.272l16.937-6.321a2.553,2.553,0,0,1,3.283,1.489l4.174,11.109A2.539,2.539,0,0,1,2115.574,2612.115Z" transform="translate(-2020.702 -2580.115)" fill="#fff"/>
          <path id="Path_13861" data-name="Path 13861" d="M2187.2,2705.214a3.811,3.811,0,1,1-3-2.421A3.79,3.79,0,0,1,2187.2,2705.214Z" transform="translate(-2102.564 -2678.44)" fill="#dd4a48"/>
        </g>
      </g>
      <circle id="Ellipse_275" data-name="Ellipse 275" cx="6.478" cy="6.478" r="6.478" transform="translate(73.955 42.069)" fill="#fff"/>
      <circle id="Ellipse_276" data-name="Ellipse 276" cx="4.867" cy="4.867" r="4.867" transform="translate(24.812 68.512)" fill="#c4d7f2"/>
      <circle id="Ellipse_277" data-name="Ellipse 277" cx="8.01" cy="8.01" r="8.01" transform="translate(237.88 10.193)" fill="#c4d7f2"/>
      <g id="Group_7648" data-name="Group 7648" transform="translate(108.793 214.487)">
        <path id="Path_13862" data-name="Path 13862" d="M2082.719,3331.3l-.151-3.819-5.212.207a36.687,36.687,0,0,0-17.9.709l-5.212.207.151,3.82c.108,2.722,6.535,4.677,14.355,4.367S2082.827,3334.023,2082.719,3331.3Z" transform="translate(-2054.053 -3322.553)" fill="#9fbad6"/>
        <g id="Group_7647" data-name="Group 7647" transform="translate(0 0)">
          <ellipse id="Ellipse_278" data-name="Ellipse 278" cx="14.171" cy="4.932" rx="14.171" ry="4.932" transform="translate(0 1.123) rotate(-2.271)" fill="#c4d7f2"/>
          <g id="Group_7646" data-name="Group 7646" transform="translate(6.722 3.523)">
            <path id="Path_13863" data-name="Path 13863" d="M2149.564,3320.108l-1.028-.988q1.749-.277,1.722-.947-.029-.716-1.363-.663a2.65,2.65,0,0,0-.9.17,1.276,1.276,0,0,0-.617.631,3.1,3.1,0,0,1-2.355,1.866,9.865,9.865,0,0,1-2.305.343,10.083,10.083,0,0,1-3.492-.4q-1.485-.479-1.527-1.536-.031-.792.983-1.39a8.228,8.228,0,0,1,3.046-.856l.771,1.089q-2.064.27-2.031,1.13a.66.66,0,0,0,.486.6,2.716,2.716,0,0,0,1.109.16,2.239,2.239,0,0,0,1-.225,1.813,1.813,0,0,0,.645-.739,3.293,3.293,0,0,1,1.545-1.466,8.13,8.13,0,0,1,2.95-.536,9.7,9.7,0,0,1,3.35.368q1.375.446,1.41,1.3Q2153.029,3319.536,2149.564,3320.108Z" transform="translate(-2137.703 -3316.338)" fill="#fff"/>
          </g>
        </g>
      </g>
      <g id="Group_7651" data-name="Group 7651" transform="translate(131.381 209.763)">
        <path id="Path_13864" data-name="Path 13864" d="M2370.932,3282.893l1.01-3.687-5.031-1.377a36.69,36.69,0,0,0-17.274-4.729l-5.031-1.377-1.01,3.687c-.719,2.627,4.817,6.433,12.366,8.5S2370.213,3285.521,2370.932,3282.893Z" transform="translate(-2343.303 -3266.966)" fill="#9fbad6"/>
        <g id="Group_7650" data-name="Group 7650" transform="translate(0 0)">
          <ellipse id="Ellipse_279" data-name="Ellipse 279" cx="4.932" cy="14.171" rx="4.932" ry="14.171" transform="translate(0 9.515) rotate(-74.69)" fill="#c4d7f2"/>
          <g id="Group_7649" data-name="Group 7649" transform="translate(7.56 5.321)">
            <path id="Path_13865" data-name="Path 13865" d="M2448.16,3285.1l-.681-1.252q1.751.264,1.928-.383.189-.691-1.1-1.043a2.652,2.652,0,0,0-.9-.109,1.274,1.274,0,0,0-.778.415,3.1,3.1,0,0,1-2.809,1.068,9.848,9.848,0,0,1-2.3-.37,10.076,10.076,0,0,1-3.208-1.436q-1.271-.906-.992-1.925.209-.765,1.356-1.028a8.224,8.224,0,0,1,3.162.1l.406,1.271q-2.05-.366-2.277.463a.66.66,0,0,0,.281.719,2.721,2.721,0,0,0,1.009.487,2.242,2.242,0,0,0,1.023.088,1.815,1.815,0,0,0,.838-.51,3.293,3.293,0,0,1,1.916-.931,8.137,8.137,0,0,1,2.974.38,9.7,9.7,0,0,1,3.082,1.363q1.176.84.95,1.667Q2451.637,3285.6,2448.16,3285.1Z" transform="translate(-2437.265 -3278.928)" fill="#fff"/>
          </g>
        </g>
      </g>
      <g id="Group_7654" data-name="Group 7654" transform="translate(98.201 217.223)">
        <path id="Path_13866" data-name="Path 13866" d="M1956.352,3372.061l-.7-3.759-5.129.949a36.683,36.683,0,0,0-17.611,3.26l-5.129.949.7,3.759c.5,2.678,7.136,3.7,14.832,2.27S1956.848,3374.739,1956.352,3372.061Z" transform="translate(-1926.89 -3363.452)" fill="#9fbad6"/>
        <g id="Group_7653" data-name="Group 7653" transform="translate(0 0)">
          <ellipse id="Ellipse_280" data-name="Ellipse 280" cx="14.171" cy="4.932" rx="14.171" ry="4.932" transform="translate(0 5.159) rotate(-10.488)" fill="#c4d7f2"/>
          <g id="Group_7652" data-name="Group 7652" transform="translate(7.298 4.869)">
            <path id="Path_13867" data-name="Path 13867" d="M2021.606,3372.291l-1.158-.831q1.692-.524,1.57-1.184-.131-.7-1.444-.461a2.654,2.654,0,0,0-.862.3,1.275,1.275,0,0,0-.52.712,3.1,3.1,0,0,1-2.064,2.184,9.845,9.845,0,0,1-2.233.669,10.086,10.086,0,0,1-3.513.1q-1.539-.262-1.731-1.3a1.6,1.6,0,0,1,.774-1.516,8.219,8.219,0,0,1,2.893-1.282l.919.967q-2,.563-1.848,1.408a.66.66,0,0,0,.566.524,2.715,2.715,0,0,0,1.121,0,2.243,2.243,0,0,0,.959-.365,1.815,1.815,0,0,0,.532-.824,3.29,3.29,0,0,1,1.319-1.672,8.127,8.127,0,0,1,2.843-.953,9.7,9.7,0,0,1,3.368-.115q1.425.245,1.581,1.088Q2024.953,3371.229,2021.606,3372.291Z" transform="translate(-2009.63 -3368.551)" fill="#fff"/>
          </g>
        </g>
      </g>
    </g>
  </g>
</svg>
