<svg xmlns="http://www.w3.org/2000/svg" width="18" height="18" viewBox="0 0 18 18">
    <path data-name="Rectangle 17304" style="fill:none" d="M0 0h18v18H0z"/>
    <path data-name="heart(9)" d="M12.6 1.917a4.609 4.609 0 0 0-3.959 2.377A4.609 4.609 0 0 0 4.68 1.917 4.9 4.9 0 0 0 0 6.995c0 3.275 3.447 6.851 6.338 9.276a3.582 3.582 0 0 0 4.609 0c2.891-2.425 6.338-6 6.338-9.276A4.9 4.9 0 0 0 12.6 1.917zm-2.58 13.252a2.141 2.141 0 0 1-2.758 0c-3.7-3.1-5.823-6.084-5.823-8.174A3.457 3.457 0 0 1 4.68 3.357a3.457 3.457 0 0 1 3.241 3.638.72.72 0 1 0 1.44 0A3.457 3.457 0 0 1 12.6 3.357a3.457 3.457 0 0 1 3.241 3.637c0 2.091-2.122 5.07-5.823 8.172z" transform="translate(.359 -.514)" style="fill:#dd4a48"/>
</svg>
